0
SECTION
2
HEADER
9
$INSUNITS
70
4
0
ENDSEC
0
SECTION
2
TABLES
0
TABLE
2
LTYPE
0
LTYPE
72
65
70
64
2
CONTINUOUS
3
______
73
0
40
0
0
ENDTAB
0
TABLE
2
LAYER
0
ENDTAB
0
ENDSEC
0
SECTION
2
ENTITIES
0
LINE
8
0
10
-7.5
20
-4.5
11
7.5
21
-4.5
0
LINE
8
0
10
9.5
20
-2.5
11
9.5
21
3.5
0
LINE
8
0
10
-9.5
20
-2.5
11
-9.5
21
69.5
0
LINE
8
0
10
7.5
20
71.5
11
-7.5
21
71.5
0
LINE
8
0
10
11.5
20
5.5
11
26.5
21
5.5
0
LINE
8
0
10
28.5
20
78.5
11
28.5
21
79.5
0
LINE
8
0
10
26.5
20
81.5
11
11.5
21
81.5
0
LINE
8
0
10
9.5
20
79.5
11
9.5
21
73.5
0
LINE
8
0
10
30.5
20
0.5
11
45.5
21
0.5
0
LINE
8
0
10
28.5
20
3.5
11
28.5
21
2.5
0
LINE
8
0
10
47.5
20
68.5
11
47.5
21
74.5
0
LINE
8
0
10
45.5
20
76.5
11
30.5
21
76.5
0
LINE
8
0
10
66.5
20
-3.8905754
11
66.5
21
64.5
0
LINE
8
0
10
47.5
20
-1.5
11
47.5
21
-3.1365163
0
LINE
8
0
10
64.5
20
66.5
11
49.5
21
66.5
0
LINE
8
0
10
51.2635995
20
-40.6580349
11
68.0053313
21
-37.706016
0
LINE
8
0
10
46.9314963
20
-27.6069974
11
48.9466877
21
-39.0357158
0
LINE
8
0
10
68.0053313
20
-37.7060159
11
86.7166786
21
-34.4067006
0
LINE
8
0
10
83.4173633
20
-15.6953533
11
70.9685495
21
-17.890415
0
LINE
8
0
10
86.7166786
20
-34.4067005
11
103.4584104
21
-31.4546815
0
LINE
8
0
10
105.0807295
20
-29.1377697
11
102.4760069
21
-14.3656534
0
LINE
8
0
10
100.1590951
20
-12.7433343
11
83.4173633
21
-15.6953532
0
LINE
8
0
10
12.4696155
20
-31.6527036
11
44.6145844
21
-25.9846783
0
LINE
8
0
10
68.6516376
20
-16.2680959
11
66.5303845
21
-4.2378718
0
LINE
8
0
10
47.5
20
-3.1365163
11
8.6493556
21
-9.9869331
0
LINE
8
0
10
7.0270365
20
-12.3038449
11
10.1527037
21
-30.0303845
0
ARC
8
0
10
7.5
20
-2.5
40
2
50
270
51
0
0
ARC
8
0
10
11.5
20
3.5
40
2
50
90
51
180
0
ARC
8
0
10
26.5
20
3.5
40
2
50
0
51
90
0
ARC
8
0
10
30.5
20
2.5
40
2
50
180
51
270
0
ARC
8
0
10
45.5
20
-1.5
40
2
50
0
51
90
0
ARC
8
0
10
8.996652
20
-11.9565486
40
2
50
100.0000008
51
190.0000008
0
ARC
8
0
10
12.1223192
20
-29.6830881
40
2
50
190.0000008
51
280.0000008
0
ARC
8
0
10
44.9618808
20
-27.9542938
40
2
50
10.0000008
51
100.0000008
0
ARC
8
0
10
50.9163031
20
-38.6884195
40
2
50
190.0000008
51
280.0000008
0
ARC
8
0
10
103.1111141
20
-29.4850661
40
2
50
280.0000008
51
10.0000008
0
ARC
8
0
10
100.5063915
20
-14.7129497
40
2
50
10.0000008
51
100.0000008
0
ARC
8
0
10
70.6212531
20
-15.9207995
40
2
50
190.0000008
51
280.0000008
0
ARC
8
0
10
68.5
20
-3.8905754
40
2
50
180
51
190.0000008
0
ARC
8
0
10
64.5
20
64.5
40
2
50
0
51
90
0
ARC
8
0
10
49.5
20
68.5
40
2
50
180
51
270
0
ARC
8
0
10
45.5
20
74.5
40
2
50
0
51
90
0
ARC
8
0
10
30.5
20
78.5
40
2
50
180
51
270
0
ARC
8
0
10
26.5
20
79.5
40
2
50
0
51
90
0
ARC
8
0
10
11.5
20
79.5
40
2
50
90
51
180
0
ARC
8
0
10
7.5
20
73.5
40
2
50
270
51
0
0
ARC
8
0
10
-7.5
20
69.5
40
2
50
90
51
180
0
ARC
8
0
10
-7.5
20
-2.5
40
2
50
180
51
270
0
ENDSEC
0
EOF