M48
; DRILL file {KiCad (6.0.6)} date Tue 19 Jul 2022 09:34:39 PM CEST
; FORMAT={-:-/ absolute / inch / decimal}
; #@! TF.CreationDate,2022-07-19T21:34:39+02:00
; #@! TF.GenerationSoftware,Kicad,Pcbnew,(6.0.6)
; #@! TF.FileFunction,NonPlated,1,2,NPTH
FMAT,2
INCH
; #@! TA.AperFunction,NonPlated,NPTH,ComponentDrill
T1C0.0670
; #@! TA.AperFunction,NonPlated,NPTH,ComponentDrill
T2C0.1181
; #@! TA.AperFunction,NonPlated,NPTH,ComponentDrill
T3C0.1570
%
G90
G05
T1
X2.6007Y-2.878
X2.6007Y-3.626
X2.6007Y-4.374
X2.6007Y-5.122
X3.0007Y-2.878
X3.0007Y-3.626
X3.0007Y-4.374
X3.0007Y-5.122
X3.3487Y-2.4843
X3.3487Y-3.2323
X3.3487Y-3.9803
X3.3487Y-4.7283
X3.7487Y-2.4843
X3.7487Y-3.2323
X3.7487Y-3.9803
X3.7487Y-4.7283
X4.0968Y-2.6811
X4.0968Y-3.4291
X4.0968Y-4.1772
X4.0968Y-4.9252
X4.4968Y-2.6811
X4.4968Y-3.4291
X4.4968Y-4.1772
X4.4968Y-4.9252
X4.8448Y-3.0748
X4.8448Y-3.8228
X4.8448Y-4.5709
X4.8448Y-5.3189
X4.8479Y-6.5347
X5.2418Y-6.4653
X5.2448Y-3.0748
X5.2448Y-3.8228
X5.2448Y-4.5709
X5.2448Y-5.3189
X5.5845Y-6.4048
X5.9784Y-6.3354
X6.3212Y-6.2749
X6.7151Y-6.2055
T2
X2.6507Y-2.778
X2.6507Y-3.526
X2.6507Y-4.274
X2.6507Y-5.022
X2.9007Y-2.678
X2.9007Y-3.426
X2.9007Y-4.174
X2.9007Y-4.922
X3.3987Y-2.3843
X3.3987Y-3.1323
X3.3987Y-3.8803
X3.3987Y-4.6283
X3.6487Y-2.2843
X3.6487Y-3.0323
X3.6487Y-3.7803
X3.6487Y-4.5283
X4.1468Y-2.5811
X4.1468Y-3.3291
X4.1468Y-4.0772
X4.1468Y-4.8252
X4.3968Y-2.4811
X4.3968Y-3.2291
X4.3968Y-3.9772
X4.3968Y-4.7252
X4.8797Y-6.4276
X4.8948Y-2.9748
X4.8948Y-3.7228
X4.8948Y-4.4709
X4.8948Y-5.2189
X5.1086Y-6.2857
X5.1448Y-2.8748
X5.1448Y-3.6228
X5.1448Y-4.3709
X5.1448Y-5.1189
X5.6164Y-6.2977
X5.8452Y-6.1558
X6.3531Y-6.1678
X6.5819Y-6.0259
T3
X2.8007Y-2.878
X2.8007Y-3.626
X2.8007Y-4.374
X2.8007Y-5.122
X3.5488Y-2.4843
X3.5488Y-3.2323
X3.5488Y-3.9803
X3.5488Y-4.7283
X4.2968Y-2.6811
X4.2968Y-3.4291
X4.2968Y-4.1772
X4.2968Y-4.9252
X5.0448Y-3.0748
X5.0448Y-3.8228
X5.0448Y-4.5709
X5.0448Y-5.3189
X5.0448Y-6.5
X5.7815Y-6.3701
X6.5181Y-6.2402
T0
M30
