M48
; DRILL file {KiCad (6.0.6)} date Tue 19 Jul 2022 09:34:39 PM CEST
; FORMAT={-:-/ absolute / inch / decimal}
; #@! TF.CreationDate,2022-07-19T21:34:39+02:00
; #@! TF.GenerationSoftware,Kicad,Pcbnew,(6.0.6)
; #@! TF.FileFunction,Plated,1,2,PTH
FMAT,2
INCH
; #@! TA.AperFunction,Plated,PTH,ComponentDrill
T1C0.0390
; #@! TA.AperFunction,Plated,PTH,ComponentDrill
T2C0.0430
%
G90
G05
T1
X2.6507Y-3.0748
X2.6507Y-3.8228
X2.6507Y-4.5709
X2.6507Y-5.3189
X2.9507Y-3.0748
X2.9507Y-3.8228
X2.9507Y-4.5709
X2.9507Y-5.3189
X3.3987Y-2.6811
X3.3987Y-3.4291
X3.3987Y-4.1772
X3.3987Y-4.9252
X3.6987Y-2.6811
X3.6987Y-3.4291
X3.6987Y-4.1772
X3.6987Y-4.9252
X4.1468Y-2.878
X4.1468Y-3.626
X4.1468Y-4.374
X4.1468Y-5.122
X4.4468Y-2.878
X4.4468Y-3.626
X4.4468Y-4.374
X4.4468Y-5.122
X4.8948Y-3.2717
X4.8948Y-4.0197
X4.8948Y-4.7677
X4.8948Y-5.5157
X4.9313Y-6.7199
X5.1948Y-3.2717
X5.1948Y-4.0197
X5.1948Y-4.7677
X5.1948Y-5.5157
X5.2267Y-6.6678
X5.6679Y-6.59
X5.9634Y-6.5379
X6.4046Y-6.4601
X6.7001Y-6.408
T2
X3.3239Y-5.8162
X3.4224Y-5.7988
X3.4281Y-6.4071
X3.5209Y-5.7815
X3.5266Y-6.3897
X3.6194Y-5.7641
X3.6251Y-6.3724
X3.7178Y-5.7467
X3.7235Y-6.355
X3.8163Y-5.7294
X3.822Y-6.3376
X3.9148Y-5.712
X3.9205Y-6.3203
X4.0133Y-5.6947
X4.019Y-6.3029
X4.1118Y-5.6773
X4.1175Y-6.2855
X4.2102Y-5.6599
X4.2159Y-6.2682
X4.3087Y-5.6426
X4.3144Y-6.2508
X4.4072Y-5.6252
X4.4129Y-6.2334
X4.5114Y-6.2161
T0
M30
