  0
SECTION
  2
HEADER
  9
$ANGBASE
  50
0.0
  9
$ANGDIR
  70
1
  9
$MEASUREMENT
  70
0
  0
ENDSEC
  0
SECTION
  2
TABLES
  0
TABLE
  2
LTYPE
  70
4
  0
LTYPE
  5
40F
  2
CONTINUOUS
  70
0
  3
Solid line
  72
65
  73
0
  40
0.0
  0
LTYPE
  5
410
  2
DASHDOT
 70
0
  3
Dash Dot ____ _ ____ _
 72
65
 73
4
 40
2.0
 49
1.25
 49
-0.25
 49
0.25
 49
-0.25
  0
LTYPE
  5
411
  2
DASHED
 70
0
  3
Dashed __ __ __ __ __
 72
65
 73
2
 40
0.75
 49
0.5
 49
-0.25
  0
LTYPE
  5
43B
  2
DOTTED
 70
0
  3
Dotted .  .  .  .
 72
65
 73
2
 40
0.2
 49
0.0
 49
-0.2
  0
ENDTAB
  0
TABLE
  2
STYLE
  70
4
  0
STYLE
  2
KICAD
  70
0
  40
0
  41
1
  42
1
  50
0
  71
0
  3
isocp.shx
  0
STYLE
  2
KICADB
  70
0
  40
0
  41
1
  42
1
  50
0
  71
0
  3
isocp.shx
  0
STYLE
  2
KICADI
  70
0
  40
0
  41
1
  42
1
  50
15
  71
0
  3
isocp.shx
  0
STYLE
  2
KICADBI
  70
0
  40
0
  41
1
  42
1
  50
15
  71
0
  3
isocp.shx
  0
ENDTAB
  0
TABLE
  2
LAYER
  70
1
  0
LAYER
  2
BLACK
  70
0
  62
7
  6
CONTINUOUS
  0
ENDTAB
  0
ENDSEC
  0
SECTION
  2
ENTITIES
0
LINE
8
BLACK
6
CONTINUOUS
10
5.06279
20
-6.67332
11
5.0636
21
-6.67459
0
LINE
8
BLACK
6
CONTINUOUS
10
5.0636
20
-6.67459
11
5.06673
21
-6.69229
0
LINE
8
BLACK
6
CONTINUOUS
10
5.06673
20
-6.69229
11
5.08459
21
-6.67522
0
LINE
8
BLACK
6
CONTINUOUS
10
5.08459
20
-6.67522
11
5.08513
21
-6.67501
0
LINE
8
BLACK
6
CONTINUOUS
10
5.08513
20
-6.67501
11
5.08561
21
-6.6747
0
LINE
8
BLACK
6
CONTINUOUS
10
5.08561
20
-6.6747
11
5.08581
21
-6.67475
0
LINE
8
BLACK
6
CONTINUOUS
10
5.08581
20
-6.67475
11
5.086
21
-6.67467
0
LINE
8
BLACK
6
CONTINUOUS
10
5.086
20
-6.67467
11
5.08652
21
-6.67491
0
LINE
8
BLACK
6
CONTINUOUS
10
5.08652
20
-6.67491
11
5.08708
21
-6.67503
0
LINE
8
BLACK
6
CONTINUOUS
10
5.08708
20
-6.67503
11
5.08719
21
-6.6752
0
LINE
8
BLACK
6
CONTINUOUS
10
5.08719
20
-6.6752
11
5.08738
21
-6.67528
0
LINE
8
BLACK
6
CONTINUOUS
10
5.08738
20
-6.67528
11
5.08758
21
-6.67582
0
LINE
8
BLACK
6
CONTINUOUS
10
5.08758
20
-6.67582
11
5.08789
21
-6.6763
0
LINE
8
BLACK
6
CONTINUOUS
10
5.08789
20
-6.6763
11
5.09029
21
-6.68987
0
LINE
8
BLACK
6
CONTINUOUS
10
5.09029
20
-6.68987
11
5.10773
21
-6.68679
0
LINE
8
BLACK
6
CONTINUOUS
10
5.10773
20
-6.68679
11
5.1092
21
-6.68712
0
LINE
8
BLACK
6
CONTINUOUS
10
5.1092
20
-6.68712
11
5.11001
21
-6.68839
0
LINE
8
BLACK
6
CONTINUOUS
10
5.11001
20
-6.68839
11
5.10969
21
-6.68986
0
LINE
8
BLACK
6
CONTINUOUS
10
5.10969
20
-6.68986
11
5.10842
21
-6.69067
0
LINE
8
BLACK
6
CONTINUOUS
10
5.10842
20
-6.69067
11
5.09097
21
-6.69375
0
LINE
8
BLACK
6
CONTINUOUS
10
5.09097
20
-6.69375
11
5.09336
21
-6.70732
0
LINE
8
BLACK
6
CONTINUOUS
10
5.09336
20
-6.70732
11
5.09324
21
-6.70788
0
LINE
8
BLACK
6
CONTINUOUS
10
5.09324
20
-6.70788
11
5.09323
21
-6.70845
0
LINE
8
BLACK
6
CONTINUOUS
10
5.09323
20
-6.70845
11
5.09308
21
-6.70859
0
LINE
8
BLACK
6
CONTINUOUS
10
5.09308
20
-6.70859
11
5.09304
21
-6.70879
0
LINE
8
BLACK
6
CONTINUOUS
10
5.09304
20
-6.70879
11
5.09255
21
-6.7091
0
LINE
8
BLACK
6
CONTINUOUS
10
5.09255
20
-6.7091
11
5.09214
21
-6.70949
0
LINE
8
BLACK
6
CONTINUOUS
10
5.09214
20
-6.70949
11
5.09194
21
-6.70949
0
LINE
8
BLACK
6
CONTINUOUS
10
5.09194
20
-6.70949
11
5.09177
21
-6.7096
0
LINE
8
BLACK
6
CONTINUOUS
10
5.09177
20
-6.7096
11
5.09121
21
-6.70947
0
LINE
8
BLACK
6
CONTINUOUS
10
5.09121
20
-6.70947
11
5.09063
21
-6.70946
0
LINE
8
BLACK
6
CONTINUOUS
10
5.09063
20
-6.70946
11
5.068
21
-6.69953
0
LINE
8
BLACK
6
CONTINUOUS
10
5.068
20
-6.69953
11
5.07112
21
-6.71724
0
LINE
8
BLACK
6
CONTINUOUS
10
5.07112
20
-6.71724
11
5.0708
21
-6.71871
0
LINE
8
BLACK
6
CONTINUOUS
10
5.0708
20
-6.71871
11
5.06953
21
-6.71952
0
LINE
8
BLACK
6
CONTINUOUS
10
5.06953
20
-6.71952
11
5.06806
21
-6.71919
0
LINE
8
BLACK
6
CONTINUOUS
10
5.06806
20
-6.71919
11
5.06725
21
-6.71792
0
LINE
8
BLACK
6
CONTINUOUS
10
5.06725
20
-6.71792
11
5.06383
21
-6.69853
0
LINE
8
BLACK
6
CONTINUOUS
10
5.06383
20
-6.69853
11
5.05026
21
-6.70093
0
LINE
8
BLACK
6
CONTINUOUS
10
5.05026
20
-6.70093
11
5.04879
21
-6.7006
0
LINE
8
BLACK
6
CONTINUOUS
10
5.04879
20
-6.7006
11
5.04798
21
-6.69933
0
LINE
8
BLACK
6
CONTINUOUS
10
5.04798
20
-6.69933
11
5.0483
21
-6.69786
0
LINE
8
BLACK
6
CONTINUOUS
10
5.0483
20
-6.69786
11
5.04957
21
-6.69705
0
LINE
8
BLACK
6
CONTINUOUS
10
5.04957
20
-6.69705
11
5.06315
21
-6.69466
0
LINE
8
BLACK
6
CONTINUOUS
10
5.06315
20
-6.69466
11
5.05973
21
-6.67527
0
LINE
8
BLACK
6
CONTINUOUS
10
5.05973
20
-6.67527
11
5.06005
21
-6.6738
0
LINE
8
BLACK
6
CONTINUOUS
10
5.06005
20
-6.6738
11
5.06132
21
-6.67299
0
LINE
8
BLACK
6
CONTINUOUS
10
5.06132
20
-6.67299
11
5.06279
21
-6.67332
0
LINE
8
BLACK
6
CONTINUOUS
10
5.06892
20
-6.69564
11
5.08885
21
-6.70438
0
LINE
8
BLACK
6
CONTINUOUS
10
5.08885
20
-6.70438
11
5.08465
21
-6.68061
0
LINE
8
BLACK
6
CONTINUOUS
10
5.08465
20
-6.68061
11
5.06892
21
-6.69564
0
LINE
8
BLACK
6
CONTINUOUS
10
5.79946
20
-6.54342
11
5.80027
21
-6.54469
0
LINE
8
BLACK
6
CONTINUOUS
10
5.80027
20
-6.54469
11
5.80339
21
-6.56239
0
LINE
8
BLACK
6
CONTINUOUS
10
5.80339
20
-6.56239
11
5.82126
21
-6.54532
0
LINE
8
BLACK
6
CONTINUOUS
10
5.82126
20
-6.54532
11
5.8218
21
-6.54512
0
LINE
8
BLACK
6
CONTINUOUS
10
5.8218
20
-6.54512
11
5.82228
21
-6.54481
0
LINE
8
BLACK
6
CONTINUOUS
10
5.82228
20
-6.54481
11
5.82248
21
-6.54485
0
LINE
8
BLACK
6
CONTINUOUS
10
5.82248
20
-6.54485
11
5.82267
21
-6.54478
0
LINE
8
BLACK
6
CONTINUOUS
10
5.82267
20
-6.54478
11
5.82319
21
-6.54501
0
LINE
8
BLACK
6
CONTINUOUS
10
5.82319
20
-6.54501
11
5.82375
21
-6.54514
0
LINE
8
BLACK
6
CONTINUOUS
10
5.82375
20
-6.54514
11
5.82386
21
-6.54531
0
LINE
8
BLACK
6
CONTINUOUS
10
5.82386
20
-6.54531
11
5.82404
21
-6.54539
0
LINE
8
BLACK
6
CONTINUOUS
10
5.82404
20
-6.54539
11
5.82425
21
-6.54592
0
LINE
8
BLACK
6
CONTINUOUS
10
5.82425
20
-6.54592
11
5.82456
21
-6.54641
0
LINE
8
BLACK
6
CONTINUOUS
10
5.82456
20
-6.54641
11
5.82695
21
-6.55998
0
LINE
8
BLACK
6
CONTINUOUS
10
5.82695
20
-6.55998
11
5.8444
21
-6.5569
0
LINE
8
BLACK
6
CONTINUOUS
10
5.8444
20
-6.5569
11
5.84587
21
-6.55723
0
LINE
8
BLACK
6
CONTINUOUS
10
5.84587
20
-6.55723
11
5.84668
21
-6.5585
0
LINE
8
BLACK
6
CONTINUOUS
10
5.84668
20
-6.5585
11
5.84635
21
-6.55997
0
LINE
8
BLACK
6
CONTINUOUS
10
5.84635
20
-6.55997
11
5.84508
21
-6.56078
0
LINE
8
BLACK
6
CONTINUOUS
10
5.84508
20
-6.56078
11
5.82764
21
-6.56385
0
LINE
8
BLACK
6
CONTINUOUS
10
5.82764
20
-6.56385
11
5.83003
21
-6.57742
0
LINE
8
BLACK
6
CONTINUOUS
10
5.83003
20
-6.57742
11
5.82991
21
-6.57798
0
LINE
8
BLACK
6
CONTINUOUS
10
5.82991
20
-6.57798
11
5.82989
21
-6.57856
0
LINE
8
BLACK
6
CONTINUOUS
10
5.82989
20
-6.57856
11
5.82975
21
-6.5787
0
LINE
8
BLACK
6
CONTINUOUS
10
5.82975
20
-6.5787
11
5.8297
21
-6.57889
0
LINE
8
BLACK
6
CONTINUOUS
10
5.8297
20
-6.57889
11
5.82922
21
-6.5792
0
LINE
8
BLACK
6
CONTINUOUS
10
5.82922
20
-6.5792
11
5.82881
21
-6.5796
0
LINE
8
BLACK
6
CONTINUOUS
10
5.82881
20
-6.5796
11
5.8286
21
-6.57959
0
LINE
8
BLACK
6
CONTINUOUS
10
5.8286
20
-6.57959
11
5.82843
21
-6.5797
0
LINE
8
BLACK
6
CONTINUOUS
10
5.82843
20
-6.5797
11
5.82787
21
-6.57958
0
LINE
8
BLACK
6
CONTINUOUS
10
5.82787
20
-6.57958
11
5.8273
21
-6.57957
0
LINE
8
BLACK
6
CONTINUOUS
10
5.8273
20
-6.57957
11
5.80467
21
-6.56964
0
LINE
8
BLACK
6
CONTINUOUS
10
5.80467
20
-6.56964
11
5.80779
21
-6.58734
0
LINE
8
BLACK
6
CONTINUOUS
10
5.80779
20
-6.58734
11
5.80747
21
-6.58881
0
LINE
8
BLACK
6
CONTINUOUS
10
5.80747
20
-6.58881
11
5.80619
21
-6.58962
0
LINE
8
BLACK
6
CONTINUOUS
10
5.80619
20
-6.58962
11
5.80472
21
-6.5893
0
LINE
8
BLACK
6
CONTINUOUS
10
5.80472
20
-6.5893
11
5.80391
21
-6.58802
0
LINE
8
BLACK
6
CONTINUOUS
10
5.80391
20
-6.58802
11
5.8005
21
-6.56864
0
LINE
8
BLACK
6
CONTINUOUS
10
5.8005
20
-6.56864
11
5.78693
21
-6.57103
0
LINE
8
BLACK
6
CONTINUOUS
10
5.78693
20
-6.57103
11
5.78545
21
-6.57071
0
LINE
8
BLACK
6
CONTINUOUS
10
5.78545
20
-6.57071
11
5.78465
21
-6.56943
0
LINE
8
BLACK
6
CONTINUOUS
10
5.78465
20
-6.56943
11
5.78497
21
-6.56796
0
LINE
8
BLACK
6
CONTINUOUS
10
5.78497
20
-6.56796
11
5.78624
21
-6.56715
0
LINE
8
BLACK
6
CONTINUOUS
10
5.78624
20
-6.56715
11
5.79981
21
-6.56476
0
LINE
8
BLACK
6
CONTINUOUS
10
5.79981
20
-6.56476
11
5.79639
21
-6.54538
0
LINE
8
BLACK
6
CONTINUOUS
10
5.79639
20
-6.54538
11
5.79672
21
-6.5439
0
LINE
8
BLACK
6
CONTINUOUS
10
5.79672
20
-6.5439
11
5.79799
21
-6.5431
0
LINE
8
BLACK
6
CONTINUOUS
10
5.79799
20
-6.5431
11
5.79946
21
-6.54342
0
LINE
8
BLACK
6
CONTINUOUS
10
5.80559
20
-6.56574
11
5.82551
21
-6.57448
0
LINE
8
BLACK
6
CONTINUOUS
10
5.82551
20
-6.57448
11
5.82132
21
-6.55071
0
LINE
8
BLACK
6
CONTINUOUS
10
5.82132
20
-6.55071
11
5.80559
21
-6.56574
0
LINE
8
BLACK
6
CONTINUOUS
10
6.53613
20
-6.41353
11
6.53694
21
-6.4148
0
LINE
8
BLACK
6
CONTINUOUS
10
6.53694
20
-6.4148
11
6.54006
21
-6.4325
0
LINE
8
BLACK
6
CONTINUOUS
10
6.54006
20
-6.4325
11
6.55793
21
-6.41543
0
LINE
8
BLACK
6
CONTINUOUS
10
6.55793
20
-6.41543
11
6.55846
21
-6.41522
0
LINE
8
BLACK
6
CONTINUOUS
10
6.55846
20
-6.41522
11
6.55895
21
-6.41491
0
LINE
8
BLACK
6
CONTINUOUS
10
6.55895
20
-6.41491
11
6.55914
21
-6.41496
0
LINE
8
BLACK
6
CONTINUOUS
10
6.55914
20
-6.41496
11
6.55933
21
-6.41489
0
LINE
8
BLACK
6
CONTINUOUS
10
6.55933
20
-6.41489
11
6.55986
21
-6.41512
0
LINE
8
BLACK
6
CONTINUOUS
10
6.55986
20
-6.41512
11
6.56042
21
-6.41524
0
LINE
8
BLACK
6
CONTINUOUS
10
6.56042
20
-6.41524
11
6.56053
21
-6.41541
0
LINE
8
BLACK
6
CONTINUOUS
10
6.56053
20
-6.41541
11
6.56071
21
-6.41549
0
LINE
8
BLACK
6
CONTINUOUS
10
6.56071
20
-6.41549
11
6.56092
21
-6.41603
0
LINE
8
BLACK
6
CONTINUOUS
10
6.56092
20
-6.41603
11
6.56123
21
-6.41651
0
LINE
8
BLACK
6
CONTINUOUS
10
6.56123
20
-6.41651
11
6.56362
21
-6.43008
0
LINE
8
BLACK
6
CONTINUOUS
10
6.56362
20
-6.43008
11
6.58107
21
-6.42701
0
LINE
8
BLACK
6
CONTINUOUS
10
6.58107
20
-6.42701
11
6.58254
21
-6.42733
0
LINE
8
BLACK
6
CONTINUOUS
10
6.58254
20
-6.42733
11
6.58335
21
-6.4286
0
LINE
8
BLACK
6
CONTINUOUS
10
6.58335
20
-6.4286
11
6.58302
21
-6.43007
0
LINE
8
BLACK
6
CONTINUOUS
10
6.58302
20
-6.43007
11
6.58175
21
-6.43088
0
LINE
8
BLACK
6
CONTINUOUS
10
6.58175
20
-6.43088
11
6.5643
21
-6.43396
0
LINE
8
BLACK
6
CONTINUOUS
10
6.5643
20
-6.43396
11
6.5667
21
-6.44753
0
LINE
8
BLACK
6
CONTINUOUS
10
6.5667
20
-6.44753
11
6.56657
21
-6.44809
0
LINE
8
BLACK
6
CONTINUOUS
10
6.56657
20
-6.44809
11
6.56656
21
-6.44866
0
LINE
8
BLACK
6
CONTINUOUS
10
6.56656
20
-6.44866
11
6.56641
21
-6.4488
0
LINE
8
BLACK
6
CONTINUOUS
10
6.56641
20
-6.4488
11
6.56637
21
-6.449
0
LINE
8
BLACK
6
CONTINUOUS
10
6.56637
20
-6.449
11
6.56589
21
-6.44931
0
LINE
8
BLACK
6
CONTINUOUS
10
6.56589
20
-6.44931
11
6.56547
21
-6.4497
0
LINE
8
BLACK
6
CONTINUOUS
10
6.56547
20
-6.4497
11
6.56527
21
-6.4497
0
LINE
8
BLACK
6
CONTINUOUS
10
6.56527
20
-6.4497
11
6.5651
21
-6.44981
0
LINE
8
BLACK
6
CONTINUOUS
10
6.5651
20
-6.44981
11
6.56454
21
-6.44969
0
LINE
8
BLACK
6
CONTINUOUS
10
6.56454
20
-6.44969
11
6.56397
21
-6.44967
0
LINE
8
BLACK
6
CONTINUOUS
10
6.56397
20
-6.44967
11
6.54134
21
-6.43974
0
LINE
8
BLACK
6
CONTINUOUS
10
6.54134
20
-6.43974
11
6.54446
21
-6.45745
0
LINE
8
BLACK
6
CONTINUOUS
10
6.54446
20
-6.45745
11
6.54413
21
-6.45892
0
LINE
8
BLACK
6
CONTINUOUS
10
6.54413
20
-6.45892
11
6.54286
21
-6.45973
0
LINE
8
BLACK
6
CONTINUOUS
10
6.54286
20
-6.45973
11
6.54139
21
-6.4594
0
LINE
8
BLACK
6
CONTINUOUS
10
6.54139
20
-6.4594
11
6.54058
21
-6.45813
0
LINE
8
BLACK
6
CONTINUOUS
10
6.54058
20
-6.45813
11
6.53716
21
-6.43874
0
LINE
8
BLACK
6
CONTINUOUS
10
6.53716
20
-6.43874
11
6.52359
21
-6.44114
0
LINE
8
BLACK
6
CONTINUOUS
10
6.52359
20
-6.44114
11
6.52212
21
-6.44081
0
LINE
8
BLACK
6
CONTINUOUS
10
6.52212
20
-6.44081
11
6.52131
21
-6.43954
0
LINE
8
BLACK
6
CONTINUOUS
10
6.52131
20
-6.43954
11
6.52164
21
-6.43807
0
LINE
8
BLACK
6
CONTINUOUS
10
6.52164
20
-6.43807
11
6.52291
21
-6.43726
0
LINE
8
BLACK
6
CONTINUOUS
10
6.52291
20
-6.43726
11
6.53648
21
-6.43487
0
LINE
8
BLACK
6
CONTINUOUS
10
6.53648
20
-6.43487
11
6.53306
21
-6.41548
0
LINE
8
BLACK
6
CONTINUOUS
10
6.53306
20
-6.41548
11
6.53339
21
-6.41401
0
LINE
8
BLACK
6
CONTINUOUS
10
6.53339
20
-6.41401
11
6.53466
21
-6.4132
0
LINE
8
BLACK
6
CONTINUOUS
10
6.53466
20
-6.4132
11
6.53613
21
-6.41353
0
LINE
8
BLACK
6
CONTINUOUS
10
6.54225
20
-6.43585
11
6.56218
21
-6.44459
0
LINE
8
BLACK
6
CONTINUOUS
10
6.56218
20
-6.44459
11
6.55799
21
-6.42082
0
LINE
8
BLACK
6
CONTINUOUS
10
6.55799
20
-6.42082
11
6.54225
21
-6.43585
0
LINE
8
BLACK
6
CONTINUOUS
10
3.46806
20
-6.43508
11
3.40011
21
-6.44706
0
LINE
8
BLACK
6
CONTINUOUS
10
3.40011
20
-6.44706
11
3.38813
21
-6.37911
0
LINE
8
BLACK
6
CONTINUOUS
10
3.38813
20
-6.37911
11
3.45608
21
-6.36712
0
LINE
8
BLACK
6
CONTINUOUS
10
3.45608
20
-6.36712
11
3.46806
21
-6.43508
0
LINE
8
BLACK
6
CONTINUOUS
10
3.53724
20
-6.35691
11
3.54383
21
-6.35985
0
LINE
8
BLACK
6
CONTINUOUS
10
3.54383
20
-6.35985
11
3.54966
21
-6.36409
0
LINE
8
BLACK
6
CONTINUOUS
10
3.54966
20
-6.36409
11
3.55449
21
-6.36945
0
LINE
8
BLACK
6
CONTINUOUS
10
3.55449
20
-6.36945
11
3.5581
21
-6.37569
0
LINE
8
BLACK
6
CONTINUOUS
10
3.5581
20
-6.37569
11
3.56032
21
-6.38255
0
LINE
8
BLACK
6
CONTINUOUS
10
3.56032
20
-6.38255
11
3.56108
21
-6.38973
0
LINE
8
BLACK
6
CONTINUOUS
10
3.56108
20
-6.38973
11
3.56032
21
-6.3969
0
LINE
8
BLACK
6
CONTINUOUS
10
3.56032
20
-6.3969
11
3.5581
21
-6.40376
0
LINE
8
BLACK
6
CONTINUOUS
10
3.5581
20
-6.40376
11
3.55449
21
-6.41
0
LINE
8
BLACK
6
CONTINUOUS
10
3.55449
20
-6.41
11
3.54966
21
-6.41536
0
LINE
8
BLACK
6
CONTINUOUS
10
3.54966
20
-6.41536
11
3.54383
21
-6.4196
0
LINE
8
BLACK
6
CONTINUOUS
10
3.54383
20
-6.4196
11
3.53724
21
-6.42254
0
LINE
8
BLACK
6
CONTINUOUS
10
3.53724
20
-6.42254
11
3.53018
21
-6.42404
0
LINE
8
BLACK
6
CONTINUOUS
10
3.53018
20
-6.42404
11
3.52297
21
-6.42404
0
LINE
8
BLACK
6
CONTINUOUS
10
3.52297
20
-6.42404
11
3.51592
21
-6.42254
0
LINE
8
BLACK
6
CONTINUOUS
10
3.51592
20
-6.42254
11
3.50933
21
-6.4196
0
LINE
8
BLACK
6
CONTINUOUS
10
3.50933
20
-6.4196
11
3.50349
21
-6.41536
0
LINE
8
BLACK
6
CONTINUOUS
10
3.50349
20
-6.41536
11
3.49867
21
-6.41
0
LINE
8
BLACK
6
CONTINUOUS
10
3.49867
20
-6.41
11
3.49506
21
-6.40376
0
LINE
8
BLACK
6
CONTINUOUS
10
3.49506
20
-6.40376
11
3.49283
21
-6.3969
0
LINE
8
BLACK
6
CONTINUOUS
10
3.49283
20
-6.3969
11
3.49208
21
-6.38973
0
LINE
8
BLACK
6
CONTINUOUS
10
3.49208
20
-6.38973
11
3.49283
21
-6.38255
0
LINE
8
BLACK
6
CONTINUOUS
10
3.49283
20
-6.38255
11
3.49506
21
-6.37569
0
LINE
8
BLACK
6
CONTINUOUS
10
3.49506
20
-6.37569
11
3.49867
21
-6.36945
0
LINE
8
BLACK
6
CONTINUOUS
10
3.49867
20
-6.36945
11
3.50349
21
-6.36409
0
LINE
8
BLACK
6
CONTINUOUS
10
3.50349
20
-6.36409
11
3.50933
21
-6.35985
0
LINE
8
BLACK
6
CONTINUOUS
10
3.50933
20
-6.35985
11
3.51592
21
-6.35691
0
LINE
8
BLACK
6
CONTINUOUS
10
3.51592
20
-6.35691
11
3.52297
21
-6.35541
0
LINE
8
BLACK
6
CONTINUOUS
10
3.52297
20
-6.35541
11
3.53018
21
-6.35541
0
LINE
8
BLACK
6
CONTINUOUS
10
3.53018
20
-6.35541
11
3.53724
21
-6.35691
0
LINE
8
BLACK
6
CONTINUOUS
10
3.63572
20
-6.33955
11
3.64231
21
-6.34248
0
LINE
8
BLACK
6
CONTINUOUS
10
3.64231
20
-6.34248
11
3.64814
21
-6.34672
0
LINE
8
BLACK
6
CONTINUOUS
10
3.64814
20
-6.34672
11
3.65297
21
-6.35208
0
LINE
8
BLACK
6
CONTINUOUS
10
3.65297
20
-6.35208
11
3.65658
21
-6.35833
0
LINE
8
BLACK
6
CONTINUOUS
10
3.65658
20
-6.35833
11
3.65881
21
-6.36519
0
LINE
8
BLACK
6
CONTINUOUS
10
3.65881
20
-6.36519
11
3.65956
21
-6.37236
0
LINE
8
BLACK
6
CONTINUOUS
10
3.65956
20
-6.37236
11
3.65881
21
-6.37953
0
LINE
8
BLACK
6
CONTINUOUS
10
3.65881
20
-6.37953
11
3.65658
21
-6.38639
0
LINE
8
BLACK
6
CONTINUOUS
10
3.65658
20
-6.38639
11
3.65297
21
-6.39264
0
LINE
8
BLACK
6
CONTINUOUS
10
3.65297
20
-6.39264
11
3.64814
21
-6.398
0
LINE
8
BLACK
6
CONTINUOUS
10
3.64814
20
-6.398
11
3.64231
21
-6.40224
0
LINE
8
BLACK
6
CONTINUOUS
10
3.64231
20
-6.40224
11
3.63572
21
-6.40517
0
LINE
8
BLACK
6
CONTINUOUS
10
3.63572
20
-6.40517
11
3.62867
21
-6.40667
0
LINE
8
BLACK
6
CONTINUOUS
10
3.62867
20
-6.40667
11
3.62145
21
-6.40667
0
LINE
8
BLACK
6
CONTINUOUS
10
3.62145
20
-6.40667
11
3.6144
21
-6.40517
0
LINE
8
BLACK
6
CONTINUOUS
10
3.6144
20
-6.40517
11
3.60781
21
-6.40224
0
LINE
8
BLACK
6
CONTINUOUS
10
3.60781
20
-6.40224
11
3.60197
21
-6.398
0
LINE
8
BLACK
6
CONTINUOUS
10
3.60197
20
-6.398
11
3.59715
21
-6.39264
0
LINE
8
BLACK
6
CONTINUOUS
10
3.59715
20
-6.39264
11
3.59354
21
-6.38639
0
LINE
8
BLACK
6
CONTINUOUS
10
3.59354
20
-6.38639
11
3.59131
21
-6.37953
0
LINE
8
BLACK
6
CONTINUOUS
10
3.59131
20
-6.37953
11
3.59056
21
-6.37236
0
LINE
8
BLACK
6
CONTINUOUS
10
3.59056
20
-6.37236
11
3.59131
21
-6.36519
0
LINE
8
BLACK
6
CONTINUOUS
10
3.59131
20
-6.36519
11
3.59354
21
-6.35833
0
LINE
8
BLACK
6
CONTINUOUS
10
3.59354
20
-6.35833
11
3.59715
21
-6.35208
0
LINE
8
BLACK
6
CONTINUOUS
10
3.59715
20
-6.35208
11
3.60197
21
-6.34672
0
LINE
8
BLACK
6
CONTINUOUS
10
3.60197
20
-6.34672
11
3.60781
21
-6.34248
0
LINE
8
BLACK
6
CONTINUOUS
10
3.60781
20
-6.34248
11
3.6144
21
-6.33955
0
LINE
8
BLACK
6
CONTINUOUS
10
3.6144
20
-6.33955
11
3.62145
21
-6.33805
0
LINE
8
BLACK
6
CONTINUOUS
10
3.62145
20
-6.33805
11
3.62867
21
-6.33805
0
LINE
8
BLACK
6
CONTINUOUS
10
3.62867
20
-6.33805
11
3.63572
21
-6.33955
0
LINE
8
BLACK
6
CONTINUOUS
10
3.7342
20
-6.32218
11
3.74079
21
-6.32512
0
LINE
8
BLACK
6
CONTINUOUS
10
3.74079
20
-6.32512
11
3.74663
21
-6.32936
0
LINE
8
BLACK
6
CONTINUOUS
10
3.74663
20
-6.32936
11
3.75145
21
-6.33472
0
LINE
8
BLACK
6
CONTINUOUS
10
3.75145
20
-6.33472
11
3.75506
21
-6.34096
0
LINE
8
BLACK
6
CONTINUOUS
10
3.75506
20
-6.34096
11
3.75729
21
-6.34782
0
LINE
8
BLACK
6
CONTINUOUS
10
3.75729
20
-6.34782
11
3.75804
21
-6.355
0
LINE
8
BLACK
6
CONTINUOUS
10
3.75804
20
-6.355
11
3.75729
21
-6.36217
0
LINE
8
BLACK
6
CONTINUOUS
10
3.75729
20
-6.36217
11
3.75506
21
-6.36903
0
LINE
8
BLACK
6
CONTINUOUS
10
3.75506
20
-6.36903
11
3.75145
21
-6.37527
0
LINE
8
BLACK
6
CONTINUOUS
10
3.75145
20
-6.37527
11
3.74663
21
-6.38063
0
LINE
8
BLACK
6
CONTINUOUS
10
3.74663
20
-6.38063
11
3.74079
21
-6.38487
0
LINE
8
BLACK
6
CONTINUOUS
10
3.74079
20
-6.38487
11
3.7342
21
-6.38781
0
LINE
8
BLACK
6
CONTINUOUS
10
3.7342
20
-6.38781
11
3.72715
21
-6.38931
0
LINE
8
BLACK
6
CONTINUOUS
10
3.72715
20
-6.38931
11
3.71993
21
-6.38931
0
LINE
8
BLACK
6
CONTINUOUS
10
3.71993
20
-6.38931
11
3.71288
21
-6.38781
0
LINE
8
BLACK
6
CONTINUOUS
10
3.71288
20
-6.38781
11
3.70629
21
-6.38487
0
LINE
8
BLACK
6
CONTINUOUS
10
3.70629
20
-6.38487
11
3.70046
21
-6.38063
0
LINE
8
BLACK
6
CONTINUOUS
10
3.70046
20
-6.38063
11
3.69563
21
-6.37527
0
LINE
8
BLACK
6
CONTINUOUS
10
3.69563
20
-6.37527
11
3.69202
21
-6.36903
0
LINE
8
BLACK
6
CONTINUOUS
10
3.69202
20
-6.36903
11
3.68979
21
-6.36217
0
LINE
8
BLACK
6
CONTINUOUS
10
3.68979
20
-6.36217
11
3.68904
21
-6.355
0
LINE
8
BLACK
6
CONTINUOUS
10
3.68904
20
-6.355
11
3.68979
21
-6.34782
0
LINE
8
BLACK
6
CONTINUOUS
10
3.68979
20
-6.34782
11
3.69202
21
-6.34096
0
LINE
8
BLACK
6
CONTINUOUS
10
3.69202
20
-6.34096
11
3.69563
21
-6.33472
0
LINE
8
BLACK
6
CONTINUOUS
10
3.69563
20
-6.33472
11
3.70046
21
-6.32936
0
LINE
8
BLACK
6
CONTINUOUS
10
3.70046
20
-6.32936
11
3.70629
21
-6.32512
0
LINE
8
BLACK
6
CONTINUOUS
10
3.70629
20
-6.32512
11
3.71288
21
-6.32218
0
LINE
8
BLACK
6
CONTINUOUS
10
3.71288
20
-6.32218
11
3.71993
21
-6.32069
0
LINE
8
BLACK
6
CONTINUOUS
10
3.71993
20
-6.32069
11
3.72715
21
-6.32069
0
LINE
8
BLACK
6
CONTINUOUS
10
3.72715
20
-6.32069
11
3.7342
21
-6.32218
0
LINE
8
BLACK
6
CONTINUOUS
10
3.83268
20
-6.30482
11
3.83927
21
-6.30775
0
LINE
8
BLACK
6
CONTINUOUS
10
3.83927
20
-6.30775
11
3.84511
21
-6.31199
0
LINE
8
BLACK
6
CONTINUOUS
10
3.84511
20
-6.31199
11
3.84993
21
-6.31735
0
LINE
8
BLACK
6
CONTINUOUS
10
3.84993
20
-6.31735
11
3.85354
21
-6.3236
0
LINE
8
BLACK
6
CONTINUOUS
10
3.85354
20
-6.3236
11
3.85577
21
-6.33046
0
LINE
8
BLACK
6
CONTINUOUS
10
3.85577
20
-6.33046
11
3.85652
21
-6.33763
0
LINE
8
BLACK
6
CONTINUOUS
10
3.85652
20
-6.33763
11
3.85577
21
-6.3448
0
LINE
8
BLACK
6
CONTINUOUS
10
3.85577
20
-6.3448
11
3.85354
21
-6.35166
0
LINE
8
BLACK
6
CONTINUOUS
10
3.85354
20
-6.35166
11
3.84993
21
-6.35791
0
LINE
8
BLACK
6
CONTINUOUS
10
3.84993
20
-6.35791
11
3.84511
21
-6.36327
0
LINE
8
BLACK
6
CONTINUOUS
10
3.84511
20
-6.36327
11
3.83927
21
-6.36751
0
LINE
8
BLACK
6
CONTINUOUS
10
3.83927
20
-6.36751
11
3.83268
21
-6.37044
0
LINE
8
BLACK
6
CONTINUOUS
10
3.83268
20
-6.37044
11
3.82563
21
-6.37194
0
LINE
8
BLACK
6
CONTINUOUS
10
3.82563
20
-6.37194
11
3.81841
21
-6.37194
0
LINE
8
BLACK
6
CONTINUOUS
10
3.81841
20
-6.37194
11
3.81136
21
-6.37044
0
LINE
8
BLACK
6
CONTINUOUS
10
3.81136
20
-6.37044
11
3.80477
21
-6.36751
0
LINE
8
BLACK
6
CONTINUOUS
10
3.80477
20
-6.36751
11
3.79894
21
-6.36327
0
LINE
8
BLACK
6
CONTINUOUS
10
3.79894
20
-6.36327
11
3.79411
21
-6.35791
0
LINE
8
BLACK
6
CONTINUOUS
10
3.79411
20
-6.35791
11
3.7905
21
-6.35166
0
LINE
8
BLACK
6
CONTINUOUS
10
3.7905
20
-6.35166
11
3.78827
21
-6.3448
0
LINE
8
BLACK
6
CONTINUOUS
10
3.78827
20
-6.3448
11
3.78752
21
-6.33763
0
LINE
8
BLACK
6
CONTINUOUS
10
3.78752
20
-6.33763
11
3.78827
21
-6.33046
0
LINE
8
BLACK
6
CONTINUOUS
10
3.78827
20
-6.33046
11
3.7905
21
-6.3236
0
LINE
8
BLACK
6
CONTINUOUS
10
3.7905
20
-6.3236
11
3.79411
21
-6.31735
0
LINE
8
BLACK
6
CONTINUOUS
10
3.79411
20
-6.31735
11
3.79894
21
-6.31199
0
LINE
8
BLACK
6
CONTINUOUS
10
3.79894
20
-6.31199
11
3.80477
21
-6.30775
0
LINE
8
BLACK
6
CONTINUOUS
10
3.80477
20
-6.30775
11
3.81136
21
-6.30482
0
LINE
8
BLACK
6
CONTINUOUS
10
3.81136
20
-6.30482
11
3.81841
21
-6.30332
0
LINE
8
BLACK
6
CONTINUOUS
10
3.81841
20
-6.30332
11
3.82563
21
-6.30332
0
LINE
8
BLACK
6
CONTINUOUS
10
3.82563
20
-6.30332
11
3.83268
21
-6.30482
0
LINE
8
BLACK
6
CONTINUOUS
10
3.93116
20
-6.28745
11
3.93775
21
-6.29039
0
LINE
8
BLACK
6
CONTINUOUS
10
3.93775
20
-6.29039
11
3.94359
21
-6.29463
0
LINE
8
BLACK
6
CONTINUOUS
10
3.94359
20
-6.29463
11
3.94841
21
-6.29999
0
LINE
8
BLACK
6
CONTINUOUS
10
3.94841
20
-6.29999
11
3.95202
21
-6.30623
0
LINE
8
BLACK
6
CONTINUOUS
10
3.95202
20
-6.30623
11
3.95425
21
-6.31309
0
LINE
8
BLACK
6
CONTINUOUS
10
3.95425
20
-6.31309
11
3.955
21
-6.32027
0
LINE
8
BLACK
6
CONTINUOUS
10
3.955
20
-6.32027
11
3.95425
21
-6.32744
0
LINE
8
BLACK
6
CONTINUOUS
10
3.95425
20
-6.32744
11
3.95202
21
-6.3343
0
LINE
8
BLACK
6
CONTINUOUS
10
3.95202
20
-6.3343
11
3.94841
21
-6.34055
0
LINE
8
BLACK
6
CONTINUOUS
10
3.94841
20
-6.34055
11
3.94359
21
-6.3459
0
LINE
8
BLACK
6
CONTINUOUS
10
3.94359
20
-6.3459
11
3.93775
21
-6.35014
0
LINE
8
BLACK
6
CONTINUOUS
10
3.93775
20
-6.35014
11
3.93116
21
-6.35308
0
LINE
8
BLACK
6
CONTINUOUS
10
3.93116
20
-6.35308
11
3.92411
21
-6.35458
0
LINE
8
BLACK
6
CONTINUOUS
10
3.92411
20
-6.35458
11
3.9169
21
-6.35458
0
LINE
8
BLACK
6
CONTINUOUS
10
3.9169
20
-6.35458
11
3.90984
21
-6.35308
0
LINE
8
BLACK
6
CONTINUOUS
10
3.90984
20
-6.35308
11
3.90325
21
-6.35014
0
LINE
8
BLACK
6
CONTINUOUS
10
3.90325
20
-6.35014
11
3.89742
21
-6.3459
0
LINE
8
BLACK
6
CONTINUOUS
10
3.89742
20
-6.3459
11
3.89259
21
-6.34055
0
LINE
8
BLACK
6
CONTINUOUS
10
3.89259
20
-6.34055
11
3.88898
21
-6.3343
0
LINE
8
BLACK
6
CONTINUOUS
10
3.88898
20
-6.3343
11
3.88676
21
-6.32744
0
LINE
8
BLACK
6
CONTINUOUS
10
3.88676
20
-6.32744
11
3.886
21
-6.32027
0
LINE
8
BLACK
6
CONTINUOUS
10
3.886
20
-6.32027
11
3.88676
21
-6.31309
0
LINE
8
BLACK
6
CONTINUOUS
10
3.88676
20
-6.31309
11
3.88898
21
-6.30623
0
LINE
8
BLACK
6
CONTINUOUS
10
3.88898
20
-6.30623
11
3.89259
21
-6.29999
0
LINE
8
BLACK
6
CONTINUOUS
10
3.89259
20
-6.29999
11
3.89742
21
-6.29463
0
LINE
8
BLACK
6
CONTINUOUS
10
3.89742
20
-6.29463
11
3.90325
21
-6.29039
0
LINE
8
BLACK
6
CONTINUOUS
10
3.90325
20
-6.29039
11
3.90984
21
-6.28745
0
LINE
8
BLACK
6
CONTINUOUS
10
3.90984
20
-6.28745
11
3.9169
21
-6.28596
0
LINE
8
BLACK
6
CONTINUOUS
10
3.9169
20
-6.28596
11
3.92411
21
-6.28596
0
LINE
8
BLACK
6
CONTINUOUS
10
3.92411
20
-6.28596
11
3.93116
21
-6.28745
0
LINE
8
BLACK
6
CONTINUOUS
10
4.02964
20
-6.27009
11
4.03623
21
-6.27302
0
LINE
8
BLACK
6
CONTINUOUS
10
4.03623
20
-6.27302
11
4.04207
21
-6.27726
0
LINE
8
BLACK
6
CONTINUOUS
10
4.04207
20
-6.27726
11
4.04689
21
-6.28262
0
LINE
8
BLACK
6
CONTINUOUS
10
4.04689
20
-6.28262
11
4.0505
21
-6.28887
0
LINE
8
BLACK
6
CONTINUOUS
10
4.0505
20
-6.28887
11
4.05273
21
-6.29573
0
LINE
8
BLACK
6
CONTINUOUS
10
4.05273
20
-6.29573
11
4.05348
21
-6.3029
0
LINE
8
BLACK
6
CONTINUOUS
10
4.05348
20
-6.3029
11
4.05273
21
-6.31007
0
LINE
8
BLACK
6
CONTINUOUS
10
4.05273
20
-6.31007
11
4.0505
21
-6.31693
0
LINE
8
BLACK
6
CONTINUOUS
10
4.0505
20
-6.31693
11
4.04689
21
-6.32318
0
LINE
8
BLACK
6
CONTINUOUS
10
4.04689
20
-6.32318
11
4.04207
21
-6.32854
0
LINE
8
BLACK
6
CONTINUOUS
10
4.04207
20
-6.32854
11
4.03623
21
-6.33278
0
LINE
8
BLACK
6
CONTINUOUS
10
4.03623
20
-6.33278
11
4.02964
21
-6.33571
0
LINE
8
BLACK
6
CONTINUOUS
10
4.02964
20
-6.33571
11
4.02259
21
-6.33721
0
LINE
8
BLACK
6
CONTINUOUS
10
4.02259
20
-6.33721
11
4.01538
21
-6.33721
0
LINE
8
BLACK
6
CONTINUOUS
10
4.01538
20
-6.33721
11
4.00832
21
-6.33571
0
LINE
8
BLACK
6
CONTINUOUS
10
4.00832
20
-6.33571
11
4.00173
21
-6.33278
0
LINE
8
BLACK
6
CONTINUOUS
10
4.00173
20
-6.33278
11
3.9959
21
-6.32854
0
LINE
8
BLACK
6
CONTINUOUS
10
3.9959
20
-6.32854
11
3.99107
21
-6.32318
0
LINE
8
BLACK
6
CONTINUOUS
10
3.99107
20
-6.32318
11
3.98747
21
-6.31693
0
LINE
8
BLACK
6
CONTINUOUS
10
3.98747
20
-6.31693
11
3.98524
21
-6.31007
0
LINE
8
BLACK
6
CONTINUOUS
10
3.98524
20
-6.31007
11
3.98448
21
-6.3029
0
LINE
8
BLACK
6
CONTINUOUS
10
3.98448
20
-6.3029
11
3.98524
21
-6.29573
0
LINE
8
BLACK
6
CONTINUOUS
10
3.98524
20
-6.29573
11
3.98747
21
-6.28887
0
LINE
8
BLACK
6
CONTINUOUS
10
3.98747
20
-6.28887
11
3.99107
21
-6.28262
0
LINE
8
BLACK
6
CONTINUOUS
10
3.99107
20
-6.28262
11
3.9959
21
-6.27726
0
LINE
8
BLACK
6
CONTINUOUS
10
3.9959
20
-6.27726
11
4.00173
21
-6.27302
0
LINE
8
BLACK
6
CONTINUOUS
10
4.00173
20
-6.27302
11
4.00832
21
-6.27009
0
LINE
8
BLACK
6
CONTINUOUS
10
4.00832
20
-6.27009
11
4.01538
21
-6.26859
0
LINE
8
BLACK
6
CONTINUOUS
10
4.01538
20
-6.26859
11
4.02259
21
-6.26859
0
LINE
8
BLACK
6
CONTINUOUS
10
4.02259
20
-6.26859
11
4.02964
21
-6.27009
0
LINE
8
BLACK
6
CONTINUOUS
10
4.12812
20
-6.25273
11
4.13471
21
-6.25566
0
LINE
8
BLACK
6
CONTINUOUS
10
4.13471
20
-6.25566
11
4.14055
21
-6.2599
0
LINE
8
BLACK
6
CONTINUOUS
10
4.14055
20
-6.2599
11
4.14537
21
-6.26526
0
LINE
8
BLACK
6
CONTINUOUS
10
4.14537
20
-6.26526
11
4.14898
21
-6.2715
0
LINE
8
BLACK
6
CONTINUOUS
10
4.14898
20
-6.2715
11
4.15121
21
-6.27836
0
LINE
8
BLACK
6
CONTINUOUS
10
4.15121
20
-6.27836
11
4.15196
21
-6.28554
0
LINE
8
BLACK
6
CONTINUOUS
10
4.15196
20
-6.28554
11
4.15121
21
-6.29271
0
LINE
8
BLACK
6
CONTINUOUS
10
4.15121
20
-6.29271
11
4.14898
21
-6.29957
0
LINE
8
BLACK
6
CONTINUOUS
10
4.14898
20
-6.29957
11
4.14537
21
-6.30582
0
LINE
8
BLACK
6
CONTINUOUS
10
4.14537
20
-6.30582
11
4.14055
21
-6.31118
0
LINE
8
BLACK
6
CONTINUOUS
10
4.14055
20
-6.31118
11
4.13471
21
-6.31541
0
LINE
8
BLACK
6
CONTINUOUS
10
4.13471
20
-6.31541
11
4.12812
21
-6.31835
0
LINE
8
BLACK
6
CONTINUOUS
10
4.12812
20
-6.31835
11
4.12107
21
-6.31985
0
LINE
8
BLACK
6
CONTINUOUS
10
4.12107
20
-6.31985
11
4.11386
21
-6.31985
0
LINE
8
BLACK
6
CONTINUOUS
10
4.11386
20
-6.31985
11
4.1068
21
-6.31835
0
LINE
8
BLACK
6
CONTINUOUS
10
4.1068
20
-6.31835
11
4.10021
21
-6.31541
0
LINE
8
BLACK
6
CONTINUOUS
10
4.10021
20
-6.31541
11
4.09438
21
-6.31118
0
LINE
8
BLACK
6
CONTINUOUS
10
4.09438
20
-6.31118
11
4.08955
21
-6.30582
0
LINE
8
BLACK
6
CONTINUOUS
10
4.08955
20
-6.30582
11
4.08595
21
-6.29957
0
LINE
8
BLACK
6
CONTINUOUS
10
4.08595
20
-6.29957
11
4.08372
21
-6.29271
0
LINE
8
BLACK
6
CONTINUOUS
10
4.08372
20
-6.29271
11
4.08296
21
-6.28554
0
LINE
8
BLACK
6
CONTINUOUS
10
4.08296
20
-6.28554
11
4.08372
21
-6.27836
0
LINE
8
BLACK
6
CONTINUOUS
10
4.08372
20
-6.27836
11
4.08595
21
-6.2715
0
LINE
8
BLACK
6
CONTINUOUS
10
4.08595
20
-6.2715
11
4.08955
21
-6.26526
0
LINE
8
BLACK
6
CONTINUOUS
10
4.08955
20
-6.26526
11
4.09438
21
-6.2599
0
LINE
8
BLACK
6
CONTINUOUS
10
4.09438
20
-6.2599
11
4.10021
21
-6.25566
0
LINE
8
BLACK
6
CONTINUOUS
10
4.10021
20
-6.25566
11
4.1068
21
-6.25273
0
LINE
8
BLACK
6
CONTINUOUS
10
4.1068
20
-6.25273
11
4.11386
21
-6.25123
0
LINE
8
BLACK
6
CONTINUOUS
10
4.11386
20
-6.25123
11
4.12107
21
-6.25123
0
LINE
8
BLACK
6
CONTINUOUS
10
4.12107
20
-6.25123
11
4.12812
21
-6.25273
0
LINE
8
BLACK
6
CONTINUOUS
10
4.22661
20
-6.23536
11
4.23319
21
-6.23829
0
LINE
8
BLACK
6
CONTINUOUS
10
4.23319
20
-6.23829
11
4.23903
21
-6.24253
0
LINE
8
BLACK
6
CONTINUOUS
10
4.23903
20
-6.24253
11
4.24386
21
-6.24789
0
LINE
8
BLACK
6
CONTINUOUS
10
4.24386
20
-6.24789
11
4.24746
21
-6.25414
0
LINE
8
BLACK
6
CONTINUOUS
10
4.24746
20
-6.25414
11
4.24969
21
-6.261
0
LINE
8
BLACK
6
CONTINUOUS
10
4.24969
20
-6.261
11
4.25044
21
-6.26817
0
LINE
8
BLACK
6
CONTINUOUS
10
4.25044
20
-6.26817
11
4.24969
21
-6.27534
0
LINE
8
BLACK
6
CONTINUOUS
10
4.24969
20
-6.27534
11
4.24746
21
-6.2822
0
LINE
8
BLACK
6
CONTINUOUS
10
4.24746
20
-6.2822
11
4.24386
21
-6.28845
0
LINE
8
BLACK
6
CONTINUOUS
10
4.24386
20
-6.28845
11
4.23903
21
-6.29381
0
LINE
8
BLACK
6
CONTINUOUS
10
4.23903
20
-6.29381
11
4.23319
21
-6.29805
0
LINE
8
BLACK
6
CONTINUOUS
10
4.23319
20
-6.29805
11
4.22661
21
-6.30098
0
LINE
8
BLACK
6
CONTINUOUS
10
4.22661
20
-6.30098
11
4.21955
21
-6.30248
0
LINE
8
BLACK
6
CONTINUOUS
10
4.21955
20
-6.30248
11
4.21234
21
-6.30248
0
LINE
8
BLACK
6
CONTINUOUS
10
4.21234
20
-6.30248
11
4.20528
21
-6.30098
0
LINE
8
BLACK
6
CONTINUOUS
10
4.20528
20
-6.30098
11
4.19869
21
-6.29805
0
LINE
8
BLACK
6
CONTINUOUS
10
4.19869
20
-6.29805
11
4.19286
21
-6.29381
0
LINE
8
BLACK
6
CONTINUOUS
10
4.19286
20
-6.29381
11
4.18803
21
-6.28845
0
LINE
8
BLACK
6
CONTINUOUS
10
4.18803
20
-6.28845
11
4.18443
21
-6.2822
0
LINE
8
BLACK
6
CONTINUOUS
10
4.18443
20
-6.2822
11
4.1822
21
-6.27534
0
LINE
8
BLACK
6
CONTINUOUS
10
4.1822
20
-6.27534
11
4.18144
21
-6.26817
0
LINE
8
BLACK
6
CONTINUOUS
10
4.18144
20
-6.26817
11
4.1822
21
-6.261
0
LINE
8
BLACK
6
CONTINUOUS
10
4.1822
20
-6.261
11
4.18443
21
-6.25414
0
LINE
8
BLACK
6
CONTINUOUS
10
4.18443
20
-6.25414
11
4.18803
21
-6.24789
0
LINE
8
BLACK
6
CONTINUOUS
10
4.18803
20
-6.24789
11
4.19286
21
-6.24253
0
LINE
8
BLACK
6
CONTINUOUS
10
4.19286
20
-6.24253
11
4.19869
21
-6.23829
0
LINE
8
BLACK
6
CONTINUOUS
10
4.19869
20
-6.23829
11
4.20528
21
-6.23536
0
LINE
8
BLACK
6
CONTINUOUS
10
4.20528
20
-6.23536
11
4.21234
21
-6.23386
0
LINE
8
BLACK
6
CONTINUOUS
10
4.21234
20
-6.23386
11
4.21955
21
-6.23386
0
LINE
8
BLACK
6
CONTINUOUS
10
4.21955
20
-6.23386
11
4.22661
21
-6.23536
0
LINE
8
BLACK
6
CONTINUOUS
10
4.32509
20
-6.218
11
4.33167
21
-6.22093
0
LINE
8
BLACK
6
CONTINUOUS
10
4.33167
20
-6.22093
11
4.33751
21
-6.22517
0
LINE
8
BLACK
6
CONTINUOUS
10
4.33751
20
-6.22517
11
4.34234
21
-6.23053
0
LINE
8
BLACK
6
CONTINUOUS
10
4.34234
20
-6.23053
11
4.34594
21
-6.23677
0
LINE
8
BLACK
6
CONTINUOUS
10
4.34594
20
-6.23677
11
4.34817
21
-6.24363
0
LINE
8
BLACK
6
CONTINUOUS
10
4.34817
20
-6.24363
11
4.34892
21
-6.25081
0
LINE
8
BLACK
6
CONTINUOUS
10
4.34892
20
-6.25081
11
4.34817
21
-6.25798
0
LINE
8
BLACK
6
CONTINUOUS
10
4.34817
20
-6.25798
11
4.34594
21
-6.26484
0
LINE
8
BLACK
6
CONTINUOUS
10
4.34594
20
-6.26484
11
4.34234
21
-6.27109
0
LINE
8
BLACK
6
CONTINUOUS
10
4.34234
20
-6.27109
11
4.33751
21
-6.27645
0
LINE
8
BLACK
6
CONTINUOUS
10
4.33751
20
-6.27645
11
4.33167
21
-6.28069
0
LINE
8
BLACK
6
CONTINUOUS
10
4.33167
20
-6.28069
11
4.32509
21
-6.28362
0
LINE
8
BLACK
6
CONTINUOUS
10
4.32509
20
-6.28362
11
4.31803
21
-6.28512
0
LINE
8
BLACK
6
CONTINUOUS
10
4.31803
20
-6.28512
11
4.31082
21
-6.28512
0
LINE
8
BLACK
6
CONTINUOUS
10
4.31082
20
-6.28512
11
4.30376
21
-6.28362
0
LINE
8
BLACK
6
CONTINUOUS
10
4.30376
20
-6.28362
11
4.29717
21
-6.28069
0
LINE
8
BLACK
6
CONTINUOUS
10
4.29717
20
-6.28069
11
4.29134
21
-6.27645
0
LINE
8
BLACK
6
CONTINUOUS
10
4.29134
20
-6.27645
11
4.28651
21
-6.27109
0
LINE
8
BLACK
6
CONTINUOUS
10
4.28651
20
-6.27109
11
4.28291
21
-6.26484
0
LINE
8
BLACK
6
CONTINUOUS
10
4.28291
20
-6.26484
11
4.28068
21
-6.25798
0
LINE
8
BLACK
6
CONTINUOUS
10
4.28068
20
-6.25798
11
4.27992
21
-6.25081
0
LINE
8
BLACK
6
CONTINUOUS
10
4.27992
20
-6.25081
11
4.28068
21
-6.24363
0
LINE
8
BLACK
6
CONTINUOUS
10
4.28068
20
-6.24363
11
4.28291
21
-6.23677
0
LINE
8
BLACK
6
CONTINUOUS
10
4.28291
20
-6.23677
11
4.28651
21
-6.23053
0
LINE
8
BLACK
6
CONTINUOUS
10
4.28651
20
-6.23053
11
4.29134
21
-6.22517
0
LINE
8
BLACK
6
CONTINUOUS
10
4.29134
20
-6.22517
11
4.29717
21
-6.22093
0
LINE
8
BLACK
6
CONTINUOUS
10
4.29717
20
-6.22093
11
4.30376
21
-6.218
0
LINE
8
BLACK
6
CONTINUOUS
10
4.30376
20
-6.218
11
4.31082
21
-6.2165
0
LINE
8
BLACK
6
CONTINUOUS
10
4.31082
20
-6.2165
11
4.31803
21
-6.2165
0
LINE
8
BLACK
6
CONTINUOUS
10
4.31803
20
-6.2165
11
4.32509
21
-6.218
0
LINE
8
BLACK
6
CONTINUOUS
10
4.42357
20
-6.20063
11
4.43016
21
-6.20356
0
LINE
8
BLACK
6
CONTINUOUS
10
4.43016
20
-6.20356
11
4.43599
21
-6.2078
0
LINE
8
BLACK
6
CONTINUOUS
10
4.43599
20
-6.2078
11
4.44082
21
-6.21316
0
LINE
8
BLACK
6
CONTINUOUS
10
4.44082
20
-6.21316
11
4.44442
21
-6.21941
0
LINE
8
BLACK
6
CONTINUOUS
10
4.44442
20
-6.21941
11
4.44665
21
-6.22627
0
LINE
8
BLACK
6
CONTINUOUS
10
4.44665
20
-6.22627
11
4.44741
21
-6.23344
0
LINE
8
BLACK
6
CONTINUOUS
10
4.44741
20
-6.23344
11
4.44665
21
-6.24062
0
LINE
8
BLACK
6
CONTINUOUS
10
4.44665
20
-6.24062
11
4.44442
21
-6.24747
0
LINE
8
BLACK
6
CONTINUOUS
10
4.44442
20
-6.24747
11
4.44082
21
-6.25372
0
LINE
8
BLACK
6
CONTINUOUS
10
4.44082
20
-6.25372
11
4.43599
21
-6.25908
0
LINE
8
BLACK
6
CONTINUOUS
10
4.43599
20
-6.25908
11
4.43016
21
-6.26332
0
LINE
8
BLACK
6
CONTINUOUS
10
4.43016
20
-6.26332
11
4.42357
21
-6.26625
0
LINE
8
BLACK
6
CONTINUOUS
10
4.42357
20
-6.26625
11
4.41651
21
-6.26775
0
LINE
8
BLACK
6
CONTINUOUS
10
4.41651
20
-6.26775
11
4.4093
21
-6.26775
0
LINE
8
BLACK
6
CONTINUOUS
10
4.4093
20
-6.26775
11
4.40224
21
-6.26625
0
LINE
8
BLACK
6
CONTINUOUS
10
4.40224
20
-6.26625
11
4.39566
21
-6.26332
0
LINE
8
BLACK
6
CONTINUOUS
10
4.39566
20
-6.26332
11
4.38982
21
-6.25908
0
LINE
8
BLACK
6
CONTINUOUS
10
4.38982
20
-6.25908
11
4.38499
21
-6.25372
0
LINE
8
BLACK
6
CONTINUOUS
10
4.38499
20
-6.25372
11
4.38139
21
-6.24747
0
LINE
8
BLACK
6
CONTINUOUS
10
4.38139
20
-6.24747
11
4.37916
21
-6.24062
0
LINE
8
BLACK
6
CONTINUOUS
10
4.37916
20
-6.24062
11
4.37841
21
-6.23344
0
LINE
8
BLACK
6
CONTINUOUS
10
4.37841
20
-6.23344
11
4.37916
21
-6.22627
0
LINE
8
BLACK
6
CONTINUOUS
10
4.37916
20
-6.22627
11
4.38139
21
-6.21941
0
LINE
8
BLACK
6
CONTINUOUS
10
4.38139
20
-6.21941
11
4.38499
21
-6.21316
0
LINE
8
BLACK
6
CONTINUOUS
10
4.38499
20
-6.21316
11
4.38982
21
-6.2078
0
LINE
8
BLACK
6
CONTINUOUS
10
4.38982
20
-6.2078
11
4.39566
21
-6.20356
0
LINE
8
BLACK
6
CONTINUOUS
10
4.39566
20
-6.20356
11
4.40224
21
-6.20063
0
LINE
8
BLACK
6
CONTINUOUS
10
4.40224
20
-6.20063
11
4.4093
21
-6.19913
0
LINE
8
BLACK
6
CONTINUOUS
10
4.4093
20
-6.19913
11
4.41651
21
-6.19913
0
LINE
8
BLACK
6
CONTINUOUS
10
4.41651
20
-6.19913
11
4.42357
21
-6.20063
0
LINE
8
BLACK
6
CONTINUOUS
10
4.52205
20
-6.18327
11
4.52864
21
-6.1862
0
LINE
8
BLACK
6
CONTINUOUS
10
4.52864
20
-6.1862
11
4.53447
21
-6.19044
0
LINE
8
BLACK
6
CONTINUOUS
10
4.53447
20
-6.19044
11
4.5393
21
-6.1958
0
LINE
8
BLACK
6
CONTINUOUS
10
4.5393
20
-6.1958
11
4.5429
21
-6.20205
0
LINE
8
BLACK
6
CONTINUOUS
10
4.5429
20
-6.20205
11
4.54513
21
-6.2089
0
LINE
8
BLACK
6
CONTINUOUS
10
4.54513
20
-6.2089
11
4.54589
21
-6.21608
0
LINE
8
BLACK
6
CONTINUOUS
10
4.54589
20
-6.21608
11
4.54513
21
-6.22325
0
LINE
8
BLACK
6
CONTINUOUS
10
4.54513
20
-6.22325
11
4.5429
21
-6.23011
0
LINE
8
BLACK
6
CONTINUOUS
10
4.5429
20
-6.23011
11
4.5393
21
-6.23636
0
LINE
8
BLACK
6
CONTINUOUS
10
4.5393
20
-6.23636
11
4.53447
21
-6.24172
0
LINE
8
BLACK
6
CONTINUOUS
10
4.53447
20
-6.24172
11
4.52864
21
-6.24596
0
LINE
8
BLACK
6
CONTINUOUS
10
4.52864
20
-6.24596
11
4.52205
21
-6.24889
0
LINE
8
BLACK
6
CONTINUOUS
10
4.52205
20
-6.24889
11
4.51499
21
-6.25039
0
LINE
8
BLACK
6
CONTINUOUS
10
4.51499
20
-6.25039
11
4.50778
21
-6.25039
0
LINE
8
BLACK
6
CONTINUOUS
10
4.50778
20
-6.25039
11
4.50073
21
-6.24889
0
LINE
8
BLACK
6
CONTINUOUS
10
4.50073
20
-6.24889
11
4.49414
21
-6.24596
0
LINE
8
BLACK
6
CONTINUOUS
10
4.49414
20
-6.24596
11
4.4883
21
-6.24172
0
LINE
8
BLACK
6
CONTINUOUS
10
4.4883
20
-6.24172
11
4.48348
21
-6.23636
0
LINE
8
BLACK
6
CONTINUOUS
10
4.48348
20
-6.23636
11
4.47987
21
-6.23011
0
LINE
8
BLACK
6
CONTINUOUS
10
4.47987
20
-6.23011
11
4.47764
21
-6.22325
0
LINE
8
BLACK
6
CONTINUOUS
10
4.47764
20
-6.22325
11
4.47689
21
-6.21608
0
LINE
8
BLACK
6
CONTINUOUS
10
4.47689
20
-6.21608
11
4.47764
21
-6.2089
0
LINE
8
BLACK
6
CONTINUOUS
10
4.47764
20
-6.2089
11
4.47987
21
-6.20205
0
LINE
8
BLACK
6
CONTINUOUS
10
4.47987
20
-6.20205
11
4.48348
21
-6.1958
0
LINE
8
BLACK
6
CONTINUOUS
10
4.48348
20
-6.1958
11
4.4883
21
-6.19044
0
LINE
8
BLACK
6
CONTINUOUS
10
4.4883
20
-6.19044
11
4.49414
21
-6.1862
0
LINE
8
BLACK
6
CONTINUOUS
10
4.49414
20
-6.1862
11
4.50073
21
-6.18327
0
LINE
8
BLACK
6
CONTINUOUS
10
4.50073
20
-6.18327
11
4.50778
21
-6.18177
0
LINE
8
BLACK
6
CONTINUOUS
10
4.50778
20
-6.18177
11
4.51499
21
-6.18177
0
LINE
8
BLACK
6
CONTINUOUS
10
4.51499
20
-6.18177
11
4.52205
21
-6.18327
0
LINE
8
BLACK
6
CONTINUOUS
10
3.33457
20
-5.78339
11
3.34116
21
-5.78633
0
LINE
8
BLACK
6
CONTINUOUS
10
3.34116
20
-5.78633
11
3.34699
21
-5.79057
0
LINE
8
BLACK
6
CONTINUOUS
10
3.34699
20
-5.79057
11
3.35182
21
-5.79593
0
LINE
8
BLACK
6
CONTINUOUS
10
3.35182
20
-5.79593
11
3.35543
21
-5.80217
0
LINE
8
BLACK
6
CONTINUOUS
10
3.35543
20
-5.80217
11
3.35766
21
-5.80903
0
LINE
8
BLACK
6
CONTINUOUS
10
3.35766
20
-5.80903
11
3.35841
21
-5.81621
0
LINE
8
BLACK
6
CONTINUOUS
10
3.35841
20
-5.81621
11
3.35766
21
-5.82338
0
LINE
8
BLACK
6
CONTINUOUS
10
3.35766
20
-5.82338
11
3.35543
21
-5.83024
0
LINE
8
BLACK
6
CONTINUOUS
10
3.35543
20
-5.83024
11
3.35182
21
-5.83648
0
LINE
8
BLACK
6
CONTINUOUS
10
3.35182
20
-5.83648
11
3.34699
21
-5.84184
0
LINE
8
BLACK
6
CONTINUOUS
10
3.34699
20
-5.84184
11
3.34116
21
-5.84608
0
LINE
8
BLACK
6
CONTINUOUS
10
3.34116
20
-5.84608
11
3.33457
21
-5.84902
0
LINE
8
BLACK
6
CONTINUOUS
10
3.33457
20
-5.84902
11
3.32752
21
-5.85052
0
LINE
8
BLACK
6
CONTINUOUS
10
3.32752
20
-5.85052
11
3.3203
21
-5.85052
0
LINE
8
BLACK
6
CONTINUOUS
10
3.3203
20
-5.85052
11
3.31325
21
-5.84902
0
LINE
8
BLACK
6
CONTINUOUS
10
3.31325
20
-5.84902
11
3.30666
21
-5.84608
0
LINE
8
BLACK
6
CONTINUOUS
10
3.30666
20
-5.84608
11
3.30082
21
-5.84184
0
LINE
8
BLACK
6
CONTINUOUS
10
3.30082
20
-5.84184
11
3.296
21
-5.83648
0
LINE
8
BLACK
6
CONTINUOUS
10
3.296
20
-5.83648
11
3.29239
21
-5.83024
0
LINE
8
BLACK
6
CONTINUOUS
10
3.29239
20
-5.83024
11
3.29016
21
-5.82338
0
LINE
8
BLACK
6
CONTINUOUS
10
3.29016
20
-5.82338
11
3.28941
21
-5.81621
0
LINE
8
BLACK
6
CONTINUOUS
10
3.28941
20
-5.81621
11
3.29016
21
-5.80903
0
LINE
8
BLACK
6
CONTINUOUS
10
3.29016
20
-5.80903
11
3.29239
21
-5.80217
0
LINE
8
BLACK
6
CONTINUOUS
10
3.29239
20
-5.80217
11
3.296
21
-5.79593
0
LINE
8
BLACK
6
CONTINUOUS
10
3.296
20
-5.79593
11
3.30082
21
-5.79057
0
LINE
8
BLACK
6
CONTINUOUS
10
3.30082
20
-5.79057
11
3.30666
21
-5.78633
0
LINE
8
BLACK
6
CONTINUOUS
10
3.30666
20
-5.78633
11
3.31325
21
-5.78339
0
LINE
8
BLACK
6
CONTINUOUS
10
3.31325
20
-5.78339
11
3.3203
21
-5.78189
0
LINE
8
BLACK
6
CONTINUOUS
10
3.3203
20
-5.78189
11
3.32752
21
-5.78189
0
LINE
8
BLACK
6
CONTINUOUS
10
3.32752
20
-5.78189
11
3.33457
21
-5.78339
0
LINE
8
BLACK
6
CONTINUOUS
10
3.43305
20
-5.76603
11
3.43964
21
-5.76896
0
LINE
8
BLACK
6
CONTINUOUS
10
3.43964
20
-5.76896
11
3.44547
21
-5.7732
0
LINE
8
BLACK
6
CONTINUOUS
10
3.44547
20
-5.7732
11
3.4503
21
-5.77856
0
LINE
8
BLACK
6
CONTINUOUS
10
3.4503
20
-5.77856
11
3.45391
21
-5.78481
0
LINE
8
BLACK
6
CONTINUOUS
10
3.45391
20
-5.78481
11
3.45614
21
-5.79167
0
LINE
8
BLACK
6
CONTINUOUS
10
3.45614
20
-5.79167
11
3.45689
21
-5.79884
0
LINE
8
BLACK
6
CONTINUOUS
10
3.45689
20
-5.79884
11
3.45614
21
-5.80601
0
LINE
8
BLACK
6
CONTINUOUS
10
3.45614
20
-5.80601
11
3.45391
21
-5.81287
0
LINE
8
BLACK
6
CONTINUOUS
10
3.45391
20
-5.81287
11
3.4503
21
-5.81912
0
LINE
8
BLACK
6
CONTINUOUS
10
3.4503
20
-5.81912
11
3.44547
21
-5.82448
0
LINE
8
BLACK
6
CONTINUOUS
10
3.44547
20
-5.82448
11
3.43964
21
-5.82872
0
LINE
8
BLACK
6
CONTINUOUS
10
3.43964
20
-5.82872
11
3.43305
21
-5.83165
0
LINE
8
BLACK
6
CONTINUOUS
10
3.43305
20
-5.83165
11
3.426
21
-5.83315
0
LINE
8
BLACK
6
CONTINUOUS
10
3.426
20
-5.83315
11
3.41878
21
-5.83315
0
LINE
8
BLACK
6
CONTINUOUS
10
3.41878
20
-5.83315
11
3.41173
21
-5.83165
0
LINE
8
BLACK
6
CONTINUOUS
10
3.41173
20
-5.83165
11
3.40514
21
-5.82872
0
LINE
8
BLACK
6
CONTINUOUS
10
3.40514
20
-5.82872
11
3.3993
21
-5.82448
0
LINE
8
BLACK
6
CONTINUOUS
10
3.3993
20
-5.82448
11
3.39448
21
-5.81912
0
LINE
8
BLACK
6
CONTINUOUS
10
3.39448
20
-5.81912
11
3.39087
21
-5.81287
0
LINE
8
BLACK
6
CONTINUOUS
10
3.39087
20
-5.81287
11
3.38864
21
-5.80601
0
LINE
8
BLACK
6
CONTINUOUS
10
3.38864
20
-5.80601
11
3.38789
21
-5.79884
0
LINE
8
BLACK
6
CONTINUOUS
10
3.38789
20
-5.79884
11
3.38864
21
-5.79167
0
LINE
8
BLACK
6
CONTINUOUS
10
3.38864
20
-5.79167
11
3.39087
21
-5.78481
0
LINE
8
BLACK
6
CONTINUOUS
10
3.39087
20
-5.78481
11
3.39448
21
-5.77856
0
LINE
8
BLACK
6
CONTINUOUS
10
3.39448
20
-5.77856
11
3.3993
21
-5.7732
0
LINE
8
BLACK
6
CONTINUOUS
10
3.3993
20
-5.7732
11
3.40514
21
-5.76896
0
LINE
8
BLACK
6
CONTINUOUS
10
3.40514
20
-5.76896
11
3.41173
21
-5.76603
0
LINE
8
BLACK
6
CONTINUOUS
10
3.41173
20
-5.76603
11
3.41878
21
-5.76453
0
LINE
8
BLACK
6
CONTINUOUS
10
3.41878
20
-5.76453
11
3.426
21
-5.76453
0
LINE
8
BLACK
6
CONTINUOUS
10
3.426
20
-5.76453
11
3.43305
21
-5.76603
0
LINE
8
BLACK
6
CONTINUOUS
10
3.53153
20
-5.74866
11
3.53812
21
-5.7516
0
LINE
8
BLACK
6
CONTINUOUS
10
3.53812
20
-5.7516
11
3.54396
21
-5.75584
0
LINE
8
BLACK
6
CONTINUOUS
10
3.54396
20
-5.75584
11
3.54878
21
-5.7612
0
LINE
8
BLACK
6
CONTINUOUS
10
3.54878
20
-5.7612
11
3.55239
21
-5.76744
0
LINE
8
BLACK
6
CONTINUOUS
10
3.55239
20
-5.76744
11
3.55462
21
-5.7743
0
LINE
8
BLACK
6
CONTINUOUS
10
3.55462
20
-5.7743
11
3.55537
21
-5.78148
0
LINE
8
BLACK
6
CONTINUOUS
10
3.55537
20
-5.78148
11
3.55462
21
-5.78865
0
LINE
8
BLACK
6
CONTINUOUS
10
3.55462
20
-5.78865
11
3.55239
21
-5.79551
0
LINE
8
BLACK
6
CONTINUOUS
10
3.55239
20
-5.79551
11
3.54878
21
-5.80175
0
LINE
8
BLACK
6
CONTINUOUS
10
3.54878
20
-5.80175
11
3.54396
21
-5.80711
0
LINE
8
BLACK
6
CONTINUOUS
10
3.54396
20
-5.80711
11
3.53812
21
-5.81135
0
LINE
8
BLACK
6
CONTINUOUS
10
3.53812
20
-5.81135
11
3.53153
21
-5.81429
0
LINE
8
BLACK
6
CONTINUOUS
10
3.53153
20
-5.81429
11
3.52448
21
-5.81579
0
LINE
8
BLACK
6
CONTINUOUS
10
3.52448
20
-5.81579
11
3.51726
21
-5.81579
0
LINE
8
BLACK
6
CONTINUOUS
10
3.51726
20
-5.81579
11
3.51021
21
-5.81429
0
LINE
8
BLACK
6
CONTINUOUS
10
3.51021
20
-5.81429
11
3.50362
21
-5.81135
0
LINE
8
BLACK
6
CONTINUOUS
10
3.50362
20
-5.81135
11
3.49779
21
-5.80711
0
LINE
8
BLACK
6
CONTINUOUS
10
3.49779
20
-5.80711
11
3.49296
21
-5.80175
0
LINE
8
BLACK
6
CONTINUOUS
10
3.49296
20
-5.80175
11
3.48935
21
-5.79551
0
LINE
8
BLACK
6
CONTINUOUS
10
3.48935
20
-5.79551
11
3.48712
21
-5.78865
0
LINE
8
BLACK
6
CONTINUOUS
10
3.48712
20
-5.78865
11
3.48637
21
-5.78148
0
LINE
8
BLACK
6
CONTINUOUS
10
3.48637
20
-5.78148
11
3.48712
21
-5.7743
0
LINE
8
BLACK
6
CONTINUOUS
10
3.48712
20
-5.7743
11
3.48935
21
-5.76744
0
LINE
8
BLACK
6
CONTINUOUS
10
3.48935
20
-5.76744
11
3.49296
21
-5.7612
0
LINE
8
BLACK
6
CONTINUOUS
10
3.49296
20
-5.7612
11
3.49779
21
-5.75584
0
LINE
8
BLACK
6
CONTINUOUS
10
3.49779
20
-5.75584
11
3.50362
21
-5.7516
0
LINE
8
BLACK
6
CONTINUOUS
10
3.50362
20
-5.7516
11
3.51021
21
-5.74866
0
LINE
8
BLACK
6
CONTINUOUS
10
3.51021
20
-5.74866
11
3.51726
21
-5.74717
0
LINE
8
BLACK
6
CONTINUOUS
10
3.51726
20
-5.74717
11
3.52448
21
-5.74717
0
LINE
8
BLACK
6
CONTINUOUS
10
3.52448
20
-5.74717
11
3.53153
21
-5.74866
0
LINE
8
BLACK
6
CONTINUOUS
10
3.63001
20
-5.7313
11
3.6366
21
-5.73423
0
LINE
8
BLACK
6
CONTINUOUS
10
3.6366
20
-5.73423
11
3.64244
21
-5.73847
0
LINE
8
BLACK
6
CONTINUOUS
10
3.64244
20
-5.73847
11
3.64726
21
-5.74383
0
LINE
8
BLACK
6
CONTINUOUS
10
3.64726
20
-5.74383
11
3.65087
21
-5.75008
0
LINE
8
BLACK
6
CONTINUOUS
10
3.65087
20
-5.75008
11
3.6531
21
-5.75694
0
LINE
8
BLACK
6
CONTINUOUS
10
3.6531
20
-5.75694
11
3.65385
21
-5.76411
0
LINE
8
BLACK
6
CONTINUOUS
10
3.65385
20
-5.76411
11
3.6531
21
-5.77128
0
LINE
8
BLACK
6
CONTINUOUS
10
3.6531
20
-5.77128
11
3.65087
21
-5.77814
0
LINE
8
BLACK
6
CONTINUOUS
10
3.65087
20
-5.77814
11
3.64726
21
-5.78439
0
LINE
8
BLACK
6
CONTINUOUS
10
3.64726
20
-5.78439
11
3.64244
21
-5.78975
0
LINE
8
BLACK
6
CONTINUOUS
10
3.64244
20
-5.78975
11
3.6366
21
-5.79399
0
LINE
8
BLACK
6
CONTINUOUS
10
3.6366
20
-5.79399
11
3.63001
21
-5.79692
0
LINE
8
BLACK
6
CONTINUOUS
10
3.63001
20
-5.79692
11
3.62296
21
-5.79842
0
LINE
8
BLACK
6
CONTINUOUS
10
3.62296
20
-5.79842
11
3.61575
21
-5.79842
0
LINE
8
BLACK
6
CONTINUOUS
10
3.61575
20
-5.79842
11
3.60869
21
-5.79692
0
LINE
8
BLACK
6
CONTINUOUS
10
3.60869
20
-5.79692
11
3.6021
21
-5.79399
0
LINE
8
BLACK
6
CONTINUOUS
10
3.6021
20
-5.79399
11
3.59627
21
-5.78975
0
LINE
8
BLACK
6
CONTINUOUS
10
3.59627
20
-5.78975
11
3.59144
21
-5.78439
0
LINE
8
BLACK
6
CONTINUOUS
10
3.59144
20
-5.78439
11
3.58783
21
-5.77814
0
LINE
8
BLACK
6
CONTINUOUS
10
3.58783
20
-5.77814
11
3.58561
21
-5.77128
0
LINE
8
BLACK
6
CONTINUOUS
10
3.58561
20
-5.77128
11
3.58485
21
-5.76411
0
LINE
8
BLACK
6
CONTINUOUS
10
3.58485
20
-5.76411
11
3.58561
21
-5.75694
0
LINE
8
BLACK
6
CONTINUOUS
10
3.58561
20
-5.75694
11
3.58783
21
-5.75008
0
LINE
8
BLACK
6
CONTINUOUS
10
3.58783
20
-5.75008
11
3.59144
21
-5.74383
0
LINE
8
BLACK
6
CONTINUOUS
10
3.59144
20
-5.74383
11
3.59627
21
-5.73847
0
LINE
8
BLACK
6
CONTINUOUS
10
3.59627
20
-5.73847
11
3.6021
21
-5.73423
0
LINE
8
BLACK
6
CONTINUOUS
10
3.6021
20
-5.73423
11
3.60869
21
-5.7313
0
LINE
8
BLACK
6
CONTINUOUS
10
3.60869
20
-5.7313
11
3.61575
21
-5.7298
0
LINE
8
BLACK
6
CONTINUOUS
10
3.61575
20
-5.7298
11
3.62296
21
-5.7298
0
LINE
8
BLACK
6
CONTINUOUS
10
3.62296
20
-5.7298
11
3.63001
21
-5.7313
0
LINE
8
BLACK
6
CONTINUOUS
10
3.72849
20
-5.71394
11
3.73508
21
-5.71687
0
LINE
8
BLACK
6
CONTINUOUS
10
3.73508
20
-5.71687
11
3.74092
21
-5.72111
0
LINE
8
BLACK
6
CONTINUOUS
10
3.74092
20
-5.72111
11
3.74574
21
-5.72647
0
LINE
8
BLACK
6
CONTINUOUS
10
3.74574
20
-5.72647
11
3.74935
21
-5.73271
0
LINE
8
BLACK
6
CONTINUOUS
10
3.74935
20
-5.73271
11
3.75158
21
-5.73957
0
LINE
8
BLACK
6
CONTINUOUS
10
3.75158
20
-5.73957
11
3.75233
21
-5.74675
0
LINE
8
BLACK
6
CONTINUOUS
10
3.75233
20
-5.74675
11
3.75158
21
-5.75392
0
LINE
8
BLACK
6
CONTINUOUS
10
3.75158
20
-5.75392
11
3.74935
21
-5.76078
0
LINE
8
BLACK
6
CONTINUOUS
10
3.74935
20
-5.76078
11
3.74574
21
-5.76703
0
LINE
8
BLACK
6
CONTINUOUS
10
3.74574
20
-5.76703
11
3.74092
21
-5.77239
0
LINE
8
BLACK
6
CONTINUOUS
10
3.74092
20
-5.77239
11
3.73508
21
-5.77662
0
LINE
8
BLACK
6
CONTINUOUS
10
3.73508
20
-5.77662
11
3.72849
21
-5.77956
0
LINE
8
BLACK
6
CONTINUOUS
10
3.72849
20
-5.77956
11
3.72144
21
-5.78106
0
LINE
8
BLACK
6
CONTINUOUS
10
3.72144
20
-5.78106
11
3.71423
21
-5.78106
0
LINE
8
BLACK
6
CONTINUOUS
10
3.71423
20
-5.78106
11
3.70717
21
-5.77956
0
LINE
8
BLACK
6
CONTINUOUS
10
3.70717
20
-5.77956
11
3.70058
21
-5.77662
0
LINE
8
BLACK
6
CONTINUOUS
10
3.70058
20
-5.77662
11
3.69475
21
-5.77239
0
LINE
8
BLACK
6
CONTINUOUS
10
3.69475
20
-5.77239
11
3.68992
21
-5.76703
0
LINE
8
BLACK
6
CONTINUOUS
10
3.68992
20
-5.76703
11
3.68631
21
-5.76078
0
LINE
8
BLACK
6
CONTINUOUS
10
3.68631
20
-5.76078
11
3.68409
21
-5.75392
0
LINE
8
BLACK
6
CONTINUOUS
10
3.68409
20
-5.75392
11
3.68333
21
-5.74675
0
LINE
8
BLACK
6
CONTINUOUS
10
3.68333
20
-5.74675
11
3.68409
21
-5.73957
0
LINE
8
BLACK
6
CONTINUOUS
10
3.68409
20
-5.73957
11
3.68631
21
-5.73271
0
LINE
8
BLACK
6
CONTINUOUS
10
3.68631
20
-5.73271
11
3.68992
21
-5.72647
0
LINE
8
BLACK
6
CONTINUOUS
10
3.68992
20
-5.72647
11
3.69475
21
-5.72111
0
LINE
8
BLACK
6
CONTINUOUS
10
3.69475
20
-5.72111
11
3.70058
21
-5.71687
0
LINE
8
BLACK
6
CONTINUOUS
10
3.70058
20
-5.71687
11
3.70717
21
-5.71394
0
LINE
8
BLACK
6
CONTINUOUS
10
3.70717
20
-5.71394
11
3.71423
21
-5.71244
0
LINE
8
BLACK
6
CONTINUOUS
10
3.71423
20
-5.71244
11
3.72144
21
-5.71244
0
LINE
8
BLACK
6
CONTINUOUS
10
3.72144
20
-5.71244
11
3.72849
21
-5.71394
0
LINE
8
BLACK
6
CONTINUOUS
10
3.82697
20
-5.69657
11
3.83356
21
-5.6995
0
LINE
8
BLACK
6
CONTINUOUS
10
3.83356
20
-5.6995
11
3.8394
21
-5.70374
0
LINE
8
BLACK
6
CONTINUOUS
10
3.8394
20
-5.70374
11
3.84422
21
-5.7091
0
LINE
8
BLACK
6
CONTINUOUS
10
3.84422
20
-5.7091
11
3.84783
21
-5.71535
0
LINE
8
BLACK
6
CONTINUOUS
10
3.84783
20
-5.71535
11
3.85006
21
-5.72221
0
LINE
8
BLACK
6
CONTINUOUS
10
3.85006
20
-5.72221
11
3.85081
21
-5.72938
0
LINE
8
BLACK
6
CONTINUOUS
10
3.85081
20
-5.72938
11
3.85006
21
-5.73655
0
LINE
8
BLACK
6
CONTINUOUS
10
3.85006
20
-5.73655
11
3.84783
21
-5.74341
0
LINE
8
BLACK
6
CONTINUOUS
10
3.84783
20
-5.74341
11
3.84422
21
-5.74966
0
LINE
8
BLACK
6
CONTINUOUS
10
3.84422
20
-5.74966
11
3.8394
21
-5.75502
0
LINE
8
BLACK
6
CONTINUOUS
10
3.8394
20
-5.75502
11
3.83356
21
-5.75926
0
LINE
8
BLACK
6
CONTINUOUS
10
3.83356
20
-5.75926
11
3.82697
21
-5.76219
0
LINE
8
BLACK
6
CONTINUOUS
10
3.82697
20
-5.76219
11
3.81992
21
-5.76369
0
LINE
8
BLACK
6
CONTINUOUS
10
3.81992
20
-5.76369
11
3.81271
21
-5.76369
0
LINE
8
BLACK
6
CONTINUOUS
10
3.81271
20
-5.76369
11
3.80565
21
-5.76219
0
LINE
8
BLACK
6
CONTINUOUS
10
3.80565
20
-5.76219
11
3.79906
21
-5.75926
0
LINE
8
BLACK
6
CONTINUOUS
10
3.79906
20
-5.75926
11
3.79323
21
-5.75502
0
LINE
8
BLACK
6
CONTINUOUS
10
3.79323
20
-5.75502
11
3.7884
21
-5.74966
0
LINE
8
BLACK
6
CONTINUOUS
10
3.7884
20
-5.74966
11
3.7848
21
-5.74341
0
LINE
8
BLACK
6
CONTINUOUS
10
3.7848
20
-5.74341
11
3.78257
21
-5.73655
0
LINE
8
BLACK
6
CONTINUOUS
10
3.78257
20
-5.73655
11
3.78181
21
-5.72938
0
LINE
8
BLACK
6
CONTINUOUS
10
3.78181
20
-5.72938
11
3.78257
21
-5.72221
0
LINE
8
BLACK
6
CONTINUOUS
10
3.78257
20
-5.72221
11
3.7848
21
-5.71535
0
LINE
8
BLACK
6
CONTINUOUS
10
3.7848
20
-5.71535
11
3.7884
21
-5.7091
0
LINE
8
BLACK
6
CONTINUOUS
10
3.7884
20
-5.7091
11
3.79323
21
-5.70374
0
LINE
8
BLACK
6
CONTINUOUS
10
3.79323
20
-5.70374
11
3.79906
21
-5.6995
0
LINE
8
BLACK
6
CONTINUOUS
10
3.79906
20
-5.6995
11
3.80565
21
-5.69657
0
LINE
8
BLACK
6
CONTINUOUS
10
3.80565
20
-5.69657
11
3.81271
21
-5.69507
0
LINE
8
BLACK
6
CONTINUOUS
10
3.81271
20
-5.69507
11
3.81992
21
-5.69507
0
LINE
8
BLACK
6
CONTINUOUS
10
3.81992
20
-5.69507
11
3.82697
21
-5.69657
0
LINE
8
BLACK
6
CONTINUOUS
10
3.92545
20
-5.67921
11
3.93204
21
-5.68214
0
LINE
8
BLACK
6
CONTINUOUS
10
3.93204
20
-5.68214
11
3.93788
21
-5.68638
0
LINE
8
BLACK
6
CONTINUOUS
10
3.93788
20
-5.68638
11
3.9427
21
-5.69174
0
LINE
8
BLACK
6
CONTINUOUS
10
3.9427
20
-5.69174
11
3.94631
21
-5.69798
0
LINE
8
BLACK
6
CONTINUOUS
10
3.94631
20
-5.69798
11
3.94854
21
-5.70484
0
LINE
8
BLACK
6
CONTINUOUS
10
3.94854
20
-5.70484
11
3.94929
21
-5.71202
0
LINE
8
BLACK
6
CONTINUOUS
10
3.94929
20
-5.71202
11
3.94854
21
-5.71919
0
LINE
8
BLACK
6
CONTINUOUS
10
3.94854
20
-5.71919
11
3.94631
21
-5.72605
0
LINE
8
BLACK
6
CONTINUOUS
10
3.94631
20
-5.72605
11
3.9427
21
-5.7323
0
LINE
8
BLACK
6
CONTINUOUS
10
3.9427
20
-5.7323
11
3.93788
21
-5.73766
0
LINE
8
BLACK
6
CONTINUOUS
10
3.93788
20
-5.73766
11
3.93204
21
-5.74189
0
LINE
8
BLACK
6
CONTINUOUS
10
3.93204
20
-5.74189
11
3.92545
21
-5.74483
0
LINE
8
BLACK
6
CONTINUOUS
10
3.92545
20
-5.74483
11
3.9184
21
-5.74633
0
LINE
8
BLACK
6
CONTINUOUS
10
3.9184
20
-5.74633
11
3.91119
21
-5.74633
0
LINE
8
BLACK
6
CONTINUOUS
10
3.91119
20
-5.74633
11
3.90413
21
-5.74483
0
LINE
8
BLACK
6
CONTINUOUS
10
3.90413
20
-5.74483
11
3.89754
21
-5.74189
0
LINE
8
BLACK
6
CONTINUOUS
10
3.89754
20
-5.74189
11
3.89171
21
-5.73766
0
LINE
8
BLACK
6
CONTINUOUS
10
3.89171
20
-5.73766
11
3.88688
21
-5.7323
0
LINE
8
BLACK
6
CONTINUOUS
10
3.88688
20
-5.7323
11
3.88328
21
-5.72605
0
LINE
8
BLACK
6
CONTINUOUS
10
3.88328
20
-5.72605
11
3.88105
21
-5.71919
0
LINE
8
BLACK
6
CONTINUOUS
10
3.88105
20
-5.71919
11
3.88029
21
-5.71202
0
LINE
8
BLACK
6
CONTINUOUS
10
3.88029
20
-5.71202
11
3.88105
21
-5.70484
0
LINE
8
BLACK
6
CONTINUOUS
10
3.88105
20
-5.70484
11
3.88328
21
-5.69798
0
LINE
8
BLACK
6
CONTINUOUS
10
3.88328
20
-5.69798
11
3.88688
21
-5.69174
0
LINE
8
BLACK
6
CONTINUOUS
10
3.88688
20
-5.69174
11
3.89171
21
-5.68638
0
LINE
8
BLACK
6
CONTINUOUS
10
3.89171
20
-5.68638
11
3.89754
21
-5.68214
0
LINE
8
BLACK
6
CONTINUOUS
10
3.89754
20
-5.68214
11
3.90413
21
-5.67921
0
LINE
8
BLACK
6
CONTINUOUS
10
3.90413
20
-5.67921
11
3.91119
21
-5.67771
0
LINE
8
BLACK
6
CONTINUOUS
10
3.91119
20
-5.67771
11
3.9184
21
-5.67771
0
LINE
8
BLACK
6
CONTINUOUS
10
3.9184
20
-5.67771
11
3.92545
21
-5.67921
0
LINE
8
BLACK
6
CONTINUOUS
10
4.02394
20
-5.66184
11
4.03052
21
-5.66477
0
LINE
8
BLACK
6
CONTINUOUS
10
4.03052
20
-5.66477
11
4.03636
21
-5.66901
0
LINE
8
BLACK
6
CONTINUOUS
10
4.03636
20
-5.66901
11
4.04119
21
-5.67437
0
LINE
8
BLACK
6
CONTINUOUS
10
4.04119
20
-5.67437
11
4.04479
21
-5.68062
0
LINE
8
BLACK
6
CONTINUOUS
10
4.04479
20
-5.68062
11
4.04702
21
-5.68748
0
LINE
8
BLACK
6
CONTINUOUS
10
4.04702
20
-5.68748
11
4.04777
21
-5.69465
0
LINE
8
BLACK
6
CONTINUOUS
10
4.04777
20
-5.69465
11
4.04702
21
-5.70183
0
LINE
8
BLACK
6
CONTINUOUS
10
4.04702
20
-5.70183
11
4.04479
21
-5.70868
0
LINE
8
BLACK
6
CONTINUOUS
10
4.04479
20
-5.70868
11
4.04119
21
-5.71493
0
LINE
8
BLACK
6
CONTINUOUS
10
4.04119
20
-5.71493
11
4.03636
21
-5.72029
0
LINE
8
BLACK
6
CONTINUOUS
10
4.03636
20
-5.72029
11
4.03052
21
-5.72453
0
LINE
8
BLACK
6
CONTINUOUS
10
4.03052
20
-5.72453
11
4.02394
21
-5.72746
0
LINE
8
BLACK
6
CONTINUOUS
10
4.02394
20
-5.72746
11
4.01688
21
-5.72896
0
LINE
8
BLACK
6
CONTINUOUS
10
4.01688
20
-5.72896
11
4.00967
21
-5.72896
0
LINE
8
BLACK
6
CONTINUOUS
10
4.00967
20
-5.72896
11
4.00261
21
-5.72746
0
LINE
8
BLACK
6
CONTINUOUS
10
4.00261
20
-5.72746
11
3.99602
21
-5.72453
0
LINE
8
BLACK
6
CONTINUOUS
10
3.99602
20
-5.72453
11
3.99019
21
-5.72029
0
LINE
8
BLACK
6
CONTINUOUS
10
3.99019
20
-5.72029
11
3.98536
21
-5.71493
0
LINE
8
BLACK
6
CONTINUOUS
10
3.98536
20
-5.71493
11
3.98176
21
-5.70868
0
LINE
8
BLACK
6
CONTINUOUS
10
3.98176
20
-5.70868
11
3.97953
21
-5.70183
0
LINE
8
BLACK
6
CONTINUOUS
10
3.97953
20
-5.70183
11
3.97877
21
-5.69465
0
LINE
8
BLACK
6
CONTINUOUS
10
3.97877
20
-5.69465
11
3.97953
21
-5.68748
0
LINE
8
BLACK
6
CONTINUOUS
10
3.97953
20
-5.68748
11
3.98176
21
-5.68062
0
LINE
8
BLACK
6
CONTINUOUS
10
3.98176
20
-5.68062
11
3.98536
21
-5.67437
0
LINE
8
BLACK
6
CONTINUOUS
10
3.98536
20
-5.67437
11
3.99019
21
-5.66901
0
LINE
8
BLACK
6
CONTINUOUS
10
3.99019
20
-5.66901
11
3.99602
21
-5.66477
0
LINE
8
BLACK
6
CONTINUOUS
10
3.99602
20
-5.66477
11
4.00261
21
-5.66184
0
LINE
8
BLACK
6
CONTINUOUS
10
4.00261
20
-5.66184
11
4.00967
21
-5.66034
0
LINE
8
BLACK
6
CONTINUOUS
10
4.00967
20
-5.66034
11
4.01688
21
-5.66034
0
LINE
8
BLACK
6
CONTINUOUS
10
4.01688
20
-5.66034
11
4.02394
21
-5.66184
0
LINE
8
BLACK
6
CONTINUOUS
10
4.12242
20
-5.64448
11
4.12901
21
-5.64741
0
LINE
8
BLACK
6
CONTINUOUS
10
4.12901
20
-5.64741
11
4.13484
21
-5.65165
0
LINE
8
BLACK
6
CONTINUOUS
10
4.13484
20
-5.65165
11
4.13967
21
-5.65701
0
LINE
8
BLACK
6
CONTINUOUS
10
4.13967
20
-5.65701
11
4.14327
21
-5.66325
0
LINE
8
BLACK
6
CONTINUOUS
10
4.14327
20
-5.66325
11
4.1455
21
-5.67011
0
LINE
8
BLACK
6
CONTINUOUS
10
4.1455
20
-5.67011
11
4.14626
21
-5.67729
0
LINE
8
BLACK
6
CONTINUOUS
10
4.14626
20
-5.67729
11
4.1455
21
-5.68446
0
LINE
8
BLACK
6
CONTINUOUS
10
4.1455
20
-5.68446
11
4.14327
21
-5.69132
0
LINE
8
BLACK
6
CONTINUOUS
10
4.14327
20
-5.69132
11
4.13967
21
-5.69757
0
LINE
8
BLACK
6
CONTINUOUS
10
4.13967
20
-5.69757
11
4.13484
21
-5.70293
0
LINE
8
BLACK
6
CONTINUOUS
10
4.13484
20
-5.70293
11
4.12901
21
-5.70717
0
LINE
8
BLACK
6
CONTINUOUS
10
4.12901
20
-5.70717
11
4.12242
21
-5.7101
0
LINE
8
BLACK
6
CONTINUOUS
10
4.12242
20
-5.7101
11
4.11536
21
-5.7116
0
LINE
8
BLACK
6
CONTINUOUS
10
4.11536
20
-5.7116
11
4.10815
21
-5.7116
0
LINE
8
BLACK
6
CONTINUOUS
10
4.10815
20
-5.7116
11
4.10109
21
-5.7101
0
LINE
8
BLACK
6
CONTINUOUS
10
4.10109
20
-5.7101
11
4.09451
21
-5.70717
0
LINE
8
BLACK
6
CONTINUOUS
10
4.09451
20
-5.70717
11
4.08867
21
-5.70293
0
LINE
8
BLACK
6
CONTINUOUS
10
4.08867
20
-5.70293
11
4.08384
21
-5.69757
0
LINE
8
BLACK
6
CONTINUOUS
10
4.08384
20
-5.69757
11
4.08024
21
-5.69132
0
LINE
8
BLACK
6
CONTINUOUS
10
4.08024
20
-5.69132
11
4.07801
21
-5.68446
0
LINE
8
BLACK
6
CONTINUOUS
10
4.07801
20
-5.68446
11
4.07726
21
-5.67729
0
LINE
8
BLACK
6
CONTINUOUS
10
4.07726
20
-5.67729
11
4.07801
21
-5.67011
0
LINE
8
BLACK
6
CONTINUOUS
10
4.07801
20
-5.67011
11
4.08024
21
-5.66325
0
LINE
8
BLACK
6
CONTINUOUS
10
4.08024
20
-5.66325
11
4.08384
21
-5.65701
0
LINE
8
BLACK
6
CONTINUOUS
10
4.08384
20
-5.65701
11
4.08867
21
-5.65165
0
LINE
8
BLACK
6
CONTINUOUS
10
4.08867
20
-5.65165
11
4.09451
21
-5.64741
0
LINE
8
BLACK
6
CONTINUOUS
10
4.09451
20
-5.64741
11
4.10109
21
-5.64448
0
LINE
8
BLACK
6
CONTINUOUS
10
4.10109
20
-5.64448
11
4.10815
21
-5.64298
0
LINE
8
BLACK
6
CONTINUOUS
10
4.10815
20
-5.64298
11
4.11536
21
-5.64298
0
LINE
8
BLACK
6
CONTINUOUS
10
4.11536
20
-5.64298
11
4.12242
21
-5.64448
0
LINE
8
BLACK
6
CONTINUOUS
10
4.2209
20
-5.62711
11
4.22749
21
-5.63004
0
LINE
8
BLACK
6
CONTINUOUS
10
4.22749
20
-5.63004
11
4.23332
21
-5.63428
0
LINE
8
BLACK
6
CONTINUOUS
10
4.23332
20
-5.63428
11
4.23815
21
-5.63964
0
LINE
8
BLACK
6
CONTINUOUS
10
4.23815
20
-5.63964
11
4.24175
21
-5.64589
0
LINE
8
BLACK
6
CONTINUOUS
10
4.24175
20
-5.64589
11
4.24398
21
-5.65275
0
LINE
8
BLACK
6
CONTINUOUS
10
4.24398
20
-5.65275
11
4.24474
21
-5.65992
0
LINE
8
BLACK
6
CONTINUOUS
10
4.24474
20
-5.65992
11
4.24398
21
-5.6671
0
LINE
8
BLACK
6
CONTINUOUS
10
4.24398
20
-5.6671
11
4.24175
21
-5.67395
0
LINE
8
BLACK
6
CONTINUOUS
10
4.24175
20
-5.67395
11
4.23815
21
-5.6802
0
LINE
8
BLACK
6
CONTINUOUS
10
4.23815
20
-5.6802
11
4.23332
21
-5.68556
0
LINE
8
BLACK
6
CONTINUOUS
10
4.23332
20
-5.68556
11
4.22749
21
-5.6898
0
LINE
8
BLACK
6
CONTINUOUS
10
4.22749
20
-5.6898
11
4.2209
21
-5.69273
0
LINE
8
BLACK
6
CONTINUOUS
10
4.2209
20
-5.69273
11
4.21384
21
-5.69423
0
LINE
8
BLACK
6
CONTINUOUS
10
4.21384
20
-5.69423
11
4.20663
21
-5.69423
0
LINE
8
BLACK
6
CONTINUOUS
10
4.20663
20
-5.69423
11
4.19957
21
-5.69273
0
LINE
8
BLACK
6
CONTINUOUS
10
4.19957
20
-5.69273
11
4.19299
21
-5.6898
0
LINE
8
BLACK
6
CONTINUOUS
10
4.19299
20
-5.6898
11
4.18715
21
-5.68556
0
LINE
8
BLACK
6
CONTINUOUS
10
4.18715
20
-5.68556
11
4.18232
21
-5.6802
0
LINE
8
BLACK
6
CONTINUOUS
10
4.18232
20
-5.6802
11
4.17872
21
-5.67395
0
LINE
8
BLACK
6
CONTINUOUS
10
4.17872
20
-5.67395
11
4.17649
21
-5.6671
0
LINE
8
BLACK
6
CONTINUOUS
10
4.17649
20
-5.6671
11
4.17574
21
-5.65992
0
LINE
8
BLACK
6
CONTINUOUS
10
4.17574
20
-5.65992
11
4.17649
21
-5.65275
0
LINE
8
BLACK
6
CONTINUOUS
10
4.17649
20
-5.65275
11
4.17872
21
-5.64589
0
LINE
8
BLACK
6
CONTINUOUS
10
4.17872
20
-5.64589
11
4.18232
21
-5.63964
0
LINE
8
BLACK
6
CONTINUOUS
10
4.18232
20
-5.63964
11
4.18715
21
-5.63428
0
LINE
8
BLACK
6
CONTINUOUS
10
4.18715
20
-5.63428
11
4.19299
21
-5.63004
0
LINE
8
BLACK
6
CONTINUOUS
10
4.19299
20
-5.63004
11
4.19957
21
-5.62711
0
LINE
8
BLACK
6
CONTINUOUS
10
4.19957
20
-5.62711
11
4.20663
21
-5.62561
0
LINE
8
BLACK
6
CONTINUOUS
10
4.20663
20
-5.62561
11
4.21384
21
-5.62561
0
LINE
8
BLACK
6
CONTINUOUS
10
4.21384
20
-5.62561
11
4.2209
21
-5.62711
0
LINE
8
BLACK
6
CONTINUOUS
10
4.31938
20
-5.60975
11
4.32597
21
-5.61268
0
LINE
8
BLACK
6
CONTINUOUS
10
4.32597
20
-5.61268
11
4.3318
21
-5.61692
0
LINE
8
BLACK
6
CONTINUOUS
10
4.3318
20
-5.61692
11
4.33663
21
-5.62228
0
LINE
8
BLACK
6
CONTINUOUS
10
4.33663
20
-5.62228
11
4.34023
21
-5.62853
0
LINE
8
BLACK
6
CONTINUOUS
10
4.34023
20
-5.62853
11
4.34246
21
-5.63538
0
LINE
8
BLACK
6
CONTINUOUS
10
4.34246
20
-5.63538
11
4.34322
21
-5.64256
0
LINE
8
BLACK
6
CONTINUOUS
10
4.34322
20
-5.64256
11
4.34246
21
-5.64973
0
LINE
8
BLACK
6
CONTINUOUS
10
4.34246
20
-5.64973
11
4.34023
21
-5.65659
0
LINE
8
BLACK
6
CONTINUOUS
10
4.34023
20
-5.65659
11
4.33663
21
-5.66284
0
LINE
8
BLACK
6
CONTINUOUS
10
4.33663
20
-5.66284
11
4.3318
21
-5.6682
0
LINE
8
BLACK
6
CONTINUOUS
10
4.3318
20
-5.6682
11
4.32597
21
-5.67244
0
LINE
8
BLACK
6
CONTINUOUS
10
4.32597
20
-5.67244
11
4.31938
21
-5.67537
0
LINE
8
BLACK
6
CONTINUOUS
10
4.31938
20
-5.67537
11
4.31232
21
-5.67687
0
LINE
8
BLACK
6
CONTINUOUS
10
4.31232
20
-5.67687
11
4.30511
21
-5.67687
0
LINE
8
BLACK
6
CONTINUOUS
10
4.30511
20
-5.67687
11
4.29806
21
-5.67537
0
LINE
8
BLACK
6
CONTINUOUS
10
4.29806
20
-5.67537
11
4.29147
21
-5.67244
0
LINE
8
BLACK
6
CONTINUOUS
10
4.29147
20
-5.67244
11
4.28563
21
-5.6682
0
LINE
8
BLACK
6
CONTINUOUS
10
4.28563
20
-5.6682
11
4.28081
21
-5.66284
0
LINE
8
BLACK
6
CONTINUOUS
10
4.28081
20
-5.66284
11
4.2772
21
-5.65659
0
LINE
8
BLACK
6
CONTINUOUS
10
4.2772
20
-5.65659
11
4.27497
21
-5.64973
0
LINE
8
BLACK
6
CONTINUOUS
10
4.27497
20
-5.64973
11
4.27422
21
-5.64256
0
LINE
8
BLACK
6
CONTINUOUS
10
4.27422
20
-5.64256
11
4.27497
21
-5.63538
0
LINE
8
BLACK
6
CONTINUOUS
10
4.27497
20
-5.63538
11
4.2772
21
-5.62853
0
LINE
8
BLACK
6
CONTINUOUS
10
4.2772
20
-5.62853
11
4.28081
21
-5.62228
0
LINE
8
BLACK
6
CONTINUOUS
10
4.28081
20
-5.62228
11
4.28563
21
-5.61692
0
LINE
8
BLACK
6
CONTINUOUS
10
4.28563
20
-5.61692
11
4.29147
21
-5.61268
0
LINE
8
BLACK
6
CONTINUOUS
10
4.29147
20
-5.61268
11
4.29806
21
-5.60975
0
LINE
8
BLACK
6
CONTINUOUS
10
4.29806
20
-5.60975
11
4.30511
21
-5.60825
0
LINE
8
BLACK
6
CONTINUOUS
10
4.30511
20
-5.60825
11
4.31232
21
-5.60825
0
LINE
8
BLACK
6
CONTINUOUS
10
4.31232
20
-5.60825
11
4.31938
21
-5.60975
0
LINE
8
BLACK
6
CONTINUOUS
10
4.41786
20
-5.59238
11
4.42445
21
-5.59532
0
LINE
8
BLACK
6
CONTINUOUS
10
4.42445
20
-5.59532
11
4.43028
21
-5.59955
0
LINE
8
BLACK
6
CONTINUOUS
10
4.43028
20
-5.59955
11
4.43511
21
-5.60491
0
LINE
8
BLACK
6
CONTINUOUS
10
4.43511
20
-5.60491
11
4.43871
21
-5.61116
0
LINE
8
BLACK
6
CONTINUOUS
10
4.43871
20
-5.61116
11
4.44094
21
-5.61802
0
LINE
8
BLACK
6
CONTINUOUS
10
4.44094
20
-5.61802
11
4.4417
21
-5.62519
0
LINE
8
BLACK
6
CONTINUOUS
10
4.4417
20
-5.62519
11
4.44094
21
-5.63237
0
LINE
8
BLACK
6
CONTINUOUS
10
4.44094
20
-5.63237
11
4.43871
21
-5.63923
0
LINE
8
BLACK
6
CONTINUOUS
10
4.43871
20
-5.63923
11
4.43511
21
-5.64547
0
LINE
8
BLACK
6
CONTINUOUS
10
4.43511
20
-5.64547
11
4.43028
21
-5.65083
0
LINE
8
BLACK
6
CONTINUOUS
10
4.43028
20
-5.65083
11
4.42445
21
-5.65507
0
LINE
8
BLACK
6
CONTINUOUS
10
4.42445
20
-5.65507
11
4.41786
21
-5.658
0
LINE
8
BLACK
6
CONTINUOUS
10
4.41786
20
-5.658
11
4.4108
21
-5.6595
0
LINE
8
BLACK
6
CONTINUOUS
10
4.4108
20
-5.6595
11
4.40359
21
-5.6595
0
LINE
8
BLACK
6
CONTINUOUS
10
4.40359
20
-5.6595
11
4.39654
21
-5.658
0
LINE
8
BLACK
6
CONTINUOUS
10
4.39654
20
-5.658
11
4.38995
21
-5.65507
0
LINE
8
BLACK
6
CONTINUOUS
10
4.38995
20
-5.65507
11
4.38411
21
-5.65083
0
LINE
8
BLACK
6
CONTINUOUS
10
4.38411
20
-5.65083
11
4.37929
21
-5.64547
0
LINE
8
BLACK
6
CONTINUOUS
10
4.37929
20
-5.64547
11
4.37568
21
-5.63923
0
LINE
8
BLACK
6
CONTINUOUS
10
4.37568
20
-5.63923
11
4.37345
21
-5.63237
0
LINE
8
BLACK
6
CONTINUOUS
10
4.37345
20
-5.63237
11
4.3727
21
-5.62519
0
LINE
8
BLACK
6
CONTINUOUS
10
4.3727
20
-5.62519
11
4.37345
21
-5.61802
0
LINE
8
BLACK
6
CONTINUOUS
10
4.37345
20
-5.61802
11
4.37568
21
-5.61116
0
LINE
8
BLACK
6
CONTINUOUS
10
4.37568
20
-5.61116
11
4.37929
21
-5.60491
0
LINE
8
BLACK
6
CONTINUOUS
10
4.37929
20
-5.60491
11
4.38411
21
-5.59955
0
LINE
8
BLACK
6
CONTINUOUS
10
4.38411
20
-5.59955
11
4.38995
21
-5.59532
0
LINE
8
BLACK
6
CONTINUOUS
10
4.38995
20
-5.59532
11
4.39654
21
-5.59238
0
LINE
8
BLACK
6
CONTINUOUS
10
4.39654
20
-5.59238
11
4.40359
21
-5.59088
0
LINE
8
BLACK
6
CONTINUOUS
10
4.40359
20
-5.59088
11
4.4108
21
-5.59088
0
LINE
8
BLACK
6
CONTINUOUS
10
4.4108
20
-5.59088
11
4.41786
21
-5.59238
0
LINE
8
BLACK
6
CONTINUOUS
10
5.03243
20
-5.4927
11
5.033
21
-5.49409
0
LINE
8
BLACK
6
CONTINUOUS
10
5.033
20
-5.49409
11
5.033
21
-5.51207
0
LINE
8
BLACK
6
CONTINUOUS
10
5.033
20
-5.51207
11
5.05356
21
-5.49836
0
LINE
8
BLACK
6
CONTINUOUS
10
5.05356
20
-5.49836
11
5.05413
21
-5.49825
0
LINE
8
BLACK
6
CONTINUOUS
10
5.05413
20
-5.49825
11
5.05466
21
-5.49803
0
LINE
8
BLACK
6
CONTINUOUS
10
5.05466
20
-5.49803
11
5.05484
21
-5.49811
0
LINE
8
BLACK
6
CONTINUOUS
10
5.05484
20
-5.49811
11
5.05504
21
-5.49807
0
LINE
8
BLACK
6
CONTINUOUS
10
5.05504
20
-5.49807
11
5.05552
21
-5.49839
0
LINE
8
BLACK
6
CONTINUOUS
10
5.05552
20
-5.49839
11
5.05605
21
-5.49861
0
LINE
8
BLACK
6
CONTINUOUS
10
5.05605
20
-5.49861
11
5.05612
21
-5.4988
0
LINE
8
BLACK
6
CONTINUOUS
10
5.05612
20
-5.4988
11
5.05629
21
-5.49891
0
LINE
8
BLACK
6
CONTINUOUS
10
5.05629
20
-5.49891
11
5.0564
21
-5.49947
0
LINE
8
BLACK
6
CONTINUOUS
10
5.0564
20
-5.49947
11
5.05662
21
-5.5
0
LINE
8
BLACK
6
CONTINUOUS
10
5.05662
20
-5.5
11
5.05662
21
-5.51378
0
LINE
8
BLACK
6
CONTINUOUS
10
5.05662
20
-5.51378
11
5.07434
21
-5.51378
0
LINE
8
BLACK
6
CONTINUOUS
10
5.07434
20
-5.51378
11
5.07573
21
-5.51436
0
LINE
8
BLACK
6
CONTINUOUS
10
5.07573
20
-5.51436
11
5.07631
21
-5.51575
0
LINE
8
BLACK
6
CONTINUOUS
10
5.07631
20
-5.51575
11
5.07573
21
-5.51714
0
LINE
8
BLACK
6
CONTINUOUS
10
5.07573
20
-5.51714
11
5.07434
21
-5.51772
0
LINE
8
BLACK
6
CONTINUOUS
10
5.07434
20
-5.51772
11
5.05662
21
-5.51772
0
LINE
8
BLACK
6
CONTINUOUS
10
5.05662
20
-5.51772
11
5.05662
21
-5.5315
0
LINE
8
BLACK
6
CONTINUOUS
10
5.05662
20
-5.5315
11
5.0564
21
-5.53203
0
LINE
8
BLACK
6
CONTINUOUS
10
5.0564
20
-5.53203
11
5.05629
21
-5.53259
0
LINE
8
BLACK
6
CONTINUOUS
10
5.05629
20
-5.53259
11
5.05612
21
-5.5327
0
LINE
8
BLACK
6
CONTINUOUS
10
5.05612
20
-5.5327
11
5.05605
21
-5.53289
0
LINE
8
BLACK
6
CONTINUOUS
10
5.05605
20
-5.53289
11
5.05552
21
-5.53311
0
LINE
8
BLACK
6
CONTINUOUS
10
5.05552
20
-5.53311
11
5.05504
21
-5.53343
0
LINE
8
BLACK
6
CONTINUOUS
10
5.05504
20
-5.53343
11
5.05484
21
-5.53339
0
LINE
8
BLACK
6
CONTINUOUS
10
5.05484
20
-5.53339
11
5.05466
21
-5.53346
0
LINE
8
BLACK
6
CONTINUOUS
10
5.05466
20
-5.53346
11
5.05413
21
-5.53325
0
LINE
8
BLACK
6
CONTINUOUS
10
5.05413
20
-5.53325
11
5.05356
21
-5.53313
0
LINE
8
BLACK
6
CONTINUOUS
10
5.05356
20
-5.53313
11
5.033
21
-5.51943
0
LINE
8
BLACK
6
CONTINUOUS
10
5.033
20
-5.51943
11
5.033
21
-5.5374
0
LINE
8
BLACK
6
CONTINUOUS
10
5.033
20
-5.5374
11
5.03243
21
-5.53879
0
LINE
8
BLACK
6
CONTINUOUS
10
5.03243
20
-5.53879
11
5.03103
21
-5.53937
0
LINE
8
BLACK
6
CONTINUOUS
10
5.03103
20
-5.53937
11
5.02964
21
-5.53879
0
LINE
8
BLACK
6
CONTINUOUS
10
5.02964
20
-5.53879
11
5.02906
21
-5.5374
0
LINE
8
BLACK
6
CONTINUOUS
10
5.02906
20
-5.5374
11
5.02906
21
-5.51772
0
LINE
8
BLACK
6
CONTINUOUS
10
5.02906
20
-5.51772
11
5.01529
21
-5.51772
0
LINE
8
BLACK
6
CONTINUOUS
10
5.01529
20
-5.51772
11
5.01389
21
-5.51714
0
LINE
8
BLACK
6
CONTINUOUS
10
5.01389
20
-5.51714
11
5.01332
21
-5.51575
0
LINE
8
BLACK
6
CONTINUOUS
10
5.01332
20
-5.51575
11
5.01389
21
-5.51436
0
LINE
8
BLACK
6
CONTINUOUS
10
5.01389
20
-5.51436
11
5.01529
21
-5.51378
0
LINE
8
BLACK
6
CONTINUOUS
10
5.01529
20
-5.51378
11
5.02906
21
-5.51378
0
LINE
8
BLACK
6
CONTINUOUS
10
5.02906
20
-5.51378
11
5.02906
21
-5.49409
0
LINE
8
BLACK
6
CONTINUOUS
10
5.02906
20
-5.49409
11
5.02964
21
-5.4927
0
LINE
8
BLACK
6
CONTINUOUS
10
5.02964
20
-5.4927
11
5.03103
21
-5.49213
0
LINE
8
BLACK
6
CONTINUOUS
10
5.03103
20
-5.49213
11
5.03243
21
-5.4927
0
LINE
8
BLACK
6
CONTINUOUS
10
5.03458
20
-5.51575
11
5.05269
21
-5.52782
0
LINE
8
BLACK
6
CONTINUOUS
10
5.05269
20
-5.52782
11
5.05269
21
-5.50368
0
LINE
8
BLACK
6
CONTINUOUS
10
5.05269
20
-5.50368
11
5.03458
21
-5.51575
0
LINE
8
BLACK
6
CONTINUOUS
10
2.78833
20
-5.29585
11
2.78891
21
-5.29724
0
LINE
8
BLACK
6
CONTINUOUS
10
2.78891
20
-5.29724
11
2.78891
21
-5.31522
0
LINE
8
BLACK
6
CONTINUOUS
10
2.78891
20
-5.31522
11
2.80947
21
-5.30151
0
LINE
8
BLACK
6
CONTINUOUS
10
2.80947
20
-5.30151
11
2.81003
21
-5.3014
0
LINE
8
BLACK
6
CONTINUOUS
10
2.81003
20
-5.3014
11
2.81056
21
-5.30118
0
LINE
8
BLACK
6
CONTINUOUS
10
2.81056
20
-5.30118
11
2.81075
21
-5.30126
0
LINE
8
BLACK
6
CONTINUOUS
10
2.81075
20
-5.30126
11
2.81095
21
-5.30122
0
LINE
8
BLACK
6
CONTINUOUS
10
2.81095
20
-5.30122
11
2.81142
21
-5.30154
0
LINE
8
BLACK
6
CONTINUOUS
10
2.81142
20
-5.30154
11
2.81195
21
-5.30176
0
LINE
8
BLACK
6
CONTINUOUS
10
2.81195
20
-5.30176
11
2.81203
21
-5.30194
0
LINE
8
BLACK
6
CONTINUOUS
10
2.81203
20
-5.30194
11
2.8122
21
-5.30206
0
LINE
8
BLACK
6
CONTINUOUS
10
2.8122
20
-5.30206
11
2.81231
21
-5.30262
0
LINE
8
BLACK
6
CONTINUOUS
10
2.81231
20
-5.30262
11
2.81253
21
-5.30315
0
LINE
8
BLACK
6
CONTINUOUS
10
2.81253
20
-5.30315
11
2.81253
21
-5.31693
0
LINE
8
BLACK
6
CONTINUOUS
10
2.81253
20
-5.31693
11
2.83025
21
-5.31693
0
LINE
8
BLACK
6
CONTINUOUS
10
2.83025
20
-5.31693
11
2.83164
21
-5.31751
0
LINE
8
BLACK
6
CONTINUOUS
10
2.83164
20
-5.31751
11
2.83221
21
-5.3189
0
LINE
8
BLACK
6
CONTINUOUS
10
2.83221
20
-5.3189
11
2.83164
21
-5.32029
0
LINE
8
BLACK
6
CONTINUOUS
10
2.83164
20
-5.32029
11
2.83025
21
-5.32087
0
LINE
8
BLACK
6
CONTINUOUS
10
2.83025
20
-5.32087
11
2.81253
21
-5.32087
0
LINE
8
BLACK
6
CONTINUOUS
10
2.81253
20
-5.32087
11
2.81253
21
-5.33465
0
LINE
8
BLACK
6
CONTINUOUS
10
2.81253
20
-5.33465
11
2.81231
21
-5.33518
0
LINE
8
BLACK
6
CONTINUOUS
10
2.81231
20
-5.33518
11
2.8122
21
-5.33574
0
LINE
8
BLACK
6
CONTINUOUS
10
2.8122
20
-5.33574
11
2.81203
21
-5.33585
0
LINE
8
BLACK
6
CONTINUOUS
10
2.81203
20
-5.33585
11
2.81195
21
-5.33604
0
LINE
8
BLACK
6
CONTINUOUS
10
2.81195
20
-5.33604
11
2.81142
21
-5.33626
0
LINE
8
BLACK
6
CONTINUOUS
10
2.81142
20
-5.33626
11
2.81095
21
-5.33658
0
LINE
8
BLACK
6
CONTINUOUS
10
2.81095
20
-5.33658
11
2.81075
21
-5.33654
0
LINE
8
BLACK
6
CONTINUOUS
10
2.81075
20
-5.33654
11
2.81056
21
-5.33661
0
LINE
8
BLACK
6
CONTINUOUS
10
2.81056
20
-5.33661
11
2.81003
21
-5.33639
0
LINE
8
BLACK
6
CONTINUOUS
10
2.81003
20
-5.33639
11
2.80947
21
-5.33628
0
LINE
8
BLACK
6
CONTINUOUS
10
2.80947
20
-5.33628
11
2.78891
21
-5.32258
0
LINE
8
BLACK
6
CONTINUOUS
10
2.78891
20
-5.32258
11
2.78891
21
-5.34055
0
LINE
8
BLACK
6
CONTINUOUS
10
2.78891
20
-5.34055
11
2.78833
21
-5.34194
0
LINE
8
BLACK
6
CONTINUOUS
10
2.78833
20
-5.34194
11
2.78694
21
-5.34252
0
LINE
8
BLACK
6
CONTINUOUS
10
2.78694
20
-5.34252
11
2.78555
21
-5.34194
0
LINE
8
BLACK
6
CONTINUOUS
10
2.78555
20
-5.34194
11
2.78497
21
-5.34055
0
LINE
8
BLACK
6
CONTINUOUS
10
2.78497
20
-5.34055
11
2.78497
21
-5.32087
0
LINE
8
BLACK
6
CONTINUOUS
10
2.78497
20
-5.32087
11
2.77119
21
-5.32087
0
LINE
8
BLACK
6
CONTINUOUS
10
2.77119
20
-5.32087
11
2.7698
21
-5.32029
0
LINE
8
BLACK
6
CONTINUOUS
10
2.7698
20
-5.32029
11
2.76922
21
-5.3189
0
LINE
8
BLACK
6
CONTINUOUS
10
2.76922
20
-5.3189
11
2.7698
21
-5.31751
0
LINE
8
BLACK
6
CONTINUOUS
10
2.7698
20
-5.31751
11
2.77119
21
-5.31693
0
LINE
8
BLACK
6
CONTINUOUS
10
2.77119
20
-5.31693
11
2.78497
21
-5.31693
0
LINE
8
BLACK
6
CONTINUOUS
10
2.78497
20
-5.31693
11
2.78497
21
-5.29724
0
LINE
8
BLACK
6
CONTINUOUS
10
2.78497
20
-5.29724
11
2.78555
21
-5.29585
0
LINE
8
BLACK
6
CONTINUOUS
10
2.78555
20
-5.29585
11
2.78694
21
-5.29528
0
LINE
8
BLACK
6
CONTINUOUS
10
2.78694
20
-5.29528
11
2.78833
21
-5.29585
0
LINE
8
BLACK
6
CONTINUOUS
10
2.79049
20
-5.3189
11
2.80859
21
-5.33097
0
LINE
8
BLACK
6
CONTINUOUS
10
2.80859
20
-5.33097
11
2.80859
21
-5.30683
0
LINE
8
BLACK
6
CONTINUOUS
10
2.80859
20
-5.30683
11
2.79049
21
-5.3189
0
LINE
8
BLACK
6
CONTINUOUS
10
4.28439
20
-5.099
11
4.28497
21
-5.10039
0
LINE
8
BLACK
6
CONTINUOUS
10
4.28497
20
-5.10039
11
4.28497
21
-5.11837
0
LINE
8
BLACK
6
CONTINUOUS
10
4.28497
20
-5.11837
11
4.30553
21
-5.10466
0
LINE
8
BLACK
6
CONTINUOUS
10
4.30553
20
-5.10466
11
4.30609
21
-5.10455
0
LINE
8
BLACK
6
CONTINUOUS
10
4.30609
20
-5.10455
11
4.30662
21
-5.10433
0
LINE
8
BLACK
6
CONTINUOUS
10
4.30662
20
-5.10433
11
4.30681
21
-5.10441
0
LINE
8
BLACK
6
CONTINUOUS
10
4.30681
20
-5.10441
11
4.30701
21
-5.10437
0
LINE
8
BLACK
6
CONTINUOUS
10
4.30701
20
-5.10437
11
4.30749
21
-5.10469
0
LINE
8
BLACK
6
CONTINUOUS
10
4.30749
20
-5.10469
11
4.30802
21
-5.10491
0
LINE
8
BLACK
6
CONTINUOUS
10
4.30802
20
-5.10491
11
4.30809
21
-5.10509
0
LINE
8
BLACK
6
CONTINUOUS
10
4.30809
20
-5.10509
11
4.30826
21
-5.10521
0
LINE
8
BLACK
6
CONTINUOUS
10
4.30826
20
-5.10521
11
4.30837
21
-5.10577
0
LINE
8
BLACK
6
CONTINUOUS
10
4.30837
20
-5.10577
11
4.30859
21
-5.1063
0
LINE
8
BLACK
6
CONTINUOUS
10
4.30859
20
-5.1063
11
4.30859
21
-5.12008
0
LINE
8
BLACK
6
CONTINUOUS
10
4.30859
20
-5.12008
11
4.32631
21
-5.12008
0
LINE
8
BLACK
6
CONTINUOUS
10
4.32631
20
-5.12008
11
4.3277
21
-5.12066
0
LINE
8
BLACK
6
CONTINUOUS
10
4.3277
20
-5.12066
11
4.32828
21
-5.12205
0
LINE
8
BLACK
6
CONTINUOUS
10
4.32828
20
-5.12205
11
4.3277
21
-5.12344
0
LINE
8
BLACK
6
CONTINUOUS
10
4.3277
20
-5.12344
11
4.32631
21
-5.12402
0
LINE
8
BLACK
6
CONTINUOUS
10
4.32631
20
-5.12402
11
4.30859
21
-5.12402
0
LINE
8
BLACK
6
CONTINUOUS
10
4.30859
20
-5.12402
11
4.30859
21
-5.1378
0
LINE
8
BLACK
6
CONTINUOUS
10
4.30859
20
-5.1378
11
4.30837
21
-5.13832
0
LINE
8
BLACK
6
CONTINUOUS
10
4.30837
20
-5.13832
11
4.30826
21
-5.13889
0
LINE
8
BLACK
6
CONTINUOUS
10
4.30826
20
-5.13889
11
4.30809
21
-5.139
0
LINE
8
BLACK
6
CONTINUOUS
10
4.30809
20
-5.139
11
4.30802
21
-5.13919
0
LINE
8
BLACK
6
CONTINUOUS
10
4.30802
20
-5.13919
11
4.30749
21
-5.13941
0
LINE
8
BLACK
6
CONTINUOUS
10
4.30749
20
-5.13941
11
4.30701
21
-5.13973
0
LINE
8
BLACK
6
CONTINUOUS
10
4.30701
20
-5.13973
11
4.30681
21
-5.13969
0
LINE
8
BLACK
6
CONTINUOUS
10
4.30681
20
-5.13969
11
4.30662
21
-5.13976
0
LINE
8
BLACK
6
CONTINUOUS
10
4.30662
20
-5.13976
11
4.30609
21
-5.13954
0
LINE
8
BLACK
6
CONTINUOUS
10
4.30609
20
-5.13954
11
4.30553
21
-5.13943
0
LINE
8
BLACK
6
CONTINUOUS
10
4.30553
20
-5.13943
11
4.28497
21
-5.12573
0
LINE
8
BLACK
6
CONTINUOUS
10
4.28497
20
-5.12573
11
4.28497
21
-5.1437
0
LINE
8
BLACK
6
CONTINUOUS
10
4.28497
20
-5.1437
11
4.28439
21
-5.14509
0
LINE
8
BLACK
6
CONTINUOUS
10
4.28439
20
-5.14509
11
4.283
21
-5.14567
0
LINE
8
BLACK
6
CONTINUOUS
10
4.283
20
-5.14567
11
4.28161
21
-5.14509
0
LINE
8
BLACK
6
CONTINUOUS
10
4.28161
20
-5.14509
11
4.28103
21
-5.1437
0
LINE
8
BLACK
6
CONTINUOUS
10
4.28103
20
-5.1437
11
4.28103
21
-5.12402
0
LINE
8
BLACK
6
CONTINUOUS
10
4.28103
20
-5.12402
11
4.26725
21
-5.12402
0
LINE
8
BLACK
6
CONTINUOUS
10
4.26725
20
-5.12402
11
4.26586
21
-5.12344
0
LINE
8
BLACK
6
CONTINUOUS
10
4.26586
20
-5.12344
11
4.26529
21
-5.12205
0
LINE
8
BLACK
6
CONTINUOUS
10
4.26529
20
-5.12205
11
4.26586
21
-5.12066
0
LINE
8
BLACK
6
CONTINUOUS
10
4.26586
20
-5.12066
11
4.26725
21
-5.12008
0
LINE
8
BLACK
6
CONTINUOUS
10
4.26725
20
-5.12008
11
4.28103
21
-5.12008
0
LINE
8
BLACK
6
CONTINUOUS
10
4.28103
20
-5.12008
11
4.28103
21
-5.10039
0
LINE
8
BLACK
6
CONTINUOUS
10
4.28103
20
-5.10039
11
4.28161
21
-5.099
0
LINE
8
BLACK
6
CONTINUOUS
10
4.28161
20
-5.099
11
4.283
21
-5.09843
0
LINE
8
BLACK
6
CONTINUOUS
10
4.283
20
-5.09843
11
4.28439
21
-5.099
0
LINE
8
BLACK
6
CONTINUOUS
10
4.28655
20
-5.12205
11
4.30466
21
-5.13412
0
LINE
8
BLACK
6
CONTINUOUS
10
4.30466
20
-5.13412
11
4.30466
21
-5.10998
0
LINE
8
BLACK
6
CONTINUOUS
10
4.30466
20
-5.10998
11
4.28655
21
-5.12205
0
LINE
8
BLACK
6
CONTINUOUS
10
3.53636
20
-4.90215
11
3.53694
21
-4.90354
0
LINE
8
BLACK
6
CONTINUOUS
10
3.53694
20
-4.90354
11
3.53694
21
-4.92152
0
LINE
8
BLACK
6
CONTINUOUS
10
3.53694
20
-4.92152
11
3.5575
21
-4.90781
0
LINE
8
BLACK
6
CONTINUOUS
10
3.5575
20
-4.90781
11
3.55806
21
-4.9077
0
LINE
8
BLACK
6
CONTINUOUS
10
3.55806
20
-4.9077
11
3.55859
21
-4.90748
0
LINE
8
BLACK
6
CONTINUOUS
10
3.55859
20
-4.90748
11
3.55878
21
-4.90756
0
LINE
8
BLACK
6
CONTINUOUS
10
3.55878
20
-4.90756
11
3.55898
21
-4.90752
0
LINE
8
BLACK
6
CONTINUOUS
10
3.55898
20
-4.90752
11
3.55945
21
-4.90784
0
LINE
8
BLACK
6
CONTINUOUS
10
3.55945
20
-4.90784
11
3.55998
21
-4.90806
0
LINE
8
BLACK
6
CONTINUOUS
10
3.55998
20
-4.90806
11
3.56006
21
-4.90824
0
LINE
8
BLACK
6
CONTINUOUS
10
3.56006
20
-4.90824
11
3.56023
21
-4.90836
0
LINE
8
BLACK
6
CONTINUOUS
10
3.56023
20
-4.90836
11
3.56034
21
-4.90892
0
LINE
8
BLACK
6
CONTINUOUS
10
3.56034
20
-4.90892
11
3.56056
21
-4.90945
0
LINE
8
BLACK
6
CONTINUOUS
10
3.56056
20
-4.90945
11
3.56056
21
-4.92323
0
LINE
8
BLACK
6
CONTINUOUS
10
3.56056
20
-4.92323
11
3.57828
21
-4.92323
0
LINE
8
BLACK
6
CONTINUOUS
10
3.57828
20
-4.92323
11
3.57967
21
-4.9238
0
LINE
8
BLACK
6
CONTINUOUS
10
3.57967
20
-4.9238
11
3.58025
21
-4.9252
0
LINE
8
BLACK
6
CONTINUOUS
10
3.58025
20
-4.9252
11
3.57967
21
-4.92659
0
LINE
8
BLACK
6
CONTINUOUS
10
3.57967
20
-4.92659
11
3.57828
21
-4.92717
0
LINE
8
BLACK
6
CONTINUOUS
10
3.57828
20
-4.92717
11
3.56056
21
-4.92717
0
LINE
8
BLACK
6
CONTINUOUS
10
3.56056
20
-4.92717
11
3.56056
21
-4.94094
0
LINE
8
BLACK
6
CONTINUOUS
10
3.56056
20
-4.94094
11
3.56034
21
-4.94147
0
LINE
8
BLACK
6
CONTINUOUS
10
3.56034
20
-4.94147
11
3.56023
21
-4.94204
0
LINE
8
BLACK
6
CONTINUOUS
10
3.56023
20
-4.94204
11
3.56006
21
-4.94215
0
LINE
8
BLACK
6
CONTINUOUS
10
3.56006
20
-4.94215
11
3.55998
21
-4.94234
0
LINE
8
BLACK
6
CONTINUOUS
10
3.55998
20
-4.94234
11
3.55945
21
-4.94256
0
LINE
8
BLACK
6
CONTINUOUS
10
3.55945
20
-4.94256
11
3.55898
21
-4.94288
0
LINE
8
BLACK
6
CONTINUOUS
10
3.55898
20
-4.94288
11
3.55878
21
-4.94284
0
LINE
8
BLACK
6
CONTINUOUS
10
3.55878
20
-4.94284
11
3.55859
21
-4.94291
0
LINE
8
BLACK
6
CONTINUOUS
10
3.55859
20
-4.94291
11
3.55806
21
-4.94269
0
LINE
8
BLACK
6
CONTINUOUS
10
3.55806
20
-4.94269
11
3.5575
21
-4.94258
0
LINE
8
BLACK
6
CONTINUOUS
10
3.5575
20
-4.94258
11
3.53694
21
-4.92888
0
LINE
8
BLACK
6
CONTINUOUS
10
3.53694
20
-4.92888
11
3.53694
21
-4.94685
0
LINE
8
BLACK
6
CONTINUOUS
10
3.53694
20
-4.94685
11
3.53636
21
-4.94824
0
LINE
8
BLACK
6
CONTINUOUS
10
3.53636
20
-4.94824
11
3.53497
21
-4.94882
0
LINE
8
BLACK
6
CONTINUOUS
10
3.53497
20
-4.94882
11
3.53358
21
-4.94824
0
LINE
8
BLACK
6
CONTINUOUS
10
3.53358
20
-4.94824
11
3.533
21
-4.94685
0
LINE
8
BLACK
6
CONTINUOUS
10
3.533
20
-4.94685
11
3.533
21
-4.92717
0
LINE
8
BLACK
6
CONTINUOUS
10
3.533
20
-4.92717
11
3.51922
21
-4.92717
0
LINE
8
BLACK
6
CONTINUOUS
10
3.51922
20
-4.92717
11
3.51783
21
-4.92659
0
LINE
8
BLACK
6
CONTINUOUS
10
3.51783
20
-4.92659
11
3.51725
21
-4.9252
0
LINE
8
BLACK
6
CONTINUOUS
10
3.51725
20
-4.9252
11
3.51783
21
-4.9238
0
LINE
8
BLACK
6
CONTINUOUS
10
3.51783
20
-4.9238
11
3.51922
21
-4.92323
0
LINE
8
BLACK
6
CONTINUOUS
10
3.51922
20
-4.92323
11
3.533
21
-4.92323
0
LINE
8
BLACK
6
CONTINUOUS
10
3.533
20
-4.92323
11
3.533
21
-4.90354
0
LINE
8
BLACK
6
CONTINUOUS
10
3.533
20
-4.90354
11
3.53358
21
-4.90215
0
LINE
8
BLACK
6
CONTINUOUS
10
3.53358
20
-4.90215
11
3.53497
21
-4.90157
0
LINE
8
BLACK
6
CONTINUOUS
10
3.53497
20
-4.90157
11
3.53636
21
-4.90215
0
LINE
8
BLACK
6
CONTINUOUS
10
3.53852
20
-4.9252
11
3.55662
21
-4.93727
0
LINE
8
BLACK
6
CONTINUOUS
10
3.55662
20
-4.93727
11
3.55662
21
-4.91313
0
LINE
8
BLACK
6
CONTINUOUS
10
3.55662
20
-4.91313
11
3.53852
21
-4.9252
0
LINE
8
BLACK
6
CONTINUOUS
10
5.03243
20
-4.74467
11
5.033
21
-4.74606
0
LINE
8
BLACK
6
CONTINUOUS
10
5.033
20
-4.74606
11
5.033
21
-4.76404
0
LINE
8
BLACK
6
CONTINUOUS
10
5.033
20
-4.76404
11
5.05356
21
-4.75033
0
LINE
8
BLACK
6
CONTINUOUS
10
5.05356
20
-4.75033
11
5.05413
21
-4.75022
0
LINE
8
BLACK
6
CONTINUOUS
10
5.05413
20
-4.75022
11
5.05466
21
-4.75
0
LINE
8
BLACK
6
CONTINUOUS
10
5.05466
20
-4.75
11
5.05484
21
-4.75008
0
LINE
8
BLACK
6
CONTINUOUS
10
5.05484
20
-4.75008
11
5.05504
21
-4.75004
0
LINE
8
BLACK
6
CONTINUOUS
10
5.05504
20
-4.75004
11
5.05552
21
-4.75036
0
LINE
8
BLACK
6
CONTINUOUS
10
5.05552
20
-4.75036
11
5.05605
21
-4.75058
0
LINE
8
BLACK
6
CONTINUOUS
10
5.05605
20
-4.75058
11
5.05612
21
-4.75076
0
LINE
8
BLACK
6
CONTINUOUS
10
5.05612
20
-4.75076
11
5.05629
21
-4.75088
0
LINE
8
BLACK
6
CONTINUOUS
10
5.05629
20
-4.75088
11
5.0564
21
-4.75144
0
LINE
8
BLACK
6
CONTINUOUS
10
5.0564
20
-4.75144
11
5.05662
21
-4.75197
0
LINE
8
BLACK
6
CONTINUOUS
10
5.05662
20
-4.75197
11
5.05662
21
-4.76575
0
LINE
8
BLACK
6
CONTINUOUS
10
5.05662
20
-4.76575
11
5.07434
21
-4.76575
0
LINE
8
BLACK
6
CONTINUOUS
10
5.07434
20
-4.76575
11
5.07573
21
-4.76632
0
LINE
8
BLACK
6
CONTINUOUS
10
5.07573
20
-4.76632
11
5.07631
21
-4.76772
0
LINE
8
BLACK
6
CONTINUOUS
10
5.07631
20
-4.76772
11
5.07573
21
-4.76911
0
LINE
8
BLACK
6
CONTINUOUS
10
5.07573
20
-4.76911
11
5.07434
21
-4.76969
0
LINE
8
BLACK
6
CONTINUOUS
10
5.07434
20
-4.76969
11
5.05662
21
-4.76969
0
LINE
8
BLACK
6
CONTINUOUS
10
5.05662
20
-4.76969
11
5.05662
21
-4.78346
0
LINE
8
BLACK
6
CONTINUOUS
10
5.05662
20
-4.78346
11
5.0564
21
-4.78399
0
LINE
8
BLACK
6
CONTINUOUS
10
5.0564
20
-4.78399
11
5.05629
21
-4.78456
0
LINE
8
BLACK
6
CONTINUOUS
10
5.05629
20
-4.78456
11
5.05612
21
-4.78467
0
LINE
8
BLACK
6
CONTINUOUS
10
5.05612
20
-4.78467
11
5.05605
21
-4.78486
0
LINE
8
BLACK
6
CONTINUOUS
10
5.05605
20
-4.78486
11
5.05552
21
-4.78508
0
LINE
8
BLACK
6
CONTINUOUS
10
5.05552
20
-4.78508
11
5.05504
21
-4.78539
0
LINE
8
BLACK
6
CONTINUOUS
10
5.05504
20
-4.78539
11
5.05484
21
-4.78536
0
LINE
8
BLACK
6
CONTINUOUS
10
5.05484
20
-4.78536
11
5.05466
21
-4.78543
0
LINE
8
BLACK
6
CONTINUOUS
10
5.05466
20
-4.78543
11
5.05413
21
-4.78521
0
LINE
8
BLACK
6
CONTINUOUS
10
5.05413
20
-4.78521
11
5.05356
21
-4.7851
0
LINE
8
BLACK
6
CONTINUOUS
10
5.05356
20
-4.7851
11
5.033
21
-4.77139
0
LINE
8
BLACK
6
CONTINUOUS
10
5.033
20
-4.77139
11
5.033
21
-4.78937
0
LINE
8
BLACK
6
CONTINUOUS
10
5.033
20
-4.78937
11
5.03243
21
-4.79076
0
LINE
8
BLACK
6
CONTINUOUS
10
5.03243
20
-4.79076
11
5.03103
21
-4.79134
0
LINE
8
BLACK
6
CONTINUOUS
10
5.03103
20
-4.79134
11
5.02964
21
-4.79076
0
LINE
8
BLACK
6
CONTINUOUS
10
5.02964
20
-4.79076
11
5.02906
21
-4.78937
0
LINE
8
BLACK
6
CONTINUOUS
10
5.02906
20
-4.78937
11
5.02906
21
-4.76969
0
LINE
8
BLACK
6
CONTINUOUS
10
5.02906
20
-4.76969
11
5.01529
21
-4.76969
0
LINE
8
BLACK
6
CONTINUOUS
10
5.01529
20
-4.76969
11
5.01389
21
-4.76911
0
LINE
8
BLACK
6
CONTINUOUS
10
5.01389
20
-4.76911
11
5.01332
21
-4.76772
0
LINE
8
BLACK
6
CONTINUOUS
10
5.01332
20
-4.76772
11
5.01389
21
-4.76632
0
LINE
8
BLACK
6
CONTINUOUS
10
5.01389
20
-4.76632
11
5.01529
21
-4.76575
0
LINE
8
BLACK
6
CONTINUOUS
10
5.01529
20
-4.76575
11
5.02906
21
-4.76575
0
LINE
8
BLACK
6
CONTINUOUS
10
5.02906
20
-4.76575
11
5.02906
21
-4.74606
0
LINE
8
BLACK
6
CONTINUOUS
10
5.02906
20
-4.74606
11
5.02964
21
-4.74467
0
LINE
8
BLACK
6
CONTINUOUS
10
5.02964
20
-4.74467
11
5.03103
21
-4.74409
0
LINE
8
BLACK
6
CONTINUOUS
10
5.03103
20
-4.74409
11
5.03243
21
-4.74467
0
LINE
8
BLACK
6
CONTINUOUS
10
5.03458
20
-4.76772
11
5.05269
21
-4.77979
0
LINE
8
BLACK
6
CONTINUOUS
10
5.05269
20
-4.77979
11
5.05269
21
-4.75565
0
LINE
8
BLACK
6
CONTINUOUS
10
5.05269
20
-4.75565
11
5.03458
21
-4.76772
0
LINE
8
BLACK
6
CONTINUOUS
10
2.78833
20
-4.54782
11
2.78891
21
-4.54921
0
LINE
8
BLACK
6
CONTINUOUS
10
2.78891
20
-4.54921
11
2.78891
21
-4.56719
0
LINE
8
BLACK
6
CONTINUOUS
10
2.78891
20
-4.56719
11
2.80947
21
-4.55348
0
LINE
8
BLACK
6
CONTINUOUS
10
2.80947
20
-4.55348
11
2.81003
21
-4.55337
0
LINE
8
BLACK
6
CONTINUOUS
10
2.81003
20
-4.55337
11
2.81056
21
-4.55315
0
LINE
8
BLACK
6
CONTINUOUS
10
2.81056
20
-4.55315
11
2.81075
21
-4.55323
0
LINE
8
BLACK
6
CONTINUOUS
10
2.81075
20
-4.55323
11
2.81095
21
-4.55319
0
LINE
8
BLACK
6
CONTINUOUS
10
2.81095
20
-4.55319
11
2.81142
21
-4.55351
0
LINE
8
BLACK
6
CONTINUOUS
10
2.81142
20
-4.55351
11
2.81195
21
-4.55373
0
LINE
8
BLACK
6
CONTINUOUS
10
2.81195
20
-4.55373
11
2.81203
21
-4.55391
0
LINE
8
BLACK
6
CONTINUOUS
10
2.81203
20
-4.55391
11
2.8122
21
-4.55403
0
LINE
8
BLACK
6
CONTINUOUS
10
2.8122
20
-4.55403
11
2.81231
21
-4.55459
0
LINE
8
BLACK
6
CONTINUOUS
10
2.81231
20
-4.55459
11
2.81253
21
-4.55512
0
LINE
8
BLACK
6
CONTINUOUS
10
2.81253
20
-4.55512
11
2.81253
21
-4.5689
0
LINE
8
BLACK
6
CONTINUOUS
10
2.81253
20
-4.5689
11
2.83025
21
-4.5689
0
LINE
8
BLACK
6
CONTINUOUS
10
2.83025
20
-4.5689
11
2.83164
21
-4.56947
0
LINE
8
BLACK
6
CONTINUOUS
10
2.83164
20
-4.56947
11
2.83221
21
-4.57087
0
LINE
8
BLACK
6
CONTINUOUS
10
2.83221
20
-4.57087
11
2.83164
21
-4.57226
0
LINE
8
BLACK
6
CONTINUOUS
10
2.83164
20
-4.57226
11
2.83025
21
-4.57283
0
LINE
8
BLACK
6
CONTINUOUS
10
2.83025
20
-4.57283
11
2.81253
21
-4.57283
0
LINE
8
BLACK
6
CONTINUOUS
10
2.81253
20
-4.57283
11
2.81253
21
-4.58661
0
LINE
8
BLACK
6
CONTINUOUS
10
2.81253
20
-4.58661
11
2.81231
21
-4.58714
0
LINE
8
BLACK
6
CONTINUOUS
10
2.81231
20
-4.58714
11
2.8122
21
-4.58771
0
LINE
8
BLACK
6
CONTINUOUS
10
2.8122
20
-4.58771
11
2.81203
21
-4.58782
0
LINE
8
BLACK
6
CONTINUOUS
10
2.81203
20
-4.58782
11
2.81195
21
-4.58801
0
LINE
8
BLACK
6
CONTINUOUS
10
2.81195
20
-4.58801
11
2.81142
21
-4.58823
0
LINE
8
BLACK
6
CONTINUOUS
10
2.81142
20
-4.58823
11
2.81095
21
-4.58854
0
LINE
8
BLACK
6
CONTINUOUS
10
2.81095
20
-4.58854
11
2.81075
21
-4.58851
0
LINE
8
BLACK
6
CONTINUOUS
10
2.81075
20
-4.58851
11
2.81056
21
-4.58858
0
LINE
8
BLACK
6
CONTINUOUS
10
2.81056
20
-4.58858
11
2.81003
21
-4.58836
0
LINE
8
BLACK
6
CONTINUOUS
10
2.81003
20
-4.58836
11
2.80947
21
-4.58825
0
LINE
8
BLACK
6
CONTINUOUS
10
2.80947
20
-4.58825
11
2.78891
21
-4.57454
0
LINE
8
BLACK
6
CONTINUOUS
10
2.78891
20
-4.57454
11
2.78891
21
-4.59252
0
LINE
8
BLACK
6
CONTINUOUS
10
2.78891
20
-4.59252
11
2.78833
21
-4.59391
0
LINE
8
BLACK
6
CONTINUOUS
10
2.78833
20
-4.59391
11
2.78694
21
-4.59449
0
LINE
8
BLACK
6
CONTINUOUS
10
2.78694
20
-4.59449
11
2.78555
21
-4.59391
0
LINE
8
BLACK
6
CONTINUOUS
10
2.78555
20
-4.59391
11
2.78497
21
-4.59252
0
LINE
8
BLACK
6
CONTINUOUS
10
2.78497
20
-4.59252
11
2.78497
21
-4.57283
0
LINE
8
BLACK
6
CONTINUOUS
10
2.78497
20
-4.57283
11
2.77119
21
-4.57283
0
LINE
8
BLACK
6
CONTINUOUS
10
2.77119
20
-4.57283
11
2.7698
21
-4.57226
0
LINE
8
BLACK
6
CONTINUOUS
10
2.7698
20
-4.57226
11
2.76922
21
-4.57087
0
LINE
8
BLACK
6
CONTINUOUS
10
2.76922
20
-4.57087
11
2.7698
21
-4.56947
0
LINE
8
BLACK
6
CONTINUOUS
10
2.7698
20
-4.56947
11
2.77119
21
-4.5689
0
LINE
8
BLACK
6
CONTINUOUS
10
2.77119
20
-4.5689
11
2.78497
21
-4.5689
0
LINE
8
BLACK
6
CONTINUOUS
10
2.78497
20
-4.5689
11
2.78497
21
-4.54921
0
LINE
8
BLACK
6
CONTINUOUS
10
2.78497
20
-4.54921
11
2.78555
21
-4.54782
0
LINE
8
BLACK
6
CONTINUOUS
10
2.78555
20
-4.54782
11
2.78694
21
-4.54724
0
LINE
8
BLACK
6
CONTINUOUS
10
2.78694
20
-4.54724
11
2.78833
21
-4.54782
0
LINE
8
BLACK
6
CONTINUOUS
10
2.79049
20
-4.57087
11
2.80859
21
-4.58294
0
LINE
8
BLACK
6
CONTINUOUS
10
2.80859
20
-4.58294
11
2.80859
21
-4.5588
0
LINE
8
BLACK
6
CONTINUOUS
10
2.80859
20
-4.5588
11
2.79049
21
-4.57087
0
LINE
8
BLACK
6
CONTINUOUS
10
4.28439
20
-4.35097
11
4.28497
21
-4.35236
0
LINE
8
BLACK
6
CONTINUOUS
10
4.28497
20
-4.35236
11
4.28497
21
-4.37034
0
LINE
8
BLACK
6
CONTINUOUS
10
4.28497
20
-4.37034
11
4.30553
21
-4.35663
0
LINE
8
BLACK
6
CONTINUOUS
10
4.30553
20
-4.35663
11
4.30609
21
-4.35652
0
LINE
8
BLACK
6
CONTINUOUS
10
4.30609
20
-4.35652
11
4.30662
21
-4.3563
0
LINE
8
BLACK
6
CONTINUOUS
10
4.30662
20
-4.3563
11
4.30681
21
-4.35638
0
LINE
8
BLACK
6
CONTINUOUS
10
4.30681
20
-4.35638
11
4.30701
21
-4.35634
0
LINE
8
BLACK
6
CONTINUOUS
10
4.30701
20
-4.35634
11
4.30749
21
-4.35666
0
LINE
8
BLACK
6
CONTINUOUS
10
4.30749
20
-4.35666
11
4.30802
21
-4.35688
0
LINE
8
BLACK
6
CONTINUOUS
10
4.30802
20
-4.35688
11
4.30809
21
-4.35706
0
LINE
8
BLACK
6
CONTINUOUS
10
4.30809
20
-4.35706
11
4.30826
21
-4.35718
0
LINE
8
BLACK
6
CONTINUOUS
10
4.30826
20
-4.35718
11
4.30837
21
-4.35774
0
LINE
8
BLACK
6
CONTINUOUS
10
4.30837
20
-4.35774
11
4.30859
21
-4.35827
0
LINE
8
BLACK
6
CONTINUOUS
10
4.30859
20
-4.35827
11
4.30859
21
-4.37205
0
LINE
8
BLACK
6
CONTINUOUS
10
4.30859
20
-4.37205
11
4.32631
21
-4.37205
0
LINE
8
BLACK
6
CONTINUOUS
10
4.32631
20
-4.37205
11
4.3277
21
-4.37262
0
LINE
8
BLACK
6
CONTINUOUS
10
4.3277
20
-4.37262
11
4.32828
21
-4.37402
0
LINE
8
BLACK
6
CONTINUOUS
10
4.32828
20
-4.37402
11
4.3277
21
-4.37541
0
LINE
8
BLACK
6
CONTINUOUS
10
4.3277
20
-4.37541
11
4.32631
21
-4.37598
0
LINE
8
BLACK
6
CONTINUOUS
10
4.32631
20
-4.37598
11
4.30859
21
-4.37598
0
LINE
8
BLACK
6
CONTINUOUS
10
4.30859
20
-4.37598
11
4.30859
21
-4.38976
0
LINE
8
BLACK
6
CONTINUOUS
10
4.30859
20
-4.38976
11
4.30837
21
-4.39029
0
LINE
8
BLACK
6
CONTINUOUS
10
4.30837
20
-4.39029
11
4.30826
21
-4.39086
0
LINE
8
BLACK
6
CONTINUOUS
10
4.30826
20
-4.39086
11
4.30809
21
-4.39097
0
LINE
8
BLACK
6
CONTINUOUS
10
4.30809
20
-4.39097
11
4.30802
21
-4.39116
0
LINE
8
BLACK
6
CONTINUOUS
10
4.30802
20
-4.39116
11
4.30749
21
-4.39138
0
LINE
8
BLACK
6
CONTINUOUS
10
4.30749
20
-4.39138
11
4.30701
21
-4.39169
0
LINE
8
BLACK
6
CONTINUOUS
10
4.30701
20
-4.39169
11
4.30681
21
-4.39165
0
LINE
8
BLACK
6
CONTINUOUS
10
4.30681
20
-4.39165
11
4.30662
21
-4.39173
0
LINE
8
BLACK
6
CONTINUOUS
10
4.30662
20
-4.39173
11
4.30609
21
-4.39151
0
LINE
8
BLACK
6
CONTINUOUS
10
4.30609
20
-4.39151
11
4.30553
21
-4.3914
0
LINE
8
BLACK
6
CONTINUOUS
10
4.30553
20
-4.3914
11
4.28497
21
-4.37769
0
LINE
8
BLACK
6
CONTINUOUS
10
4.28497
20
-4.37769
11
4.28497
21
-4.39567
0
LINE
8
BLACK
6
CONTINUOUS
10
4.28497
20
-4.39567
11
4.28439
21
-4.39706
0
LINE
8
BLACK
6
CONTINUOUS
10
4.28439
20
-4.39706
11
4.283
21
-4.39764
0
LINE
8
BLACK
6
CONTINUOUS
10
4.283
20
-4.39764
11
4.28161
21
-4.39706
0
LINE
8
BLACK
6
CONTINUOUS
10
4.28161
20
-4.39706
11
4.28103
21
-4.39567
0
LINE
8
BLACK
6
CONTINUOUS
10
4.28103
20
-4.39567
11
4.28103
21
-4.37598
0
LINE
8
BLACK
6
CONTINUOUS
10
4.28103
20
-4.37598
11
4.26725
21
-4.37598
0
LINE
8
BLACK
6
CONTINUOUS
10
4.26725
20
-4.37598
11
4.26586
21
-4.37541
0
LINE
8
BLACK
6
CONTINUOUS
10
4.26586
20
-4.37541
11
4.26529
21
-4.37402
0
LINE
8
BLACK
6
CONTINUOUS
10
4.26529
20
-4.37402
11
4.26586
21
-4.37262
0
LINE
8
BLACK
6
CONTINUOUS
10
4.26586
20
-4.37262
11
4.26725
21
-4.37205
0
LINE
8
BLACK
6
CONTINUOUS
10
4.26725
20
-4.37205
11
4.28103
21
-4.37205
0
LINE
8
BLACK
6
CONTINUOUS
10
4.28103
20
-4.37205
11
4.28103
21
-4.35236
0
LINE
8
BLACK
6
CONTINUOUS
10
4.28103
20
-4.35236
11
4.28161
21
-4.35097
0
LINE
8
BLACK
6
CONTINUOUS
10
4.28161
20
-4.35097
11
4.283
21
-4.35039
0
LINE
8
BLACK
6
CONTINUOUS
10
4.283
20
-4.35039
11
4.28439
21
-4.35097
0
LINE
8
BLACK
6
CONTINUOUS
10
4.28655
20
-4.37402
11
4.30466
21
-4.38609
0
LINE
8
BLACK
6
CONTINUOUS
10
4.30466
20
-4.38609
11
4.30466
21
-4.36195
0
LINE
8
BLACK
6
CONTINUOUS
10
4.30466
20
-4.36195
11
4.28655
21
-4.37402
0
LINE
8
BLACK
6
CONTINUOUS
10
3.53636
20
-4.15412
11
3.53694
21
-4.15551
0
LINE
8
BLACK
6
CONTINUOUS
10
3.53694
20
-4.15551
11
3.53694
21
-4.17349
0
LINE
8
BLACK
6
CONTINUOUS
10
3.53694
20
-4.17349
11
3.5575
21
-4.15978
0
LINE
8
BLACK
6
CONTINUOUS
10
3.5575
20
-4.15978
11
3.55806
21
-4.15967
0
LINE
8
BLACK
6
CONTINUOUS
10
3.55806
20
-4.15967
11
3.55859
21
-4.15945
0
LINE
8
BLACK
6
CONTINUOUS
10
3.55859
20
-4.15945
11
3.55878
21
-4.15953
0
LINE
8
BLACK
6
CONTINUOUS
10
3.55878
20
-4.15953
11
3.55898
21
-4.15949
0
LINE
8
BLACK
6
CONTINUOUS
10
3.55898
20
-4.15949
11
3.55945
21
-4.15981
0
LINE
8
BLACK
6
CONTINUOUS
10
3.55945
20
-4.15981
11
3.55998
21
-4.16003
0
LINE
8
BLACK
6
CONTINUOUS
10
3.55998
20
-4.16003
11
3.56006
21
-4.16021
0
LINE
8
BLACK
6
CONTINUOUS
10
3.56006
20
-4.16021
11
3.56023
21
-4.16033
0
LINE
8
BLACK
6
CONTINUOUS
10
3.56023
20
-4.16033
11
3.56034
21
-4.16089
0
LINE
8
BLACK
6
CONTINUOUS
10
3.56034
20
-4.16089
11
3.56056
21
-4.16142
0
LINE
8
BLACK
6
CONTINUOUS
10
3.56056
20
-4.16142
11
3.56056
21
-4.1752
0
LINE
8
BLACK
6
CONTINUOUS
10
3.56056
20
-4.1752
11
3.57828
21
-4.1752
0
LINE
8
BLACK
6
CONTINUOUS
10
3.57828
20
-4.1752
11
3.57967
21
-4.17577
0
LINE
8
BLACK
6
CONTINUOUS
10
3.57967
20
-4.17577
11
3.58025
21
-4.17717
0
LINE
8
BLACK
6
CONTINUOUS
10
3.58025
20
-4.17717
11
3.57967
21
-4.17856
0
LINE
8
BLACK
6
CONTINUOUS
10
3.57967
20
-4.17856
11
3.57828
21
-4.17913
0
LINE
8
BLACK
6
CONTINUOUS
10
3.57828
20
-4.17913
11
3.56056
21
-4.17913
0
LINE
8
BLACK
6
CONTINUOUS
10
3.56056
20
-4.17913
11
3.56056
21
-4.19291
0
LINE
8
BLACK
6
CONTINUOUS
10
3.56056
20
-4.19291
11
3.56034
21
-4.19344
0
LINE
8
BLACK
6
CONTINUOUS
10
3.56034
20
-4.19344
11
3.56023
21
-4.19401
0
LINE
8
BLACK
6
CONTINUOUS
10
3.56023
20
-4.19401
11
3.56006
21
-4.19412
0
LINE
8
BLACK
6
CONTINUOUS
10
3.56006
20
-4.19412
11
3.55998
21
-4.19431
0
LINE
8
BLACK
6
CONTINUOUS
10
3.55998
20
-4.19431
11
3.55945
21
-4.19452
0
LINE
8
BLACK
6
CONTINUOUS
10
3.55945
20
-4.19452
11
3.55898
21
-4.19484
0
LINE
8
BLACK
6
CONTINUOUS
10
3.55898
20
-4.19484
11
3.55878
21
-4.1948
0
LINE
8
BLACK
6
CONTINUOUS
10
3.55878
20
-4.1948
11
3.55859
21
-4.19488
0
LINE
8
BLACK
6
CONTINUOUS
10
3.55859
20
-4.19488
11
3.55806
21
-4.19466
0
LINE
8
BLACK
6
CONTINUOUS
10
3.55806
20
-4.19466
11
3.5575
21
-4.19455
0
LINE
8
BLACK
6
CONTINUOUS
10
3.5575
20
-4.19455
11
3.53694
21
-4.18084
0
LINE
8
BLACK
6
CONTINUOUS
10
3.53694
20
-4.18084
11
3.53694
21
-4.19882
0
LINE
8
BLACK
6
CONTINUOUS
10
3.53694
20
-4.19882
11
3.53636
21
-4.20021
0
LINE
8
BLACK
6
CONTINUOUS
10
3.53636
20
-4.20021
11
3.53497
21
-4.20079
0
LINE
8
BLACK
6
CONTINUOUS
10
3.53497
20
-4.20079
11
3.53358
21
-4.20021
0
LINE
8
BLACK
6
CONTINUOUS
10
3.53358
20
-4.20021
11
3.533
21
-4.19882
0
LINE
8
BLACK
6
CONTINUOUS
10
3.533
20
-4.19882
11
3.533
21
-4.17913
0
LINE
8
BLACK
6
CONTINUOUS
10
3.533
20
-4.17913
11
3.51922
21
-4.17913
0
LINE
8
BLACK
6
CONTINUOUS
10
3.51922
20
-4.17913
11
3.51783
21
-4.17856
0
LINE
8
BLACK
6
CONTINUOUS
10
3.51783
20
-4.17856
11
3.51725
21
-4.17717
0
LINE
8
BLACK
6
CONTINUOUS
10
3.51725
20
-4.17717
11
3.51783
21
-4.17577
0
LINE
8
BLACK
6
CONTINUOUS
10
3.51783
20
-4.17577
11
3.51922
21
-4.1752
0
LINE
8
BLACK
6
CONTINUOUS
10
3.51922
20
-4.1752
11
3.533
21
-4.1752
0
LINE
8
BLACK
6
CONTINUOUS
10
3.533
20
-4.1752
11
3.533
21
-4.15551
0
LINE
8
BLACK
6
CONTINUOUS
10
3.533
20
-4.15551
11
3.53358
21
-4.15412
0
LINE
8
BLACK
6
CONTINUOUS
10
3.53358
20
-4.15412
11
3.53497
21
-4.15354
0
LINE
8
BLACK
6
CONTINUOUS
10
3.53497
20
-4.15354
11
3.53636
21
-4.15412
0
LINE
8
BLACK
6
CONTINUOUS
10
3.53852
20
-4.17717
11
3.55662
21
-4.18924
0
LINE
8
BLACK
6
CONTINUOUS
10
3.55662
20
-4.18924
11
3.55662
21
-4.1651
0
LINE
8
BLACK
6
CONTINUOUS
10
3.55662
20
-4.1651
11
3.53852
21
-4.17717
0
LINE
8
BLACK
6
CONTINUOUS
10
5.03243
20
-3.99664
11
5.033
21
-3.99803
0
LINE
8
BLACK
6
CONTINUOUS
10
5.033
20
-3.99803
11
5.033
21
-4.01601
0
LINE
8
BLACK
6
CONTINUOUS
10
5.033
20
-4.01601
11
5.05356
21
-4.0023
0
LINE
8
BLACK
6
CONTINUOUS
10
5.05356
20
-4.0023
11
5.05413
21
-4.00219
0
LINE
8
BLACK
6
CONTINUOUS
10
5.05413
20
-4.00219
11
5.05466
21
-4.00197
0
LINE
8
BLACK
6
CONTINUOUS
10
5.05466
20
-4.00197
11
5.05484
21
-4.00205
0
LINE
8
BLACK
6
CONTINUOUS
10
5.05484
20
-4.00205
11
5.05504
21
-4.00201
0
LINE
8
BLACK
6
CONTINUOUS
10
5.05504
20
-4.00201
11
5.05552
21
-4.00233
0
LINE
8
BLACK
6
CONTINUOUS
10
5.05552
20
-4.00233
11
5.05605
21
-4.00255
0
LINE
8
BLACK
6
CONTINUOUS
10
5.05605
20
-4.00255
11
5.05612
21
-4.00273
0
LINE
8
BLACK
6
CONTINUOUS
10
5.05612
20
-4.00273
11
5.05629
21
-4.00285
0
LINE
8
BLACK
6
CONTINUOUS
10
5.05629
20
-4.00285
11
5.0564
21
-4.00341
0
LINE
8
BLACK
6
CONTINUOUS
10
5.0564
20
-4.00341
11
5.05662
21
-4.00394
0
LINE
8
BLACK
6
CONTINUOUS
10
5.05662
20
-4.00394
11
5.05662
21
-4.01772
0
LINE
8
BLACK
6
CONTINUOUS
10
5.05662
20
-4.01772
11
5.07434
21
-4.01772
0
LINE
8
BLACK
6
CONTINUOUS
10
5.07434
20
-4.01772
11
5.07573
21
-4.01829
0
LINE
8
BLACK
6
CONTINUOUS
10
5.07573
20
-4.01829
11
5.07631
21
-4.01969
0
LINE
8
BLACK
6
CONTINUOUS
10
5.07631
20
-4.01969
11
5.07573
21
-4.02108
0
LINE
8
BLACK
6
CONTINUOUS
10
5.07573
20
-4.02108
11
5.07434
21
-4.02165
0
LINE
8
BLACK
6
CONTINUOUS
10
5.07434
20
-4.02165
11
5.05662
21
-4.02165
0
LINE
8
BLACK
6
CONTINUOUS
10
5.05662
20
-4.02165
11
5.05662
21
-4.03543
0
LINE
8
BLACK
6
CONTINUOUS
10
5.05662
20
-4.03543
11
5.0564
21
-4.03596
0
LINE
8
BLACK
6
CONTINUOUS
10
5.0564
20
-4.03596
11
5.05629
21
-4.03653
0
LINE
8
BLACK
6
CONTINUOUS
10
5.05629
20
-4.03653
11
5.05612
21
-4.03664
0
LINE
8
BLACK
6
CONTINUOUS
10
5.05612
20
-4.03664
11
5.05605
21
-4.03683
0
LINE
8
BLACK
6
CONTINUOUS
10
5.05605
20
-4.03683
11
5.05552
21
-4.03704
0
LINE
8
BLACK
6
CONTINUOUS
10
5.05552
20
-4.03704
11
5.05504
21
-4.03736
0
LINE
8
BLACK
6
CONTINUOUS
10
5.05504
20
-4.03736
11
5.05484
21
-4.03732
0
LINE
8
BLACK
6
CONTINUOUS
10
5.05484
20
-4.03732
11
5.05466
21
-4.0374
0
LINE
8
BLACK
6
CONTINUOUS
10
5.05466
20
-4.0374
11
5.05413
21
-4.03718
0
LINE
8
BLACK
6
CONTINUOUS
10
5.05413
20
-4.03718
11
5.05356
21
-4.03707
0
LINE
8
BLACK
6
CONTINUOUS
10
5.05356
20
-4.03707
11
5.033
21
-4.02336
0
LINE
8
BLACK
6
CONTINUOUS
10
5.033
20
-4.02336
11
5.033
21
-4.04134
0
LINE
8
BLACK
6
CONTINUOUS
10
5.033
20
-4.04134
11
5.03243
21
-4.04273
0
LINE
8
BLACK
6
CONTINUOUS
10
5.03243
20
-4.04273
11
5.03103
21
-4.04331
0
LINE
8
BLACK
6
CONTINUOUS
10
5.03103
20
-4.04331
11
5.02964
21
-4.04273
0
LINE
8
BLACK
6
CONTINUOUS
10
5.02964
20
-4.04273
11
5.02906
21
-4.04134
0
LINE
8
BLACK
6
CONTINUOUS
10
5.02906
20
-4.04134
11
5.02906
21
-4.02165
0
LINE
8
BLACK
6
CONTINUOUS
10
5.02906
20
-4.02165
11
5.01529
21
-4.02165
0
LINE
8
BLACK
6
CONTINUOUS
10
5.01529
20
-4.02165
11
5.01389
21
-4.02108
0
LINE
8
BLACK
6
CONTINUOUS
10
5.01389
20
-4.02108
11
5.01332
21
-4.01969
0
LINE
8
BLACK
6
CONTINUOUS
10
5.01332
20
-4.01969
11
5.01389
21
-4.01829
0
LINE
8
BLACK
6
CONTINUOUS
10
5.01389
20
-4.01829
11
5.01529
21
-4.01772
0
LINE
8
BLACK
6
CONTINUOUS
10
5.01529
20
-4.01772
11
5.02906
21
-4.01772
0
LINE
8
BLACK
6
CONTINUOUS
10
5.02906
20
-4.01772
11
5.02906
21
-3.99803
0
LINE
8
BLACK
6
CONTINUOUS
10
5.02906
20
-3.99803
11
5.02964
21
-3.99664
0
LINE
8
BLACK
6
CONTINUOUS
10
5.02964
20
-3.99664
11
5.03103
21
-3.99606
0
LINE
8
BLACK
6
CONTINUOUS
10
5.03103
20
-3.99606
11
5.03243
21
-3.99664
0
LINE
8
BLACK
6
CONTINUOUS
10
5.03458
20
-4.01969
11
5.05269
21
-4.03175
0
LINE
8
BLACK
6
CONTINUOUS
10
5.05269
20
-4.03175
11
5.05269
21
-4.00762
0
LINE
8
BLACK
6
CONTINUOUS
10
5.05269
20
-4.00762
11
5.03458
21
-4.01969
0
LINE
8
BLACK
6
CONTINUOUS
10
2.78833
20
-3.79979
11
2.78891
21
-3.80118
0
LINE
8
BLACK
6
CONTINUOUS
10
2.78891
20
-3.80118
11
2.78891
21
-3.81916
0
LINE
8
BLACK
6
CONTINUOUS
10
2.78891
20
-3.81916
11
2.80947
21
-3.80545
0
LINE
8
BLACK
6
CONTINUOUS
10
2.80947
20
-3.80545
11
2.81003
21
-3.80534
0
LINE
8
BLACK
6
CONTINUOUS
10
2.81003
20
-3.80534
11
2.81056
21
-3.80512
0
LINE
8
BLACK
6
CONTINUOUS
10
2.81056
20
-3.80512
11
2.81075
21
-3.8052
0
LINE
8
BLACK
6
CONTINUOUS
10
2.81075
20
-3.8052
11
2.81095
21
-3.80516
0
LINE
8
BLACK
6
CONTINUOUS
10
2.81095
20
-3.80516
11
2.81142
21
-3.80548
0
LINE
8
BLACK
6
CONTINUOUS
10
2.81142
20
-3.80548
11
2.81195
21
-3.80569
0
LINE
8
BLACK
6
CONTINUOUS
10
2.81195
20
-3.80569
11
2.81203
21
-3.80588
0
LINE
8
BLACK
6
CONTINUOUS
10
2.81203
20
-3.80588
11
2.8122
21
-3.80599
0
LINE
8
BLACK
6
CONTINUOUS
10
2.8122
20
-3.80599
11
2.81231
21
-3.80656
0
LINE
8
BLACK
6
CONTINUOUS
10
2.81231
20
-3.80656
11
2.81253
21
-3.80709
0
LINE
8
BLACK
6
CONTINUOUS
10
2.81253
20
-3.80709
11
2.81253
21
-3.82087
0
LINE
8
BLACK
6
CONTINUOUS
10
2.81253
20
-3.82087
11
2.83025
21
-3.82087
0
LINE
8
BLACK
6
CONTINUOUS
10
2.83025
20
-3.82087
11
2.83164
21
-3.82144
0
LINE
8
BLACK
6
CONTINUOUS
10
2.83164
20
-3.82144
11
2.83221
21
-3.82283
0
LINE
8
BLACK
6
CONTINUOUS
10
2.83221
20
-3.82283
11
2.83164
21
-3.82423
0
LINE
8
BLACK
6
CONTINUOUS
10
2.83164
20
-3.82423
11
2.83025
21
-3.8248
0
LINE
8
BLACK
6
CONTINUOUS
10
2.83025
20
-3.8248
11
2.81253
21
-3.8248
0
LINE
8
BLACK
6
CONTINUOUS
10
2.81253
20
-3.8248
11
2.81253
21
-3.83858
0
LINE
8
BLACK
6
CONTINUOUS
10
2.81253
20
-3.83858
11
2.81231
21
-3.83911
0
LINE
8
BLACK
6
CONTINUOUS
10
2.81231
20
-3.83911
11
2.8122
21
-3.83967
0
LINE
8
BLACK
6
CONTINUOUS
10
2.8122
20
-3.83967
11
2.81203
21
-3.83979
0
LINE
8
BLACK
6
CONTINUOUS
10
2.81203
20
-3.83979
11
2.81195
21
-3.83997
0
LINE
8
BLACK
6
CONTINUOUS
10
2.81195
20
-3.83997
11
2.81142
21
-3.84019
0
LINE
8
BLACK
6
CONTINUOUS
10
2.81142
20
-3.84019
11
2.81095
21
-3.84051
0
LINE
8
BLACK
6
CONTINUOUS
10
2.81095
20
-3.84051
11
2.81075
21
-3.84047
0
LINE
8
BLACK
6
CONTINUOUS
10
2.81075
20
-3.84047
11
2.81056
21
-3.84055
0
LINE
8
BLACK
6
CONTINUOUS
10
2.81056
20
-3.84055
11
2.81003
21
-3.84033
0
LINE
8
BLACK
6
CONTINUOUS
10
2.81003
20
-3.84033
11
2.80947
21
-3.84022
0
LINE
8
BLACK
6
CONTINUOUS
10
2.80947
20
-3.84022
11
2.78891
21
-3.82651
0
LINE
8
BLACK
6
CONTINUOUS
10
2.78891
20
-3.82651
11
2.78891
21
-3.84449
0
LINE
8
BLACK
6
CONTINUOUS
10
2.78891
20
-3.84449
11
2.78833
21
-3.84588
0
LINE
8
BLACK
6
CONTINUOUS
10
2.78833
20
-3.84588
11
2.78694
21
-3.84646
0
LINE
8
BLACK
6
CONTINUOUS
10
2.78694
20
-3.84646
11
2.78555
21
-3.84588
0
LINE
8
BLACK
6
CONTINUOUS
10
2.78555
20
-3.84588
11
2.78497
21
-3.84449
0
LINE
8
BLACK
6
CONTINUOUS
10
2.78497
20
-3.84449
11
2.78497
21
-3.8248
0
LINE
8
BLACK
6
CONTINUOUS
10
2.78497
20
-3.8248
11
2.77119
21
-3.8248
0
LINE
8
BLACK
6
CONTINUOUS
10
2.77119
20
-3.8248
11
2.7698
21
-3.82423
0
LINE
8
BLACK
6
CONTINUOUS
10
2.7698
20
-3.82423
11
2.76922
21
-3.82283
0
LINE
8
BLACK
6
CONTINUOUS
10
2.76922
20
-3.82283
11
2.7698
21
-3.82144
0
LINE
8
BLACK
6
CONTINUOUS
10
2.7698
20
-3.82144
11
2.77119
21
-3.82087
0
LINE
8
BLACK
6
CONTINUOUS
10
2.77119
20
-3.82087
11
2.78497
21
-3.82087
0
LINE
8
BLACK
6
CONTINUOUS
10
2.78497
20
-3.82087
11
2.78497
21
-3.80118
0
LINE
8
BLACK
6
CONTINUOUS
10
2.78497
20
-3.80118
11
2.78555
21
-3.79979
0
LINE
8
BLACK
6
CONTINUOUS
10
2.78555
20
-3.79979
11
2.78694
21
-3.79921
0
LINE
8
BLACK
6
CONTINUOUS
10
2.78694
20
-3.79921
11
2.78833
21
-3.79979
0
LINE
8
BLACK
6
CONTINUOUS
10
2.79049
20
-3.82283
11
2.80859
21
-3.8349
0
LINE
8
BLACK
6
CONTINUOUS
10
2.80859
20
-3.8349
11
2.80859
21
-3.81076
0
LINE
8
BLACK
6
CONTINUOUS
10
2.80859
20
-3.81076
11
2.79049
21
-3.82283
0
LINE
8
BLACK
6
CONTINUOUS
10
4.28439
20
-3.60294
11
4.28497
21
-3.60433
0
LINE
8
BLACK
6
CONTINUOUS
10
4.28497
20
-3.60433
11
4.28497
21
-3.62231
0
LINE
8
BLACK
6
CONTINUOUS
10
4.28497
20
-3.62231
11
4.30553
21
-3.6086
0
LINE
8
BLACK
6
CONTINUOUS
10
4.30553
20
-3.6086
11
4.30609
21
-3.60849
0
LINE
8
BLACK
6
CONTINUOUS
10
4.30609
20
-3.60849
11
4.30662
21
-3.60827
0
LINE
8
BLACK
6
CONTINUOUS
10
4.30662
20
-3.60827
11
4.30681
21
-3.60835
0
LINE
8
BLACK
6
CONTINUOUS
10
4.30681
20
-3.60835
11
4.30701
21
-3.60831
0
LINE
8
BLACK
6
CONTINUOUS
10
4.30701
20
-3.60831
11
4.30749
21
-3.60862
0
LINE
8
BLACK
6
CONTINUOUS
10
4.30749
20
-3.60862
11
4.30802
21
-3.60884
0
LINE
8
BLACK
6
CONTINUOUS
10
4.30802
20
-3.60884
11
4.30809
21
-3.60903
0
LINE
8
BLACK
6
CONTINUOUS
10
4.30809
20
-3.60903
11
4.30826
21
-3.60914
0
LINE
8
BLACK
6
CONTINUOUS
10
4.30826
20
-3.60914
11
4.30837
21
-3.60971
0
LINE
8
BLACK
6
CONTINUOUS
10
4.30837
20
-3.60971
11
4.30859
21
-3.61024
0
LINE
8
BLACK
6
CONTINUOUS
10
4.30859
20
-3.61024
11
4.30859
21
-3.62402
0
LINE
8
BLACK
6
CONTINUOUS
10
4.30859
20
-3.62402
11
4.32631
21
-3.62402
0
LINE
8
BLACK
6
CONTINUOUS
10
4.32631
20
-3.62402
11
4.3277
21
-3.62459
0
LINE
8
BLACK
6
CONTINUOUS
10
4.3277
20
-3.62459
11
4.32828
21
-3.62598
0
LINE
8
BLACK
6
CONTINUOUS
10
4.32828
20
-3.62598
11
4.3277
21
-3.62738
0
LINE
8
BLACK
6
CONTINUOUS
10
4.3277
20
-3.62738
11
4.32631
21
-3.62795
0
LINE
8
BLACK
6
CONTINUOUS
10
4.32631
20
-3.62795
11
4.30859
21
-3.62795
0
LINE
8
BLACK
6
CONTINUOUS
10
4.30859
20
-3.62795
11
4.30859
21
-3.64173
0
LINE
8
BLACK
6
CONTINUOUS
10
4.30859
20
-3.64173
11
4.30837
21
-3.64226
0
LINE
8
BLACK
6
CONTINUOUS
10
4.30837
20
-3.64226
11
4.30826
21
-3.64282
0
LINE
8
BLACK
6
CONTINUOUS
10
4.30826
20
-3.64282
11
4.30809
21
-3.64294
0
LINE
8
BLACK
6
CONTINUOUS
10
4.30809
20
-3.64294
11
4.30802
21
-3.64312
0
LINE
8
BLACK
6
CONTINUOUS
10
4.30802
20
-3.64312
11
4.30749
21
-3.64334
0
LINE
8
BLACK
6
CONTINUOUS
10
4.30749
20
-3.64334
11
4.30701
21
-3.64366
0
LINE
8
BLACK
6
CONTINUOUS
10
4.30701
20
-3.64366
11
4.30681
21
-3.64362
0
LINE
8
BLACK
6
CONTINUOUS
10
4.30681
20
-3.64362
11
4.30662
21
-3.6437
0
LINE
8
BLACK
6
CONTINUOUS
10
4.30662
20
-3.6437
11
4.30609
21
-3.64348
0
LINE
8
BLACK
6
CONTINUOUS
10
4.30609
20
-3.64348
11
4.30553
21
-3.64337
0
LINE
8
BLACK
6
CONTINUOUS
10
4.30553
20
-3.64337
11
4.28497
21
-3.62966
0
LINE
8
BLACK
6
CONTINUOUS
10
4.28497
20
-3.62966
11
4.28497
21
-3.64764
0
LINE
8
BLACK
6
CONTINUOUS
10
4.28497
20
-3.64764
11
4.28439
21
-3.64903
0
LINE
8
BLACK
6
CONTINUOUS
10
4.28439
20
-3.64903
11
4.283
21
-3.64961
0
LINE
8
BLACK
6
CONTINUOUS
10
4.283
20
-3.64961
11
4.28161
21
-3.64903
0
LINE
8
BLACK
6
CONTINUOUS
10
4.28161
20
-3.64903
11
4.28103
21
-3.64764
0
LINE
8
BLACK
6
CONTINUOUS
10
4.28103
20
-3.64764
11
4.28103
21
-3.62795
0
LINE
8
BLACK
6
CONTINUOUS
10
4.28103
20
-3.62795
11
4.26725
21
-3.62795
0
LINE
8
BLACK
6
CONTINUOUS
10
4.26725
20
-3.62795
11
4.26586
21
-3.62738
0
LINE
8
BLACK
6
CONTINUOUS
10
4.26586
20
-3.62738
11
4.26529
21
-3.62598
0
LINE
8
BLACK
6
CONTINUOUS
10
4.26529
20
-3.62598
11
4.26586
21
-3.62459
0
LINE
8
BLACK
6
CONTINUOUS
10
4.26586
20
-3.62459
11
4.26725
21
-3.62402
0
LINE
8
BLACK
6
CONTINUOUS
10
4.26725
20
-3.62402
11
4.28103
21
-3.62402
0
LINE
8
BLACK
6
CONTINUOUS
10
4.28103
20
-3.62402
11
4.28103
21
-3.60433
0
LINE
8
BLACK
6
CONTINUOUS
10
4.28103
20
-3.60433
11
4.28161
21
-3.60294
0
LINE
8
BLACK
6
CONTINUOUS
10
4.28161
20
-3.60294
11
4.283
21
-3.60236
0
LINE
8
BLACK
6
CONTINUOUS
10
4.283
20
-3.60236
11
4.28439
21
-3.60294
0
LINE
8
BLACK
6
CONTINUOUS
10
4.28655
20
-3.62598
11
4.30466
21
-3.63805
0
LINE
8
BLACK
6
CONTINUOUS
10
4.30466
20
-3.63805
11
4.30466
21
-3.61391
0
LINE
8
BLACK
6
CONTINUOUS
10
4.30466
20
-3.61391
11
4.28655
21
-3.62598
0
LINE
8
BLACK
6
CONTINUOUS
10
3.53636
20
-3.40609
11
3.53694
21
-3.40748
0
LINE
8
BLACK
6
CONTINUOUS
10
3.53694
20
-3.40748
11
3.53694
21
-3.42546
0
LINE
8
BLACK
6
CONTINUOUS
10
3.53694
20
-3.42546
11
3.5575
21
-3.41175
0
LINE
8
BLACK
6
CONTINUOUS
10
3.5575
20
-3.41175
11
3.55806
21
-3.41164
0
LINE
8
BLACK
6
CONTINUOUS
10
3.55806
20
-3.41164
11
3.55859
21
-3.41142
0
LINE
8
BLACK
6
CONTINUOUS
10
3.55859
20
-3.41142
11
3.55878
21
-3.41149
0
LINE
8
BLACK
6
CONTINUOUS
10
3.55878
20
-3.41149
11
3.55898
21
-3.41146
0
LINE
8
BLACK
6
CONTINUOUS
10
3.55898
20
-3.41146
11
3.55945
21
-3.41177
0
LINE
8
BLACK
6
CONTINUOUS
10
3.55945
20
-3.41177
11
3.55998
21
-3.41199
0
LINE
8
BLACK
6
CONTINUOUS
10
3.55998
20
-3.41199
11
3.56006
21
-3.41218
0
LINE
8
BLACK
6
CONTINUOUS
10
3.56006
20
-3.41218
11
3.56023
21
-3.41229
0
LINE
8
BLACK
6
CONTINUOUS
10
3.56023
20
-3.41229
11
3.56034
21
-3.41286
0
LINE
8
BLACK
6
CONTINUOUS
10
3.56034
20
-3.41286
11
3.56056
21
-3.41339
0
LINE
8
BLACK
6
CONTINUOUS
10
3.56056
20
-3.41339
11
3.56056
21
-3.42717
0
LINE
8
BLACK
6
CONTINUOUS
10
3.56056
20
-3.42717
11
3.57828
21
-3.42717
0
LINE
8
BLACK
6
CONTINUOUS
10
3.57828
20
-3.42717
11
3.57967
21
-3.42774
0
LINE
8
BLACK
6
CONTINUOUS
10
3.57967
20
-3.42774
11
3.58025
21
-3.42913
0
LINE
8
BLACK
6
CONTINUOUS
10
3.58025
20
-3.42913
11
3.57967
21
-3.43053
0
LINE
8
BLACK
6
CONTINUOUS
10
3.57967
20
-3.43053
11
3.57828
21
-3.4311
0
LINE
8
BLACK
6
CONTINUOUS
10
3.57828
20
-3.4311
11
3.56056
21
-3.4311
0
LINE
8
BLACK
6
CONTINUOUS
10
3.56056
20
-3.4311
11
3.56056
21
-3.44488
0
LINE
8
BLACK
6
CONTINUOUS
10
3.56056
20
-3.44488
11
3.56034
21
-3.44541
0
LINE
8
BLACK
6
CONTINUOUS
10
3.56034
20
-3.44541
11
3.56023
21
-3.44597
0
LINE
8
BLACK
6
CONTINUOUS
10
3.56023
20
-3.44597
11
3.56006
21
-3.44609
0
LINE
8
BLACK
6
CONTINUOUS
10
3.56006
20
-3.44609
11
3.55998
21
-3.44627
0
LINE
8
BLACK
6
CONTINUOUS
10
3.55998
20
-3.44627
11
3.55945
21
-3.44649
0
LINE
8
BLACK
6
CONTINUOUS
10
3.55945
20
-3.44649
11
3.55898
21
-3.44681
0
LINE
8
BLACK
6
CONTINUOUS
10
3.55898
20
-3.44681
11
3.55878
21
-3.44677
0
LINE
8
BLACK
6
CONTINUOUS
10
3.55878
20
-3.44677
11
3.55859
21
-3.44685
0
LINE
8
BLACK
6
CONTINUOUS
10
3.55859
20
-3.44685
11
3.55806
21
-3.44663
0
LINE
8
BLACK
6
CONTINUOUS
10
3.55806
20
-3.44663
11
3.5575
21
-3.44652
0
LINE
8
BLACK
6
CONTINUOUS
10
3.5575
20
-3.44652
11
3.53694
21
-3.43281
0
LINE
8
BLACK
6
CONTINUOUS
10
3.53694
20
-3.43281
11
3.53694
21
-3.45079
0
LINE
8
BLACK
6
CONTINUOUS
10
3.53694
20
-3.45079
11
3.53636
21
-3.45218
0
LINE
8
BLACK
6
CONTINUOUS
10
3.53636
20
-3.45218
11
3.53497
21
-3.45276
0
LINE
8
BLACK
6
CONTINUOUS
10
3.53497
20
-3.45276
11
3.53358
21
-3.45218
0
LINE
8
BLACK
6
CONTINUOUS
10
3.53358
20
-3.45218
11
3.533
21
-3.45079
0
LINE
8
BLACK
6
CONTINUOUS
10
3.533
20
-3.45079
11
3.533
21
-3.4311
0
LINE
8
BLACK
6
CONTINUOUS
10
3.533
20
-3.4311
11
3.51922
21
-3.4311
0
LINE
8
BLACK
6
CONTINUOUS
10
3.51922
20
-3.4311
11
3.51783
21
-3.43053
0
LINE
8
BLACK
6
CONTINUOUS
10
3.51783
20
-3.43053
11
3.51725
21
-3.42913
0
LINE
8
BLACK
6
CONTINUOUS
10
3.51725
20
-3.42913
11
3.51783
21
-3.42774
0
LINE
8
BLACK
6
CONTINUOUS
10
3.51783
20
-3.42774
11
3.51922
21
-3.42717
0
LINE
8
BLACK
6
CONTINUOUS
10
3.51922
20
-3.42717
11
3.533
21
-3.42717
0
LINE
8
BLACK
6
CONTINUOUS
10
3.533
20
-3.42717
11
3.533
21
-3.40748
0
LINE
8
BLACK
6
CONTINUOUS
10
3.533
20
-3.40748
11
3.53358
21
-3.40609
0
LINE
8
BLACK
6
CONTINUOUS
10
3.53358
20
-3.40609
11
3.53497
21
-3.40551
0
LINE
8
BLACK
6
CONTINUOUS
10
3.53497
20
-3.40551
11
3.53636
21
-3.40609
0
LINE
8
BLACK
6
CONTINUOUS
10
3.53852
20
-3.42913
11
3.55662
21
-3.4412
0
LINE
8
BLACK
6
CONTINUOUS
10
3.55662
20
-3.4412
11
3.55662
21
-3.41706
0
LINE
8
BLACK
6
CONTINUOUS
10
3.55662
20
-3.41706
11
3.53852
21
-3.42913
0
LINE
8
BLACK
6
CONTINUOUS
10
5.03243
20
-3.24861
11
5.033
21
-3.25
0
LINE
8
BLACK
6
CONTINUOUS
10
5.033
20
-3.25
11
5.033
21
-3.26798
0
LINE
8
BLACK
6
CONTINUOUS
10
5.033
20
-3.26798
11
5.05356
21
-3.25427
0
LINE
8
BLACK
6
CONTINUOUS
10
5.05356
20
-3.25427
11
5.05413
21
-3.25416
0
LINE
8
BLACK
6
CONTINUOUS
10
5.05413
20
-3.25416
11
5.05466
21
-3.25394
0
LINE
8
BLACK
6
CONTINUOUS
10
5.05466
20
-3.25394
11
5.05484
21
-3.25401
0
LINE
8
BLACK
6
CONTINUOUS
10
5.05484
20
-3.25401
11
5.05504
21
-3.25398
0
LINE
8
BLACK
6
CONTINUOUS
10
5.05504
20
-3.25398
11
5.05552
21
-3.25429
0
LINE
8
BLACK
6
CONTINUOUS
10
5.05552
20
-3.25429
11
5.05605
21
-3.25451
0
LINE
8
BLACK
6
CONTINUOUS
10
5.05605
20
-3.25451
11
5.05612
21
-3.2547
0
LINE
8
BLACK
6
CONTINUOUS
10
5.05612
20
-3.2547
11
5.05629
21
-3.25481
0
LINE
8
BLACK
6
CONTINUOUS
10
5.05629
20
-3.25481
11
5.0564
21
-3.25538
0
LINE
8
BLACK
6
CONTINUOUS
10
5.0564
20
-3.25538
11
5.05662
21
-3.25591
0
LINE
8
BLACK
6
CONTINUOUS
10
5.05662
20
-3.25591
11
5.05662
21
-3.26969
0
LINE
8
BLACK
6
CONTINUOUS
10
5.05662
20
-3.26969
11
5.07434
21
-3.26969
0
LINE
8
BLACK
6
CONTINUOUS
10
5.07434
20
-3.26969
11
5.07573
21
-3.27026
0
LINE
8
BLACK
6
CONTINUOUS
10
5.07573
20
-3.27026
11
5.07631
21
-3.27165
0
LINE
8
BLACK
6
CONTINUOUS
10
5.07631
20
-3.27165
11
5.07573
21
-3.27305
0
LINE
8
BLACK
6
CONTINUOUS
10
5.07573
20
-3.27305
11
5.07434
21
-3.27362
0
LINE
8
BLACK
6
CONTINUOUS
10
5.07434
20
-3.27362
11
5.05662
21
-3.27362
0
LINE
8
BLACK
6
CONTINUOUS
10
5.05662
20
-3.27362
11
5.05662
21
-3.2874
0
LINE
8
BLACK
6
CONTINUOUS
10
5.05662
20
-3.2874
11
5.0564
21
-3.28793
0
LINE
8
BLACK
6
CONTINUOUS
10
5.0564
20
-3.28793
11
5.05629
21
-3.28849
0
LINE
8
BLACK
6
CONTINUOUS
10
5.05629
20
-3.28849
11
5.05612
21
-3.28861
0
LINE
8
BLACK
6
CONTINUOUS
10
5.05612
20
-3.28861
11
5.05605
21
-3.28879
0
LINE
8
BLACK
6
CONTINUOUS
10
5.05605
20
-3.28879
11
5.05552
21
-3.28901
0
LINE
8
BLACK
6
CONTINUOUS
10
5.05552
20
-3.28901
11
5.05504
21
-3.28933
0
LINE
8
BLACK
6
CONTINUOUS
10
5.05504
20
-3.28933
11
5.05484
21
-3.28929
0
LINE
8
BLACK
6
CONTINUOUS
10
5.05484
20
-3.28929
11
5.05466
21
-3.28937
0
LINE
8
BLACK
6
CONTINUOUS
10
5.05466
20
-3.28937
11
5.05413
21
-3.28915
0
LINE
8
BLACK
6
CONTINUOUS
10
5.05413
20
-3.28915
11
5.05356
21
-3.28904
0
LINE
8
BLACK
6
CONTINUOUS
10
5.05356
20
-3.28904
11
5.033
21
-3.27533
0
LINE
8
BLACK
6
CONTINUOUS
10
5.033
20
-3.27533
11
5.033
21
-3.29331
0
LINE
8
BLACK
6
CONTINUOUS
10
5.033
20
-3.29331
11
5.03243
21
-3.2947
0
LINE
8
BLACK
6
CONTINUOUS
10
5.03243
20
-3.2947
11
5.03103
21
-3.29528
0
LINE
8
BLACK
6
CONTINUOUS
10
5.03103
20
-3.29528
11
5.02964
21
-3.2947
0
LINE
8
BLACK
6
CONTINUOUS
10
5.02964
20
-3.2947
11
5.02906
21
-3.29331
0
LINE
8
BLACK
6
CONTINUOUS
10
5.02906
20
-3.29331
11
5.02906
21
-3.27362
0
LINE
8
BLACK
6
CONTINUOUS
10
5.02906
20
-3.27362
11
5.01529
21
-3.27362
0
LINE
8
BLACK
6
CONTINUOUS
10
5.01529
20
-3.27362
11
5.01389
21
-3.27305
0
LINE
8
BLACK
6
CONTINUOUS
10
5.01389
20
-3.27305
11
5.01332
21
-3.27165
0
LINE
8
BLACK
6
CONTINUOUS
10
5.01332
20
-3.27165
11
5.01389
21
-3.27026
0
LINE
8
BLACK
6
CONTINUOUS
10
5.01389
20
-3.27026
11
5.01529
21
-3.26969
0
LINE
8
BLACK
6
CONTINUOUS
10
5.01529
20
-3.26969
11
5.02906
21
-3.26969
0
LINE
8
BLACK
6
CONTINUOUS
10
5.02906
20
-3.26969
11
5.02906
21
-3.25
0
LINE
8
BLACK
6
CONTINUOUS
10
5.02906
20
-3.25
11
5.02964
21
-3.24861
0
LINE
8
BLACK
6
CONTINUOUS
10
5.02964
20
-3.24861
11
5.03103
21
-3.24803
0
LINE
8
BLACK
6
CONTINUOUS
10
5.03103
20
-3.24803
11
5.03243
21
-3.24861
0
LINE
8
BLACK
6
CONTINUOUS
10
5.03458
20
-3.27165
11
5.05269
21
-3.28372
0
LINE
8
BLACK
6
CONTINUOUS
10
5.05269
20
-3.28372
11
5.05269
21
-3.25958
0
LINE
8
BLACK
6
CONTINUOUS
10
5.05269
20
-3.25958
11
5.03458
21
-3.27165
0
LINE
8
BLACK
6
CONTINUOUS
10
2.78833
20
-3.05176
11
2.78891
21
-3.05315
0
LINE
8
BLACK
6
CONTINUOUS
10
2.78891
20
-3.05315
11
2.78891
21
-3.07112
0
LINE
8
BLACK
6
CONTINUOUS
10
2.78891
20
-3.07112
11
2.80947
21
-3.05742
0
LINE
8
BLACK
6
CONTINUOUS
10
2.80947
20
-3.05742
11
2.81003
21
-3.05731
0
LINE
8
BLACK
6
CONTINUOUS
10
2.81003
20
-3.05731
11
2.81056
21
-3.05709
0
LINE
8
BLACK
6
CONTINUOUS
10
2.81056
20
-3.05709
11
2.81075
21
-3.05716
0
LINE
8
BLACK
6
CONTINUOUS
10
2.81075
20
-3.05716
11
2.81095
21
-3.05712
0
LINE
8
BLACK
6
CONTINUOUS
10
2.81095
20
-3.05712
11
2.81142
21
-3.05744
0
LINE
8
BLACK
6
CONTINUOUS
10
2.81142
20
-3.05744
11
2.81195
21
-3.05766
0
LINE
8
BLACK
6
CONTINUOUS
10
2.81195
20
-3.05766
11
2.81203
21
-3.05785
0
LINE
8
BLACK
6
CONTINUOUS
10
2.81203
20
-3.05785
11
2.8122
21
-3.05796
0
LINE
8
BLACK
6
CONTINUOUS
10
2.8122
20
-3.05796
11
2.81231
21
-3.05853
0
LINE
8
BLACK
6
CONTINUOUS
10
2.81231
20
-3.05853
11
2.81253
21
-3.05906
0
LINE
8
BLACK
6
CONTINUOUS
10
2.81253
20
-3.05906
11
2.81253
21
-3.07283
0
LINE
8
BLACK
6
CONTINUOUS
10
2.81253
20
-3.07283
11
2.83025
21
-3.07283
0
LINE
8
BLACK
6
CONTINUOUS
10
2.83025
20
-3.07283
11
2.83164
21
-3.07341
0
LINE
8
BLACK
6
CONTINUOUS
10
2.83164
20
-3.07341
11
2.83221
21
-3.0748
0
LINE
8
BLACK
6
CONTINUOUS
10
2.83221
20
-3.0748
11
2.83164
21
-3.0762
0
LINE
8
BLACK
6
CONTINUOUS
10
2.83164
20
-3.0762
11
2.83025
21
-3.07677
0
LINE
8
BLACK
6
CONTINUOUS
10
2.83025
20
-3.07677
11
2.81253
21
-3.07677
0
LINE
8
BLACK
6
CONTINUOUS
10
2.81253
20
-3.07677
11
2.81253
21
-3.09055
0
LINE
8
BLACK
6
CONTINUOUS
10
2.81253
20
-3.09055
11
2.81231
21
-3.09108
0
LINE
8
BLACK
6
CONTINUOUS
10
2.81231
20
-3.09108
11
2.8122
21
-3.09164
0
LINE
8
BLACK
6
CONTINUOUS
10
2.8122
20
-3.09164
11
2.81203
21
-3.09176
0
LINE
8
BLACK
6
CONTINUOUS
10
2.81203
20
-3.09176
11
2.81195
21
-3.09194
0
LINE
8
BLACK
6
CONTINUOUS
10
2.81195
20
-3.09194
11
2.81142
21
-3.09216
0
LINE
8
BLACK
6
CONTINUOUS
10
2.81142
20
-3.09216
11
2.81095
21
-3.09248
0
LINE
8
BLACK
6
CONTINUOUS
10
2.81095
20
-3.09248
11
2.81075
21
-3.09244
0
LINE
8
BLACK
6
CONTINUOUS
10
2.81075
20
-3.09244
11
2.81056
21
-3.09252
0
LINE
8
BLACK
6
CONTINUOUS
10
2.81056
20
-3.09252
11
2.81003
21
-3.0923
0
LINE
8
BLACK
6
CONTINUOUS
10
2.81003
20
-3.0923
11
2.80947
21
-3.09219
0
LINE
8
BLACK
6
CONTINUOUS
10
2.80947
20
-3.09219
11
2.78891
21
-3.07848
0
LINE
8
BLACK
6
CONTINUOUS
10
2.78891
20
-3.07848
11
2.78891
21
-3.09646
0
LINE
8
BLACK
6
CONTINUOUS
10
2.78891
20
-3.09646
11
2.78833
21
-3.09785
0
LINE
8
BLACK
6
CONTINUOUS
10
2.78833
20
-3.09785
11
2.78694
21
-3.09843
0
LINE
8
BLACK
6
CONTINUOUS
10
2.78694
20
-3.09843
11
2.78555
21
-3.09785
0
LINE
8
BLACK
6
CONTINUOUS
10
2.78555
20
-3.09785
11
2.78497
21
-3.09646
0
LINE
8
BLACK
6
CONTINUOUS
10
2.78497
20
-3.09646
11
2.78497
21
-3.07677
0
LINE
8
BLACK
6
CONTINUOUS
10
2.78497
20
-3.07677
11
2.77119
21
-3.07677
0
LINE
8
BLACK
6
CONTINUOUS
10
2.77119
20
-3.07677
11
2.7698
21
-3.0762
0
LINE
8
BLACK
6
CONTINUOUS
10
2.7698
20
-3.0762
11
2.76922
21
-3.0748
0
LINE
8
BLACK
6
CONTINUOUS
10
2.76922
20
-3.0748
11
2.7698
21
-3.07341
0
LINE
8
BLACK
6
CONTINUOUS
10
2.7698
20
-3.07341
11
2.77119
21
-3.07283
0
LINE
8
BLACK
6
CONTINUOUS
10
2.77119
20
-3.07283
11
2.78497
21
-3.07283
0
LINE
8
BLACK
6
CONTINUOUS
10
2.78497
20
-3.07283
11
2.78497
21
-3.05315
0
LINE
8
BLACK
6
CONTINUOUS
10
2.78497
20
-3.05315
11
2.78555
21
-3.05176
0
LINE
8
BLACK
6
CONTINUOUS
10
2.78555
20
-3.05176
11
2.78694
21
-3.05118
0
LINE
8
BLACK
6
CONTINUOUS
10
2.78694
20
-3.05118
11
2.78833
21
-3.05176
0
LINE
8
BLACK
6
CONTINUOUS
10
2.79049
20
-3.0748
11
2.80859
21
-3.08687
0
LINE
8
BLACK
6
CONTINUOUS
10
2.80859
20
-3.08687
11
2.80859
21
-3.06273
0
LINE
8
BLACK
6
CONTINUOUS
10
2.80859
20
-3.06273
11
2.79049
21
-3.0748
0
LINE
8
BLACK
6
CONTINUOUS
10
4.28439
20
-2.85491
11
4.28497
21
-2.8563
0
LINE
8
BLACK
6
CONTINUOUS
10
4.28497
20
-2.8563
11
4.28497
21
-2.87427
0
LINE
8
BLACK
6
CONTINUOUS
10
4.28497
20
-2.87427
11
4.30553
21
-2.86057
0
LINE
8
BLACK
6
CONTINUOUS
10
4.30553
20
-2.86057
11
4.30609
21
-2.86046
0
LINE
8
BLACK
6
CONTINUOUS
10
4.30609
20
-2.86046
11
4.30662
21
-2.86024
0
LINE
8
BLACK
6
CONTINUOUS
10
4.30662
20
-2.86024
11
4.30681
21
-2.86031
0
LINE
8
BLACK
6
CONTINUOUS
10
4.30681
20
-2.86031
11
4.30701
21
-2.86027
0
LINE
8
BLACK
6
CONTINUOUS
10
4.30701
20
-2.86027
11
4.30749
21
-2.86059
0
LINE
8
BLACK
6
CONTINUOUS
10
4.30749
20
-2.86059
11
4.30802
21
-2.86081
0
LINE
8
BLACK
6
CONTINUOUS
10
4.30802
20
-2.86081
11
4.30809
21
-2.861
0
LINE
8
BLACK
6
CONTINUOUS
10
4.30809
20
-2.861
11
4.30826
21
-2.86111
0
LINE
8
BLACK
6
CONTINUOUS
10
4.30826
20
-2.86111
11
4.30837
21
-2.86168
0
LINE
8
BLACK
6
CONTINUOUS
10
4.30837
20
-2.86168
11
4.30859
21
-2.8622
0
LINE
8
BLACK
6
CONTINUOUS
10
4.30859
20
-2.8622
11
4.30859
21
-2.87598
0
LINE
8
BLACK
6
CONTINUOUS
10
4.30859
20
-2.87598
11
4.32631
21
-2.87598
0
LINE
8
BLACK
6
CONTINUOUS
10
4.32631
20
-2.87598
11
4.3277
21
-2.87656
0
LINE
8
BLACK
6
CONTINUOUS
10
4.3277
20
-2.87656
11
4.32828
21
-2.87795
0
LINE
8
BLACK
6
CONTINUOUS
10
4.32828
20
-2.87795
11
4.3277
21
-2.87934
0
LINE
8
BLACK
6
CONTINUOUS
10
4.3277
20
-2.87934
11
4.32631
21
-2.87992
0
LINE
8
BLACK
6
CONTINUOUS
10
4.32631
20
-2.87992
11
4.30859
21
-2.87992
0
LINE
8
BLACK
6
CONTINUOUS
10
4.30859
20
-2.87992
11
4.30859
21
-2.8937
0
LINE
8
BLACK
6
CONTINUOUS
10
4.30859
20
-2.8937
11
4.30837
21
-2.89423
0
LINE
8
BLACK
6
CONTINUOUS
10
4.30837
20
-2.89423
11
4.30826
21
-2.89479
0
LINE
8
BLACK
6
CONTINUOUS
10
4.30826
20
-2.89479
11
4.30809
21
-2.89491
0
LINE
8
BLACK
6
CONTINUOUS
10
4.30809
20
-2.89491
11
4.30802
21
-2.89509
0
LINE
8
BLACK
6
CONTINUOUS
10
4.30802
20
-2.89509
11
4.30749
21
-2.89531
0
LINE
8
BLACK
6
CONTINUOUS
10
4.30749
20
-2.89531
11
4.30701
21
-2.89563
0
LINE
8
BLACK
6
CONTINUOUS
10
4.30701
20
-2.89563
11
4.30681
21
-2.89559
0
LINE
8
BLACK
6
CONTINUOUS
10
4.30681
20
-2.89559
11
4.30662
21
-2.89567
0
LINE
8
BLACK
6
CONTINUOUS
10
4.30662
20
-2.89567
11
4.30609
21
-2.89545
0
LINE
8
BLACK
6
CONTINUOUS
10
4.30609
20
-2.89545
11
4.30553
21
-2.89534
0
LINE
8
BLACK
6
CONTINUOUS
10
4.30553
20
-2.89534
11
4.28497
21
-2.88163
0
LINE
8
BLACK
6
CONTINUOUS
10
4.28497
20
-2.88163
11
4.28497
21
-2.89961
0
LINE
8
BLACK
6
CONTINUOUS
10
4.28497
20
-2.89961
11
4.28439
21
-2.901
0
LINE
8
BLACK
6
CONTINUOUS
10
4.28439
20
-2.901
11
4.283
21
-2.90157
0
LINE
8
BLACK
6
CONTINUOUS
10
4.283
20
-2.90157
11
4.28161
21
-2.901
0
LINE
8
BLACK
6
CONTINUOUS
10
4.28161
20
-2.901
11
4.28103
21
-2.89961
0
LINE
8
BLACK
6
CONTINUOUS
10
4.28103
20
-2.89961
11
4.28103
21
-2.87992
0
LINE
8
BLACK
6
CONTINUOUS
10
4.28103
20
-2.87992
11
4.26725
21
-2.87992
0
LINE
8
BLACK
6
CONTINUOUS
10
4.26725
20
-2.87992
11
4.26586
21
-2.87934
0
LINE
8
BLACK
6
CONTINUOUS
10
4.26586
20
-2.87934
11
4.26529
21
-2.87795
0
LINE
8
BLACK
6
CONTINUOUS
10
4.26529
20
-2.87795
11
4.26586
21
-2.87656
0
LINE
8
BLACK
6
CONTINUOUS
10
4.26586
20
-2.87656
11
4.26725
21
-2.87598
0
LINE
8
BLACK
6
CONTINUOUS
10
4.26725
20
-2.87598
11
4.28103
21
-2.87598
0
LINE
8
BLACK
6
CONTINUOUS
10
4.28103
20
-2.87598
11
4.28103
21
-2.8563
0
LINE
8
BLACK
6
CONTINUOUS
10
4.28103
20
-2.8563
11
4.28161
21
-2.85491
0
LINE
8
BLACK
6
CONTINUOUS
10
4.28161
20
-2.85491
11
4.283
21
-2.85433
0
LINE
8
BLACK
6
CONTINUOUS
10
4.283
20
-2.85433
11
4.28439
21
-2.85491
0
LINE
8
BLACK
6
CONTINUOUS
10
4.28655
20
-2.87795
11
4.30466
21
-2.89002
0
LINE
8
BLACK
6
CONTINUOUS
10
4.30466
20
-2.89002
11
4.30466
21
-2.86588
0
LINE
8
BLACK
6
CONTINUOUS
10
4.30466
20
-2.86588
11
4.28655
21
-2.87795
0
LINE
8
BLACK
6
CONTINUOUS
10
3.53636
20
-2.65806
11
3.53694
21
-2.65945
0
LINE
8
BLACK
6
CONTINUOUS
10
3.53694
20
-2.65945
11
3.53694
21
-2.67742
0
LINE
8
BLACK
6
CONTINUOUS
10
3.53694
20
-2.67742
11
3.5575
21
-2.66372
0
LINE
8
BLACK
6
CONTINUOUS
10
3.5575
20
-2.66372
11
3.55806
21
-2.66361
0
LINE
8
BLACK
6
CONTINUOUS
10
3.55806
20
-2.66361
11
3.55859
21
-2.66339
0
LINE
8
BLACK
6
CONTINUOUS
10
3.55859
20
-2.66339
11
3.55878
21
-2.66346
0
LINE
8
BLACK
6
CONTINUOUS
10
3.55878
20
-2.66346
11
3.55898
21
-2.66342
0
LINE
8
BLACK
6
CONTINUOUS
10
3.55898
20
-2.66342
11
3.55945
21
-2.66374
0
LINE
8
BLACK
6
CONTINUOUS
10
3.55945
20
-2.66374
11
3.55998
21
-2.66396
0
LINE
8
BLACK
6
CONTINUOUS
10
3.55998
20
-2.66396
11
3.56006
21
-2.66415
0
LINE
8
BLACK
6
CONTINUOUS
10
3.56006
20
-2.66415
11
3.56023
21
-2.66426
0
LINE
8
BLACK
6
CONTINUOUS
10
3.56023
20
-2.66426
11
3.56034
21
-2.66482
0
LINE
8
BLACK
6
CONTINUOUS
10
3.56034
20
-2.66482
11
3.56056
21
-2.66535
0
LINE
8
BLACK
6
CONTINUOUS
10
3.56056
20
-2.66535
11
3.56056
21
-2.67913
0
LINE
8
BLACK
6
CONTINUOUS
10
3.56056
20
-2.67913
11
3.57828
21
-2.67913
0
LINE
8
BLACK
6
CONTINUOUS
10
3.57828
20
-2.67913
11
3.57967
21
-2.67971
0
LINE
8
BLACK
6
CONTINUOUS
10
3.57967
20
-2.67971
11
3.58025
21
-2.6811
0
LINE
8
BLACK
6
CONTINUOUS
10
3.58025
20
-2.6811
11
3.57967
21
-2.68249
0
LINE
8
BLACK
6
CONTINUOUS
10
3.57967
20
-2.68249
11
3.57828
21
-2.68307
0
LINE
8
BLACK
6
CONTINUOUS
10
3.57828
20
-2.68307
11
3.56056
21
-2.68307
0
LINE
8
BLACK
6
CONTINUOUS
10
3.56056
20
-2.68307
11
3.56056
21
-2.69685
0
LINE
8
BLACK
6
CONTINUOUS
10
3.56056
20
-2.69685
11
3.56034
21
-2.69738
0
LINE
8
BLACK
6
CONTINUOUS
10
3.56034
20
-2.69738
11
3.56023
21
-2.69794
0
LINE
8
BLACK
6
CONTINUOUS
10
3.56023
20
-2.69794
11
3.56006
21
-2.69806
0
LINE
8
BLACK
6
CONTINUOUS
10
3.56006
20
-2.69806
11
3.55998
21
-2.69824
0
LINE
8
BLACK
6
CONTINUOUS
10
3.55998
20
-2.69824
11
3.55945
21
-2.69846
0
LINE
8
BLACK
6
CONTINUOUS
10
3.55945
20
-2.69846
11
3.55898
21
-2.69878
0
LINE
8
BLACK
6
CONTINUOUS
10
3.55898
20
-2.69878
11
3.55878
21
-2.69874
0
LINE
8
BLACK
6
CONTINUOUS
10
3.55878
20
-2.69874
11
3.55859
21
-2.69882
0
LINE
8
BLACK
6
CONTINUOUS
10
3.55859
20
-2.69882
11
3.55806
21
-2.6986
0
LINE
8
BLACK
6
CONTINUOUS
10
3.55806
20
-2.6986
11
3.5575
21
-2.69849
0
LINE
8
BLACK
6
CONTINUOUS
10
3.5575
20
-2.69849
11
3.53694
21
-2.68478
0
LINE
8
BLACK
6
CONTINUOUS
10
3.53694
20
-2.68478
11
3.53694
21
-2.70276
0
LINE
8
BLACK
6
CONTINUOUS
10
3.53694
20
-2.70276
11
3.53636
21
-2.70415
0
LINE
8
BLACK
6
CONTINUOUS
10
3.53636
20
-2.70415
11
3.53497
21
-2.70472
0
LINE
8
BLACK
6
CONTINUOUS
10
3.53497
20
-2.70472
11
3.53358
21
-2.70415
0
LINE
8
BLACK
6
CONTINUOUS
10
3.53358
20
-2.70415
11
3.533
21
-2.70276
0
LINE
8
BLACK
6
CONTINUOUS
10
3.533
20
-2.70276
11
3.533
21
-2.68307
0
LINE
8
BLACK
6
CONTINUOUS
10
3.533
20
-2.68307
11
3.51922
21
-2.68307
0
LINE
8
BLACK
6
CONTINUOUS
10
3.51922
20
-2.68307
11
3.51783
21
-2.68249
0
LINE
8
BLACK
6
CONTINUOUS
10
3.51783
20
-2.68249
11
3.51725
21
-2.6811
0
LINE
8
BLACK
6
CONTINUOUS
10
3.51725
20
-2.6811
11
3.51783
21
-2.67971
0
LINE
8
BLACK
6
CONTINUOUS
10
3.51783
20
-2.67971
11
3.51922
21
-2.67913
0
LINE
8
BLACK
6
CONTINUOUS
10
3.51922
20
-2.67913
11
3.533
21
-2.67913
0
LINE
8
BLACK
6
CONTINUOUS
10
3.533
20
-2.67913
11
3.533
21
-2.65945
0
LINE
8
BLACK
6
CONTINUOUS
10
3.533
20
-2.65945
11
3.53358
21
-2.65806
0
LINE
8
BLACK
6
CONTINUOUS
10
3.53358
20
-2.65806
11
3.53497
21
-2.65748
0
LINE
8
BLACK
6
CONTINUOUS
10
3.53497
20
-2.65748
11
3.53636
21
-2.65806
0
LINE
8
BLACK
6
CONTINUOUS
10
3.53852
20
-2.6811
11
3.55662
21
-2.69317
0
LINE
8
BLACK
6
CONTINUOUS
10
3.55662
20
-2.69317
11
3.55662
21
-2.66903
0
LINE
8
BLACK
6
CONTINUOUS
10
3.55662
20
-2.66903
11
3.53852
21
-2.6811
  0
ENDSEC
  0
EOF
