  0
SECTION
  2
HEADER
  9
$ANGBASE
  50
0.0
  9
$ANGDIR
  70
1
  9
$MEASUREMENT
  70
0
  0
ENDSEC
  0
SECTION
  2
TABLES
  0
TABLE
  2
LTYPE
  70
4
  0
LTYPE
  5
40F
  2
CONTINUOUS
  70
0
  3
Solid line
  72
65
  73
0
  40
0.0
  0
LTYPE
  5
410
  2
DASHDOT
 70
0
  3
Dash Dot ____ _ ____ _
 72
65
 73
4
 40
2.0
 49
1.25
 49
-0.25
 49
0.25
 49
-0.25
  0
LTYPE
  5
411
  2
DASHED
 70
0
  3
Dashed __ __ __ __ __
 72
65
 73
2
 40
0.75
 49
0.5
 49
-0.25
  0
LTYPE
  5
43B
  2
DOTTED
 70
0
  3
Dotted .  .  .  .
 72
65
 73
2
 40
0.2
 49
0.0
 49
-0.2
  0
ENDTAB
  0
TABLE
  2
STYLE
  70
4
  0
STYLE
  2
KICAD
  70
0
  40
0
  41
1
  42
1
  50
0
  71
0
  3
isocp.shx
  0
STYLE
  2
KICADB
  70
0
  40
0
  41
1
  42
1
  50
0
  71
0
  3
isocp.shx
  0
STYLE
  2
KICADI
  70
0
  40
0
  41
1
  42
1
  50
15
  71
0
  3
isocp.shx
  0
STYLE
  2
KICADBI
  70
0
  40
0
  41
1
  42
1
  50
15
  71
0
  3
isocp.shx
  0
ENDTAB
  0
TABLE
  2
LAYER
  70
1
  0
LAYER
  2
BLACK
  70
0
  62
7
  6
CONTINUOUS
  0
ENDTAB
  0
ENDSEC
  0
SECTION
  2
ENTITIES
0
LINE
8
BLACK
6
CONTINUOUS
10
4.60272
20
-2.30483
11
4.6132
21
-2.30692
0
LINE
8
BLACK
6
CONTINUOUS
10
4.6132
20
-2.30692
11
4.62332
21
-2.31035
0
LINE
8
BLACK
6
CONTINUOUS
10
4.62332
20
-2.31035
11
4.6329
21
-2.31508
0
LINE
8
BLACK
6
CONTINUOUS
10
4.6329
20
-2.31508
11
4.64179
21
-2.32101
0
LINE
8
BLACK
6
CONTINUOUS
10
4.64179
20
-2.32101
11
4.64982
21
-2.32806
0
LINE
8
BLACK
6
CONTINUOUS
10
4.64982
20
-2.32806
11
4.65687
21
-2.33609
0
LINE
8
BLACK
6
CONTINUOUS
10
4.65687
20
-2.33609
11
4.66281
21
-2.34498
0
LINE
8
BLACK
6
CONTINUOUS
10
4.66281
20
-2.34498
11
4.66753
21
-2.35456
0
LINE
8
BLACK
6
CONTINUOUS
10
4.66753
20
-2.35456
11
4.67097
21
-2.36468
0
LINE
8
BLACK
6
CONTINUOUS
10
4.67097
20
-2.36468
11
4.67305
21
-2.37516
0
LINE
8
BLACK
6
CONTINUOUS
10
4.67305
20
-2.37516
11
4.67375
21
-2.38583
0
LINE
8
BLACK
6
CONTINUOUS
10
4.67375
20
-2.38583
11
4.67375
21
-2.38583
0
LINE
8
BLACK
6
CONTINUOUS
10
4.67375
20
-2.38583
11
4.67375
21
-2.62205
0
LINE
8
BLACK
6
CONTINUOUS
10
4.67375
20
-2.62205
11
4.67363
21
-2.62273
0
LINE
8
BLACK
6
CONTINUOUS
10
4.67363
20
-2.62273
11
4.67424
21
-2.63196
0
LINE
8
BLACK
6
CONTINUOUS
10
4.67424
20
-2.63196
11
4.67617
21
-2.6417
0
LINE
8
BLACK
6
CONTINUOUS
10
4.67617
20
-2.6417
11
4.67937
21
-2.65111
0
LINE
8
BLACK
6
CONTINUOUS
10
4.67937
20
-2.65111
11
4.68376
21
-2.66002
0
LINE
8
BLACK
6
CONTINUOUS
10
4.68376
20
-2.66002
11
4.68928
21
-2.66828
0
LINE
8
BLACK
6
CONTINUOUS
10
4.68928
20
-2.66828
11
4.69583
21
-2.67575
0
LINE
8
BLACK
6
CONTINUOUS
10
4.69583
20
-2.67575
11
4.7033
21
-2.6823
0
LINE
8
BLACK
6
CONTINUOUS
10
4.7033
20
-2.6823
11
4.71156
21
-2.68782
0
LINE
8
BLACK
6
CONTINUOUS
10
4.71156
20
-2.68782
11
4.72047
21
-2.69222
0
LINE
8
BLACK
6
CONTINUOUS
10
4.72047
20
-2.69222
11
4.72988
21
-2.69541
0
LINE
8
BLACK
6
CONTINUOUS
10
4.72988
20
-2.69541
11
4.73962
21
-2.69735
0
LINE
8
BLACK
6
CONTINUOUS
10
4.73962
20
-2.69735
11
4.74912
21
-2.69797
0
LINE
8
BLACK
6
CONTINUOUS
10
4.74912
20
-2.69797
11
4.74954
21
-2.69783
0
LINE
8
BLACK
6
CONTINUOUS
10
4.74954
20
-2.69783
11
5.34009
21
-2.69783
0
LINE
8
BLACK
6
CONTINUOUS
10
5.34009
20
-2.69783
11
5.35075
21
-2.69853
0
LINE
8
BLACK
6
CONTINUOUS
10
5.35075
20
-2.69853
11
5.36123
21
-2.70062
0
LINE
8
BLACK
6
CONTINUOUS
10
5.36123
20
-2.70062
11
5.37135
21
-2.70405
0
LINE
8
BLACK
6
CONTINUOUS
10
5.37135
20
-2.70405
11
5.38094
21
-2.70878
0
LINE
8
BLACK
6
CONTINUOUS
10
5.38094
20
-2.70878
11
5.38982
21
-2.71472
0
LINE
8
BLACK
6
CONTINUOUS
10
5.38982
20
-2.71472
11
5.39786
21
-2.72176
0
LINE
8
BLACK
6
CONTINUOUS
10
5.39786
20
-2.72176
11
5.4049
21
-2.7298
0
LINE
8
BLACK
6
CONTINUOUS
10
5.4049
20
-2.7298
11
5.41084
21
-2.73868
0
LINE
8
BLACK
6
CONTINUOUS
10
5.41084
20
-2.73868
11
5.41556
21
-2.74826
0
LINE
8
BLACK
6
CONTINUOUS
10
5.41556
20
-2.74826
11
5.419
21
-2.75838
0
LINE
8
BLACK
6
CONTINUOUS
10
5.419
20
-2.75838
11
5.42108
21
-2.76886
0
LINE
8
BLACK
6
CONTINUOUS
10
5.42108
20
-2.76886
11
5.42178
21
-2.77953
0
LINE
8
BLACK
6
CONTINUOUS
10
5.42178
20
-2.77953
11
5.42178
21
-2.77953
0
LINE
8
BLACK
6
CONTINUOUS
10
5.42178
20
-2.77953
11
5.42178
21
-5.47207
0
LINE
8
BLACK
6
CONTINUOUS
10
5.42178
20
-5.47207
11
5.42175
21
-5.47223
0
LINE
8
BLACK
6
CONTINUOUS
10
5.42175
20
-5.47223
11
5.42188
21
-5.47648
0
LINE
8
BLACK
6
CONTINUOUS
10
5.42188
20
-5.47648
11
5.42226
21
-5.48087
0
LINE
8
BLACK
6
CONTINUOUS
10
5.42226
20
-5.48087
11
5.42289
21
-5.48515
0
LINE
8
BLACK
6
CONTINUOUS
10
5.42289
20
-5.48515
11
5.42293
21
-5.48523
0
LINE
8
BLACK
6
CONTINUOUS
10
5.42293
20
-5.48523
11
5.50645
21
-5.95886
0
LINE
8
BLACK
6
CONTINUOUS
10
5.50645
20
-5.95886
11
5.50645
21
-5.95954
0
LINE
8
BLACK
6
CONTINUOUS
10
5.50645
20
-5.95954
11
5.50865
21
-5.96854
0
LINE
8
BLACK
6
CONTINUOUS
10
5.50865
20
-5.96854
11
5.51225
21
-5.9778
0
LINE
8
BLACK
6
CONTINUOUS
10
5.51225
20
-5.9778
11
5.51703
21
-5.98651
0
LINE
8
BLACK
6
CONTINUOUS
10
5.51703
20
-5.98651
11
5.5229
21
-5.99452
0
LINE
8
BLACK
6
CONTINUOUS
10
5.5229
20
-5.99452
11
5.52977
21
-6.0017
0
LINE
8
BLACK
6
CONTINUOUS
10
5.52977
20
-6.0017
11
5.53752
21
-6.00792
0
LINE
8
BLACK
6
CONTINUOUS
10
5.53752
20
-6.00792
11
5.54601
21
-6.01307
0
LINE
8
BLACK
6
CONTINUOUS
10
5.54601
20
-6.01307
11
5.55511
21
-6.01707
0
LINE
8
BLACK
6
CONTINUOUS
10
5.55511
20
-6.01707
11
5.56464
21
-6.01985
0
LINE
8
BLACK
6
CONTINUOUS
10
5.56464
20
-6.01985
11
5.57446
21
-6.02136
0
LINE
8
BLACK
6
CONTINUOUS
10
5.57446
20
-6.02136
11
5.5844
21
-6.02158
0
LINE
8
BLACK
6
CONTINUOUS
10
5.5844
20
-6.02158
11
5.59386
21
-6.02054
0
LINE
8
BLACK
6
CONTINUOUS
10
5.59386
20
-6.02054
11
5.59424
21
-6.02034
0
LINE
8
BLACK
6
CONTINUOUS
10
5.59424
20
-6.02034
11
6.08435
21
-5.93392
0
LINE
8
BLACK
6
CONTINUOUS
10
6.08435
20
-5.93392
11
6.74348
21
-5.8177
0
LINE
8
BLACK
6
CONTINUOUS
10
6.74348
20
-5.8177
11
6.74348
21
-5.8177
0
LINE
8
BLACK
6
CONTINUOUS
10
6.74348
20
-5.8177
11
6.7541
21
-5.81653
0
LINE
8
BLACK
6
CONTINUOUS
10
6.7541
20
-5.81653
11
6.76478
21
-5.81677
0
LINE
8
BLACK
6
CONTINUOUS
10
6.76478
20
-5.81677
11
6.77534
21
-5.81839
0
LINE
8
BLACK
6
CONTINUOUS
10
6.77534
20
-5.81839
11
6.7856
21
-5.82138
0
LINE
8
BLACK
6
CONTINUOUS
10
6.7856
20
-5.82138
11
6.79538
21
-5.82569
0
LINE
8
BLACK
6
CONTINUOUS
10
6.79538
20
-5.82569
11
6.80452
21
-5.83123
0
LINE
8
BLACK
6
CONTINUOUS
10
6.80452
20
-5.83123
11
6.81285
21
-5.83792
0
LINE
8
BLACK
6
CONTINUOUS
10
6.81285
20
-5.83792
11
6.82024
21
-5.84564
0
LINE
8
BLACK
6
CONTINUOUS
10
6.82024
20
-5.84564
11
6.82656
21
-5.85426
0
LINE
8
BLACK
6
CONTINUOUS
10
6.82656
20
-5.85426
11
6.8317
21
-5.86362
0
LINE
8
BLACK
6
CONTINUOUS
10
6.8317
20
-5.86362
11
6.83557
21
-5.87358
0
LINE
8
BLACK
6
CONTINUOUS
10
6.83557
20
-5.87358
11
6.83811
21
-5.88395
0
LINE
8
BLACK
6
CONTINUOUS
10
6.83811
20
-5.88395
11
6.83811
21
-5.88396
0
LINE
8
BLACK
6
CONTINUOUS
10
6.83811
20
-5.88396
11
6.83811
21
-5.88396
0
LINE
8
BLACK
6
CONTINUOUS
10
6.83811
20
-5.88396
11
6.94066
21
-6.46554
0
LINE
8
BLACK
6
CONTINUOUS
10
6.94066
20
-6.46554
11
6.94066
21
-6.46554
0
LINE
8
BLACK
6
CONTINUOUS
10
6.94066
20
-6.46554
11
6.94183
21
-6.47616
0
LINE
8
BLACK
6
CONTINUOUS
10
6.94183
20
-6.47616
11
6.94159
21
-6.48685
0
LINE
8
BLACK
6
CONTINUOUS
10
6.94159
20
-6.48685
11
6.93997
21
-6.49741
0
LINE
8
BLACK
6
CONTINUOUS
10
6.93997
20
-6.49741
11
6.93698
21
-6.50767
0
LINE
8
BLACK
6
CONTINUOUS
10
6.93698
20
-6.50767
11
6.93267
21
-6.51745
0
LINE
8
BLACK
6
CONTINUOUS
10
6.93267
20
-6.51745
11
6.92713
21
-6.52658
0
LINE
8
BLACK
6
CONTINUOUS
10
6.92713
20
-6.52658
11
6.92044
21
-6.53492
0
LINE
8
BLACK
6
CONTINUOUS
10
6.92044
20
-6.53492
11
6.91272
21
-6.54231
0
LINE
8
BLACK
6
CONTINUOUS
10
6.91272
20
-6.54231
11
6.90411
21
-6.54863
0
LINE
8
BLACK
6
CONTINUOUS
10
6.90411
20
-6.54863
11
6.89474
21
-6.55377
0
LINE
8
BLACK
6
CONTINUOUS
10
6.89474
20
-6.55377
11
6.88478
21
-6.55764
0
LINE
8
BLACK
6
CONTINUOUS
10
6.88478
20
-6.55764
11
6.8744
21
-6.56018
0
LINE
8
BLACK
6
CONTINUOUS
10
6.8744
20
-6.56018
11
6.8744
21
-6.56018
0
LINE
8
BLACK
6
CONTINUOUS
10
6.8744
20
-6.56018
11
6.21527
21
-6.6764
0
LINE
8
BLACK
6
CONTINUOUS
10
6.21527
20
-6.6764
11
5.47861
21
-6.80629
0
LINE
8
BLACK
6
CONTINUOUS
10
5.47861
20
-6.80629
11
5.47861
21
-6.80629
0
LINE
8
BLACK
6
CONTINUOUS
10
5.47861
20
-6.80629
11
4.81948
21
-6.92252
0
LINE
8
BLACK
6
CONTINUOUS
10
4.81948
20
-6.92252
11
4.81948
21
-6.92252
0
LINE
8
BLACK
6
CONTINUOUS
10
4.81948
20
-6.92252
11
4.80886
21
-6.92368
0
LINE
8
BLACK
6
CONTINUOUS
10
4.80886
20
-6.92368
11
4.79818
21
-6.92345
0
LINE
8
BLACK
6
CONTINUOUS
10
4.79818
20
-6.92345
11
4.78762
21
-6.92182
0
LINE
8
BLACK
6
CONTINUOUS
10
4.78762
20
-6.92182
11
4.77736
21
-6.91883
0
LINE
8
BLACK
6
CONTINUOUS
10
4.77736
20
-6.91883
11
4.76758
21
-6.91453
0
LINE
8
BLACK
6
CONTINUOUS
10
4.76758
20
-6.91453
11
4.75844
21
-6.90898
0
LINE
8
BLACK
6
CONTINUOUS
10
4.75844
20
-6.90898
11
4.75011
21
-6.90229
0
LINE
8
BLACK
6
CONTINUOUS
10
4.75011
20
-6.90229
11
4.74272
21
-6.89457
0
LINE
8
BLACK
6
CONTINUOUS
10
4.74272
20
-6.89457
11
4.7364
21
-6.88596
0
LINE
8
BLACK
6
CONTINUOUS
10
4.7364
20
-6.88596
11
4.73126
21
-6.87659
0
LINE
8
BLACK
6
CONTINUOUS
10
4.73126
20
-6.87659
11
4.72739
21
-6.86663
0
LINE
8
BLACK
6
CONTINUOUS
10
4.72739
20
-6.86663
11
4.72485
21
-6.85626
0
LINE
8
BLACK
6
CONTINUOUS
10
4.72485
20
-6.85626
11
4.72485
21
-6.85625
0
LINE
8
BLACK
6
CONTINUOUS
10
4.72485
20
-6.85625
11
4.72485
21
-6.85625
0
LINE
8
BLACK
6
CONTINUOUS
10
4.72485
20
-6.85625
11
4.64551
21
-6.4063
0
LINE
8
BLACK
6
CONTINUOUS
10
4.64551
20
-6.4063
11
4.64551
21
-6.40562
0
LINE
8
BLACK
6
CONTINUOUS
10
4.64551
20
-6.40562
11
4.6433
21
-6.39662
0
LINE
8
BLACK
6
CONTINUOUS
10
4.6433
20
-6.39662
11
4.6397
21
-6.38736
0
LINE
8
BLACK
6
CONTINUOUS
10
4.6397
20
-6.38736
11
4.63493
21
-6.37865
0
LINE
8
BLACK
6
CONTINUOUS
10
4.63493
20
-6.37865
11
4.62905
21
-6.37064
0
LINE
8
BLACK
6
CONTINUOUS
10
4.62905
20
-6.37064
11
4.62218
21
-6.36346
0
LINE
8
BLACK
6
CONTINUOUS
10
4.62218
20
-6.36346
11
4.61443
21
-6.35725
0
LINE
8
BLACK
6
CONTINUOUS
10
4.61443
20
-6.35725
11
4.60594
21
-6.35209
0
LINE
8
BLACK
6
CONTINUOUS
10
4.60594
20
-6.35209
11
4.59685
21
-6.34809
0
LINE
8
BLACK
6
CONTINUOUS
10
4.59685
20
-6.34809
11
4.58731
21
-6.34531
0
LINE
8
BLACK
6
CONTINUOUS
10
4.58731
20
-6.34531
11
4.57749
21
-6.3438
0
LINE
8
BLACK
6
CONTINUOUS
10
4.57749
20
-6.3438
11
4.56756
21
-6.34358
0
LINE
8
BLACK
6
CONTINUOUS
10
4.56756
20
-6.34358
11
4.5581
21
-6.34462
0
LINE
8
BLACK
6
CONTINUOUS
10
4.5581
20
-6.34462
11
4.55771
21
-6.34482
0
LINE
8
BLACK
6
CONTINUOUS
10
4.55771
20
-6.34482
11
4.55771
21
-6.34482
0
LINE
8
BLACK
6
CONTINUOUS
10
4.55771
20
-6.34482
11
3.29216
21
-6.56797
0
LINE
8
BLACK
6
CONTINUOUS
10
3.29216
20
-6.56797
11
3.29216
21
-6.56797
0
LINE
8
BLACK
6
CONTINUOUS
10
3.29216
20
-6.56797
11
3.28154
21
-6.56914
0
LINE
8
BLACK
6
CONTINUOUS
10
3.28154
20
-6.56914
11
3.27086
21
-6.5689
0
LINE
8
BLACK
6
CONTINUOUS
10
3.27086
20
-6.5689
11
3.26029
21
-6.56728
0
LINE
8
BLACK
6
CONTINUOUS
10
3.26029
20
-6.56728
11
3.25004
21
-6.56429
0
LINE
8
BLACK
6
CONTINUOUS
10
3.25004
20
-6.56429
11
3.24025
21
-6.55999
0
LINE
8
BLACK
6
CONTINUOUS
10
3.24025
20
-6.55999
11
3.23112
21
-6.55444
0
LINE
8
BLACK
6
CONTINUOUS
10
3.23112
20
-6.55444
11
3.22279
21
-6.54775
0
LINE
8
BLACK
6
CONTINUOUS
10
3.22279
20
-6.54775
11
3.2154
21
-6.54003
0
LINE
8
BLACK
6
CONTINUOUS
10
3.2154
20
-6.54003
11
3.20908
21
-6.53142
0
LINE
8
BLACK
6
CONTINUOUS
10
3.20908
20
-6.53142
11
3.20394
21
-6.52205
0
LINE
8
BLACK
6
CONTINUOUS
10
3.20394
20
-6.52205
11
3.20006
21
-6.51209
0
LINE
8
BLACK
6
CONTINUOUS
10
3.20006
20
-6.51209
11
3.19753
21
-6.50172
0
LINE
8
BLACK
6
CONTINUOUS
10
3.19753
20
-6.50172
11
3.19752
21
-6.50171
0
LINE
8
BLACK
6
CONTINUOUS
10
3.19752
20
-6.50171
11
3.19752
21
-6.50171
0
LINE
8
BLACK
6
CONTINUOUS
10
3.19752
20
-6.50171
11
3.07447
21
-5.80381
0
LINE
8
BLACK
6
CONTINUOUS
10
3.07447
20
-5.80381
11
3.07447
21
-5.80381
0
LINE
8
BLACK
6
CONTINUOUS
10
3.07447
20
-5.80381
11
3.0733
21
-5.79319
0
LINE
8
BLACK
6
CONTINUOUS
10
3.0733
20
-5.79319
11
3.07354
21
-5.78251
0
LINE
8
BLACK
6
CONTINUOUS
10
3.07354
20
-5.78251
11
3.07516
21
-5.77195
0
LINE
8
BLACK
6
CONTINUOUS
10
3.07516
20
-5.77195
11
3.07815
21
-5.76169
0
LINE
8
BLACK
6
CONTINUOUS
10
3.07815
20
-5.76169
11
3.08245
21
-5.75191
0
LINE
8
BLACK
6
CONTINUOUS
10
3.08245
20
-5.75191
11
3.088
21
-5.74277
0
LINE
8
BLACK
6
CONTINUOUS
10
3.088
20
-5.74277
11
3.09469
21
-5.73444
0
LINE
8
BLACK
6
CONTINUOUS
10
3.09469
20
-5.73444
11
3.10241
21
-5.72705
0
LINE
8
BLACK
6
CONTINUOUS
10
3.10241
20
-5.72705
11
3.11102
21
-5.72073
0
LINE
8
BLACK
6
CONTINUOUS
10
3.11102
20
-5.72073
11
3.12039
21
-5.71559
0
LINE
8
BLACK
6
CONTINUOUS
10
3.12039
20
-5.71559
11
3.13035
21
-5.71172
0
LINE
8
BLACK
6
CONTINUOUS
10
3.13035
20
-5.71172
11
3.14073
21
-5.70918
0
LINE
8
BLACK
6
CONTINUOUS
10
3.14073
20
-5.70918
11
3.14073
21
-5.70918
0
LINE
8
BLACK
6
CONTINUOUS
10
3.14073
20
-5.70918
11
4.66784
21
-5.4399
0
LINE
8
BLACK
6
CONTINUOUS
10
4.66784
20
-5.4399
11
4.66784
21
-5.37795
0
LINE
8
BLACK
6
CONTINUOUS
10
4.66784
20
-5.37795
11
4.66796
21
-5.37727
0
LINE
8
BLACK
6
CONTINUOUS
10
4.66796
20
-5.37727
11
4.66736
21
-5.36804
0
LINE
8
BLACK
6
CONTINUOUS
10
4.66736
20
-5.36804
11
4.66542
21
-5.3583
0
LINE
8
BLACK
6
CONTINUOUS
10
4.66542
20
-5.3583
11
4.66223
21
-5.34889
0
LINE
8
BLACK
6
CONTINUOUS
10
4.66223
20
-5.34889
11
4.65783
21
-5.33998
0
LINE
8
BLACK
6
CONTINUOUS
10
4.65783
20
-5.33998
11
4.65231
21
-5.33172
0
LINE
8
BLACK
6
CONTINUOUS
10
4.65231
20
-5.33172
11
4.64576
21
-5.32425
0
LINE
8
BLACK
6
CONTINUOUS
10
4.64576
20
-5.32425
11
4.63829
21
-5.3177
0
LINE
8
BLACK
6
CONTINUOUS
10
4.63829
20
-5.3177
11
4.63003
21
-5.31218
0
LINE
8
BLACK
6
CONTINUOUS
10
4.63003
20
-5.31218
11
4.62112
21
-5.30778
0
LINE
8
BLACK
6
CONTINUOUS
10
4.62112
20
-5.30778
11
4.61171
21
-5.30459
0
LINE
8
BLACK
6
CONTINUOUS
10
4.61171
20
-5.30459
11
4.60197
21
-5.30265
0
LINE
8
BLACK
6
CONTINUOUS
10
4.60197
20
-5.30265
11
4.59247
21
-5.30203
0
LINE
8
BLACK
6
CONTINUOUS
10
4.59247
20
-5.30203
11
4.59206
21
-5.30217
0
LINE
8
BLACK
6
CONTINUOUS
10
4.59206
20
-5.30217
11
4.00151
21
-5.30217
0
LINE
8
BLACK
6
CONTINUOUS
10
4.00151
20
-5.30217
11
3.99084
21
-5.30147
0
LINE
8
BLACK
6
CONTINUOUS
10
3.99084
20
-5.30147
11
3.98036
21
-5.29938
0
LINE
8
BLACK
6
CONTINUOUS
10
3.98036
20
-5.29938
11
3.97024
21
-5.29595
0
LINE
8
BLACK
6
CONTINUOUS
10
3.97024
20
-5.29595
11
3.96066
21
-5.29122
0
LINE
8
BLACK
6
CONTINUOUS
10
3.96066
20
-5.29122
11
3.95177
21
-5.28528
0
LINE
8
BLACK
6
CONTINUOUS
10
3.95177
20
-5.28528
11
3.94374
21
-5.27824
0
LINE
8
BLACK
6
CONTINUOUS
10
3.94374
20
-5.27824
11
3.93669
21
-5.2702
0
LINE
8
BLACK
6
CONTINUOUS
10
3.93669
20
-5.2702
11
3.93076
21
-5.26132
0
LINE
8
BLACK
6
CONTINUOUS
10
3.93076
20
-5.26132
11
3.92603
21
-5.25174
0
LINE
8
BLACK
6
CONTINUOUS
10
3.92603
20
-5.25174
11
3.92259
21
-5.24162
0
LINE
8
BLACK
6
CONTINUOUS
10
3.92259
20
-5.24162
11
3.92051
21
-5.23114
0
LINE
8
BLACK
6
CONTINUOUS
10
3.92051
20
-5.23114
11
3.91981
21
-5.22047
0
LINE
8
BLACK
6
CONTINUOUS
10
3.91981
20
-5.22047
11
3.91981
21
-5.22047
0
LINE
8
BLACK
6
CONTINUOUS
10
3.91981
20
-5.22047
11
3.91981
21
-5.1811
0
LINE
8
BLACK
6
CONTINUOUS
10
3.91981
20
-5.1811
11
3.91993
21
-5.18042
0
LINE
8
BLACK
6
CONTINUOUS
10
3.91993
20
-5.18042
11
3.91933
21
-5.17119
0
LINE
8
BLACK
6
CONTINUOUS
10
3.91933
20
-5.17119
11
3.91739
21
-5.16144
0
LINE
8
BLACK
6
CONTINUOUS
10
3.91739
20
-5.16144
11
3.9142
21
-5.15204
0
LINE
8
BLACK
6
CONTINUOUS
10
3.9142
20
-5.15204
11
3.9098
21
-5.14313
0
LINE
8
BLACK
6
CONTINUOUS
10
3.9098
20
-5.14313
11
3.90428
21
-5.13487
0
LINE
8
BLACK
6
CONTINUOUS
10
3.90428
20
-5.13487
11
3.89773
21
-5.1274
0
LINE
8
BLACK
6
CONTINUOUS
10
3.89773
20
-5.1274
11
3.89026
21
-5.12085
0
LINE
8
BLACK
6
CONTINUOUS
10
3.89026
20
-5.12085
11
3.882
21
-5.11533
0
LINE
8
BLACK
6
CONTINUOUS
10
3.882
20
-5.11533
11
3.87309
21
-5.11093
0
LINE
8
BLACK
6
CONTINUOUS
10
3.87309
20
-5.11093
11
3.86368
21
-5.10774
0
LINE
8
BLACK
6
CONTINUOUS
10
3.86368
20
-5.10774
11
3.85394
21
-5.1058
0
LINE
8
BLACK
6
CONTINUOUS
10
3.85394
20
-5.1058
11
3.84444
21
-5.10518
0
LINE
8
BLACK
6
CONTINUOUS
10
3.84444
20
-5.10518
11
3.84403
21
-5.10531
0
LINE
8
BLACK
6
CONTINUOUS
10
3.84403
20
-5.10531
11
3.25347
21
-5.10531
0
LINE
8
BLACK
6
CONTINUOUS
10
3.25347
20
-5.10531
11
3.25347
21
-5.10531
0
LINE
8
BLACK
6
CONTINUOUS
10
3.25347
20
-5.10531
11
3.25281
21
-5.1052
0
LINE
8
BLACK
6
CONTINUOUS
10
3.25281
20
-5.1052
11
3.24356
21
-5.1058
0
LINE
8
BLACK
6
CONTINUOUS
10
3.24356
20
-5.1058
11
3.23382
21
-5.10774
0
LINE
8
BLACK
6
CONTINUOUS
10
3.23382
20
-5.10774
11
3.22441
21
-5.11093
0
LINE
8
BLACK
6
CONTINUOUS
10
3.22441
20
-5.11093
11
3.2155
21
-5.11533
0
LINE
8
BLACK
6
CONTINUOUS
10
3.2155
20
-5.11533
11
3.20724
21
-5.12085
0
LINE
8
BLACK
6
CONTINUOUS
10
3.20724
20
-5.12085
11
3.19977
21
-5.1274
0
LINE
8
BLACK
6
CONTINUOUS
10
3.19977
20
-5.1274
11
3.19322
21
-5.13487
0
LINE
8
BLACK
6
CONTINUOUS
10
3.19322
20
-5.13487
11
3.1877
21
-5.14313
0
LINE
8
BLACK
6
CONTINUOUS
10
3.1877
20
-5.14313
11
3.18331
21
-5.15204
0
LINE
8
BLACK
6
CONTINUOUS
10
3.18331
20
-5.15204
11
3.18011
21
-5.16145
0
LINE
8
BLACK
6
CONTINUOUS
10
3.18011
20
-5.16145
11
3.17817
21
-5.17119
0
LINE
8
BLACK
6
CONTINUOUS
10
3.17817
20
-5.17119
11
3.17755
21
-5.18069
0
LINE
8
BLACK
6
CONTINUOUS
10
3.17755
20
-5.18069
11
3.17769
21
-5.1811
0
LINE
8
BLACK
6
CONTINUOUS
10
3.17769
20
-5.1811
11
3.17769
21
-5.41732
0
LINE
8
BLACK
6
CONTINUOUS
10
3.17769
20
-5.41732
11
3.17699
21
-5.42799
0
LINE
8
BLACK
6
CONTINUOUS
10
3.17699
20
-5.42799
11
3.1749
21
-5.43847
0
LINE
8
BLACK
6
CONTINUOUS
10
3.1749
20
-5.43847
11
3.17147
21
-5.44859
0
LINE
8
BLACK
6
CONTINUOUS
10
3.17147
20
-5.44859
11
3.16674
21
-5.45817
0
LINE
8
BLACK
6
CONTINUOUS
10
3.16674
20
-5.45817
11
3.16081
21
-5.46705
0
LINE
8
BLACK
6
CONTINUOUS
10
3.16081
20
-5.46705
11
3.15376
21
-5.47509
0
LINE
8
BLACK
6
CONTINUOUS
10
3.15376
20
-5.47509
11
3.14573
21
-5.48213
0
LINE
8
BLACK
6
CONTINUOUS
10
3.14573
20
-5.48213
11
3.13684
21
-5.48807
0
LINE
8
BLACK
6
CONTINUOUS
10
3.13684
20
-5.48807
11
3.12726
21
-5.4928
0
LINE
8
BLACK
6
CONTINUOUS
10
3.12726
20
-5.4928
11
3.11714
21
-5.49623
0
LINE
8
BLACK
6
CONTINUOUS
10
3.11714
20
-5.49623
11
3.10666
21
-5.49832
0
LINE
8
BLACK
6
CONTINUOUS
10
3.10666
20
-5.49832
11
3.096
21
-5.49901
0
LINE
8
BLACK
6
CONTINUOUS
10
3.096
20
-5.49901
11
3.09599
21
-5.49902
0
LINE
8
BLACK
6
CONTINUOUS
10
3.09599
20
-5.49902
11
3.09599
21
-5.49902
0
LINE
8
BLACK
6
CONTINUOUS
10
3.09599
20
-5.49902
11
2.50544
21
-5.49902
0
LINE
8
BLACK
6
CONTINUOUS
10
2.50544
20
-5.49902
11
2.49478
21
-5.49832
0
LINE
8
BLACK
6
CONTINUOUS
10
2.49478
20
-5.49832
11
2.4843
21
-5.49623
0
LINE
8
BLACK
6
CONTINUOUS
10
2.4843
20
-5.49623
11
2.47418
21
-5.4928
0
LINE
8
BLACK
6
CONTINUOUS
10
2.47418
20
-5.4928
11
2.4646
21
-5.48807
0
LINE
8
BLACK
6
CONTINUOUS
10
2.4646
20
-5.48807
11
2.45571
21
-5.48213
0
LINE
8
BLACK
6
CONTINUOUS
10
2.45571
20
-5.48213
11
2.44768
21
-5.47509
0
LINE
8
BLACK
6
CONTINUOUS
10
2.44768
20
-5.47509
11
2.44063
21
-5.46706
0
LINE
8
BLACK
6
CONTINUOUS
10
2.44063
20
-5.46706
11
2.43469
21
-5.45817
0
LINE
8
BLACK
6
CONTINUOUS
10
2.43469
20
-5.45817
11
2.42997
21
-5.44859
0
LINE
8
BLACK
6
CONTINUOUS
10
2.42997
20
-5.44859
11
2.42653
21
-5.43847
0
LINE
8
BLACK
6
CONTINUOUS
10
2.42653
20
-5.43847
11
2.42445
21
-5.42799
0
LINE
8
BLACK
6
CONTINUOUS
10
2.42445
20
-5.42799
11
2.42375
21
-5.41732
0
LINE
8
BLACK
6
CONTINUOUS
10
2.42375
20
-5.41732
11
2.42375
21
-5.41732
0
LINE
8
BLACK
6
CONTINUOUS
10
2.42375
20
-5.41732
11
2.42375
21
-2.58268
0
LINE
8
BLACK
6
CONTINUOUS
10
2.42375
20
-2.58268
11
2.42445
21
-2.57201
0
LINE
8
BLACK
6
CONTINUOUS
10
2.42445
20
-2.57201
11
2.42653
21
-2.56153
0
LINE
8
BLACK
6
CONTINUOUS
10
2.42653
20
-2.56153
11
2.42997
21
-2.55141
0
LINE
8
BLACK
6
CONTINUOUS
10
2.42997
20
-2.55141
11
2.43469
21
-2.54183
0
LINE
8
BLACK
6
CONTINUOUS
10
2.43469
20
-2.54183
11
2.44063
21
-2.53295
0
LINE
8
BLACK
6
CONTINUOUS
10
2.44063
20
-2.53295
11
2.44768
21
-2.52491
0
LINE
8
BLACK
6
CONTINUOUS
10
2.44768
20
-2.52491
11
2.45571
21
-2.51787
0
LINE
8
BLACK
6
CONTINUOUS
10
2.45571
20
-2.51787
11
2.4646
21
-2.51193
0
LINE
8
BLACK
6
CONTINUOUS
10
2.4646
20
-2.51193
11
2.47418
21
-2.5072
0
LINE
8
BLACK
6
CONTINUOUS
10
2.47418
20
-2.5072
11
2.4843
21
-2.50377
0
LINE
8
BLACK
6
CONTINUOUS
10
2.4843
20
-2.50377
11
2.49478
21
-2.50168
0
LINE
8
BLACK
6
CONTINUOUS
10
2.49478
20
-2.50168
11
2.50544
21
-2.50099
0
LINE
8
BLACK
6
CONTINUOUS
10
2.50544
20
-2.50099
11
2.50544
21
-2.50098
0
LINE
8
BLACK
6
CONTINUOUS
10
2.50544
20
-2.50098
11
2.50544
21
-2.50098
0
LINE
8
BLACK
6
CONTINUOUS
10
2.50544
20
-2.50098
11
3.09599
21
-2.50098
0
LINE
8
BLACK
6
CONTINUOUS
10
3.09599
20
-2.50098
11
3.09599
21
-2.50098
0
LINE
8
BLACK
6
CONTINUOUS
10
3.09599
20
-2.50098
11
3.09666
21
-2.5011
0
LINE
8
BLACK
6
CONTINUOUS
10
3.09666
20
-2.5011
11
3.10591
21
-2.5005
0
LINE
8
BLACK
6
CONTINUOUS
10
3.10591
20
-2.5005
11
3.11565
21
-2.49856
0
LINE
8
BLACK
6
CONTINUOUS
10
3.11565
20
-2.49856
11
3.12506
21
-2.49536
0
LINE
8
BLACK
6
CONTINUOUS
10
3.12506
20
-2.49536
11
3.13397
21
-2.49097
0
LINE
8
BLACK
6
CONTINUOUS
10
3.13397
20
-2.49097
11
3.14223
21
-2.48545
0
LINE
8
BLACK
6
CONTINUOUS
10
3.14223
20
-2.48545
11
3.1497
21
-2.4789
0
LINE
8
BLACK
6
CONTINUOUS
10
3.1497
20
-2.4789
11
3.15625
21
-2.47143
0
LINE
8
BLACK
6
CONTINUOUS
10
3.15625
20
-2.47143
11
3.16177
21
-2.46317
0
LINE
8
BLACK
6
CONTINUOUS
10
3.16177
20
-2.46317
11
3.16616
21
-2.45426
0
LINE
8
BLACK
6
CONTINUOUS
10
3.16616
20
-2.45426
11
3.16936
21
-2.44485
0
LINE
8
BLACK
6
CONTINUOUS
10
3.16936
20
-2.44485
11
3.17129
21
-2.43511
0
LINE
8
BLACK
6
CONTINUOUS
10
3.17129
20
-2.43511
11
3.17192
21
-2.42561
0
LINE
8
BLACK
6
CONTINUOUS
10
3.17192
20
-2.42561
11
3.17178
21
-2.4252
0
LINE
8
BLACK
6
CONTINUOUS
10
3.17178
20
-2.4252
11
3.17178
21
-2.18898
0
LINE
8
BLACK
6
CONTINUOUS
10
3.17178
20
-2.18898
11
3.17248
21
-2.17831
0
LINE
8
BLACK
6
CONTINUOUS
10
3.17248
20
-2.17831
11
3.17457
21
-2.16783
0
LINE
8
BLACK
6
CONTINUOUS
10
3.17457
20
-2.16783
11
3.178
21
-2.15771
0
LINE
8
BLACK
6
CONTINUOUS
10
3.178
20
-2.15771
11
3.18273
21
-2.14813
0
LINE
8
BLACK
6
CONTINUOUS
10
3.18273
20
-2.14813
11
3.18866
21
-2.13925
0
LINE
8
BLACK
6
CONTINUOUS
10
3.18866
20
-2.13925
11
3.19571
21
-2.13121
0
LINE
8
BLACK
6
CONTINUOUS
10
3.19571
20
-2.13121
11
3.20374
21
-2.12417
0
LINE
8
BLACK
6
CONTINUOUS
10
3.20374
20
-2.12417
11
3.21263
21
-2.11823
0
LINE
8
BLACK
6
CONTINUOUS
10
3.21263
20
-2.11823
11
3.22221
21
-2.1135
0
LINE
8
BLACK
6
CONTINUOUS
10
3.22221
20
-2.1135
11
3.23233
21
-2.11007
0
LINE
8
BLACK
6
CONTINUOUS
10
3.23233
20
-2.11007
11
3.24281
21
-2.10798
0
LINE
8
BLACK
6
CONTINUOUS
10
3.24281
20
-2.10798
11
3.25347
21
-2.10729
0
LINE
8
BLACK
6
CONTINUOUS
10
3.25347
20
-2.10729
11
3.25347
21
-2.10728
0
LINE
8
BLACK
6
CONTINUOUS
10
3.25347
20
-2.10728
11
3.25347
21
-2.10728
0
LINE
8
BLACK
6
CONTINUOUS
10
3.25347
20
-2.10728
11
3.84403
21
-2.10728
0
LINE
8
BLACK
6
CONTINUOUS
10
3.84403
20
-2.10728
11
3.85469
21
-2.10798
0
LINE
8
BLACK
6
CONTINUOUS
10
3.85469
20
-2.10798
11
3.86517
21
-2.11007
0
LINE
8
BLACK
6
CONTINUOUS
10
3.86517
20
-2.11007
11
3.87529
21
-2.1135
0
LINE
8
BLACK
6
CONTINUOUS
10
3.87529
20
-2.1135
11
3.88487
21
-2.11823
0
LINE
8
BLACK
6
CONTINUOUS
10
3.88487
20
-2.11823
11
3.89376
21
-2.12416
0
LINE
8
BLACK
6
CONTINUOUS
10
3.89376
20
-2.12416
11
3.90179
21
-2.13121
0
LINE
8
BLACK
6
CONTINUOUS
10
3.90179
20
-2.13121
11
3.90884
21
-2.13924
0
LINE
8
BLACK
6
CONTINUOUS
10
3.90884
20
-2.13924
11
3.91478
21
-2.14813
0
LINE
8
BLACK
6
CONTINUOUS
10
3.91478
20
-2.14813
11
3.9195
21
-2.15771
0
LINE
8
BLACK
6
CONTINUOUS
10
3.9195
20
-2.15771
11
3.92294
21
-2.16783
0
LINE
8
BLACK
6
CONTINUOUS
10
3.92294
20
-2.16783
11
3.92502
21
-2.17831
0
LINE
8
BLACK
6
CONTINUOUS
10
3.92502
20
-2.17831
11
3.92572
21
-2.18898
0
LINE
8
BLACK
6
CONTINUOUS
10
3.92572
20
-2.18898
11
3.92572
21
-2.18898
0
LINE
8
BLACK
6
CONTINUOUS
10
3.92572
20
-2.18898
11
3.92572
21
-2.22835
0
LINE
8
BLACK
6
CONTINUOUS
10
3.92572
20
-2.22835
11
3.9256
21
-2.22903
0
LINE
8
BLACK
6
CONTINUOUS
10
3.9256
20
-2.22903
11
3.9262
21
-2.23826
0
LINE
8
BLACK
6
CONTINUOUS
10
3.9262
20
-2.23826
11
3.92814
21
-2.248
0
LINE
8
BLACK
6
CONTINUOUS
10
3.92814
20
-2.248
11
3.93134
21
-2.25741
0
LINE
8
BLACK
6
CONTINUOUS
10
3.93134
20
-2.25741
11
3.93573
21
-2.26632
0
LINE
8
BLACK
6
CONTINUOUS
10
3.93573
20
-2.26632
11
3.94125
21
-2.27458
0
LINE
8
BLACK
6
CONTINUOUS
10
3.94125
20
-2.27458
11
3.9478
21
-2.28205
0
LINE
8
BLACK
6
CONTINUOUS
10
3.9478
20
-2.28205
11
3.95527
21
-2.2886
0
LINE
8
BLACK
6
CONTINUOUS
10
3.95527
20
-2.2886
11
3.96353
21
-2.29412
0
LINE
8
BLACK
6
CONTINUOUS
10
3.96353
20
-2.29412
11
3.97244
21
-2.29852
0
LINE
8
BLACK
6
CONTINUOUS
10
3.97244
20
-2.29852
11
3.98185
21
-2.30171
0
LINE
8
BLACK
6
CONTINUOUS
10
3.98185
20
-2.30171
11
3.99159
21
-2.30365
0
LINE
8
BLACK
6
CONTINUOUS
10
3.99159
20
-2.30365
11
4.00109
21
-2.30427
0
LINE
8
BLACK
6
CONTINUOUS
10
4.00109
20
-2.30427
11
4.00151
21
-2.30413
0
LINE
8
BLACK
6
CONTINUOUS
10
4.00151
20
-2.30413
11
4.59206
21
-2.30413
0
LINE
8
BLACK
6
CONTINUOUS
10
4.59206
20
-2.30413
11
4.60272
21
-2.30483
0
LINE
8
BLACK
6
CONTINUOUS
10
3.25347
20
-2.11319
11
3.25281
21
-2.11307
0
LINE
8
BLACK
6
CONTINUOUS
10
3.25281
20
-2.11307
11
3.24356
21
-2.11368
0
LINE
8
BLACK
6
CONTINUOUS
10
3.24356
20
-2.11368
11
3.23382
21
-2.11562
0
LINE
8
BLACK
6
CONTINUOUS
10
3.23382
20
-2.11562
11
3.22441
21
-2.11881
0
LINE
8
BLACK
6
CONTINUOUS
10
3.22441
20
-2.11881
11
3.2155
21
-2.1232
0
LINE
8
BLACK
6
CONTINUOUS
10
3.2155
20
-2.1232
11
3.20724
21
-2.12872
0
LINE
8
BLACK
6
CONTINUOUS
10
3.20724
20
-2.12872
11
3.19977
21
-2.13527
0
LINE
8
BLACK
6
CONTINUOUS
10
3.19977
20
-2.13527
11
3.19322
21
-2.14274
0
LINE
8
BLACK
6
CONTINUOUS
10
3.19322
20
-2.14274
11
3.1877
21
-2.151
0
LINE
8
BLACK
6
CONTINUOUS
10
3.1877
20
-2.151
11
3.18331
21
-2.15991
0
LINE
8
BLACK
6
CONTINUOUS
10
3.18331
20
-2.15991
11
3.18011
21
-2.16932
0
LINE
8
BLACK
6
CONTINUOUS
10
3.18011
20
-2.16932
11
3.17817
21
-2.17906
0
LINE
8
BLACK
6
CONTINUOUS
10
3.17817
20
-2.17906
11
3.17755
21
-2.18856
0
LINE
8
BLACK
6
CONTINUOUS
10
3.17755
20
-2.18856
11
3.17769
21
-2.18898
0
LINE
8
BLACK
6
CONTINUOUS
10
3.17769
20
-2.18898
11
3.17769
21
-2.4252
0
LINE
8
BLACK
6
CONTINUOUS
10
3.17769
20
-2.4252
11
3.17699
21
-2.43586
0
LINE
8
BLACK
6
CONTINUOUS
10
3.17699
20
-2.43586
11
3.1749
21
-2.44634
0
LINE
8
BLACK
6
CONTINUOUS
10
3.1749
20
-2.44634
11
3.17147
21
-2.45646
0
LINE
8
BLACK
6
CONTINUOUS
10
3.17147
20
-2.45646
11
3.16674
21
-2.46604
0
LINE
8
BLACK
6
CONTINUOUS
10
3.16674
20
-2.46604
11
3.16081
21
-2.47493
0
LINE
8
BLACK
6
CONTINUOUS
10
3.16081
20
-2.47493
11
3.15376
21
-2.48296
0
LINE
8
BLACK
6
CONTINUOUS
10
3.15376
20
-2.48296
11
3.14573
21
-2.49001
0
LINE
8
BLACK
6
CONTINUOUS
10
3.14573
20
-2.49001
11
3.13684
21
-2.49594
0
LINE
8
BLACK
6
CONTINUOUS
10
3.13684
20
-2.49594
11
3.12726
21
-2.50067
0
LINE
8
BLACK
6
CONTINUOUS
10
3.12726
20
-2.50067
11
3.11714
21
-2.5041
0
LINE
8
BLACK
6
CONTINUOUS
10
3.11714
20
-2.5041
11
3.10666
21
-2.50619
0
LINE
8
BLACK
6
CONTINUOUS
10
3.10666
20
-2.50619
11
3.096
21
-2.50689
0
LINE
8
BLACK
6
CONTINUOUS
10
3.096
20
-2.50689
11
3.09599
21
-2.50689
0
LINE
8
BLACK
6
CONTINUOUS
10
3.09599
20
-2.50689
11
3.09599
21
-2.50689
0
LINE
8
BLACK
6
CONTINUOUS
10
3.09599
20
-2.50689
11
2.50544
21
-2.50689
0
LINE
8
BLACK
6
CONTINUOUS
10
2.50544
20
-2.50689
11
2.50544
21
-2.50689
0
LINE
8
BLACK
6
CONTINUOUS
10
2.50544
20
-2.50689
11
2.50478
21
-2.50677
0
LINE
8
BLACK
6
CONTINUOUS
10
2.50478
20
-2.50677
11
2.49553
21
-2.50738
0
LINE
8
BLACK
6
CONTINUOUS
10
2.49553
20
-2.50738
11
2.48579
21
-2.50932
0
LINE
8
BLACK
6
CONTINUOUS
10
2.48579
20
-2.50932
11
2.47638
21
-2.51251
0
LINE
8
BLACK
6
CONTINUOUS
10
2.47638
20
-2.51251
11
2.46747
21
-2.5169
0
LINE
8
BLACK
6
CONTINUOUS
10
2.46747
20
-2.5169
11
2.45921
21
-2.52242
0
LINE
8
BLACK
6
CONTINUOUS
10
2.45921
20
-2.52242
11
2.45174
21
-2.52897
0
LINE
8
BLACK
6
CONTINUOUS
10
2.45174
20
-2.52897
11
2.44519
21
-2.53644
0
LINE
8
BLACK
6
CONTINUOUS
10
2.44519
20
-2.53644
11
2.43967
21
-2.5447
0
LINE
8
BLACK
6
CONTINUOUS
10
2.43967
20
-2.5447
11
2.43527
21
-2.55361
0
LINE
8
BLACK
6
CONTINUOUS
10
2.43527
20
-2.55361
11
2.43208
21
-2.56302
0
LINE
8
BLACK
6
CONTINUOUS
10
2.43208
20
-2.56302
11
2.43014
21
-2.57276
0
LINE
8
BLACK
6
CONTINUOUS
10
2.43014
20
-2.57276
11
2.42952
21
-2.58226
0
LINE
8
BLACK
6
CONTINUOUS
10
2.42952
20
-2.58226
11
2.42966
21
-2.58268
0
LINE
8
BLACK
6
CONTINUOUS
10
2.42966
20
-2.58268
11
2.42966
21
-5.41732
0
LINE
8
BLACK
6
CONTINUOUS
10
2.42966
20
-5.41732
11
2.42954
21
-5.418
0
LINE
8
BLACK
6
CONTINUOUS
10
2.42954
20
-5.418
11
2.43014
21
-5.42724
0
LINE
8
BLACK
6
CONTINUOUS
10
2.43014
20
-5.42724
11
2.43208
21
-5.43698
0
LINE
8
BLACK
6
CONTINUOUS
10
2.43208
20
-5.43698
11
2.43527
21
-5.44639
0
LINE
8
BLACK
6
CONTINUOUS
10
2.43527
20
-5.44639
11
2.43967
21
-5.4553
0
LINE
8
BLACK
6
CONTINUOUS
10
2.43967
20
-5.4553
11
2.44519
21
-5.46356
0
LINE
8
BLACK
6
CONTINUOUS
10
2.44519
20
-5.46356
11
2.45174
21
-5.47103
0
LINE
8
BLACK
6
CONTINUOUS
10
2.45174
20
-5.47103
11
2.45921
21
-5.47758
0
LINE
8
BLACK
6
CONTINUOUS
10
2.45921
20
-5.47758
11
2.46747
21
-5.4831
0
LINE
8
BLACK
6
CONTINUOUS
10
2.46747
20
-5.4831
11
2.47638
21
-5.48749
0
LINE
8
BLACK
6
CONTINUOUS
10
2.47638
20
-5.48749
11
2.48579
21
-5.49069
0
LINE
8
BLACK
6
CONTINUOUS
10
2.48579
20
-5.49069
11
2.49553
21
-5.49262
0
LINE
8
BLACK
6
CONTINUOUS
10
2.49553
20
-5.49262
11
2.50503
21
-5.49325
0
LINE
8
BLACK
6
CONTINUOUS
10
2.50503
20
-5.49325
11
2.50544
21
-5.49311
0
LINE
8
BLACK
6
CONTINUOUS
10
2.50544
20
-5.49311
11
3.09599
21
-5.49311
0
LINE
8
BLACK
6
CONTINUOUS
10
3.09599
20
-5.49311
11
3.09599
21
-5.49311
0
LINE
8
BLACK
6
CONTINUOUS
10
3.09599
20
-5.49311
11
3.09666
21
-5.49323
0
LINE
8
BLACK
6
CONTINUOUS
10
3.09666
20
-5.49323
11
3.10591
21
-5.49262
0
LINE
8
BLACK
6
CONTINUOUS
10
3.10591
20
-5.49262
11
3.11565
21
-5.49068
0
LINE
8
BLACK
6
CONTINUOUS
10
3.11565
20
-5.49068
11
3.12506
21
-5.48749
0
LINE
8
BLACK
6
CONTINUOUS
10
3.12506
20
-5.48749
11
3.13397
21
-5.4831
0
LINE
8
BLACK
6
CONTINUOUS
10
3.13397
20
-5.4831
11
3.14223
21
-5.47758
0
LINE
8
BLACK
6
CONTINUOUS
10
3.14223
20
-5.47758
11
3.1497
21
-5.47103
0
LINE
8
BLACK
6
CONTINUOUS
10
3.1497
20
-5.47103
11
3.15625
21
-5.46356
0
LINE
8
BLACK
6
CONTINUOUS
10
3.15625
20
-5.46356
11
3.16177
21
-5.4553
0
LINE
8
BLACK
6
CONTINUOUS
10
3.16177
20
-5.4553
11
3.16616
21
-5.44639
0
LINE
8
BLACK
6
CONTINUOUS
10
3.16616
20
-5.44639
11
3.16936
21
-5.43698
0
LINE
8
BLACK
6
CONTINUOUS
10
3.16936
20
-5.43698
11
3.17129
21
-5.42724
0
LINE
8
BLACK
6
CONTINUOUS
10
3.17129
20
-5.42724
11
3.17192
21
-5.41774
0
LINE
8
BLACK
6
CONTINUOUS
10
3.17192
20
-5.41774
11
3.17178
21
-5.41732
0
LINE
8
BLACK
6
CONTINUOUS
10
3.17178
20
-5.41732
11
3.17178
21
-5.1811
0
LINE
8
BLACK
6
CONTINUOUS
10
3.17178
20
-5.1811
11
3.17248
21
-5.17044
0
LINE
8
BLACK
6
CONTINUOUS
10
3.17248
20
-5.17044
11
3.17457
21
-5.15996
0
LINE
8
BLACK
6
CONTINUOUS
10
3.17457
20
-5.15996
11
3.178
21
-5.14984
0
LINE
8
BLACK
6
CONTINUOUS
10
3.178
20
-5.14984
11
3.18273
21
-5.14026
0
LINE
8
BLACK
6
CONTINUOUS
10
3.18273
20
-5.14026
11
3.18866
21
-5.13137
0
LINE
8
BLACK
6
CONTINUOUS
10
3.18866
20
-5.13137
11
3.19571
21
-5.12334
0
LINE
8
BLACK
6
CONTINUOUS
10
3.19571
20
-5.12334
11
3.20374
21
-5.11629
0
LINE
8
BLACK
6
CONTINUOUS
10
3.20374
20
-5.11629
11
3.21263
21
-5.11036
0
LINE
8
BLACK
6
CONTINUOUS
10
3.21263
20
-5.11036
11
3.22221
21
-5.10563
0
LINE
8
BLACK
6
CONTINUOUS
10
3.22221
20
-5.10563
11
3.23233
21
-5.10219
0
LINE
8
BLACK
6
CONTINUOUS
10
3.23233
20
-5.10219
11
3.24281
21
-5.10011
0
LINE
8
BLACK
6
CONTINUOUS
10
3.24281
20
-5.10011
11
3.25347
21
-5.09941
0
LINE
8
BLACK
6
CONTINUOUS
10
3.25347
20
-5.09941
11
3.25347
21
-5.09941
0
LINE
8
BLACK
6
CONTINUOUS
10
3.25347
20
-5.09941
11
3.25347
21
-5.09941
0
LINE
8
BLACK
6
CONTINUOUS
10
3.25347
20
-5.09941
11
3.84403
21
-5.09941
0
LINE
8
BLACK
6
CONTINUOUS
10
3.84403
20
-5.09941
11
3.85469
21
-5.10011
0
LINE
8
BLACK
6
CONTINUOUS
10
3.85469
20
-5.10011
11
3.86517
21
-5.10219
0
LINE
8
BLACK
6
CONTINUOUS
10
3.86517
20
-5.10219
11
3.87529
21
-5.10563
0
LINE
8
BLACK
6
CONTINUOUS
10
3.87529
20
-5.10563
11
3.88487
21
-5.11035
0
LINE
8
BLACK
6
CONTINUOUS
10
3.88487
20
-5.11035
11
3.89376
21
-5.11629
0
LINE
8
BLACK
6
CONTINUOUS
10
3.89376
20
-5.11629
11
3.90179
21
-5.12334
0
LINE
8
BLACK
6
CONTINUOUS
10
3.90179
20
-5.12334
11
3.90884
21
-5.13137
0
LINE
8
BLACK
6
CONTINUOUS
10
3.90884
20
-5.13137
11
3.91478
21
-5.14026
0
LINE
8
BLACK
6
CONTINUOUS
10
3.91478
20
-5.14026
11
3.9195
21
-5.14984
0
LINE
8
BLACK
6
CONTINUOUS
10
3.9195
20
-5.14984
11
3.92294
21
-5.15996
0
LINE
8
BLACK
6
CONTINUOUS
10
3.92294
20
-5.15996
11
3.92502
21
-5.17044
0
LINE
8
BLACK
6
CONTINUOUS
10
3.92502
20
-5.17044
11
3.92572
21
-5.1811
0
LINE
8
BLACK
6
CONTINUOUS
10
3.92572
20
-5.1811
11
3.92572
21
-5.1811
0
LINE
8
BLACK
6
CONTINUOUS
10
3.92572
20
-5.1811
11
3.92572
21
-5.22047
0
LINE
8
BLACK
6
CONTINUOUS
10
3.92572
20
-5.22047
11
3.9256
21
-5.22115
0
LINE
8
BLACK
6
CONTINUOUS
10
3.9256
20
-5.22115
11
3.9262
21
-5.23039
0
LINE
8
BLACK
6
CONTINUOUS
10
3.9262
20
-5.23039
11
3.92814
21
-5.24013
0
LINE
8
BLACK
6
CONTINUOUS
10
3.92814
20
-5.24013
11
3.93134
21
-5.24954
0
LINE
8
BLACK
6
CONTINUOUS
10
3.93134
20
-5.24954
11
3.93573
21
-5.25845
0
LINE
8
BLACK
6
CONTINUOUS
10
3.93573
20
-5.25845
11
3.94125
21
-5.26671
0
LINE
8
BLACK
6
CONTINUOUS
10
3.94125
20
-5.26671
11
3.9478
21
-5.27418
0
LINE
8
BLACK
6
CONTINUOUS
10
3.9478
20
-5.27418
11
3.95527
21
-5.28073
0
LINE
8
BLACK
6
CONTINUOUS
10
3.95527
20
-5.28073
11
3.96353
21
-5.28625
0
LINE
8
BLACK
6
CONTINUOUS
10
3.96353
20
-5.28625
11
3.97244
21
-5.29064
0
LINE
8
BLACK
6
CONTINUOUS
10
3.97244
20
-5.29064
11
3.98185
21
-5.29383
0
LINE
8
BLACK
6
CONTINUOUS
10
3.98185
20
-5.29383
11
3.99159
21
-5.29577
0
LINE
8
BLACK
6
CONTINUOUS
10
3.99159
20
-5.29577
11
4.00109
21
-5.2964
0
LINE
8
BLACK
6
CONTINUOUS
10
4.00109
20
-5.2964
11
4.00151
21
-5.29626
0
LINE
8
BLACK
6
CONTINUOUS
10
4.00151
20
-5.29626
11
4.59206
21
-5.29626
0
LINE
8
BLACK
6
CONTINUOUS
10
4.59206
20
-5.29626
11
4.60272
21
-5.29696
0
LINE
8
BLACK
6
CONTINUOUS
10
4.60272
20
-5.29696
11
4.6132
21
-5.29904
0
LINE
8
BLACK
6
CONTINUOUS
10
4.6132
20
-5.29904
11
4.62332
21
-5.30248
0
LINE
8
BLACK
6
CONTINUOUS
10
4.62332
20
-5.30248
11
4.6329
21
-5.3072
0
LINE
8
BLACK
6
CONTINUOUS
10
4.6329
20
-5.3072
11
4.64179
21
-5.31314
0
LINE
8
BLACK
6
CONTINUOUS
10
4.64179
20
-5.31314
11
4.64982
21
-5.32019
0
LINE
8
BLACK
6
CONTINUOUS
10
4.64982
20
-5.32019
11
4.65687
21
-5.32822
0
LINE
8
BLACK
6
CONTINUOUS
10
4.65687
20
-5.32822
11
4.66281
21
-5.33711
0
LINE
8
BLACK
6
CONTINUOUS
10
4.66281
20
-5.33711
11
4.66753
21
-5.34669
0
LINE
8
BLACK
6
CONTINUOUS
10
4.66753
20
-5.34669
11
4.67097
21
-5.35681
0
LINE
8
BLACK
6
CONTINUOUS
10
4.67097
20
-5.35681
11
4.67305
21
-5.36729
0
LINE
8
BLACK
6
CONTINUOUS
10
4.67305
20
-5.36729
11
4.67375
21
-5.37795
0
LINE
8
BLACK
6
CONTINUOUS
10
4.67375
20
-5.37795
11
4.67375
21
-5.37795
0
LINE
8
BLACK
6
CONTINUOUS
10
4.67375
20
-5.37795
11
4.67375
21
-5.44238
0
LINE
8
BLACK
6
CONTINUOUS
10
4.67375
20
-5.44238
11
4.67375
21
-5.44238
0
LINE
8
BLACK
6
CONTINUOUS
10
4.67375
20
-5.44238
11
4.67375
21
-5.44238
0
LINE
8
BLACK
6
CONTINUOUS
10
4.67375
20
-5.44238
11
4.67357
21
-5.44339
0
LINE
8
BLACK
6
CONTINUOUS
10
4.67357
20
-5.44339
11
4.67324
21
-5.44379
0
LINE
8
BLACK
6
CONTINUOUS
10
4.67324
20
-5.44379
11
4.67306
21
-5.44428
0
LINE
8
BLACK
6
CONTINUOUS
10
4.67306
20
-5.44428
11
4.67261
21
-5.44454
0
LINE
8
BLACK
6
CONTINUOUS
10
4.67261
20
-5.44454
11
4.67227
21
-5.44494
0
LINE
8
BLACK
6
CONTINUOUS
10
4.67227
20
-5.44494
11
4.67176
21
-5.44503
0
LINE
8
BLACK
6
CONTINUOUS
10
4.67176
20
-5.44503
11
4.67131
21
-5.44529
0
LINE
8
BLACK
6
CONTINUOUS
10
4.67131
20
-5.44529
11
3.14176
21
-5.71499
0
LINE
8
BLACK
6
CONTINUOUS
10
3.14176
20
-5.71499
11
3.14107
21
-5.71499
0
LINE
8
BLACK
6
CONTINUOUS
10
3.14107
20
-5.71499
11
3.13208
21
-5.71719
0
LINE
8
BLACK
6
CONTINUOUS
10
3.13208
20
-5.71719
11
3.12282
21
-5.72079
0
LINE
8
BLACK
6
CONTINUOUS
10
3.12282
20
-5.72079
11
3.11411
21
-5.72557
0
LINE
8
BLACK
6
CONTINUOUS
10
3.11411
20
-5.72557
11
3.1061
21
-5.73145
0
LINE
8
BLACK
6
CONTINUOUS
10
3.1061
20
-5.73145
11
3.09892
21
-5.73832
0
LINE
8
BLACK
6
CONTINUOUS
10
3.09892
20
-5.73832
11
3.0927
21
-5.74606
0
LINE
8
BLACK
6
CONTINUOUS
10
3.0927
20
-5.74606
11
3.08755
21
-5.75456
0
LINE
8
BLACK
6
CONTINUOUS
10
3.08755
20
-5.75456
11
3.08355
21
-5.76365
0
LINE
8
BLACK
6
CONTINUOUS
10
3.08355
20
-5.76365
11
3.08077
21
-5.77319
0
LINE
8
BLACK
6
CONTINUOUS
10
3.08077
20
-5.77319
11
3.07926
21
-5.78301
0
LINE
8
BLACK
6
CONTINUOUS
10
3.07926
20
-5.78301
11
3.07904
21
-5.79294
0
LINE
8
BLACK
6
CONTINUOUS
10
3.07904
20
-5.79294
11
3.08008
21
-5.8024
0
LINE
8
BLACK
6
CONTINUOUS
10
3.08008
20
-5.8024
11
3.08028
21
-5.80279
0
LINE
8
BLACK
6
CONTINUOUS
10
3.08028
20
-5.80279
11
3.20334
21
-6.50068
0
LINE
8
BLACK
6
CONTINUOUS
10
3.20334
20
-6.50068
11
3.20334
21
-6.50136
0
LINE
8
BLACK
6
CONTINUOUS
10
3.20334
20
-6.50136
11
3.20554
21
-6.51036
0
LINE
8
BLACK
6
CONTINUOUS
10
3.20554
20
-6.51036
11
3.20914
21
-6.51962
0
LINE
8
BLACK
6
CONTINUOUS
10
3.20914
20
-6.51962
11
3.21392
21
-6.52833
0
LINE
8
BLACK
6
CONTINUOUS
10
3.21392
20
-6.52833
11
3.2198
21
-6.53634
0
LINE
8
BLACK
6
CONTINUOUS
10
3.2198
20
-6.53634
11
3.22667
21
-6.54352
0
LINE
8
BLACK
6
CONTINUOUS
10
3.22667
20
-6.54352
11
3.23441
21
-6.54974
0
LINE
8
BLACK
6
CONTINUOUS
10
3.23441
20
-6.54974
11
3.24291
21
-6.55489
0
LINE
8
BLACK
6
CONTINUOUS
10
3.24291
20
-6.55489
11
3.252
21
-6.55889
0
LINE
8
BLACK
6
CONTINUOUS
10
3.252
20
-6.55889
11
3.26154
21
-6.56167
0
LINE
8
BLACK
6
CONTINUOUS
10
3.26154
20
-6.56167
11
3.27136
21
-6.56318
0
LINE
8
BLACK
6
CONTINUOUS
10
3.27136
20
-6.56318
11
3.28129
21
-6.5634
0
LINE
8
BLACK
6
CONTINUOUS
10
3.28129
20
-6.5634
11
3.29075
21
-6.56236
0
LINE
8
BLACK
6
CONTINUOUS
10
3.29075
20
-6.56236
11
3.29114
21
-6.56216
0
LINE
8
BLACK
6
CONTINUOUS
10
3.29114
20
-6.56216
11
3.29114
21
-6.56216
0
LINE
8
BLACK
6
CONTINUOUS
10
3.29114
20
-6.56216
11
4.55669
21
-6.33901
0
LINE
8
BLACK
6
CONTINUOUS
10
4.55669
20
-6.33901
11
4.55669
21
-6.33901
0
LINE
8
BLACK
6
CONTINUOUS
10
4.55669
20
-6.33901
11
4.56731
21
-6.33785
0
LINE
8
BLACK
6
CONTINUOUS
10
4.56731
20
-6.33785
11
4.57799
21
-6.33808
0
LINE
8
BLACK
6
CONTINUOUS
10
4.57799
20
-6.33808
11
4.58855
21
-6.3397
0
LINE
8
BLACK
6
CONTINUOUS
10
4.58855
20
-6.3397
11
4.59881
21
-6.34269
0
LINE
8
BLACK
6
CONTINUOUS
10
4.59881
20
-6.34269
11
4.60859
21
-6.347
0
LINE
8
BLACK
6
CONTINUOUS
10
4.60859
20
-6.347
11
4.61773
21
-6.35254
0
LINE
8
BLACK
6
CONTINUOUS
10
4.61773
20
-6.35254
11
4.62606
21
-6.35923
0
LINE
8
BLACK
6
CONTINUOUS
10
4.62606
20
-6.35923
11
4.63345
21
-6.36695
0
LINE
8
BLACK
6
CONTINUOUS
10
4.63345
20
-6.36695
11
4.63977
21
-6.37557
0
LINE
8
BLACK
6
CONTINUOUS
10
4.63977
20
-6.37557
11
4.64491
21
-6.38494
0
LINE
8
BLACK
6
CONTINUOUS
10
4.64491
20
-6.38494
11
4.64878
21
-6.3949
0
LINE
8
BLACK
6
CONTINUOUS
10
4.64878
20
-6.3949
11
4.65132
21
-6.40527
0
LINE
8
BLACK
6
CONTINUOUS
10
4.65132
20
-6.40527
11
4.65132
21
-6.40527
0
LINE
8
BLACK
6
CONTINUOUS
10
4.65132
20
-6.40527
11
4.73066
21
-6.85522
0
LINE
8
BLACK
6
CONTINUOUS
10
4.73066
20
-6.85522
11
4.73066
21
-6.85522
0
LINE
8
BLACK
6
CONTINUOUS
10
4.73066
20
-6.85522
11
4.73066
21
-6.85522
0
LINE
8
BLACK
6
CONTINUOUS
10
4.73066
20
-6.85522
11
4.73066
21
-6.8559
0
LINE
8
BLACK
6
CONTINUOUS
10
4.73066
20
-6.8559
11
4.73286
21
-6.8649
0
LINE
8
BLACK
6
CONTINUOUS
10
4.73286
20
-6.8649
11
4.73646
21
-6.87416
0
LINE
8
BLACK
6
CONTINUOUS
10
4.73646
20
-6.87416
11
4.74124
21
-6.88287
0
LINE
8
BLACK
6
CONTINUOUS
10
4.74124
20
-6.88287
11
4.74712
21
-6.89088
0
LINE
8
BLACK
6
CONTINUOUS
10
4.74712
20
-6.89088
11
4.75399
21
-6.89806
0
LINE
8
BLACK
6
CONTINUOUS
10
4.75399
20
-6.89806
11
4.76174
21
-6.90428
0
LINE
8
BLACK
6
CONTINUOUS
10
4.76174
20
-6.90428
11
4.77023
21
-6.90943
0
LINE
8
BLACK
6
CONTINUOUS
10
4.77023
20
-6.90943
11
4.77932
21
-6.91343
0
LINE
8
BLACK
6
CONTINUOUS
10
4.77932
20
-6.91343
11
4.78886
21
-6.91621
0
LINE
8
BLACK
6
CONTINUOUS
10
4.78886
20
-6.91621
11
4.79868
21
-6.91772
0
LINE
8
BLACK
6
CONTINUOUS
10
4.79868
20
-6.91772
11
4.80861
21
-6.91794
0
LINE
8
BLACK
6
CONTINUOUS
10
4.80861
20
-6.91794
11
4.81807
21
-6.91691
0
LINE
8
BLACK
6
CONTINUOUS
10
4.81807
20
-6.91691
11
4.81846
21
-6.9167
0
LINE
8
BLACK
6
CONTINUOUS
10
4.81846
20
-6.9167
11
4.81846
21
-6.9167
0
LINE
8
BLACK
6
CONTINUOUS
10
4.81846
20
-6.9167
11
5.47758
21
-6.80048
0
LINE
8
BLACK
6
CONTINUOUS
10
5.47758
20
-6.80048
11
6.21425
21
-6.67058
0
LINE
8
BLACK
6
CONTINUOUS
10
6.21425
20
-6.67058
11
6.87337
21
-6.55436
0
LINE
8
BLACK
6
CONTINUOUS
10
6.87337
20
-6.55436
11
6.87406
21
-6.55436
0
LINE
8
BLACK
6
CONTINUOUS
10
6.87406
20
-6.55436
11
6.88305
21
-6.55216
0
LINE
8
BLACK
6
CONTINUOUS
10
6.88305
20
-6.55216
11
6.89231
21
-6.54856
0
LINE
8
BLACK
6
CONTINUOUS
10
6.89231
20
-6.54856
11
6.90102
21
-6.54378
0
LINE
8
BLACK
6
CONTINUOUS
10
6.90102
20
-6.54378
11
6.90903
21
-6.53791
0
LINE
8
BLACK
6
CONTINUOUS
10
6.90903
20
-6.53791
11
6.91621
21
-6.53104
0
LINE
8
BLACK
6
CONTINUOUS
10
6.91621
20
-6.53104
11
6.92243
21
-6.52329
0
LINE
8
BLACK
6
CONTINUOUS
10
6.92243
20
-6.52329
11
6.92758
21
-6.5148
0
LINE
8
BLACK
6
CONTINUOUS
10
6.92758
20
-6.5148
11
6.93158
21
-6.5057
0
LINE
8
BLACK
6
CONTINUOUS
10
6.93158
20
-6.5057
11
6.93436
21
-6.49617
0
LINE
8
BLACK
6
CONTINUOUS
10
6.93436
20
-6.49617
11
6.93587
21
-6.48635
0
LINE
8
BLACK
6
CONTINUOUS
10
6.93587
20
-6.48635
11
6.93609
21
-6.47641
0
LINE
8
BLACK
6
CONTINUOUS
10
6.93609
20
-6.47641
11
6.93505
21
-6.46695
0
LINE
8
BLACK
6
CONTINUOUS
10
6.93505
20
-6.46695
11
6.93485
21
-6.46657
0
LINE
8
BLACK
6
CONTINUOUS
10
6.93485
20
-6.46657
11
6.93485
21
-6.46657
0
LINE
8
BLACK
6
CONTINUOUS
10
6.93485
20
-6.46657
11
6.8323
21
-5.88499
0
LINE
8
BLACK
6
CONTINUOUS
10
6.8323
20
-5.88499
11
6.8323
21
-5.88432
0
LINE
8
BLACK
6
CONTINUOUS
10
6.8323
20
-5.88432
11
6.83009
21
-5.87531
0
LINE
8
BLACK
6
CONTINUOUS
10
6.83009
20
-5.87531
11
6.82649
21
-5.86605
0
LINE
8
BLACK
6
CONTINUOUS
10
6.82649
20
-5.86605
11
6.82172
21
-5.85734
0
LINE
8
BLACK
6
CONTINUOUS
10
6.82172
20
-5.85734
11
6.81584
21
-5.84933
0
LINE
8
BLACK
6
CONTINUOUS
10
6.81584
20
-5.84933
11
6.80897
21
-5.84215
0
LINE
8
BLACK
6
CONTINUOUS
10
6.80897
20
-5.84215
11
6.80122
21
-5.83593
0
LINE
8
BLACK
6
CONTINUOUS
10
6.80122
20
-5.83593
11
6.79273
21
-5.83078
0
LINE
8
BLACK
6
CONTINUOUS
10
6.79273
20
-5.83078
11
6.78364
21
-5.82678
0
LINE
8
BLACK
6
CONTINUOUS
10
6.78364
20
-5.82678
11
6.7741
21
-5.824
0
LINE
8
BLACK
6
CONTINUOUS
10
6.7741
20
-5.824
11
6.76428
21
-5.82249
0
LINE
8
BLACK
6
CONTINUOUS
10
6.76428
20
-5.82249
11
6.75435
21
-5.82227
0
LINE
8
BLACK
6
CONTINUOUS
10
6.75435
20
-5.82227
11
6.74489
21
-5.82331
0
LINE
8
BLACK
6
CONTINUOUS
10
6.74489
20
-5.82331
11
6.7445
21
-5.82351
0
LINE
8
BLACK
6
CONTINUOUS
10
6.7445
20
-5.82351
11
6.7445
21
-5.82351
0
LINE
8
BLACK
6
CONTINUOUS
10
6.7445
20
-5.82351
11
6.08538
21
-5.93973
0
LINE
8
BLACK
6
CONTINUOUS
10
6.08538
20
-5.93973
11
5.59527
21
-6.02615
0
LINE
8
BLACK
6
CONTINUOUS
10
5.59527
20
-6.02615
11
5.59527
21
-6.02615
0
LINE
8
BLACK
6
CONTINUOUS
10
5.59527
20
-6.02615
11
5.58465
21
-6.02732
0
LINE
8
BLACK
6
CONTINUOUS
10
5.58465
20
-6.02732
11
5.57396
21
-6.02708
0
LINE
8
BLACK
6
CONTINUOUS
10
5.57396
20
-6.02708
11
5.5634
21
-6.02546
0
LINE
8
BLACK
6
CONTINUOUS
10
5.5634
20
-6.02546
11
5.55314
21
-6.02247
0
LINE
8
BLACK
6
CONTINUOUS
10
5.55314
20
-6.02247
11
5.54336
21
-6.01816
0
LINE
8
BLACK
6
CONTINUOUS
10
5.54336
20
-6.01816
11
5.53423
21
-6.01262
0
LINE
8
BLACK
6
CONTINUOUS
10
5.53423
20
-6.01262
11
5.52589
21
-6.00593
0
LINE
8
BLACK
6
CONTINUOUS
10
5.52589
20
-6.00593
11
5.5185
21
-5.99821
0
LINE
8
BLACK
6
CONTINUOUS
10
5.5185
20
-5.99821
11
5.51218
21
-5.98959
0
LINE
8
BLACK
6
CONTINUOUS
10
5.51218
20
-5.98959
11
5.50704
21
-5.98023
0
LINE
8
BLACK
6
CONTINUOUS
10
5.50704
20
-5.98023
11
5.50317
21
-5.97027
0
LINE
8
BLACK
6
CONTINUOUS
10
5.50317
20
-5.97027
11
5.50063
21
-5.95989
0
LINE
8
BLACK
6
CONTINUOUS
10
5.50063
20
-5.95989
11
5.50063
21
-5.95989
0
LINE
8
BLACK
6
CONTINUOUS
10
5.50063
20
-5.95989
11
5.41712
21
-5.48626
0
LINE
8
BLACK
6
CONTINUOUS
10
5.41712
20
-5.48626
11
5.41712
21
-5.48626
0
LINE
8
BLACK
6
CONTINUOUS
10
5.41712
20
-5.48626
11
5.41643
21
-5.48155
0
LINE
8
BLACK
6
CONTINUOUS
10
5.41643
20
-5.48155
11
5.41601
21
-5.47682
0
LINE
8
BLACK
6
CONTINUOUS
10
5.41601
20
-5.47682
11
5.41588
21
-5.47207
0
LINE
8
BLACK
6
CONTINUOUS
10
5.41588
20
-5.47207
11
5.41588
21
-5.47207
0
LINE
8
BLACK
6
CONTINUOUS
10
5.41588
20
-5.47207
11
5.41588
21
-5.47207
0
LINE
8
BLACK
6
CONTINUOUS
10
5.41588
20
-5.47207
11
5.41588
21
-2.77953
0
LINE
8
BLACK
6
CONTINUOUS
10
5.41588
20
-2.77953
11
5.416
21
-2.77885
0
LINE
8
BLACK
6
CONTINUOUS
10
5.416
20
-2.77885
11
5.41539
21
-2.76961
0
LINE
8
BLACK
6
CONTINUOUS
10
5.41539
20
-2.76961
11
5.41345
21
-2.75987
0
LINE
8
BLACK
6
CONTINUOUS
10
5.41345
20
-2.75987
11
5.41026
21
-2.75046
0
LINE
8
BLACK
6
CONTINUOUS
10
5.41026
20
-2.75046
11
5.40586
21
-2.74155
0
LINE
8
BLACK
6
CONTINUOUS
10
5.40586
20
-2.74155
11
5.40035
21
-2.73329
0
LINE
8
BLACK
6
CONTINUOUS
10
5.40035
20
-2.73329
11
5.39379
21
-2.72582
0
LINE
8
BLACK
6
CONTINUOUS
10
5.39379
20
-2.72582
11
5.38633
21
-2.71927
0
LINE
8
BLACK
6
CONTINUOUS
10
5.38633
20
-2.71927
11
5.37806
21
-2.71375
0
LINE
8
BLACK
6
CONTINUOUS
10
5.37806
20
-2.71375
11
5.36915
21
-2.70936
0
LINE
8
BLACK
6
CONTINUOUS
10
5.36915
20
-2.70936
11
5.35975
21
-2.70617
0
LINE
8
BLACK
6
CONTINUOUS
10
5.35975
20
-2.70617
11
5.35
21
-2.70423
0
LINE
8
BLACK
6
CONTINUOUS
10
5.35
20
-2.70423
11
5.34051
21
-2.7036
0
LINE
8
BLACK
6
CONTINUOUS
10
5.34051
20
-2.7036
11
5.34009
21
-2.70374
0
LINE
8
BLACK
6
CONTINUOUS
10
5.34009
20
-2.70374
11
4.74954
21
-2.70374
0
LINE
8
BLACK
6
CONTINUOUS
10
4.74954
20
-2.70374
11
4.73887
21
-2.70304
0
LINE
8
BLACK
6
CONTINUOUS
10
4.73887
20
-2.70304
11
4.72839
21
-2.70096
0
LINE
8
BLACK
6
CONTINUOUS
10
4.72839
20
-2.70096
11
4.71827
21
-2.69752
0
LINE
8
BLACK
6
CONTINUOUS
10
4.71827
20
-2.69752
11
4.70869
21
-2.6928
0
LINE
8
BLACK
6
CONTINUOUS
10
4.70869
20
-2.6928
11
4.6998
21
-2.68686
0
LINE
8
BLACK
6
CONTINUOUS
10
4.6998
20
-2.68686
11
4.69177
21
-2.67981
0
LINE
8
BLACK
6
CONTINUOUS
10
4.69177
20
-2.67981
11
4.68472
21
-2.67178
0
LINE
8
BLACK
6
CONTINUOUS
10
4.68472
20
-2.67178
11
4.67879
21
-2.66289
0
LINE
8
BLACK
6
CONTINUOUS
10
4.67879
20
-2.66289
11
4.67406
21
-2.65331
0
LINE
8
BLACK
6
CONTINUOUS
10
4.67406
20
-2.65331
11
4.67063
21
-2.64319
0
LINE
8
BLACK
6
CONTINUOUS
10
4.67063
20
-2.64319
11
4.66854
21
-2.63271
0
LINE
8
BLACK
6
CONTINUOUS
10
4.66854
20
-2.63271
11
4.66784
21
-2.62205
0
LINE
8
BLACK
6
CONTINUOUS
10
4.66784
20
-2.62205
11
4.66784
21
-2.62205
0
LINE
8
BLACK
6
CONTINUOUS
10
4.66784
20
-2.62205
11
4.66784
21
-2.38583
0
LINE
8
BLACK
6
CONTINUOUS
10
4.66784
20
-2.38583
11
4.66796
21
-2.38515
0
LINE
8
BLACK
6
CONTINUOUS
10
4.66796
20
-2.38515
11
4.66736
21
-2.37591
0
LINE
8
BLACK
6
CONTINUOUS
10
4.66736
20
-2.37591
11
4.66542
21
-2.36617
0
LINE
8
BLACK
6
CONTINUOUS
10
4.66542
20
-2.36617
11
4.66223
21
-2.35676
0
LINE
8
BLACK
6
CONTINUOUS
10
4.66223
20
-2.35676
11
4.65783
21
-2.34785
0
LINE
8
BLACK
6
CONTINUOUS
10
4.65783
20
-2.34785
11
4.65231
21
-2.33959
0
LINE
8
BLACK
6
CONTINUOUS
10
4.65231
20
-2.33959
11
4.64576
21
-2.33212
0
LINE
8
BLACK
6
CONTINUOUS
10
4.64576
20
-2.33212
11
4.63829
21
-2.32557
0
LINE
8
BLACK
6
CONTINUOUS
10
4.63829
20
-2.32557
11
4.63003
21
-2.32005
0
LINE
8
BLACK
6
CONTINUOUS
10
4.63003
20
-2.32005
11
4.62112
21
-2.31566
0
LINE
8
BLACK
6
CONTINUOUS
10
4.62112
20
-2.31566
11
4.61171
21
-2.31246
0
LINE
8
BLACK
6
CONTINUOUS
10
4.61171
20
-2.31246
11
4.60197
21
-2.31053
0
LINE
8
BLACK
6
CONTINUOUS
10
4.60197
20
-2.31053
11
4.59247
21
-2.3099
0
LINE
8
BLACK
6
CONTINUOUS
10
4.59247
20
-2.3099
11
4.59206
21
-2.31004
0
LINE
8
BLACK
6
CONTINUOUS
10
4.59206
20
-2.31004
11
4.00151
21
-2.31004
0
LINE
8
BLACK
6
CONTINUOUS
10
4.00151
20
-2.31004
11
3.99084
21
-2.30934
0
LINE
8
BLACK
6
CONTINUOUS
10
3.99084
20
-2.30934
11
3.98036
21
-2.30726
0
LINE
8
BLACK
6
CONTINUOUS
10
3.98036
20
-2.30726
11
3.97024
21
-2.30382
0
LINE
8
BLACK
6
CONTINUOUS
10
3.97024
20
-2.30382
11
3.96066
21
-2.2991
0
LINE
8
BLACK
6
CONTINUOUS
10
3.96066
20
-2.2991
11
3.95177
21
-2.29316
0
LINE
8
BLACK
6
CONTINUOUS
10
3.95177
20
-2.29316
11
3.94374
21
-2.28611
0
LINE
8
BLACK
6
CONTINUOUS
10
3.94374
20
-2.28611
11
3.93669
21
-2.27808
0
LINE
8
BLACK
6
CONTINUOUS
10
3.93669
20
-2.27808
11
3.93076
21
-2.26919
0
LINE
8
BLACK
6
CONTINUOUS
10
3.93076
20
-2.26919
11
3.92603
21
-2.25961
0
LINE
8
BLACK
6
CONTINUOUS
10
3.92603
20
-2.25961
11
3.92259
21
-2.24949
0
LINE
8
BLACK
6
CONTINUOUS
10
3.92259
20
-2.24949
11
3.92051
21
-2.23901
0
LINE
8
BLACK
6
CONTINUOUS
10
3.92051
20
-2.23901
11
3.91981
21
-2.22835
0
LINE
8
BLACK
6
CONTINUOUS
10
3.91981
20
-2.22835
11
3.91981
21
-2.22835
0
LINE
8
BLACK
6
CONTINUOUS
10
3.91981
20
-2.22835
11
3.91981
21
-2.18898
0
LINE
8
BLACK
6
CONTINUOUS
10
3.91981
20
-2.18898
11
3.91993
21
-2.1883
0
LINE
8
BLACK
6
CONTINUOUS
10
3.91993
20
-2.1883
11
3.91933
21
-2.17906
0
LINE
8
BLACK
6
CONTINUOUS
10
3.91933
20
-2.17906
11
3.91739
21
-2.16932
0
LINE
8
BLACK
6
CONTINUOUS
10
3.91739
20
-2.16932
11
3.9142
21
-2.15991
0
LINE
8
BLACK
6
CONTINUOUS
10
3.9142
20
-2.15991
11
3.9098
21
-2.151
0
LINE
8
BLACK
6
CONTINUOUS
10
3.9098
20
-2.151
11
3.90428
21
-2.14274
0
LINE
8
BLACK
6
CONTINUOUS
10
3.90428
20
-2.14274
11
3.89773
21
-2.13527
0
LINE
8
BLACK
6
CONTINUOUS
10
3.89773
20
-2.13527
11
3.89026
21
-2.12872
0
LINE
8
BLACK
6
CONTINUOUS
10
3.89026
20
-2.12872
11
3.882
21
-2.1232
0
LINE
8
BLACK
6
CONTINUOUS
10
3.882
20
-2.1232
11
3.87309
21
-2.11881
0
LINE
8
BLACK
6
CONTINUOUS
10
3.87309
20
-2.11881
11
3.86368
21
-2.11561
0
LINE
8
BLACK
6
CONTINUOUS
10
3.86368
20
-2.11561
11
3.85394
21
-2.11368
0
LINE
8
BLACK
6
CONTINUOUS
10
3.85394
20
-2.11368
11
3.84444
21
-2.11305
0
LINE
8
BLACK
6
CONTINUOUS
10
3.84444
20
-2.11305
11
3.84403
21
-2.11319
0
LINE
8
BLACK
6
CONTINUOUS
10
3.84403
20
-2.11319
11
3.25347
21
-2.11319
0
LINE
8
BLACK
6
CONTINUOUS
10
3.25347
20
-2.11319
11
3.25347
21
-2.11319
  0
ENDSEC
  0
EOF
