  0
SECTION
  2
HEADER
  9
$ANGBASE
  50
0.0
  9
$ANGDIR
  70
1
  9
$MEASUREMENT
  70
0
  0
ENDSEC
  0
SECTION
  2
TABLES
  0
TABLE
  2
LTYPE
  70
4
  0
LTYPE
  5
40F
  2
CONTINUOUS
  70
0
  3
Solid line
  72
65
  73
0
  40
0.0
  0
LTYPE
  5
410
  2
DASHDOT
 70
0
  3
Dash Dot ____ _ ____ _
 72
65
 73
4
 40
2.0
 49
1.25
 49
-0.25
 49
0.25
 49
-0.25
  0
LTYPE
  5
411
  2
DASHED
 70
0
  3
Dashed __ __ __ __ __
 72
65
 73
2
 40
0.75
 49
0.5
 49
-0.25
  0
LTYPE
  5
43B
  2
DOTTED
 70
0
  3
Dotted .  .  .  .
 72
65
 73
2
 40
0.2
 49
0.0
 49
-0.2
  0
ENDTAB
  0
TABLE
  2
STYLE
  70
4
  0
STYLE
  2
KICAD
  70
0
  40
0
  41
1
  42
1
  50
0
  71
0
  3
isocp.shx
  0
STYLE
  2
KICADB
  70
0
  40
0
  41
1
  42
1
  50
0
  71
0
  3
isocp.shx
  0
STYLE
  2
KICADI
  70
0
  40
0
  41
1
  42
1
  50
15
  71
0
  3
isocp.shx
  0
STYLE
  2
KICADBI
  70
0
  40
0
  41
1
  42
1
  50
15
  71
0
  3
isocp.shx
  0
ENDTAB
  0
TABLE
  2
LAYER
  70
1
  0
LAYER
  2
BLACK
  70
0
  62
7
  6
CONTINUOUS
  0
ENDTAB
  0
ENDSEC
  0
SECTION
  2
ENTITIES
0
LINE
8
BLACK
6
CONTINUOUS
10
5.03657
20
-6.72533
11
5.00168
21
-6.73148
0
LINE
8
BLACK
6
CONTINUOUS
10
5.00168
20
-6.73148
11
4.99347
21
-6.68495
0
LINE
8
BLACK
6
CONTINUOUS
10
4.99347
20
-6.68495
11
5.02837
21
-6.6788
0
LINE
8
BLACK
6
CONTINUOUS
10
5.02837
20
-6.6788
11
5.03657
21
-6.72533
0
LINE
8
BLACK
6
CONTINUOUS
10
5.16452
20
-6.70277
11
5.12962
21
-6.70892
0
LINE
8
BLACK
6
CONTINUOUS
10
5.12962
20
-6.70892
11
5.12142
21
-6.66239
0
LINE
8
BLACK
6
CONTINUOUS
10
5.12142
20
-6.66239
11
5.15631
21
-6.65624
0
LINE
8
BLACK
6
CONTINUOUS
10
5.15631
20
-6.65624
11
5.16452
21
-6.70277
0
LINE
8
BLACK
6
CONTINUOUS
10
5.77324
20
-6.59543
11
5.73834
21
-6.60159
0
LINE
8
BLACK
6
CONTINUOUS
10
5.73834
20
-6.60159
11
5.73014
21
-6.55506
0
LINE
8
BLACK
6
CONTINUOUS
10
5.73014
20
-6.55506
11
5.76503
21
-6.54891
0
LINE
8
BLACK
6
CONTINUOUS
10
5.76503
20
-6.54891
11
5.77324
21
-6.59543
0
LINE
8
BLACK
6
CONTINUOUS
10
5.90119
20
-6.57287
11
5.86629
21
-6.57902
0
LINE
8
BLACK
6
CONTINUOUS
10
5.86629
20
-6.57902
11
5.85809
21
-6.5325
0
LINE
8
BLACK
6
CONTINUOUS
10
5.85809
20
-6.5325
11
5.89298
21
-6.52635
0
LINE
8
BLACK
6
CONTINUOUS
10
5.89298
20
-6.52635
11
5.90119
21
-6.57287
0
LINE
8
BLACK
6
CONTINUOUS
10
6.50991
20
-6.46554
11
6.47501
21
-6.47169
0
LINE
8
BLACK
6
CONTINUOUS
10
6.47501
20
-6.47169
11
6.46681
21
-6.42516
0
LINE
8
BLACK
6
CONTINUOUS
10
6.46681
20
-6.42516
11
6.5017
21
-6.41901
0
LINE
8
BLACK
6
CONTINUOUS
10
6.5017
20
-6.41901
11
6.50991
21
-6.46554
0
LINE
8
BLACK
6
CONTINUOUS
10
6.63785
20
-6.44298
11
6.60296
21
-6.44913
0
LINE
8
BLACK
6
CONTINUOUS
10
6.60296
20
-6.44913
11
6.59475
21
-6.4026
0
LINE
8
BLACK
6
CONTINUOUS
10
6.59475
20
-6.4026
11
6.62965
21
-6.39645
0
LINE
8
BLACK
6
CONTINUOUS
10
6.62965
20
-6.39645
11
6.63785
21
-6.44298
0
LINE
8
BLACK
6
CONTINUOUS
10
5.12749
20
-5.53937
11
5.09206
21
-5.53937
0
LINE
8
BLACK
6
CONTINUOUS
10
5.09206
20
-5.53937
11
5.09206
21
-5.49213
0
LINE
8
BLACK
6
CONTINUOUS
10
5.09206
20
-5.49213
11
5.12749
21
-5.49213
0
LINE
8
BLACK
6
CONTINUOUS
10
5.12749
20
-5.49213
11
5.12749
21
-5.53937
0
LINE
8
BLACK
6
CONTINUOUS
10
4.99757
20
-5.53937
11
4.96214
21
-5.53937
0
LINE
8
BLACK
6
CONTINUOUS
10
4.96214
20
-5.53937
11
4.96214
21
-5.49213
0
LINE
8
BLACK
6
CONTINUOUS
10
4.96214
20
-5.49213
11
4.99757
21
-5.49213
0
LINE
8
BLACK
6
CONTINUOUS
10
4.99757
20
-5.49213
11
4.99757
21
-5.53937
0
LINE
8
BLACK
6
CONTINUOUS
10
2.8834
20
-5.34252
11
2.84796
21
-5.34252
0
LINE
8
BLACK
6
CONTINUOUS
10
2.84796
20
-5.34252
11
2.84796
21
-5.29528
0
LINE
8
BLACK
6
CONTINUOUS
10
2.84796
20
-5.29528
11
2.8834
21
-5.29528
0
LINE
8
BLACK
6
CONTINUOUS
10
2.8834
20
-5.29528
11
2.8834
21
-5.34252
0
LINE
8
BLACK
6
CONTINUOUS
10
2.75347
20
-5.34252
11
2.71804
21
-5.34252
0
LINE
8
BLACK
6
CONTINUOUS
10
2.71804
20
-5.34252
11
2.71804
21
-5.29528
0
LINE
8
BLACK
6
CONTINUOUS
10
2.71804
20
-5.29528
11
2.75347
21
-5.29528
0
LINE
8
BLACK
6
CONTINUOUS
10
2.75347
20
-5.29528
11
2.75347
21
-5.34252
0
LINE
8
BLACK
6
CONTINUOUS
10
4.37946
20
-5.14567
11
4.34403
21
-5.14567
0
LINE
8
BLACK
6
CONTINUOUS
10
4.34403
20
-5.14567
11
4.34403
21
-5.09843
0
LINE
8
BLACK
6
CONTINUOUS
10
4.34403
20
-5.09843
11
4.37946
21
-5.09843
0
LINE
8
BLACK
6
CONTINUOUS
10
4.37946
20
-5.09843
11
4.37946
21
-5.14567
0
LINE
8
BLACK
6
CONTINUOUS
10
4.24954
20
-5.14567
11
4.2141
21
-5.14567
0
LINE
8
BLACK
6
CONTINUOUS
10
4.2141
20
-5.14567
11
4.2141
21
-5.09843
0
LINE
8
BLACK
6
CONTINUOUS
10
4.2141
20
-5.09843
11
4.24954
21
-5.09843
0
LINE
8
BLACK
6
CONTINUOUS
10
4.24954
20
-5.09843
11
4.24954
21
-5.14567
0
LINE
8
BLACK
6
CONTINUOUS
10
3.63143
20
-4.94882
11
3.59599
21
-4.94882
0
LINE
8
BLACK
6
CONTINUOUS
10
3.59599
20
-4.94882
11
3.59599
21
-4.90157
0
LINE
8
BLACK
6
CONTINUOUS
10
3.59599
20
-4.90157
11
3.63143
21
-4.90157
0
LINE
8
BLACK
6
CONTINUOUS
10
3.63143
20
-4.90157
11
3.63143
21
-4.94882
0
LINE
8
BLACK
6
CONTINUOUS
10
3.50151
20
-4.94882
11
3.46607
21
-4.94882
0
LINE
8
BLACK
6
CONTINUOUS
10
3.46607
20
-4.94882
11
3.46607
21
-4.90157
0
LINE
8
BLACK
6
CONTINUOUS
10
3.46607
20
-4.90157
11
3.50151
21
-4.90157
0
LINE
8
BLACK
6
CONTINUOUS
10
3.50151
20
-4.90157
11
3.50151
21
-4.94882
0
LINE
8
BLACK
6
CONTINUOUS
10
4.99757
20
-4.79134
11
4.96214
21
-4.79134
0
LINE
8
BLACK
6
CONTINUOUS
10
4.96214
20
-4.79134
11
4.96214
21
-4.74409
0
LINE
8
BLACK
6
CONTINUOUS
10
4.96214
20
-4.74409
11
4.99757
21
-4.74409
0
LINE
8
BLACK
6
CONTINUOUS
10
4.99757
20
-4.74409
11
4.99757
21
-4.79134
0
LINE
8
BLACK
6
CONTINUOUS
10
5.12749
20
-4.79134
11
5.09206
21
-4.79134
0
LINE
8
BLACK
6
CONTINUOUS
10
5.09206
20
-4.79134
11
5.09206
21
-4.74409
0
LINE
8
BLACK
6
CONTINUOUS
10
5.09206
20
-4.74409
11
5.12749
21
-4.74409
0
LINE
8
BLACK
6
CONTINUOUS
10
5.12749
20
-4.74409
11
5.12749
21
-4.79134
0
LINE
8
BLACK
6
CONTINUOUS
10
2.75347
20
-4.59449
11
2.71804
21
-4.59449
0
LINE
8
BLACK
6
CONTINUOUS
10
2.71804
20
-4.59449
11
2.71804
21
-4.54724
0
LINE
8
BLACK
6
CONTINUOUS
10
2.71804
20
-4.54724
11
2.75347
21
-4.54724
0
LINE
8
BLACK
6
CONTINUOUS
10
2.75347
20
-4.54724
11
2.75347
21
-4.59449
0
LINE
8
BLACK
6
CONTINUOUS
10
2.8834
20
-4.59449
11
2.84796
21
-4.59449
0
LINE
8
BLACK
6
CONTINUOUS
10
2.84796
20
-4.59449
11
2.84796
21
-4.54724
0
LINE
8
BLACK
6
CONTINUOUS
10
2.84796
20
-4.54724
11
2.8834
21
-4.54724
0
LINE
8
BLACK
6
CONTINUOUS
10
2.8834
20
-4.54724
11
2.8834
21
-4.59449
0
LINE
8
BLACK
6
CONTINUOUS
10
4.37946
20
-4.39764
11
4.34403
21
-4.39764
0
LINE
8
BLACK
6
CONTINUOUS
10
4.34403
20
-4.39764
11
4.34403
21
-4.35039
0
LINE
8
BLACK
6
CONTINUOUS
10
4.34403
20
-4.35039
11
4.37946
21
-4.35039
0
LINE
8
BLACK
6
CONTINUOUS
10
4.37946
20
-4.35039
11
4.37946
21
-4.39764
0
LINE
8
BLACK
6
CONTINUOUS
10
4.24954
20
-4.39764
11
4.2141
21
-4.39764
0
LINE
8
BLACK
6
CONTINUOUS
10
4.2141
20
-4.39764
11
4.2141
21
-4.35039
0
LINE
8
BLACK
6
CONTINUOUS
10
4.2141
20
-4.35039
11
4.24954
21
-4.35039
0
LINE
8
BLACK
6
CONTINUOUS
10
4.24954
20
-4.35039
11
4.24954
21
-4.39764
0
LINE
8
BLACK
6
CONTINUOUS
10
3.63143
20
-4.20079
11
3.59599
21
-4.20079
0
LINE
8
BLACK
6
CONTINUOUS
10
3.59599
20
-4.20079
11
3.59599
21
-4.15354
0
LINE
8
BLACK
6
CONTINUOUS
10
3.59599
20
-4.15354
11
3.63143
21
-4.15354
0
LINE
8
BLACK
6
CONTINUOUS
10
3.63143
20
-4.15354
11
3.63143
21
-4.20079
0
LINE
8
BLACK
6
CONTINUOUS
10
3.50151
20
-4.20079
11
3.46607
21
-4.20079
0
LINE
8
BLACK
6
CONTINUOUS
10
3.46607
20
-4.20079
11
3.46607
21
-4.15354
0
LINE
8
BLACK
6
CONTINUOUS
10
3.46607
20
-4.15354
11
3.50151
21
-4.15354
0
LINE
8
BLACK
6
CONTINUOUS
10
3.50151
20
-4.15354
11
3.50151
21
-4.20079
0
LINE
8
BLACK
6
CONTINUOUS
10
5.12749
20
-4.04331
11
5.09206
21
-4.04331
0
LINE
8
BLACK
6
CONTINUOUS
10
5.09206
20
-4.04331
11
5.09206
21
-3.99606
0
LINE
8
BLACK
6
CONTINUOUS
10
5.09206
20
-3.99606
11
5.12749
21
-3.99606
0
LINE
8
BLACK
6
CONTINUOUS
10
5.12749
20
-3.99606
11
5.12749
21
-4.04331
0
LINE
8
BLACK
6
CONTINUOUS
10
4.99757
20
-4.04331
11
4.96214
21
-4.04331
0
LINE
8
BLACK
6
CONTINUOUS
10
4.96214
20
-4.04331
11
4.96214
21
-3.99606
0
LINE
8
BLACK
6
CONTINUOUS
10
4.96214
20
-3.99606
11
4.99757
21
-3.99606
0
LINE
8
BLACK
6
CONTINUOUS
10
4.99757
20
-3.99606
11
4.99757
21
-4.04331
0
LINE
8
BLACK
6
CONTINUOUS
10
2.75347
20
-3.84646
11
2.71804
21
-3.84646
0
LINE
8
BLACK
6
CONTINUOUS
10
2.71804
20
-3.84646
11
2.71804
21
-3.79921
0
LINE
8
BLACK
6
CONTINUOUS
10
2.71804
20
-3.79921
11
2.75347
21
-3.79921
0
LINE
8
BLACK
6
CONTINUOUS
10
2.75347
20
-3.79921
11
2.75347
21
-3.84646
0
LINE
8
BLACK
6
CONTINUOUS
10
2.8834
20
-3.84646
11
2.84796
21
-3.84646
0
LINE
8
BLACK
6
CONTINUOUS
10
2.84796
20
-3.84646
11
2.84796
21
-3.79921
0
LINE
8
BLACK
6
CONTINUOUS
10
2.84796
20
-3.79921
11
2.8834
21
-3.79921
0
LINE
8
BLACK
6
CONTINUOUS
10
2.8834
20
-3.79921
11
2.8834
21
-3.84646
0
LINE
8
BLACK
6
CONTINUOUS
10
4.37946
20
-3.64961
11
4.34403
21
-3.64961
0
LINE
8
BLACK
6
CONTINUOUS
10
4.34403
20
-3.64961
11
4.34403
21
-3.60236
0
LINE
8
BLACK
6
CONTINUOUS
10
4.34403
20
-3.60236
11
4.37946
21
-3.60236
0
LINE
8
BLACK
6
CONTINUOUS
10
4.37946
20
-3.60236
11
4.37946
21
-3.64961
0
LINE
8
BLACK
6
CONTINUOUS
10
4.24954
20
-3.64961
11
4.2141
21
-3.64961
0
LINE
8
BLACK
6
CONTINUOUS
10
4.2141
20
-3.64961
11
4.2141
21
-3.60236
0
LINE
8
BLACK
6
CONTINUOUS
10
4.2141
20
-3.60236
11
4.24954
21
-3.60236
0
LINE
8
BLACK
6
CONTINUOUS
10
4.24954
20
-3.60236
11
4.24954
21
-3.64961
0
LINE
8
BLACK
6
CONTINUOUS
10
3.50151
20
-3.45276
11
3.46607
21
-3.45276
0
LINE
8
BLACK
6
CONTINUOUS
10
3.46607
20
-3.45276
11
3.46607
21
-3.40551
0
LINE
8
BLACK
6
CONTINUOUS
10
3.46607
20
-3.40551
11
3.50151
21
-3.40551
0
LINE
8
BLACK
6
CONTINUOUS
10
3.50151
20
-3.40551
11
3.50151
21
-3.45276
0
LINE
8
BLACK
6
CONTINUOUS
10
3.63143
20
-3.45276
11
3.59599
21
-3.45276
0
LINE
8
BLACK
6
CONTINUOUS
10
3.59599
20
-3.45276
11
3.59599
21
-3.40551
0
LINE
8
BLACK
6
CONTINUOUS
10
3.59599
20
-3.40551
11
3.63143
21
-3.40551
0
LINE
8
BLACK
6
CONTINUOUS
10
3.63143
20
-3.40551
11
3.63143
21
-3.45276
0
LINE
8
BLACK
6
CONTINUOUS
10
5.12749
20
-3.29528
11
5.09206
21
-3.29528
0
LINE
8
BLACK
6
CONTINUOUS
10
5.09206
20
-3.29528
11
5.09206
21
-3.24803
0
LINE
8
BLACK
6
CONTINUOUS
10
5.09206
20
-3.24803
11
5.12749
21
-3.24803
0
LINE
8
BLACK
6
CONTINUOUS
10
5.12749
20
-3.24803
11
5.12749
21
-3.29528
0
LINE
8
BLACK
6
CONTINUOUS
10
4.99757
20
-3.29528
11
4.96214
21
-3.29528
0
LINE
8
BLACK
6
CONTINUOUS
10
4.96214
20
-3.29528
11
4.96214
21
-3.24803
0
LINE
8
BLACK
6
CONTINUOUS
10
4.96214
20
-3.24803
11
4.99757
21
-3.24803
0
LINE
8
BLACK
6
CONTINUOUS
10
4.99757
20
-3.24803
11
4.99757
21
-3.29528
0
LINE
8
BLACK
6
CONTINUOUS
10
2.8834
20
-3.09843
11
2.84796
21
-3.09843
0
LINE
8
BLACK
6
CONTINUOUS
10
2.84796
20
-3.09843
11
2.84796
21
-3.05118
0
LINE
8
BLACK
6
CONTINUOUS
10
2.84796
20
-3.05118
11
2.8834
21
-3.05118
0
LINE
8
BLACK
6
CONTINUOUS
10
2.8834
20
-3.05118
11
2.8834
21
-3.09843
0
LINE
8
BLACK
6
CONTINUOUS
10
2.75347
20
-3.09843
11
2.71804
21
-3.09843
0
LINE
8
BLACK
6
CONTINUOUS
10
2.71804
20
-3.09843
11
2.71804
21
-3.05118
0
LINE
8
BLACK
6
CONTINUOUS
10
2.71804
20
-3.05118
11
2.75347
21
-3.05118
0
LINE
8
BLACK
6
CONTINUOUS
10
2.75347
20
-3.05118
11
2.75347
21
-3.09843
0
LINE
8
BLACK
6
CONTINUOUS
10
4.37946
20
-2.90157
11
4.34403
21
-2.90157
0
LINE
8
BLACK
6
CONTINUOUS
10
4.34403
20
-2.90157
11
4.34403
21
-2.85433
0
LINE
8
BLACK
6
CONTINUOUS
10
4.34403
20
-2.85433
11
4.37946
21
-2.85433
0
LINE
8
BLACK
6
CONTINUOUS
10
4.37946
20
-2.85433
11
4.37946
21
-2.90157
0
LINE
8
BLACK
6
CONTINUOUS
10
4.24954
20
-2.90157
11
4.2141
21
-2.90157
0
LINE
8
BLACK
6
CONTINUOUS
10
4.2141
20
-2.90157
11
4.2141
21
-2.85433
0
LINE
8
BLACK
6
CONTINUOUS
10
4.2141
20
-2.85433
11
4.24954
21
-2.85433
0
LINE
8
BLACK
6
CONTINUOUS
10
4.24954
20
-2.85433
11
4.24954
21
-2.90157
0
LINE
8
BLACK
6
CONTINUOUS
10
3.50151
20
-2.70472
11
3.46607
21
-2.70472
0
LINE
8
BLACK
6
CONTINUOUS
10
3.46607
20
-2.70472
11
3.46607
21
-2.65748
0
LINE
8
BLACK
6
CONTINUOUS
10
3.46607
20
-2.65748
11
3.50151
21
-2.65748
0
LINE
8
BLACK
6
CONTINUOUS
10
3.50151
20
-2.65748
11
3.50151
21
-2.70472
0
LINE
8
BLACK
6
CONTINUOUS
10
3.63143
20
-2.70472
11
3.59599
21
-2.70472
0
LINE
8
BLACK
6
CONTINUOUS
10
3.59599
20
-2.70472
11
3.59599
21
-2.65748
0
LINE
8
BLACK
6
CONTINUOUS
10
3.59599
20
-2.65748
11
3.63143
21
-2.65748
0
LINE
8
BLACK
6
CONTINUOUS
10
3.63143
20
-2.65748
11
3.63143
21
-2.70472
  0
ENDSEC
  0
EOF
