%TF.GenerationSoftware,KiCad,Pcbnew,(6.0.6)*%
%TF.CreationDate,2022-07-20T03:50:55+02:00*%
%TF.ProjectId,macropad_routed_rounded_jlc,6d616372-6f70-4616-945f-726f75746564,v1.0.0*%
%TF.SameCoordinates,Original*%
%TF.FileFunction,Copper,L1,Top*%
%TF.FilePolarity,Positive*%
%FSLAX46Y46*%
G04 Gerber Fmt 4.6, Leading zero omitted, Abs format (unit mm)*
G04 Created by KiCad (PCBNEW (6.0.6)) date 2022-07-20 03:50:55*
%MOMM*%
%LPD*%
G01*
G04 APERTURE LIST*
G04 Aperture macros list*
%AMRotRect*
0 Rectangle, with rotation*
0 The origin of the aperture is its center*
0 $1 length*
0 $2 width*
0 $3 Rotation angle, in degrees counterclockwise*
0 Add horizontal line*
21,1,$1,$2,0,0,$3*%
G04 Aperture macros list end*
%TA.AperFunction,ComponentPad*%
%ADD10RotRect,1.752600X1.752600X10.000000*%
%TD*%
%TA.AperFunction,ComponentPad*%
%ADD11C,1.752600*%
%TD*%
%TA.AperFunction,ComponentPad*%
%ADD12C,1.905000*%
%TD*%
%TA.AperFunction,SMDPad,CuDef*%
%ADD13R,0.900000X1.200000*%
%TD*%
%TA.AperFunction,ComponentPad*%
%ADD14R,1.778000X1.778000*%
%TD*%
%TA.AperFunction,SMDPad,CuDef*%
%ADD15RotRect,0.900000X1.200000X10.000000*%
%TD*%
%TA.AperFunction,ComponentPad*%
%ADD16RotRect,1.778000X1.778000X10.000000*%
%TD*%
%TA.AperFunction,Conductor*%
%ADD17C,0.250000*%
%TD*%
G04 APERTURE END LIST*
D10*
%TO.P,MCU1,1*%
%TO.N,RAW*%
X87073685Y-162740100D03*
D11*
%TO.P,MCU1,2*%
%TO.N,GND*%
X89575096Y-162299034D03*
%TO.P,MCU1,3*%
%TO.N,RST*%
X92076508Y-161857967D03*
%TO.P,MCU1,4*%
%TO.N,VCC*%
X94577920Y-161416901D03*
%TO.P,MCU1,5*%
%TO.N,P21*%
X97079332Y-160975835D03*
%TO.P,MCU1,6*%
%TO.N,P20*%
X99580743Y-160534768D03*
%TO.P,MCU1,7*%
%TO.N,P19*%
X102082155Y-160093702D03*
%TO.P,MCU1,8*%
%TO.N,P18*%
X104583567Y-159652636D03*
%TO.P,MCU1,9*%
%TO.N,P15*%
X107084978Y-159211569D03*
%TO.P,MCU1,10*%
%TO.N,P14*%
X109586390Y-158770503D03*
%TO.P,MCU1,11*%
%TO.N,P16*%
X112087802Y-158329436D03*
%TO.P,MCU1,12*%
%TO.N,P10*%
X114589213Y-157888370D03*
%TO.P,MCU1,13*%
%TO.N,P1*%
X84427287Y-147731630D03*
%TO.P,MCU1,14*%
%TO.N,P0*%
X86928698Y-147290564D03*
%TO.P,MCU1,15*%
%TO.N,GND*%
X89430110Y-146849497D03*
%TO.P,MCU1,16*%
X91931522Y-146408431D03*
%TO.P,MCU1,17*%
%TO.N,P2*%
X94432933Y-145967364D03*
%TO.P,MCU1,18*%
%TO.N,P3*%
X96934345Y-145526298D03*
%TO.P,MCU1,19*%
%TO.N,P4*%
X99435757Y-145085232D03*
%TO.P,MCU1,20*%
%TO.N,P5*%
X101937168Y-144644165D03*
%TO.P,MCU1,21*%
%TO.N,P6*%
X104438580Y-144203099D03*
%TO.P,MCU1,22*%
%TO.N,P7*%
X106939992Y-143762033D03*
%TO.P,MCU1,23*%
%TO.N,P8*%
X109441404Y-143320966D03*
%TO.P,MCU1,24*%
%TO.N,P9*%
X111942815Y-142879900D03*
%TD*%
D12*
%TO.P,D1,1*%
%TO.N,c1_r1*%
X74948250Y-135100000D03*
D13*
%TO.N,P6*%
X69488250Y-135100000D03*
D14*
%TO.P,D1,2*%
X67328250Y-135100000D03*
D13*
%TO.N,c1_r1*%
X72788250Y-135100000D03*
%TD*%
%TO.P,D16,1*%
%TO.N,P3*%
X126488250Y-83100000D03*
D12*
%TO.N,c4_r4*%
X131948250Y-83100000D03*
D14*
%TO.P,D16,2*%
%TO.N,P3*%
X124328250Y-83100000D03*
D13*
%TO.N,c4_r4*%
X129788250Y-83100000D03*
%TD*%
D12*
%TO.P,D10,1*%
%TO.N,c3_r2*%
X112948250Y-111100000D03*
D13*
%TO.N,P5*%
X107488250Y-111100000D03*
D14*
%TO.P,D10,2*%
X105328250Y-111100000D03*
D13*
%TO.N,c3_r2*%
X110788250Y-111100000D03*
%TD*%
%TO.P,D6,1*%
%TO.N,P5*%
X88488250Y-106100000D03*
D12*
%TO.N,c2_r2*%
X93948250Y-106100000D03*
D14*
%TO.P,D6,2*%
%TO.N,P5*%
X86328250Y-106100000D03*
D13*
%TO.N,c2_r2*%
X91788250Y-106100000D03*
%TD*%
%TO.P,D8,1*%
%TO.N,P3*%
X88488250Y-68100000D03*
D12*
%TO.N,c2_r4*%
X93948250Y-68100000D03*
D14*
%TO.P,D8,2*%
%TO.N,P3*%
X86328250Y-68100000D03*
D13*
%TO.N,c2_r4*%
X91788250Y-68100000D03*
%TD*%
%TO.P,D7,1*%
%TO.N,P4*%
X88488250Y-87100000D03*
D12*
%TO.N,c2_r3*%
X93948250Y-87100000D03*
D13*
%TO.P,D7,2*%
X91788250Y-87100000D03*
D14*
%TO.N,P4*%
X86328250Y-87100000D03*
%TD*%
D12*
%TO.P,D19,1*%
%TO.N,c7_r5*%
X170181304Y-162763808D03*
D15*
%TO.N,P2*%
X164804253Y-163711927D03*
%TO.P,D19,2*%
%TO.N,c7_r5*%
X168054119Y-163138889D03*
D16*
%TO.N,P2*%
X162677068Y-164087008D03*
%TD*%
D13*
%TO.P,D15,1*%
%TO.N,P4*%
X126488250Y-102100000D03*
D12*
%TO.N,c4_r3*%
X131948250Y-102100000D03*
D13*
%TO.P,D15,2*%
X129788250Y-102100000D03*
D14*
%TO.N,P4*%
X124328250Y-102100000D03*
%TD*%
D12*
%TO.P,D14,1*%
%TO.N,c4_r2*%
X131948250Y-121100000D03*
D13*
%TO.N,P5*%
X126488250Y-121100000D03*
%TO.P,D14,2*%
%TO.N,c4_r2*%
X129788250Y-121100000D03*
D14*
%TO.N,P5*%
X124328250Y-121100000D03*
%TD*%
D12*
%TO.P,D4,1*%
%TO.N,c1_r4*%
X74948250Y-78100000D03*
D13*
%TO.N,P3*%
X69488250Y-78100000D03*
%TO.P,D4,2*%
%TO.N,c1_r4*%
X72788250Y-78100000D03*
D14*
%TO.N,P3*%
X67328250Y-78100000D03*
%TD*%
D12*
%TO.P,D5,1*%
%TO.N,c2_r1*%
X93948250Y-125100000D03*
D13*
%TO.N,P6*%
X88488250Y-125100000D03*
D14*
%TO.P,D5,2*%
X86328250Y-125100000D03*
D13*
%TO.N,c2_r1*%
X91788250Y-125100000D03*
%TD*%
%TO.P,D12,1*%
%TO.N,P3*%
X107488250Y-73100000D03*
D12*
%TO.N,c3_r4*%
X112948250Y-73100000D03*
D13*
%TO.P,D12,2*%
X110788250Y-73100000D03*
D14*
%TO.N,P3*%
X105328250Y-73100000D03*
%TD*%
D15*
%TO.P,D17,1*%
%TO.N,P2*%
X127381558Y-170310558D03*
D12*
%TO.N,c5_r5*%
X132758609Y-169362439D03*
D16*
%TO.P,D17,2*%
%TO.N,P2*%
X125254373Y-170685639D03*
D15*
%TO.N,c5_r5*%
X130631424Y-169737520D03*
%TD*%
D12*
%TO.P,D3,1*%
%TO.N,c1_r3*%
X74948250Y-97100000D03*
D13*
%TO.N,P4*%
X69488250Y-97100000D03*
%TO.P,D3,2*%
%TO.N,c1_r3*%
X72788250Y-97100000D03*
D14*
%TO.N,P4*%
X67328250Y-97100000D03*
%TD*%
D12*
%TO.P,D13,1*%
%TO.N,c4_r1*%
X131948250Y-140100000D03*
D13*
%TO.N,P6*%
X126488250Y-140100000D03*
D14*
%TO.P,D13,2*%
X124328250Y-140100000D03*
D13*
%TO.N,c4_r1*%
X129788250Y-140100000D03*
%TD*%
D12*
%TO.P,D11,1*%
%TO.N,c3_r3*%
X112948250Y-92100000D03*
D13*
%TO.N,P4*%
X107488250Y-92100000D03*
D14*
%TO.P,D11,2*%
X105328250Y-92100000D03*
D13*
%TO.N,c3_r3*%
X110788250Y-92100000D03*
%TD*%
D12*
%TO.P,D2,1*%
%TO.N,c1_r2*%
X74948250Y-116100000D03*
D13*
%TO.N,P5*%
X69488250Y-116100000D03*
%TO.P,D2,2*%
%TO.N,c1_r2*%
X72788250Y-116100000D03*
D14*
%TO.N,P5*%
X67328250Y-116100000D03*
%TD*%
D12*
%TO.P,D9,1*%
%TO.N,c3_r1*%
X112948250Y-130100000D03*
D13*
%TO.N,P6*%
X107488250Y-130100000D03*
%TO.P,D9,2*%
%TO.N,c3_r1*%
X110788250Y-130100000D03*
D14*
%TO.N,P6*%
X105328250Y-130100000D03*
%TD*%
D12*
%TO.P,D18,1*%
%TO.N,c6_r5*%
X151469956Y-166063123D03*
D15*
%TO.N,P2*%
X146092905Y-167011242D03*
D16*
%TO.P,D18,2*%
X143965720Y-167386323D03*
D15*
%TO.N,c6_r5*%
X149342771Y-166438204D03*
%TD*%
D17*
%TO.N,c1_r1*%
X72788250Y-135100000D02*
X74948250Y-135100000D01*
%TO.N,P6*%
X81388371Y-129731628D02*
X85911017Y-125208982D01*
X117211442Y-144962844D02*
X105735545Y-144962844D01*
X116164221Y-134189935D02*
X113832148Y-134189935D01*
X89126755Y-125738505D02*
X88488250Y-125100000D01*
X90668244Y-126377011D02*
X99351297Y-126377011D01*
X69488250Y-135100000D02*
X67328250Y-135100000D01*
X69488250Y-135100000D02*
X71669036Y-132919213D01*
X105328250Y-130100000D02*
X103199053Y-127970803D01*
X86482375Y-125100000D02*
X86174125Y-125100000D01*
X124328250Y-140100000D02*
X121059198Y-143369051D01*
X88488250Y-125100000D02*
X86482375Y-125100000D01*
X107488250Y-130100000D02*
X105328250Y-130100000D01*
X107488250Y-130100000D02*
X109984392Y-132596142D01*
X77540615Y-131325421D02*
X75516792Y-131325421D01*
X124328250Y-140100000D02*
X126488250Y-140100000D01*
X104818452Y-144582971D02*
X104438580Y-144203099D01*
X124328250Y-140100000D02*
X120011977Y-135783727D01*
X105735545Y-144962817D02*
G75*
G02*
X104818453Y-144582970I-45J1296917D01*
G01*
X85911003Y-125208968D02*
G75*
G02*
X86174125Y-125100000I263097J-263132D01*
G01*
X117211442Y-144962874D02*
G75*
G03*
X121059197Y-143369050I-42J5441574D01*
G01*
X71669034Y-132919211D02*
G75*
G02*
X75516792Y-131325421I3847766J-3847789D01*
G01*
X116164221Y-134189925D02*
G75*
G02*
X120011977Y-135783727I-21J-5441575D01*
G01*
X90668244Y-126376974D02*
G75*
G02*
X89126756Y-125738504I-44J2179974D01*
G01*
X77540615Y-131325439D02*
G75*
G03*
X81388371Y-129731628I-15J5441539D01*
G01*
X113832148Y-134189975D02*
G75*
G02*
X109984392Y-132596142I52J5441575D01*
G01*
X99351297Y-126377025D02*
G75*
G02*
X103199053Y-127970803I3J-5441575D01*
G01*
%TO.N,c1_r2*%
X72788250Y-116100000D02*
X74948250Y-116100000D01*
%TO.N,P5*%
X69488250Y-116100000D02*
X71669036Y-113919213D01*
X115894457Y-119506207D02*
X107488250Y-111100000D01*
X103398169Y-145500000D02*
X126286036Y-145500000D01*
X95742213Y-111100000D02*
X105328250Y-111100000D01*
X69488250Y-116100000D02*
X67328250Y-116100000D01*
X124897750Y-121100000D02*
X124328250Y-121100000D01*
X134443671Y-137342365D02*
X134443671Y-132330384D01*
X124328250Y-121100000D02*
X126488250Y-121100000D01*
X75516792Y-112325421D02*
X77848865Y-112325421D01*
X88488250Y-106100000D02*
X86328250Y-106100000D01*
X88488250Y-106100000D02*
X91894457Y-109506207D01*
X124328250Y-121100000D02*
X119742213Y-121100000D01*
X132849878Y-141190121D02*
X130133792Y-143906207D01*
X102365085Y-145072082D02*
X101937168Y-144644165D01*
X81696621Y-110731628D02*
X86328250Y-106100000D01*
X125869947Y-121502697D02*
X132849878Y-128482628D01*
X107488250Y-111100000D02*
X105328250Y-111100000D01*
X124897750Y-121100037D02*
G75*
G02*
X125869947Y-121502697I50J-1374863D01*
G01*
X95742213Y-111099975D02*
G75*
G02*
X91894457Y-109506207I-13J5441575D01*
G01*
X134443675Y-132330384D02*
G75*
G03*
X132849878Y-128482628I-5441575J-16D01*
G01*
X71669034Y-113919211D02*
G75*
G02*
X75516792Y-112325421I3847766J-3847789D01*
G01*
X119742213Y-121099975D02*
G75*
G02*
X115894457Y-119506207I-13J5441575D01*
G01*
X132849900Y-141190143D02*
G75*
G03*
X134443671Y-137342365I-3847800J3847743D01*
G01*
X77848865Y-112325404D02*
G75*
G03*
X81696621Y-110731628I35J5441504D01*
G01*
X126286036Y-145500010D02*
G75*
G03*
X130133792Y-143906207I-36J5441610D01*
G01*
X103398169Y-145500021D02*
G75*
G02*
X102365086Y-145072081I31J1461021D01*
G01*
%TO.N,c1_r3*%
X72788250Y-97100000D02*
X74948250Y-97100000D01*
%TO.N,P4*%
X124328250Y-102100000D02*
X123080539Y-103347710D01*
X115894457Y-100506207D02*
X107488250Y-92100000D01*
X119742213Y-102100000D02*
X124328250Y-102100000D01*
X124328250Y-102100000D02*
X126488250Y-102100000D01*
X88488250Y-87100000D02*
X86328250Y-87100000D01*
X75516792Y-93325421D02*
X77848865Y-93325421D01*
X133299398Y-141376319D02*
X130259510Y-144416207D01*
X81696621Y-91731628D02*
X86328250Y-87100000D01*
X121832829Y-117698131D02*
X121832829Y-106359950D01*
X107488250Y-92100000D02*
X105328250Y-92100000D01*
X69488250Y-97100000D02*
X71669036Y-94919213D01*
X88488250Y-87100000D02*
X91894457Y-90506207D01*
X69488250Y-97100000D02*
X67328250Y-97100000D01*
X128338131Y-121250859D02*
X133299398Y-126212126D01*
X134893191Y-130059882D02*
X134893191Y-137528563D01*
X101014434Y-146010000D02*
X126411754Y-146010000D01*
X99898141Y-145547616D02*
X99435757Y-145085232D01*
X95742213Y-92100000D02*
X105328250Y-92100000D01*
X125044250Y-119886489D02*
X124021186Y-119886489D01*
X124021186Y-119886489D02*
G75*
G02*
X122473784Y-119245534I14J2188389D01*
G01*
X121832870Y-106359950D02*
G75*
G02*
X123080539Y-103347710I4259930J50D01*
G01*
X133299425Y-141376346D02*
G75*
G03*
X134893191Y-137528563I-3847825J3847746D01*
G01*
X122473797Y-119245521D02*
G75*
G02*
X121832829Y-117698131I1547403J1547421D01*
G01*
X101014434Y-146009968D02*
G75*
G02*
X99898142Y-145547615I-34J1578668D01*
G01*
X95742213Y-92099975D02*
G75*
G02*
X91894457Y-90506207I-13J5441575D01*
G01*
X134893191Y-130059882D02*
G75*
G03*
X133299398Y-126212126I-5441591J-18D01*
G01*
X126411754Y-146010022D02*
G75*
G03*
X130259509Y-144416206I-54J5441622D01*
G01*
X125044250Y-119886442D02*
G75*
G02*
X128338131Y-121250859I-50J-4658258D01*
G01*
X119742213Y-102099975D02*
G75*
G02*
X115894457Y-100506207I-13J5441575D01*
G01*
X77848865Y-93325404D02*
G75*
G03*
X81696621Y-91731628I35J5441504D01*
G01*
X71669034Y-94919211D02*
G75*
G02*
X75516792Y-93325421I3847766J-3847789D01*
G01*
%TO.N,c1_r4*%
X72788250Y-78100000D02*
X74948250Y-78100000D01*
%TO.N,P3*%
X130610000Y-106046812D02*
X130610000Y-97363963D01*
X81696621Y-72731628D02*
X86328250Y-68100000D01*
X69488250Y-78100000D02*
X67328250Y-78100000D01*
X95742213Y-73100000D02*
X105328250Y-73100000D01*
X115894457Y-81506207D02*
X107488250Y-73100000D01*
X69488250Y-78100000D02*
X71669036Y-75919213D01*
X88488250Y-68100000D02*
X91894457Y-71506207D01*
X88488250Y-68100000D02*
X86328250Y-68100000D01*
X119742213Y-83100000D02*
X124328250Y-83100000D01*
X124328250Y-83100000D02*
X126488250Y-83100000D01*
X75516792Y-74325421D02*
X77848865Y-74325421D01*
X133748918Y-141562516D02*
X130445707Y-144865727D01*
X97400956Y-145992909D02*
X96934345Y-145526298D01*
X132203792Y-109894568D02*
X133748918Y-111439694D01*
X135342711Y-137714760D02*
X135342711Y-115287450D01*
X126597951Y-146459520D02*
X98527454Y-146459520D01*
X124328250Y-86574286D02*
X124328250Y-83100000D01*
X107488250Y-73100000D02*
X105328250Y-73100000D01*
X125922042Y-90422042D02*
X129016207Y-93516207D01*
X132203788Y-109894572D02*
G75*
G02*
X130610000Y-106046812I3847812J3847772D01*
G01*
X98527454Y-146459549D02*
G75*
G02*
X97400956Y-145992909I46J1593149D01*
G01*
X119742213Y-83099975D02*
G75*
G02*
X115894457Y-81506207I-13J5441575D01*
G01*
X135342757Y-115287450D02*
G75*
G03*
X133748918Y-111439694I-5441557J-50D01*
G01*
X77848865Y-74325404D02*
G75*
G03*
X81696621Y-72731628I35J5441504D01*
G01*
X95742213Y-73099975D02*
G75*
G02*
X91894457Y-71506207I-13J5441575D01*
G01*
X126597951Y-146459564D02*
G75*
G03*
X130445707Y-144865727I-51J5441564D01*
G01*
X133748930Y-141562528D02*
G75*
G03*
X135342711Y-137714760I-3847730J3847728D01*
G01*
X130610010Y-97363963D02*
G75*
G03*
X129016206Y-93516208I-5441610J-37D01*
G01*
X125922035Y-90422049D02*
G75*
G02*
X124328250Y-86574286I3847765J3847749D01*
G01*
X71669034Y-75919211D02*
G75*
G02*
X75516792Y-74325421I3847766J-3847789D01*
G01*
%TO.N,c2_r1*%
X91788250Y-125100000D02*
X93948250Y-125100000D01*
%TO.N,c2_r2*%
X91788250Y-106100000D02*
X93948250Y-106100000D01*
%TO.N,c2_r3*%
X91788250Y-87100000D02*
X93948250Y-87100000D01*
%TO.N,c2_r4*%
X91788250Y-68100000D02*
X93948250Y-68100000D01*
%TO.N,c3_r1*%
X110788250Y-130100000D02*
X112948250Y-130100000D01*
%TO.N,c3_r2*%
X110788250Y-111100000D02*
X112948250Y-111100000D01*
%TO.N,c3_r3*%
X110788250Y-92100000D02*
X112948250Y-92100000D01*
%TO.N,c3_r4*%
X110788250Y-73100000D02*
X112948250Y-73100000D01*
%TO.N,c4_r1*%
X129788250Y-140100000D02*
X131948250Y-140100000D01*
%TO.N,c4_r2*%
X129788250Y-121100000D02*
X131948250Y-121100000D01*
%TO.N,c4_r4*%
X129788250Y-83100000D02*
X131948250Y-83100000D01*
%TO.N,c5_r5*%
X132571068Y-169549979D02*
X132758609Y-169362439D01*
X132118305Y-169737520D02*
X130631424Y-169737520D01*
X132118305Y-169737518D02*
G75*
G03*
X132571068Y-169549979I-5J640318D01*
G01*
%TO.N,P2*%
X110616036Y-146950000D02*
X96110397Y-146950000D01*
X121910006Y-165087308D02*
X121910006Y-158243969D01*
X143965720Y-167386323D02*
X132373539Y-167386323D01*
X164616712Y-163899467D02*
X164804253Y-163711927D01*
X151084884Y-164087008D02*
X162677068Y-164087008D01*
X127569098Y-170123017D02*
X127194017Y-170498098D01*
X146280445Y-166823701D02*
X145905364Y-167198782D01*
X123503798Y-168935064D02*
X125254373Y-170685639D01*
X94924251Y-146458682D02*
X94432933Y-145967364D01*
X146280445Y-166823701D02*
X147555022Y-165549125D01*
X162677068Y-164087008D02*
X164163949Y-164087008D01*
X120316213Y-154396213D02*
X114463792Y-148543792D01*
X126741254Y-170685639D02*
X125254373Y-170685639D01*
X127569098Y-170123017D02*
X128843675Y-168848440D01*
X143965720Y-167386323D02*
X145452601Y-167386323D01*
X96110397Y-146949991D02*
G75*
G02*
X94924251Y-146458682I3J1677491D01*
G01*
X145452601Y-167386317D02*
G75*
G03*
X145905363Y-167198781I-1J640317D01*
G01*
X147555027Y-165549130D02*
G75*
G02*
X151084884Y-164087008I3529873J-3529870D01*
G01*
X128843657Y-168848422D02*
G75*
G02*
X132373539Y-167386323I3529843J-3529878D01*
G01*
X164163949Y-164087041D02*
G75*
G03*
X164616712Y-163899467I-49J640341D01*
G01*
X123503793Y-168935069D02*
G75*
G02*
X121910006Y-165087308I3847807J3847769D01*
G01*
X110616036Y-146949990D02*
G75*
G02*
X114463791Y-148543793I-36J-5441610D01*
G01*
X126741254Y-170685666D02*
G75*
G03*
X127194017Y-170498098I-54J640366D01*
G01*
X121910040Y-158243969D02*
G75*
G03*
X120316213Y-154396213I-5441540J-31D01*
G01*
%TO.N,c6_r5*%
X151282415Y-166250663D02*
X151469956Y-166063123D01*
X150829652Y-166438204D02*
X149342771Y-166438204D01*
X150829652Y-166438240D02*
G75*
G03*
X151282415Y-166250663I-52J640340D01*
G01*
%TO.N,c7_r5*%
X169993763Y-162951348D02*
X170181304Y-162763808D01*
X169541000Y-163138889D02*
X168054119Y-163138889D01*
X169541000Y-163138892D02*
G75*
G03*
X169993762Y-162951347I0J640292D01*
G01*
%TD*%
%TA.AperFunction,Conductor*%
%TO.N,P3*%
G36*
X86723287Y-67304010D02*
G01*
X86881776Y-67390499D01*
X86882705Y-67391064D01*
X87020065Y-67483590D01*
X87020724Y-67484068D01*
X87138346Y-67576200D01*
X87138617Y-67576420D01*
X87188102Y-67617933D01*
X87244747Y-67665453D01*
X87244756Y-67665460D01*
X87347479Y-67748495D01*
X87347659Y-67748619D01*
X87347660Y-67748620D01*
X87454626Y-67822442D01*
X87454630Y-67822444D01*
X87454925Y-67822648D01*
X87455241Y-67822812D01*
X87455246Y-67822815D01*
X87574960Y-67884938D01*
X87575359Y-67885145D01*
X87717046Y-67933217D01*
X87888255Y-67964092D01*
X88086160Y-67974421D01*
X88094243Y-67978274D01*
X88097250Y-67986105D01*
X88097250Y-68213895D01*
X88093823Y-68222168D01*
X88086161Y-68225579D01*
X87888255Y-68235907D01*
X87717046Y-68266782D01*
X87575359Y-68314854D01*
X87574961Y-68315061D01*
X87574960Y-68315061D01*
X87455246Y-68377184D01*
X87455241Y-68377187D01*
X87454925Y-68377351D01*
X87454630Y-68377555D01*
X87454626Y-68377557D01*
X87347660Y-68451379D01*
X87347479Y-68451504D01*
X87244756Y-68534539D01*
X87138617Y-68623579D01*
X87138346Y-68623799D01*
X87020724Y-68715931D01*
X87020065Y-68716409D01*
X86882707Y-68808934D01*
X86881778Y-68809499D01*
X86876002Y-68812651D01*
X86723287Y-68895990D01*
X86714383Y-68896945D01*
X86709572Y-68894153D01*
X86624203Y-68812058D01*
X85883750Y-68100000D01*
X86709572Y-67305847D01*
X86717911Y-67302582D01*
X86723287Y-67304010D01*
G37*
%TD.AperFunction*%
%TD*%
%TA.AperFunction,Conductor*%
%TO.N,c3_r3*%
G36*
X112539253Y-91248701D02*
G01*
X112844157Y-91541912D01*
X113294516Y-91975000D01*
X113415731Y-92091567D01*
X113419319Y-92099771D01*
X113415731Y-92108433D01*
X113122421Y-92390495D01*
X112539253Y-92951299D01*
X112530914Y-92954564D01*
X112525532Y-92953133D01*
X112353867Y-92859318D01*
X112352923Y-92858742D01*
X112204815Y-92758560D01*
X112204126Y-92758056D01*
X112077514Y-92658220D01*
X112077200Y-92657964D01*
X111963072Y-92561378D01*
X111852692Y-92471230D01*
X111737249Y-92390672D01*
X111736921Y-92390500D01*
X111736913Y-92390495D01*
X111669660Y-92355205D01*
X111607788Y-92322738D01*
X111607371Y-92322595D01*
X111607364Y-92322592D01*
X111455771Y-92270603D01*
X111455354Y-92270460D01*
X111270993Y-92236870D01*
X111109668Y-92228368D01*
X111056834Y-92225584D01*
X111048753Y-92221726D01*
X111045750Y-92213900D01*
X111045750Y-91986100D01*
X111049177Y-91977827D01*
X111056834Y-91974416D01*
X111125245Y-91970810D01*
X111270993Y-91963129D01*
X111455354Y-91929539D01*
X111455771Y-91929396D01*
X111607364Y-91877407D01*
X111607371Y-91877404D01*
X111607788Y-91877261D01*
X111669660Y-91844794D01*
X111736913Y-91809504D01*
X111736921Y-91809499D01*
X111737249Y-91809327D01*
X111852692Y-91728769D01*
X111963072Y-91638621D01*
X112077200Y-91542035D01*
X112077514Y-91541779D01*
X112204126Y-91441943D01*
X112204815Y-91441439D01*
X112352923Y-91341257D01*
X112353867Y-91340681D01*
X112525532Y-91246867D01*
X112534435Y-91245907D01*
X112539253Y-91248701D01*
G37*
%TD.AperFunction*%
%TD*%
%TA.AperFunction,Conductor*%
%TO.N,c2_r2*%
G36*
X93539253Y-105248701D02*
G01*
X93844157Y-105541912D01*
X94294516Y-105975000D01*
X94415731Y-106091567D01*
X94419319Y-106099771D01*
X94415731Y-106108433D01*
X94122421Y-106390495D01*
X93539253Y-106951299D01*
X93530914Y-106954564D01*
X93525532Y-106953133D01*
X93353867Y-106859318D01*
X93352923Y-106858742D01*
X93204815Y-106758560D01*
X93204126Y-106758056D01*
X93077514Y-106658220D01*
X93077200Y-106657964D01*
X92963072Y-106561378D01*
X92852692Y-106471230D01*
X92737249Y-106390672D01*
X92736921Y-106390500D01*
X92736913Y-106390495D01*
X92669660Y-106355205D01*
X92607788Y-106322738D01*
X92607371Y-106322595D01*
X92607364Y-106322592D01*
X92455771Y-106270603D01*
X92455354Y-106270460D01*
X92270993Y-106236870D01*
X92109668Y-106228368D01*
X92056834Y-106225584D01*
X92048753Y-106221726D01*
X92045750Y-106213900D01*
X92045750Y-105986100D01*
X92049177Y-105977827D01*
X92056834Y-105974416D01*
X92125245Y-105970810D01*
X92270993Y-105963129D01*
X92455354Y-105929539D01*
X92455771Y-105929396D01*
X92607364Y-105877407D01*
X92607371Y-105877404D01*
X92607788Y-105877261D01*
X92669660Y-105844794D01*
X92736913Y-105809504D01*
X92736921Y-105809499D01*
X92737249Y-105809327D01*
X92852692Y-105728769D01*
X92963072Y-105638621D01*
X93077200Y-105542035D01*
X93077514Y-105541779D01*
X93204126Y-105441943D01*
X93204815Y-105441439D01*
X93352923Y-105341257D01*
X93353867Y-105340681D01*
X93525532Y-105246867D01*
X93534435Y-105245907D01*
X93539253Y-105248701D01*
G37*
%TD.AperFunction*%
%TD*%
%TA.AperFunction,Conductor*%
%TO.N,c1_r3*%
G36*
X74539253Y-96248701D02*
G01*
X74844157Y-96541912D01*
X75294516Y-96975000D01*
X75415731Y-97091567D01*
X75419319Y-97099771D01*
X75415731Y-97108433D01*
X75122421Y-97390495D01*
X74539253Y-97951299D01*
X74530914Y-97954564D01*
X74525532Y-97953133D01*
X74353867Y-97859318D01*
X74352923Y-97858742D01*
X74204815Y-97758560D01*
X74204126Y-97758056D01*
X74077514Y-97658220D01*
X74077200Y-97657964D01*
X73963072Y-97561378D01*
X73852692Y-97471230D01*
X73737249Y-97390672D01*
X73736921Y-97390500D01*
X73736913Y-97390495D01*
X73669660Y-97355205D01*
X73607788Y-97322738D01*
X73607371Y-97322595D01*
X73607364Y-97322592D01*
X73455771Y-97270603D01*
X73455354Y-97270460D01*
X73270993Y-97236870D01*
X73109668Y-97228368D01*
X73056834Y-97225584D01*
X73048753Y-97221726D01*
X73045750Y-97213900D01*
X73045750Y-96986100D01*
X73049177Y-96977827D01*
X73056834Y-96974416D01*
X73125245Y-96970810D01*
X73270993Y-96963129D01*
X73455354Y-96929539D01*
X73455771Y-96929396D01*
X73607364Y-96877407D01*
X73607371Y-96877404D01*
X73607788Y-96877261D01*
X73669660Y-96844794D01*
X73736913Y-96809504D01*
X73736921Y-96809499D01*
X73737249Y-96809327D01*
X73852692Y-96728769D01*
X73963072Y-96638621D01*
X74077200Y-96542035D01*
X74077514Y-96541779D01*
X74204126Y-96441943D01*
X74204815Y-96441439D01*
X74352923Y-96341257D01*
X74353867Y-96340681D01*
X74525532Y-96246867D01*
X74534435Y-96245907D01*
X74539253Y-96248701D01*
G37*
%TD.AperFunction*%
%TD*%
%TA.AperFunction,Conductor*%
%TO.N,c3_r1*%
G36*
X112539253Y-129248701D02*
G01*
X112844157Y-129541912D01*
X113294516Y-129975000D01*
X113415731Y-130091567D01*
X113419319Y-130099771D01*
X113415731Y-130108433D01*
X113122421Y-130390495D01*
X112539253Y-130951299D01*
X112530914Y-130954564D01*
X112525532Y-130953133D01*
X112353867Y-130859318D01*
X112352923Y-130858742D01*
X112204815Y-130758560D01*
X112204126Y-130758056D01*
X112077514Y-130658220D01*
X112077200Y-130657964D01*
X111963072Y-130561378D01*
X111852692Y-130471230D01*
X111737249Y-130390672D01*
X111736921Y-130390500D01*
X111736913Y-130390495D01*
X111669660Y-130355205D01*
X111607788Y-130322738D01*
X111607371Y-130322595D01*
X111607364Y-130322592D01*
X111455771Y-130270603D01*
X111455354Y-130270460D01*
X111270993Y-130236870D01*
X111109668Y-130228368D01*
X111056834Y-130225584D01*
X111048753Y-130221726D01*
X111045750Y-130213900D01*
X111045750Y-129986100D01*
X111049177Y-129977827D01*
X111056834Y-129974416D01*
X111125245Y-129970810D01*
X111270993Y-129963129D01*
X111455354Y-129929539D01*
X111455771Y-129929396D01*
X111607364Y-129877407D01*
X111607371Y-129877404D01*
X111607788Y-129877261D01*
X111669660Y-129844794D01*
X111736913Y-129809504D01*
X111736921Y-129809499D01*
X111737249Y-129809327D01*
X111852692Y-129728769D01*
X111963072Y-129638621D01*
X112077200Y-129542035D01*
X112077514Y-129541779D01*
X112204126Y-129441943D01*
X112204815Y-129441439D01*
X112352923Y-129341257D01*
X112353867Y-129340681D01*
X112525532Y-129246867D01*
X112534435Y-129245907D01*
X112539253Y-129248701D01*
G37*
%TD.AperFunction*%
%TD*%
%TA.AperFunction,Conductor*%
%TO.N,c6_r5*%
G36*
X150761125Y-165438857D02*
G01*
X151118075Y-165575261D01*
X151897089Y-165872952D01*
X151903594Y-165879106D01*
X151903671Y-165888481D01*
X151425553Y-167006517D01*
X151419149Y-167012777D01*
X151413618Y-167013558D01*
X151199410Y-166991897D01*
X151198140Y-166991697D01*
X151012039Y-166951894D01*
X151010838Y-166951570D01*
X150850757Y-166899040D01*
X150849860Y-166898704D01*
X150705792Y-166837974D01*
X150705390Y-166837795D01*
X150675588Y-166823888D01*
X150567495Y-166773449D01*
X150426171Y-166710233D01*
X150425987Y-166710165D01*
X150425978Y-166710161D01*
X150272099Y-166653030D01*
X150272096Y-166653029D01*
X150271813Y-166652924D01*
X150094605Y-166606197D01*
X150094293Y-166606150D01*
X150094287Y-166606149D01*
X149885025Y-166574775D01*
X149885023Y-166574775D01*
X149884731Y-166574731D01*
X149884439Y-166574718D01*
X149884432Y-166574717D01*
X149643541Y-166563714D01*
X149635433Y-166559913D01*
X149632375Y-166552026D01*
X149632375Y-166324212D01*
X149635802Y-166315939D01*
X149643362Y-166312534D01*
X149726276Y-166307480D01*
X149825045Y-166301460D01*
X149825048Y-166301460D01*
X149825500Y-166301432D01*
X149982413Y-166267451D01*
X149982919Y-166267236D01*
X149982922Y-166267235D01*
X150109391Y-166213492D01*
X150109395Y-166213490D01*
X150109938Y-166213259D01*
X150157401Y-166180518D01*
X150214476Y-166141147D01*
X150214479Y-166141144D01*
X150214903Y-166140852D01*
X150304134Y-166052230D01*
X150384456Y-165949391D01*
X150462697Y-165834332D01*
X150545578Y-165709210D01*
X150545784Y-165708909D01*
X150640023Y-165575854D01*
X150640472Y-165575261D01*
X150747851Y-165442431D01*
X150755717Y-165438151D01*
X150761125Y-165438857D01*
G37*
%TD.AperFunction*%
%TD*%
%TA.AperFunction,Conductor*%
%TO.N,P5*%
G36*
X102756259Y-144356415D02*
G01*
X102764462Y-144360003D01*
X102767290Y-144364937D01*
X102806258Y-144503112D01*
X102806500Y-144504149D01*
X102833540Y-144649534D01*
X102833627Y-144650073D01*
X102853179Y-144791660D01*
X102871854Y-144925775D01*
X102896299Y-145048699D01*
X102933196Y-145156990D01*
X102989228Y-145247207D01*
X103071078Y-145315908D01*
X103185431Y-145359653D01*
X103233216Y-145364429D01*
X103328433Y-145373947D01*
X103336324Y-145378180D01*
X103338969Y-145385589D01*
X103338969Y-145613121D01*
X103335542Y-145621394D01*
X103327092Y-145624820D01*
X103256653Y-145623753D01*
X103145862Y-145622076D01*
X103145494Y-145622063D01*
X103086068Y-145619163D01*
X102983103Y-145614138D01*
X102982693Y-145614111D01*
X102881392Y-145605599D01*
X102843725Y-145602433D01*
X102843378Y-145602398D01*
X102720820Y-145588215D01*
X102720665Y-145588196D01*
X102607326Y-145572732D01*
X102607292Y-145572727D01*
X102560482Y-145566199D01*
X102496397Y-145557261D01*
X102438659Y-145550152D01*
X102380988Y-145543052D01*
X102380970Y-145543050D01*
X102380921Y-145543044D01*
X102380881Y-145543040D01*
X102380869Y-145543039D01*
X102304682Y-145536017D01*
X102253895Y-145531336D01*
X102253799Y-145531331D01*
X102253789Y-145531330D01*
X102128136Y-145524473D01*
X102108312Y-145523391D01*
X102108212Y-145523389D01*
X102108204Y-145523389D01*
X102046435Y-145522333D01*
X101946043Y-145520617D01*
X101937831Y-145517050D01*
X101934925Y-145511878D01*
X101635340Y-144364937D01*
X101631257Y-144349304D01*
X101632482Y-144340433D01*
X101639620Y-144335027D01*
X101642805Y-144334649D01*
X102756259Y-144356415D01*
G37*
%TD.AperFunction*%
%TD*%
%TA.AperFunction,Conductor*%
%TO.N,P4*%
G36*
X67723287Y-96304010D02*
G01*
X67881776Y-96390499D01*
X67882705Y-96391064D01*
X68020065Y-96483590D01*
X68020724Y-96484068D01*
X68138346Y-96576200D01*
X68138617Y-96576420D01*
X68188102Y-96617933D01*
X68244747Y-96665453D01*
X68244756Y-96665460D01*
X68347479Y-96748495D01*
X68347659Y-96748619D01*
X68347660Y-96748620D01*
X68454626Y-96822442D01*
X68454630Y-96822444D01*
X68454925Y-96822648D01*
X68455241Y-96822812D01*
X68455246Y-96822815D01*
X68574960Y-96884938D01*
X68575359Y-96885145D01*
X68717046Y-96933217D01*
X68888255Y-96964092D01*
X69086160Y-96974421D01*
X69094243Y-96978274D01*
X69097250Y-96986105D01*
X69097250Y-97213895D01*
X69093823Y-97222168D01*
X69086161Y-97225579D01*
X68888255Y-97235907D01*
X68717046Y-97266782D01*
X68575359Y-97314854D01*
X68574961Y-97315061D01*
X68574960Y-97315061D01*
X68455246Y-97377184D01*
X68455241Y-97377187D01*
X68454925Y-97377351D01*
X68454630Y-97377555D01*
X68454626Y-97377557D01*
X68347660Y-97451379D01*
X68347479Y-97451504D01*
X68244756Y-97534539D01*
X68138617Y-97623579D01*
X68138346Y-97623799D01*
X68020724Y-97715931D01*
X68020065Y-97716409D01*
X67882707Y-97808934D01*
X67881776Y-97809500D01*
X67723287Y-97895990D01*
X67714383Y-97896945D01*
X67709572Y-97894153D01*
X67025145Y-97235973D01*
X66892519Y-97108433D01*
X66888931Y-97100229D01*
X66892519Y-97091567D01*
X67013735Y-96975000D01*
X67709572Y-96305847D01*
X67717911Y-96302582D01*
X67723287Y-96304010D01*
G37*
%TD.AperFunction*%
%TD*%
%TA.AperFunction,Conductor*%
%TO.N,P3*%
G36*
X105723287Y-72304010D02*
G01*
X105881776Y-72390499D01*
X105882705Y-72391064D01*
X106020065Y-72483590D01*
X106020724Y-72484068D01*
X106138346Y-72576200D01*
X106138617Y-72576420D01*
X106188102Y-72617933D01*
X106244747Y-72665453D01*
X106244756Y-72665460D01*
X106347479Y-72748495D01*
X106347659Y-72748619D01*
X106347660Y-72748620D01*
X106454626Y-72822442D01*
X106454630Y-72822444D01*
X106454925Y-72822648D01*
X106455241Y-72822812D01*
X106455246Y-72822815D01*
X106574960Y-72884938D01*
X106575359Y-72885145D01*
X106717046Y-72933217D01*
X106888255Y-72964092D01*
X107086160Y-72974421D01*
X107094243Y-72978274D01*
X107097250Y-72986105D01*
X107097250Y-73213895D01*
X107093823Y-73222168D01*
X107086161Y-73225579D01*
X106888255Y-73235907D01*
X106717046Y-73266782D01*
X106575359Y-73314854D01*
X106574961Y-73315061D01*
X106574960Y-73315061D01*
X106455246Y-73377184D01*
X106455241Y-73377187D01*
X106454925Y-73377351D01*
X106454630Y-73377555D01*
X106454626Y-73377557D01*
X106347660Y-73451379D01*
X106347479Y-73451504D01*
X106244756Y-73534539D01*
X106138617Y-73623579D01*
X106138346Y-73623799D01*
X106020724Y-73715931D01*
X106020065Y-73716409D01*
X105882707Y-73808934D01*
X105881776Y-73809500D01*
X105723287Y-73895990D01*
X105714383Y-73896945D01*
X105709572Y-73894153D01*
X105329929Y-73529068D01*
X105329928Y-73529068D01*
X105328250Y-73527454D01*
X104883750Y-73100000D01*
X105328250Y-72672546D01*
X105709572Y-72305847D01*
X105717911Y-72302582D01*
X105723287Y-72304010D01*
G37*
%TD.AperFunction*%
%TD*%
%TA.AperFunction,Conductor*%
%TO.N,c7_r5*%
G36*
X169472473Y-162139542D02*
G01*
X169829423Y-162275946D01*
X170608437Y-162573637D01*
X170614942Y-162579791D01*
X170615019Y-162589166D01*
X170136901Y-163707202D01*
X170130497Y-163713462D01*
X170124966Y-163714243D01*
X169910758Y-163692582D01*
X169909488Y-163692382D01*
X169723387Y-163652579D01*
X169722186Y-163652255D01*
X169562105Y-163599725D01*
X169561208Y-163599389D01*
X169417140Y-163538659D01*
X169416738Y-163538480D01*
X169386936Y-163524573D01*
X169278843Y-163474134D01*
X169137519Y-163410918D01*
X169137335Y-163410850D01*
X169137326Y-163410846D01*
X168983447Y-163353715D01*
X168983444Y-163353714D01*
X168983161Y-163353609D01*
X168805953Y-163306882D01*
X168805641Y-163306835D01*
X168805635Y-163306834D01*
X168596373Y-163275460D01*
X168596371Y-163275460D01*
X168596079Y-163275416D01*
X168595787Y-163275403D01*
X168595780Y-163275402D01*
X168354889Y-163264399D01*
X168346781Y-163260598D01*
X168343723Y-163252711D01*
X168343723Y-163024897D01*
X168347150Y-163016624D01*
X168354710Y-163013219D01*
X168437624Y-163008165D01*
X168536393Y-163002145D01*
X168536396Y-163002145D01*
X168536848Y-163002117D01*
X168693761Y-162968136D01*
X168694267Y-162967921D01*
X168694270Y-162967920D01*
X168820739Y-162914177D01*
X168820743Y-162914175D01*
X168821286Y-162913944D01*
X168868749Y-162881203D01*
X168925824Y-162841832D01*
X168925827Y-162841829D01*
X168926251Y-162841537D01*
X169015482Y-162752915D01*
X169095804Y-162650076D01*
X169174045Y-162535017D01*
X169256926Y-162409895D01*
X169257132Y-162409594D01*
X169351371Y-162276539D01*
X169351820Y-162275946D01*
X169459199Y-162143116D01*
X169467065Y-162138836D01*
X169472473Y-162139542D01*
G37*
%TD.AperFunction*%
%TD*%
%TA.AperFunction,Conductor*%
%TO.N,P3*%
G36*
X86622525Y-68810444D02*
G01*
X86622145Y-68829913D01*
X86620165Y-68931187D01*
X86616577Y-68939391D01*
X86611766Y-68942183D01*
X86438548Y-68993091D01*
X86437490Y-68993350D01*
X86274925Y-69025055D01*
X86274115Y-69025183D01*
X86160192Y-69039027D01*
X86125800Y-69043206D01*
X86125410Y-69043246D01*
X85987501Y-69055327D01*
X85987454Y-69055331D01*
X85987448Y-69055332D01*
X85987444Y-69055332D01*
X85987417Y-69055335D01*
X85856310Y-69069231D01*
X85856302Y-69069232D01*
X85856096Y-69069254D01*
X85855892Y-69069291D01*
X85855881Y-69069293D01*
X85728053Y-69092729D01*
X85727688Y-69092796D01*
X85727339Y-69092906D01*
X85727337Y-69092907D01*
X85691939Y-69104118D01*
X85598336Y-69133763D01*
X85528938Y-69168000D01*
X85464540Y-69199769D01*
X85464534Y-69199772D01*
X85464156Y-69199959D01*
X85463808Y-69200201D01*
X85463804Y-69200203D01*
X85321557Y-69298985D01*
X85321262Y-69299190D01*
X85320998Y-69299428D01*
X85320994Y-69299431D01*
X85174019Y-69431826D01*
X85165578Y-69434817D01*
X85157915Y-69431406D01*
X84996844Y-69270335D01*
X84993417Y-69262062D01*
X84996424Y-69254231D01*
X85128818Y-69107255D01*
X85128821Y-69107251D01*
X85129059Y-69106987D01*
X85173323Y-69043246D01*
X85228046Y-68964445D01*
X85228048Y-68964441D01*
X85228290Y-68964093D01*
X85228477Y-68963715D01*
X85228480Y-68963709D01*
X85260249Y-68899311D01*
X85294486Y-68829913D01*
X85335453Y-68700561D01*
X85358995Y-68572153D01*
X85372917Y-68440801D01*
X85385003Y-68302839D01*
X85385043Y-68302449D01*
X85403065Y-68154143D01*
X85403196Y-68153314D01*
X85434899Y-67990760D01*
X85435158Y-67989701D01*
X85486067Y-67816484D01*
X85491687Y-67809513D01*
X85497062Y-67808085D01*
X86201628Y-67794312D01*
X86642558Y-67785692D01*
X86622525Y-68810444D01*
G37*
%TD.AperFunction*%
%TD*%
%TA.AperFunction,Conductor*%
%TO.N,P2*%
G36*
X163072303Y-163291717D02*
G01*
X163227907Y-163388541D01*
X163229483Y-163389716D01*
X163373247Y-163517021D01*
X163374118Y-163517878D01*
X163503579Y-163659224D01*
X163503931Y-163659626D01*
X163623231Y-163802478D01*
X163623247Y-163802497D01*
X163736298Y-163933874D01*
X163736305Y-163933881D01*
X163736469Y-163934072D01*
X163847749Y-164041581D01*
X163848272Y-164041907D01*
X163848273Y-164041908D01*
X163955499Y-164108774D01*
X163961405Y-164112457D01*
X163962499Y-164112654D01*
X164080379Y-164133884D01*
X164080381Y-164133884D01*
X164081753Y-164134131D01*
X164213113Y-164094035D01*
X164305897Y-164021653D01*
X164351647Y-163985964D01*
X164360277Y-163983577D01*
X164367116Y-163986916D01*
X164527684Y-164147484D01*
X164531111Y-164155757D01*
X164527065Y-164164606D01*
X164398088Y-164276159D01*
X164396547Y-164277286D01*
X164266398Y-164357030D01*
X164264652Y-164357908D01*
X164140498Y-164407837D01*
X164138943Y-164408339D01*
X164018922Y-164437967D01*
X164017976Y-164438159D01*
X163949540Y-164449032D01*
X163900359Y-164456845D01*
X163900223Y-164456866D01*
X163783958Y-164473937D01*
X163783952Y-164473938D01*
X163783762Y-164473966D01*
X163667484Y-164498901D01*
X163550002Y-164541158D01*
X163549560Y-164541412D01*
X163549556Y-164541414D01*
X163430336Y-164609972D01*
X163430333Y-164609974D01*
X163429881Y-164610234D01*
X163429478Y-164610576D01*
X163312010Y-164710257D01*
X163303485Y-164712997D01*
X163298526Y-164711431D01*
X163007851Y-164541158D01*
X162232568Y-164087008D01*
X162677068Y-163659554D01*
X163058013Y-163293218D01*
X163066351Y-163289953D01*
X163072303Y-163291717D01*
G37*
%TD.AperFunction*%
%TD*%
%TA.AperFunction,Conductor*%
%TO.N,P3*%
G36*
X124332651Y-82662591D02*
G01*
X124333021Y-82661746D01*
X124335153Y-82662679D01*
X125128350Y-83487506D01*
X125037489Y-83654004D01*
X124944659Y-83791815D01*
X124944181Y-83792474D01*
X124852063Y-83910079D01*
X124851829Y-83910367D01*
X124762789Y-84016506D01*
X124679754Y-84119229D01*
X124605601Y-84226675D01*
X124543104Y-84347109D01*
X124495032Y-84488796D01*
X124464157Y-84660005D01*
X124464138Y-84660375D01*
X124453829Y-84857910D01*
X124449976Y-84865993D01*
X124442145Y-84869000D01*
X124214355Y-84869000D01*
X124206082Y-84865573D01*
X124202671Y-84857910D01*
X124192361Y-84660375D01*
X124192342Y-84660005D01*
X124161467Y-84488796D01*
X124113395Y-84347109D01*
X124050898Y-84226675D01*
X123976745Y-84119229D01*
X123893710Y-84016506D01*
X123804670Y-83910367D01*
X123804436Y-83910079D01*
X123712318Y-83792474D01*
X123711840Y-83791815D01*
X123619010Y-83654004D01*
X123528150Y-83487506D01*
X124319734Y-82664356D01*
X124321347Y-82662679D01*
X124323479Y-82661746D01*
X124323818Y-82662520D01*
X124328042Y-82660682D01*
X124332651Y-82662591D01*
G37*
%TD.AperFunction*%
%TD*%
%TA.AperFunction,Conductor*%
%TO.N,P6*%
G36*
X105723287Y-129304010D02*
G01*
X105821084Y-129357379D01*
X105878071Y-129388477D01*
X105881776Y-129390499D01*
X105882705Y-129391064D01*
X106020065Y-129483590D01*
X106020724Y-129484068D01*
X106138346Y-129576200D01*
X106138617Y-129576420D01*
X106188102Y-129617933D01*
X106244747Y-129665453D01*
X106244756Y-129665460D01*
X106347479Y-129748495D01*
X106347659Y-129748619D01*
X106347660Y-129748620D01*
X106454626Y-129822442D01*
X106454630Y-129822444D01*
X106454925Y-129822648D01*
X106455241Y-129822812D01*
X106455246Y-129822815D01*
X106574960Y-129884938D01*
X106575359Y-129885145D01*
X106717046Y-129933217D01*
X106888255Y-129964092D01*
X107086160Y-129974421D01*
X107094243Y-129978274D01*
X107097250Y-129986105D01*
X107097250Y-130213895D01*
X107093823Y-130222168D01*
X107086161Y-130225579D01*
X106888255Y-130235907D01*
X106717046Y-130266782D01*
X106575359Y-130314854D01*
X106574961Y-130315061D01*
X106574960Y-130315061D01*
X106455246Y-130377184D01*
X106455241Y-130377187D01*
X106454925Y-130377351D01*
X106454630Y-130377555D01*
X106454626Y-130377557D01*
X106411647Y-130407219D01*
X106347479Y-130451504D01*
X106244756Y-130534539D01*
X106138617Y-130623579D01*
X106138346Y-130623799D01*
X106020724Y-130715931D01*
X106020065Y-130716409D01*
X105882707Y-130808934D01*
X105881776Y-130809500D01*
X105723287Y-130895990D01*
X105714383Y-130896945D01*
X105709572Y-130894153D01*
X105203220Y-130407219D01*
X104883750Y-130100000D01*
X105622525Y-129389556D01*
X105709572Y-129305847D01*
X105717911Y-129302582D01*
X105723287Y-129304010D01*
G37*
%TD.AperFunction*%
%TD*%
%TA.AperFunction,Conductor*%
%TO.N,c1_r4*%
G36*
X74539253Y-77248701D02*
G01*
X74844157Y-77541912D01*
X75294516Y-77975000D01*
X75415731Y-78091567D01*
X75419319Y-78099771D01*
X75415731Y-78108433D01*
X75122421Y-78390495D01*
X74539253Y-78951299D01*
X74530914Y-78954564D01*
X74525532Y-78953133D01*
X74353867Y-78859318D01*
X74352923Y-78858742D01*
X74204815Y-78758560D01*
X74204126Y-78758056D01*
X74077514Y-78658220D01*
X74077200Y-78657964D01*
X73963072Y-78561378D01*
X73852692Y-78471230D01*
X73737249Y-78390672D01*
X73736921Y-78390500D01*
X73736913Y-78390495D01*
X73669660Y-78355205D01*
X73607788Y-78322738D01*
X73607371Y-78322595D01*
X73607364Y-78322592D01*
X73455771Y-78270603D01*
X73455354Y-78270460D01*
X73270993Y-78236870D01*
X73109668Y-78228368D01*
X73056834Y-78225584D01*
X73048753Y-78221726D01*
X73045750Y-78213900D01*
X73045750Y-77986100D01*
X73049177Y-77977827D01*
X73056834Y-77974416D01*
X73125245Y-77970810D01*
X73270993Y-77963129D01*
X73455354Y-77929539D01*
X73455771Y-77929396D01*
X73607364Y-77877407D01*
X73607371Y-77877404D01*
X73607788Y-77877261D01*
X73669660Y-77844794D01*
X73736913Y-77809504D01*
X73736921Y-77809499D01*
X73737249Y-77809327D01*
X73852692Y-77728769D01*
X73963072Y-77638621D01*
X74077200Y-77542035D01*
X74077514Y-77541779D01*
X74204126Y-77441943D01*
X74204815Y-77441439D01*
X74352923Y-77341257D01*
X74353867Y-77340681D01*
X74525532Y-77246867D01*
X74534435Y-77245907D01*
X74539253Y-77248701D01*
G37*
%TD.AperFunction*%
%TD*%
%TA.AperFunction,Conductor*%
%TO.N,c4_r2*%
G36*
X131539253Y-120248701D02*
G01*
X131844157Y-120541912D01*
X132294516Y-120975000D01*
X132415731Y-121091567D01*
X132419319Y-121099771D01*
X132415731Y-121108433D01*
X132122421Y-121390495D01*
X131539253Y-121951299D01*
X131530914Y-121954564D01*
X131525532Y-121953133D01*
X131353867Y-121859318D01*
X131352923Y-121858742D01*
X131204815Y-121758560D01*
X131204126Y-121758056D01*
X131077514Y-121658220D01*
X131077200Y-121657964D01*
X130963072Y-121561378D01*
X130852692Y-121471230D01*
X130737249Y-121390672D01*
X130736921Y-121390500D01*
X130736913Y-121390495D01*
X130669660Y-121355205D01*
X130607788Y-121322738D01*
X130607371Y-121322595D01*
X130607364Y-121322592D01*
X130455771Y-121270603D01*
X130455354Y-121270460D01*
X130270993Y-121236870D01*
X130109668Y-121228368D01*
X130056834Y-121225584D01*
X130048753Y-121221726D01*
X130045750Y-121213900D01*
X130045750Y-120986100D01*
X130049177Y-120977827D01*
X130056834Y-120974416D01*
X130125245Y-120970810D01*
X130270993Y-120963129D01*
X130455354Y-120929539D01*
X130455771Y-120929396D01*
X130607364Y-120877407D01*
X130607371Y-120877404D01*
X130607788Y-120877261D01*
X130669660Y-120844794D01*
X130736913Y-120809504D01*
X130736921Y-120809499D01*
X130737249Y-120809327D01*
X130852692Y-120728769D01*
X130963072Y-120638621D01*
X131077200Y-120542035D01*
X131077514Y-120541779D01*
X131204126Y-120441943D01*
X131204815Y-120441439D01*
X131352923Y-120341257D01*
X131353867Y-120340681D01*
X131525532Y-120246867D01*
X131534435Y-120245907D01*
X131539253Y-120248701D01*
G37*
%TD.AperFunction*%
%TD*%
%TA.AperFunction,Conductor*%
%TO.N,P3*%
G36*
X104946928Y-72305847D02*
G01*
X105326571Y-72670932D01*
X105326573Y-72670933D01*
X105772750Y-73100000D01*
X105328250Y-73527454D01*
X105318037Y-73537275D01*
X104946928Y-73894153D01*
X104938589Y-73897418D01*
X104933213Y-73895990D01*
X104774723Y-73809500D01*
X104773792Y-73808934D01*
X104636434Y-73716409D01*
X104635775Y-73715931D01*
X104518153Y-73623799D01*
X104517882Y-73623579D01*
X104411743Y-73534539D01*
X104309020Y-73451504D01*
X104308839Y-73451379D01*
X104201873Y-73377557D01*
X104201869Y-73377555D01*
X104201574Y-73377351D01*
X104201258Y-73377187D01*
X104201253Y-73377184D01*
X104081539Y-73315061D01*
X104081538Y-73315061D01*
X104081140Y-73314854D01*
X103939453Y-73266782D01*
X103768244Y-73235907D01*
X103570339Y-73225579D01*
X103562257Y-73221726D01*
X103559250Y-73213895D01*
X103559250Y-72986105D01*
X103562677Y-72977832D01*
X103570340Y-72974421D01*
X103768244Y-72964092D01*
X103939453Y-72933217D01*
X104081140Y-72885145D01*
X104081539Y-72884938D01*
X104201253Y-72822815D01*
X104201258Y-72822812D01*
X104201574Y-72822648D01*
X104201869Y-72822444D01*
X104201873Y-72822442D01*
X104308839Y-72748620D01*
X104308840Y-72748619D01*
X104309020Y-72748495D01*
X104411743Y-72665460D01*
X104411752Y-72665453D01*
X104468397Y-72617933D01*
X104517882Y-72576420D01*
X104518153Y-72576200D01*
X104635775Y-72484068D01*
X104636434Y-72483590D01*
X104773794Y-72391064D01*
X104774723Y-72390499D01*
X104933213Y-72304010D01*
X104942117Y-72303055D01*
X104946928Y-72305847D01*
G37*
%TD.AperFunction*%
%TD*%
%TA.AperFunction,Conductor*%
%TO.N,P2*%
G36*
X125649608Y-169890348D02*
G01*
X125805212Y-169987172D01*
X125806788Y-169988347D01*
X125950552Y-170115652D01*
X125951423Y-170116509D01*
X126080884Y-170257855D01*
X126081236Y-170258257D01*
X126200536Y-170401109D01*
X126200552Y-170401128D01*
X126313603Y-170532505D01*
X126313610Y-170532512D01*
X126313774Y-170532703D01*
X126425054Y-170640212D01*
X126425577Y-170640538D01*
X126425578Y-170640539D01*
X126532804Y-170707405D01*
X126538710Y-170711088D01*
X126539804Y-170711285D01*
X126657684Y-170732515D01*
X126657686Y-170732515D01*
X126659058Y-170732762D01*
X126790418Y-170692666D01*
X126883202Y-170620284D01*
X126928952Y-170584595D01*
X126937582Y-170582208D01*
X126944421Y-170585547D01*
X127104989Y-170746115D01*
X127108416Y-170754388D01*
X127104370Y-170763237D01*
X126975393Y-170874790D01*
X126973852Y-170875917D01*
X126843703Y-170955661D01*
X126841957Y-170956539D01*
X126717803Y-171006468D01*
X126716248Y-171006970D01*
X126596227Y-171036598D01*
X126595281Y-171036790D01*
X126526845Y-171047663D01*
X126477664Y-171055476D01*
X126477528Y-171055497D01*
X126361263Y-171072568D01*
X126361257Y-171072569D01*
X126361067Y-171072597D01*
X126244789Y-171097532D01*
X126127307Y-171139789D01*
X126126865Y-171140043D01*
X126126861Y-171140045D01*
X126007641Y-171208603D01*
X126007638Y-171208605D01*
X126007186Y-171208865D01*
X126006783Y-171209207D01*
X125889315Y-171308888D01*
X125880790Y-171311628D01*
X125875831Y-171310062D01*
X125340054Y-170996211D01*
X125340053Y-170996211D01*
X125338758Y-170995452D01*
X125338757Y-170995452D01*
X124809873Y-170685639D01*
X125548648Y-169975195D01*
X125635318Y-169891849D01*
X125643656Y-169888584D01*
X125649608Y-169890348D01*
G37*
%TD.AperFunction*%
%TD*%
%TA.AperFunction,Conductor*%
%TO.N,P4*%
G36*
X99430507Y-144781368D02*
G01*
X100254756Y-144797481D01*
X100262960Y-144801069D01*
X100265819Y-144806117D01*
X100305055Y-144950816D01*
X100305320Y-144952053D01*
X100329517Y-145105284D01*
X100329606Y-145105983D01*
X100344143Y-145256277D01*
X100344154Y-145256396D01*
X100356531Y-145399658D01*
X100374294Y-145531656D01*
X100405014Y-145648427D01*
X100456269Y-145746059D01*
X100535634Y-145820640D01*
X100536612Y-145821045D01*
X100536614Y-145821046D01*
X100649911Y-145867937D01*
X100650687Y-145868258D01*
X100651521Y-145868346D01*
X100651524Y-145868347D01*
X100798535Y-145883893D01*
X100806402Y-145888171D01*
X100809005Y-145895528D01*
X100809005Y-146122320D01*
X100805578Y-146130593D01*
X100797305Y-146134020D01*
X100770794Y-146134020D01*
X100770497Y-146134016D01*
X100763525Y-146133838D01*
X100619213Y-146130150D01*
X100618550Y-146130114D01*
X100499451Y-146120287D01*
X100459464Y-146116988D01*
X100458785Y-146116912D01*
X100323025Y-146097573D01*
X100322417Y-146097470D01*
X100202912Y-146073978D01*
X100202524Y-146073895D01*
X100092166Y-146048279D01*
X100092109Y-146048266D01*
X99983927Y-146022592D01*
X99871184Y-145999001D01*
X99871064Y-145998982D01*
X99871052Y-145998980D01*
X99747088Y-145979602D01*
X99746896Y-145979572D01*
X99671521Y-145972614D01*
X99604268Y-145966406D01*
X99604260Y-145966406D01*
X99604081Y-145966389D01*
X99444524Y-145961785D01*
X99436353Y-145958121D01*
X99433541Y-145953047D01*
X99129846Y-144790371D01*
X99131071Y-144781500D01*
X99138209Y-144776094D01*
X99141394Y-144775716D01*
X99430507Y-144781368D01*
G37*
%TD.AperFunction*%
%TD*%
%TA.AperFunction,Conductor*%
%TO.N,P6*%
G36*
X67723287Y-134304010D02*
G01*
X67881776Y-134390499D01*
X67882705Y-134391064D01*
X68020065Y-134483590D01*
X68020724Y-134484068D01*
X68138346Y-134576200D01*
X68138617Y-134576420D01*
X68188102Y-134617933D01*
X68244747Y-134665453D01*
X68244756Y-134665460D01*
X68347479Y-134748495D01*
X68347659Y-134748619D01*
X68347660Y-134748620D01*
X68454626Y-134822442D01*
X68454630Y-134822444D01*
X68454925Y-134822648D01*
X68455241Y-134822812D01*
X68455246Y-134822815D01*
X68574960Y-134884938D01*
X68575359Y-134885145D01*
X68717046Y-134933217D01*
X68888255Y-134964092D01*
X69086160Y-134974421D01*
X69094243Y-134978274D01*
X69097250Y-134986105D01*
X69097250Y-135213895D01*
X69093823Y-135222168D01*
X69086161Y-135225579D01*
X68888255Y-135235907D01*
X68717046Y-135266782D01*
X68575359Y-135314854D01*
X68574961Y-135315061D01*
X68574960Y-135315061D01*
X68455246Y-135377184D01*
X68455241Y-135377187D01*
X68454925Y-135377351D01*
X68454630Y-135377555D01*
X68454626Y-135377557D01*
X68347660Y-135451379D01*
X68347479Y-135451504D01*
X68244756Y-135534539D01*
X68138617Y-135623579D01*
X68138346Y-135623799D01*
X68020724Y-135715931D01*
X68020065Y-135716409D01*
X67882707Y-135808934D01*
X67881776Y-135809500D01*
X67723287Y-135895990D01*
X67714383Y-135896945D01*
X67709572Y-135894153D01*
X67025145Y-135235973D01*
X66892519Y-135108433D01*
X66888931Y-135100229D01*
X66892519Y-135091567D01*
X67013735Y-134975000D01*
X67709572Y-134305847D01*
X67717911Y-134302582D01*
X67723287Y-134304010D01*
G37*
%TD.AperFunction*%
%TD*%
%TA.AperFunction,Conductor*%
%TO.N,P4*%
G36*
X123946928Y-101305847D02*
G01*
X124326571Y-101670932D01*
X124326573Y-101670933D01*
X124772750Y-102100000D01*
X123940744Y-102900100D01*
X123774245Y-102809239D01*
X123636090Y-102716178D01*
X123518011Y-102623688D01*
X123411743Y-102534539D01*
X123309020Y-102451504D01*
X123308839Y-102451379D01*
X123201873Y-102377557D01*
X123201869Y-102377555D01*
X123201574Y-102377351D01*
X123201258Y-102377187D01*
X123201253Y-102377184D01*
X123081539Y-102315061D01*
X123081538Y-102315061D01*
X123081140Y-102314854D01*
X122939453Y-102266782D01*
X122768244Y-102235907D01*
X122570339Y-102225579D01*
X122562257Y-102221726D01*
X122559250Y-102213895D01*
X122559250Y-101986105D01*
X122562677Y-101977832D01*
X122570340Y-101974421D01*
X122768244Y-101964092D01*
X122939453Y-101933217D01*
X123081140Y-101885145D01*
X123081539Y-101884938D01*
X123201253Y-101822815D01*
X123201258Y-101822812D01*
X123201574Y-101822648D01*
X123201869Y-101822444D01*
X123201873Y-101822442D01*
X123308839Y-101748620D01*
X123308840Y-101748619D01*
X123309020Y-101748495D01*
X123411743Y-101665460D01*
X123411752Y-101665453D01*
X123468397Y-101617933D01*
X123517882Y-101576420D01*
X123518153Y-101576200D01*
X123635775Y-101484068D01*
X123636434Y-101483590D01*
X123773794Y-101391064D01*
X123774723Y-101390499D01*
X123933213Y-101304010D01*
X123942117Y-101303055D01*
X123946928Y-101305847D01*
G37*
%TD.AperFunction*%
%TD*%
%TA.AperFunction,Conductor*%
%TO.N,c2_r4*%
G36*
X93539253Y-67248701D02*
G01*
X93844157Y-67541912D01*
X94294516Y-67975000D01*
X94415731Y-68091567D01*
X94419319Y-68099771D01*
X94415731Y-68108433D01*
X94122421Y-68390495D01*
X93539253Y-68951299D01*
X93530914Y-68954564D01*
X93525532Y-68953133D01*
X93353867Y-68859318D01*
X93352923Y-68858742D01*
X93204815Y-68758560D01*
X93204126Y-68758056D01*
X93077514Y-68658220D01*
X93077200Y-68657964D01*
X92963072Y-68561378D01*
X92852692Y-68471230D01*
X92737249Y-68390672D01*
X92736921Y-68390500D01*
X92736913Y-68390495D01*
X92669660Y-68355205D01*
X92607788Y-68322738D01*
X92607371Y-68322595D01*
X92607364Y-68322592D01*
X92455771Y-68270603D01*
X92455354Y-68270460D01*
X92270993Y-68236870D01*
X92109668Y-68228368D01*
X92056834Y-68225584D01*
X92048753Y-68221726D01*
X92045750Y-68213900D01*
X92045750Y-67986100D01*
X92049177Y-67977827D01*
X92056834Y-67974416D01*
X92125245Y-67970810D01*
X92270993Y-67963129D01*
X92455354Y-67929539D01*
X92455771Y-67929396D01*
X92607364Y-67877407D01*
X92607371Y-67877404D01*
X92607788Y-67877261D01*
X92669660Y-67844794D01*
X92736913Y-67809504D01*
X92736921Y-67809499D01*
X92737249Y-67809327D01*
X92852692Y-67728769D01*
X92963072Y-67638621D01*
X93077200Y-67542035D01*
X93077514Y-67541779D01*
X93204126Y-67441943D01*
X93204815Y-67441439D01*
X93352923Y-67341257D01*
X93353867Y-67340681D01*
X93525532Y-67246867D01*
X93534435Y-67245907D01*
X93539253Y-67248701D01*
G37*
%TD.AperFunction*%
%TD*%
%TA.AperFunction,Conductor*%
%TO.N,P3*%
G36*
X97753334Y-145238546D02*
G01*
X97761537Y-145242134D01*
X97764400Y-145247195D01*
X97803674Y-145392718D01*
X97803941Y-145393979D01*
X97827788Y-145548189D01*
X97827874Y-145548892D01*
X97841798Y-145700344D01*
X97853398Y-145844783D01*
X97870331Y-145977888D01*
X97900286Y-146095693D01*
X97950951Y-146194226D01*
X98030015Y-146269521D01*
X98112054Y-146303781D01*
X98144379Y-146317280D01*
X98144380Y-146317280D01*
X98145165Y-146317608D01*
X98190667Y-146322450D01*
X98293629Y-146333407D01*
X98301493Y-146337690D01*
X98304091Y-146345041D01*
X98304091Y-146572501D01*
X98300664Y-146580774D01*
X98292077Y-146584197D01*
X98114672Y-146579435D01*
X98113975Y-146579395D01*
X98026049Y-146571769D01*
X97955287Y-146565631D01*
X97954575Y-146565548D01*
X97819206Y-146545271D01*
X97818592Y-146545162D01*
X97699439Y-146520523D01*
X97699035Y-146520432D01*
X97588999Y-146493559D01*
X97588941Y-146493544D01*
X97518818Y-146476035D01*
X97481171Y-146466634D01*
X97368776Y-146441893D01*
X97244829Y-146421517D01*
X97102347Y-146407691D01*
X97102155Y-146407685D01*
X97102152Y-146407685D01*
X96943097Y-146402863D01*
X96934932Y-146399187D01*
X96932132Y-146394125D01*
X96628434Y-145231437D01*
X96629659Y-145222566D01*
X96636797Y-145217160D01*
X96639982Y-145216782D01*
X97753334Y-145238546D01*
G37*
%TD.AperFunction*%
%TD*%
%TA.AperFunction,Conductor*%
%TO.N,P2*%
G36*
X143584398Y-166592170D02*
G01*
X143964041Y-166957255D01*
X143964043Y-166957256D01*
X144410220Y-167386323D01*
X143756535Y-168014940D01*
X143672698Y-168095562D01*
X143584398Y-168180476D01*
X143576059Y-168183741D01*
X143570683Y-168182313D01*
X143412193Y-168095823D01*
X143411262Y-168095257D01*
X143292026Y-168014940D01*
X143273904Y-168002732D01*
X143273245Y-168002254D01*
X143155623Y-167910122D01*
X143155352Y-167909902D01*
X143049213Y-167820862D01*
X142946490Y-167737827D01*
X142907268Y-167710758D01*
X142839343Y-167663880D01*
X142839339Y-167663878D01*
X142839044Y-167663674D01*
X142838728Y-167663510D01*
X142838723Y-167663507D01*
X142719009Y-167601384D01*
X142719008Y-167601384D01*
X142718610Y-167601177D01*
X142576923Y-167553105D01*
X142405714Y-167522230D01*
X142207809Y-167511902D01*
X142199727Y-167508049D01*
X142196720Y-167500218D01*
X142196720Y-167272428D01*
X142200147Y-167264155D01*
X142207810Y-167260744D01*
X142405714Y-167250415D01*
X142576923Y-167219540D01*
X142718610Y-167171468D01*
X142719009Y-167171261D01*
X142838723Y-167109138D01*
X142838728Y-167109135D01*
X142839044Y-167108971D01*
X142839339Y-167108767D01*
X142839343Y-167108765D01*
X142946309Y-167034943D01*
X142946310Y-167034942D01*
X142946490Y-167034818D01*
X143049213Y-166951783D01*
X143049222Y-166951776D01*
X143105867Y-166904256D01*
X143155352Y-166862743D01*
X143155623Y-166862523D01*
X143273245Y-166770391D01*
X143273904Y-166769913D01*
X143411264Y-166677387D01*
X143412193Y-166676822D01*
X143570683Y-166590333D01*
X143579587Y-166589378D01*
X143584398Y-166592170D01*
G37*
%TD.AperFunction*%
%TD*%
%TA.AperFunction,Conductor*%
%TO.N,P5*%
G36*
X123946928Y-120305847D02*
G01*
X124326571Y-120670932D01*
X124326573Y-120670933D01*
X124772750Y-121100000D01*
X124328250Y-121527454D01*
X124318037Y-121537275D01*
X123946928Y-121894153D01*
X123938589Y-121897418D01*
X123933213Y-121895990D01*
X123774723Y-121809500D01*
X123773792Y-121808934D01*
X123636434Y-121716409D01*
X123635775Y-121715931D01*
X123518153Y-121623799D01*
X123517882Y-121623579D01*
X123411743Y-121534539D01*
X123309020Y-121451504D01*
X123308839Y-121451379D01*
X123201873Y-121377557D01*
X123201869Y-121377555D01*
X123201574Y-121377351D01*
X123201258Y-121377187D01*
X123201253Y-121377184D01*
X123081539Y-121315061D01*
X123081538Y-121315061D01*
X123081140Y-121314854D01*
X122939453Y-121266782D01*
X122768244Y-121235907D01*
X122570339Y-121225579D01*
X122562257Y-121221726D01*
X122559250Y-121213895D01*
X122559250Y-120986105D01*
X122562677Y-120977832D01*
X122570340Y-120974421D01*
X122768244Y-120964092D01*
X122939453Y-120933217D01*
X123081140Y-120885145D01*
X123081539Y-120884938D01*
X123201253Y-120822815D01*
X123201258Y-120822812D01*
X123201574Y-120822648D01*
X123201869Y-120822444D01*
X123201873Y-120822442D01*
X123308839Y-120748620D01*
X123308840Y-120748619D01*
X123309020Y-120748495D01*
X123411743Y-120665460D01*
X123411752Y-120665453D01*
X123468397Y-120617933D01*
X123517882Y-120576420D01*
X123518153Y-120576200D01*
X123635775Y-120484068D01*
X123636434Y-120483590D01*
X123773794Y-120391064D01*
X123774723Y-120390499D01*
X123933213Y-120304010D01*
X123942117Y-120303055D01*
X123946928Y-120305847D01*
G37*
%TD.AperFunction*%
%TD*%
%TA.AperFunction,Conductor*%
%TO.N,c2_r3*%
G36*
X93539253Y-86248701D02*
G01*
X93844157Y-86541912D01*
X94294516Y-86975000D01*
X94415731Y-87091567D01*
X94419319Y-87099771D01*
X94415731Y-87108433D01*
X94122421Y-87390495D01*
X93539253Y-87951299D01*
X93530914Y-87954564D01*
X93525532Y-87953133D01*
X93353867Y-87859318D01*
X93352923Y-87858742D01*
X93204815Y-87758560D01*
X93204126Y-87758056D01*
X93077514Y-87658220D01*
X93077200Y-87657964D01*
X92963072Y-87561378D01*
X92852692Y-87471230D01*
X92737249Y-87390672D01*
X92736921Y-87390500D01*
X92736913Y-87390495D01*
X92669660Y-87355205D01*
X92607788Y-87322738D01*
X92607371Y-87322595D01*
X92607364Y-87322592D01*
X92455771Y-87270603D01*
X92455354Y-87270460D01*
X92270993Y-87236870D01*
X92109668Y-87228368D01*
X92056834Y-87225584D01*
X92048753Y-87221726D01*
X92045750Y-87213900D01*
X92045750Y-86986100D01*
X92049177Y-86977827D01*
X92056834Y-86974416D01*
X92125245Y-86970810D01*
X92270993Y-86963129D01*
X92455354Y-86929539D01*
X92455771Y-86929396D01*
X92607364Y-86877407D01*
X92607371Y-86877404D01*
X92607788Y-86877261D01*
X92669660Y-86844794D01*
X92736913Y-86809504D01*
X92736921Y-86809499D01*
X92737249Y-86809327D01*
X92852692Y-86728769D01*
X92963072Y-86638621D01*
X93077200Y-86542035D01*
X93077514Y-86541779D01*
X93204126Y-86441943D01*
X93204815Y-86441439D01*
X93352923Y-86341257D01*
X93353867Y-86340681D01*
X93525532Y-86246867D01*
X93534435Y-86245907D01*
X93539253Y-86248701D01*
G37*
%TD.AperFunction*%
%TD*%
%TA.AperFunction,Conductor*%
%TO.N,P5*%
G36*
X86723287Y-105304010D02*
G01*
X86881776Y-105390499D01*
X86882705Y-105391064D01*
X87020065Y-105483590D01*
X87020724Y-105484068D01*
X87138346Y-105576200D01*
X87138617Y-105576420D01*
X87188102Y-105617933D01*
X87244747Y-105665453D01*
X87244756Y-105665460D01*
X87347479Y-105748495D01*
X87347659Y-105748619D01*
X87347660Y-105748620D01*
X87454626Y-105822442D01*
X87454630Y-105822444D01*
X87454925Y-105822648D01*
X87455241Y-105822812D01*
X87455246Y-105822815D01*
X87574960Y-105884938D01*
X87575359Y-105885145D01*
X87717046Y-105933217D01*
X87888255Y-105964092D01*
X88086160Y-105974421D01*
X88094243Y-105978274D01*
X88097250Y-105986105D01*
X88097250Y-106213895D01*
X88093823Y-106222168D01*
X88086161Y-106225579D01*
X87888255Y-106235907D01*
X87717046Y-106266782D01*
X87575359Y-106314854D01*
X87574961Y-106315061D01*
X87574960Y-106315061D01*
X87455246Y-106377184D01*
X87455241Y-106377187D01*
X87454925Y-106377351D01*
X87454630Y-106377555D01*
X87454626Y-106377557D01*
X87347660Y-106451379D01*
X87347479Y-106451504D01*
X87244756Y-106534539D01*
X87138617Y-106623579D01*
X87138346Y-106623799D01*
X87020724Y-106715931D01*
X87020065Y-106716409D01*
X86882707Y-106808934D01*
X86881778Y-106809499D01*
X86876002Y-106812651D01*
X86723287Y-106895990D01*
X86714383Y-106896945D01*
X86709572Y-106894153D01*
X86624203Y-106812058D01*
X85883750Y-106100000D01*
X86709572Y-105305847D01*
X86717911Y-105302582D01*
X86723287Y-105304010D01*
G37*
%TD.AperFunction*%
%TD*%
%TA.AperFunction,Conductor*%
%TO.N,P5*%
G36*
X67723287Y-115304010D02*
G01*
X67881776Y-115390499D01*
X67882705Y-115391064D01*
X68020065Y-115483590D01*
X68020724Y-115484068D01*
X68138346Y-115576200D01*
X68138617Y-115576420D01*
X68188102Y-115617933D01*
X68244747Y-115665453D01*
X68244756Y-115665460D01*
X68347479Y-115748495D01*
X68347659Y-115748619D01*
X68347660Y-115748620D01*
X68454626Y-115822442D01*
X68454630Y-115822444D01*
X68454925Y-115822648D01*
X68455241Y-115822812D01*
X68455246Y-115822815D01*
X68574960Y-115884938D01*
X68575359Y-115885145D01*
X68717046Y-115933217D01*
X68888255Y-115964092D01*
X69086160Y-115974421D01*
X69094243Y-115978274D01*
X69097250Y-115986105D01*
X69097250Y-116213895D01*
X69093823Y-116222168D01*
X69086161Y-116225579D01*
X68888255Y-116235907D01*
X68717046Y-116266782D01*
X68575359Y-116314854D01*
X68574961Y-116315061D01*
X68574960Y-116315061D01*
X68455246Y-116377184D01*
X68455241Y-116377187D01*
X68454925Y-116377351D01*
X68454630Y-116377555D01*
X68454626Y-116377557D01*
X68347660Y-116451379D01*
X68347479Y-116451504D01*
X68244756Y-116534539D01*
X68138617Y-116623579D01*
X68138346Y-116623799D01*
X68020724Y-116715931D01*
X68020065Y-116716409D01*
X67882707Y-116808934D01*
X67881776Y-116809500D01*
X67723287Y-116895990D01*
X67714383Y-116896945D01*
X67709572Y-116894153D01*
X67025145Y-116235973D01*
X66892519Y-116108433D01*
X66888931Y-116100229D01*
X66892519Y-116091567D01*
X67013735Y-115975000D01*
X67709572Y-115305847D01*
X67717911Y-115302582D01*
X67723287Y-115304010D01*
G37*
%TD.AperFunction*%
%TD*%
%TA.AperFunction,Conductor*%
%TO.N,P4*%
G36*
X124723287Y-101304010D02*
G01*
X124881776Y-101390499D01*
X124882705Y-101391064D01*
X125020065Y-101483590D01*
X125020724Y-101484068D01*
X125138346Y-101576200D01*
X125138617Y-101576420D01*
X125188102Y-101617933D01*
X125244747Y-101665453D01*
X125244756Y-101665460D01*
X125347479Y-101748495D01*
X125347659Y-101748619D01*
X125347660Y-101748620D01*
X125454626Y-101822442D01*
X125454630Y-101822444D01*
X125454925Y-101822648D01*
X125455241Y-101822812D01*
X125455246Y-101822815D01*
X125574960Y-101884938D01*
X125575359Y-101885145D01*
X125717046Y-101933217D01*
X125888255Y-101964092D01*
X126086160Y-101974421D01*
X126094243Y-101978274D01*
X126097250Y-101986105D01*
X126097250Y-102213895D01*
X126093823Y-102222168D01*
X126086161Y-102225579D01*
X125888255Y-102235907D01*
X125717046Y-102266782D01*
X125575359Y-102314854D01*
X125574961Y-102315061D01*
X125574960Y-102315061D01*
X125455246Y-102377184D01*
X125455241Y-102377187D01*
X125454925Y-102377351D01*
X125454630Y-102377555D01*
X125454626Y-102377557D01*
X125347660Y-102451379D01*
X125347479Y-102451504D01*
X125244756Y-102534539D01*
X125138617Y-102623579D01*
X125138346Y-102623799D01*
X125020724Y-102715931D01*
X125020065Y-102716409D01*
X124882707Y-102808934D01*
X124881778Y-102809499D01*
X124876002Y-102812651D01*
X124723287Y-102895990D01*
X124714383Y-102896945D01*
X124709572Y-102894153D01*
X124624203Y-102812058D01*
X123883750Y-102100000D01*
X124328250Y-101672546D01*
X124709572Y-101305847D01*
X124717911Y-101302582D01*
X124723287Y-101304010D01*
G37*
%TD.AperFunction*%
%TD*%
%TA.AperFunction,Conductor*%
%TO.N,c4_r4*%
G36*
X131539253Y-82248701D02*
G01*
X131844157Y-82541912D01*
X132294516Y-82975000D01*
X132415731Y-83091567D01*
X132419319Y-83099771D01*
X132415731Y-83108433D01*
X132122421Y-83390495D01*
X131539253Y-83951299D01*
X131530914Y-83954564D01*
X131525532Y-83953133D01*
X131353867Y-83859318D01*
X131352923Y-83858742D01*
X131204815Y-83758560D01*
X131204126Y-83758056D01*
X131077514Y-83658220D01*
X131077200Y-83657964D01*
X130963072Y-83561378D01*
X130852692Y-83471230D01*
X130737249Y-83390672D01*
X130736921Y-83390500D01*
X130736913Y-83390495D01*
X130669660Y-83355205D01*
X130607788Y-83322738D01*
X130607371Y-83322595D01*
X130607364Y-83322592D01*
X130455771Y-83270603D01*
X130455354Y-83270460D01*
X130270993Y-83236870D01*
X130109668Y-83228368D01*
X130056834Y-83225584D01*
X130048753Y-83221726D01*
X130045750Y-83213900D01*
X130045750Y-82986100D01*
X130049177Y-82977827D01*
X130056834Y-82974416D01*
X130125245Y-82970810D01*
X130270993Y-82963129D01*
X130455354Y-82929539D01*
X130455771Y-82929396D01*
X130607364Y-82877407D01*
X130607371Y-82877404D01*
X130607788Y-82877261D01*
X130669660Y-82844794D01*
X130736913Y-82809504D01*
X130736921Y-82809499D01*
X130737249Y-82809327D01*
X130852692Y-82728769D01*
X130963072Y-82638621D01*
X131077200Y-82542035D01*
X131077514Y-82541779D01*
X131204126Y-82441943D01*
X131204815Y-82441439D01*
X131352923Y-82341257D01*
X131353867Y-82340681D01*
X131525532Y-82246867D01*
X131534435Y-82245907D01*
X131539253Y-82248701D01*
G37*
%TD.AperFunction*%
%TD*%
%TA.AperFunction,Conductor*%
%TO.N,P2*%
G36*
X124100142Y-169353813D02*
G01*
X124247117Y-169486207D01*
X124247385Y-169486448D01*
X124247679Y-169486652D01*
X124247680Y-169486653D01*
X124389927Y-169585435D01*
X124389931Y-169585437D01*
X124390279Y-169585679D01*
X124390657Y-169585866D01*
X124390663Y-169585869D01*
X124455061Y-169617638D01*
X124524459Y-169651875D01*
X124609935Y-169678946D01*
X124653460Y-169692731D01*
X124653462Y-169692732D01*
X124653811Y-169692842D01*
X124654175Y-169692909D01*
X124654176Y-169692909D01*
X124782004Y-169716345D01*
X124782015Y-169716347D01*
X124782219Y-169716384D01*
X124782425Y-169716406D01*
X124782433Y-169716407D01*
X124913540Y-169730303D01*
X124913624Y-169730311D01*
X125051533Y-169742392D01*
X125051923Y-169742432D01*
X125086315Y-169746611D01*
X125200238Y-169760455D01*
X125201048Y-169760583D01*
X125363612Y-169792288D01*
X125364671Y-169792547D01*
X125537889Y-169843456D01*
X125544860Y-169849076D01*
X125546288Y-169854451D01*
X125568681Y-170999947D01*
X125338758Y-170995452D01*
X124423185Y-170977554D01*
X124414982Y-170973966D01*
X124412190Y-170969155D01*
X124361281Y-170795937D01*
X124361022Y-170794878D01*
X124329319Y-170632324D01*
X124329188Y-170631495D01*
X124311166Y-170483189D01*
X124311126Y-170482799D01*
X124299040Y-170344837D01*
X124285141Y-170213699D01*
X124285140Y-170213691D01*
X124285118Y-170213485D01*
X124261576Y-170085077D01*
X124220609Y-169955725D01*
X124186372Y-169886327D01*
X124154603Y-169821929D01*
X124154600Y-169821923D01*
X124154413Y-169821545D01*
X124134168Y-169792391D01*
X124055387Y-169678946D01*
X124055386Y-169678945D01*
X124055182Y-169678651D01*
X124054941Y-169678383D01*
X123922547Y-169531408D01*
X123919556Y-169522967D01*
X123922967Y-169515304D01*
X124084038Y-169354233D01*
X124092311Y-169350806D01*
X124100142Y-169353813D01*
G37*
%TD.AperFunction*%
%TD*%
%TA.AperFunction,Conductor*%
%TO.N,c3_r2*%
G36*
X112539253Y-110248701D02*
G01*
X112844157Y-110541912D01*
X113294516Y-110975000D01*
X113415731Y-111091567D01*
X113419319Y-111099771D01*
X113415731Y-111108433D01*
X113122421Y-111390495D01*
X112539253Y-111951299D01*
X112530914Y-111954564D01*
X112525532Y-111953133D01*
X112353867Y-111859318D01*
X112352923Y-111858742D01*
X112204815Y-111758560D01*
X112204126Y-111758056D01*
X112077514Y-111658220D01*
X112077200Y-111657964D01*
X111963072Y-111561378D01*
X111852692Y-111471230D01*
X111737249Y-111390672D01*
X111736921Y-111390500D01*
X111736913Y-111390495D01*
X111669660Y-111355205D01*
X111607788Y-111322738D01*
X111607371Y-111322595D01*
X111607364Y-111322592D01*
X111455771Y-111270603D01*
X111455354Y-111270460D01*
X111270993Y-111236870D01*
X111109668Y-111228368D01*
X111056834Y-111225584D01*
X111048753Y-111221726D01*
X111045750Y-111213900D01*
X111045750Y-110986100D01*
X111049177Y-110977827D01*
X111056834Y-110974416D01*
X111125245Y-110970810D01*
X111270993Y-110963129D01*
X111455354Y-110929539D01*
X111455771Y-110929396D01*
X111607364Y-110877407D01*
X111607371Y-110877404D01*
X111607788Y-110877261D01*
X111669660Y-110844794D01*
X111736913Y-110809504D01*
X111736921Y-110809499D01*
X111737249Y-110809327D01*
X111852692Y-110728769D01*
X111963072Y-110638621D01*
X112077200Y-110542035D01*
X112077514Y-110541779D01*
X112204126Y-110441943D01*
X112204815Y-110441439D01*
X112352923Y-110341257D01*
X112353867Y-110340681D01*
X112525532Y-110246867D01*
X112534435Y-110245907D01*
X112539253Y-110248701D01*
G37*
%TD.AperFunction*%
%TD*%
%TA.AperFunction,Conductor*%
%TO.N,P4*%
G36*
X86622525Y-87810444D02*
G01*
X86622145Y-87829913D01*
X86620165Y-87931187D01*
X86616577Y-87939391D01*
X86611766Y-87942183D01*
X86438548Y-87993091D01*
X86437490Y-87993350D01*
X86274925Y-88025055D01*
X86274115Y-88025183D01*
X86160192Y-88039027D01*
X86125800Y-88043206D01*
X86125410Y-88043246D01*
X85987501Y-88055327D01*
X85987454Y-88055331D01*
X85987448Y-88055332D01*
X85987444Y-88055332D01*
X85987417Y-88055335D01*
X85856310Y-88069231D01*
X85856302Y-88069232D01*
X85856096Y-88069254D01*
X85855892Y-88069291D01*
X85855881Y-88069293D01*
X85728053Y-88092729D01*
X85727688Y-88092796D01*
X85727339Y-88092906D01*
X85727337Y-88092907D01*
X85691939Y-88104118D01*
X85598336Y-88133763D01*
X85528938Y-88168000D01*
X85464540Y-88199769D01*
X85464534Y-88199772D01*
X85464156Y-88199959D01*
X85463808Y-88200201D01*
X85463804Y-88200203D01*
X85321557Y-88298985D01*
X85321262Y-88299190D01*
X85320998Y-88299428D01*
X85320994Y-88299431D01*
X85174019Y-88431826D01*
X85165578Y-88434817D01*
X85157915Y-88431406D01*
X84996844Y-88270335D01*
X84993417Y-88262062D01*
X84996424Y-88254231D01*
X85128818Y-88107255D01*
X85128821Y-88107251D01*
X85129059Y-88106987D01*
X85173323Y-88043246D01*
X85228046Y-87964445D01*
X85228048Y-87964441D01*
X85228290Y-87964093D01*
X85228477Y-87963715D01*
X85228480Y-87963709D01*
X85260249Y-87899311D01*
X85294486Y-87829913D01*
X85335453Y-87700561D01*
X85358995Y-87572153D01*
X85372917Y-87440801D01*
X85385003Y-87302839D01*
X85385043Y-87302449D01*
X85403065Y-87154143D01*
X85403196Y-87153314D01*
X85434899Y-86990760D01*
X85435158Y-86989701D01*
X85486067Y-86816484D01*
X85491687Y-86809513D01*
X85497062Y-86808085D01*
X86201628Y-86794312D01*
X86642558Y-86785692D01*
X86622525Y-87810444D01*
G37*
%TD.AperFunction*%
%TD*%
%TA.AperFunction,Conductor*%
%TO.N,P4*%
G36*
X124622525Y-102810444D02*
G01*
X124622145Y-102829913D01*
X124620165Y-102931187D01*
X124616577Y-102939391D01*
X124611766Y-102942183D01*
X124438548Y-102993091D01*
X124437490Y-102993350D01*
X124274925Y-103025055D01*
X124274115Y-103025183D01*
X124160192Y-103039027D01*
X124125800Y-103043206D01*
X124125410Y-103043246D01*
X123987501Y-103055327D01*
X123987454Y-103055331D01*
X123987448Y-103055332D01*
X123987444Y-103055332D01*
X123987417Y-103055335D01*
X123856310Y-103069231D01*
X123856302Y-103069232D01*
X123856096Y-103069254D01*
X123855892Y-103069291D01*
X123855881Y-103069293D01*
X123728053Y-103092729D01*
X123727688Y-103092796D01*
X123727339Y-103092906D01*
X123727337Y-103092907D01*
X123691939Y-103104118D01*
X123598336Y-103133763D01*
X123528938Y-103168000D01*
X123464540Y-103199769D01*
X123464534Y-103199772D01*
X123464156Y-103199959D01*
X123463808Y-103200201D01*
X123463804Y-103200203D01*
X123321557Y-103298985D01*
X123321262Y-103299190D01*
X123320998Y-103299428D01*
X123320994Y-103299431D01*
X123174019Y-103431826D01*
X123165578Y-103434817D01*
X123157915Y-103431406D01*
X122996844Y-103270335D01*
X122993417Y-103262062D01*
X122996424Y-103254231D01*
X123128818Y-103107255D01*
X123128821Y-103107251D01*
X123129059Y-103106987D01*
X123173323Y-103043246D01*
X123228046Y-102964445D01*
X123228048Y-102964441D01*
X123228290Y-102964093D01*
X123228477Y-102963715D01*
X123228480Y-102963709D01*
X123260249Y-102899311D01*
X123294486Y-102829913D01*
X123335453Y-102700561D01*
X123358995Y-102572153D01*
X123359018Y-102571939D01*
X123366585Y-102500548D01*
X123366585Y-102500547D01*
X123372917Y-102440801D01*
X123385022Y-102302621D01*
X123403116Y-102153726D01*
X123435002Y-101990232D01*
X123488486Y-101808253D01*
X124642558Y-101785692D01*
X124622525Y-102810444D01*
G37*
%TD.AperFunction*%
%TD*%
%TA.AperFunction,Conductor*%
%TO.N,c1_r1*%
G36*
X74539253Y-134248701D02*
G01*
X74844157Y-134541912D01*
X75294516Y-134975000D01*
X75415731Y-135091567D01*
X75419319Y-135099771D01*
X75415731Y-135108433D01*
X75122421Y-135390495D01*
X74539253Y-135951299D01*
X74530914Y-135954564D01*
X74525532Y-135953133D01*
X74353867Y-135859318D01*
X74352923Y-135858742D01*
X74204815Y-135758560D01*
X74204126Y-135758056D01*
X74077514Y-135658220D01*
X74077200Y-135657964D01*
X73963072Y-135561378D01*
X73852692Y-135471230D01*
X73737249Y-135390672D01*
X73736921Y-135390500D01*
X73736913Y-135390495D01*
X73669660Y-135355205D01*
X73607788Y-135322738D01*
X73607371Y-135322595D01*
X73607364Y-135322592D01*
X73455771Y-135270603D01*
X73455354Y-135270460D01*
X73270993Y-135236870D01*
X73109668Y-135228368D01*
X73056834Y-135225584D01*
X73048753Y-135221726D01*
X73045750Y-135213900D01*
X73045750Y-134986100D01*
X73049177Y-134977827D01*
X73056834Y-134974416D01*
X73125245Y-134970810D01*
X73270993Y-134963129D01*
X73455354Y-134929539D01*
X73455771Y-134929396D01*
X73607364Y-134877407D01*
X73607371Y-134877404D01*
X73607788Y-134877261D01*
X73669660Y-134844794D01*
X73736913Y-134809504D01*
X73736921Y-134809499D01*
X73737249Y-134809327D01*
X73852692Y-134728769D01*
X73963072Y-134638621D01*
X74077200Y-134542035D01*
X74077514Y-134541779D01*
X74204126Y-134441943D01*
X74204815Y-134441439D01*
X74352923Y-134341257D01*
X74353867Y-134340681D01*
X74525532Y-134246867D01*
X74534435Y-134245907D01*
X74539253Y-134248701D01*
G37*
%TD.AperFunction*%
%TD*%
%TA.AperFunction,Conductor*%
%TO.N,P6*%
G36*
X104174019Y-128768174D02*
G01*
X104320994Y-128900568D01*
X104321262Y-128900809D01*
X104321556Y-128901013D01*
X104321557Y-128901014D01*
X104463804Y-128999796D01*
X104463808Y-128999798D01*
X104464156Y-129000040D01*
X104464534Y-129000227D01*
X104464540Y-129000230D01*
X104528938Y-129031999D01*
X104598336Y-129066236D01*
X104683812Y-129093307D01*
X104727337Y-129107092D01*
X104727339Y-129107093D01*
X104727688Y-129107203D01*
X104728052Y-129107270D01*
X104728053Y-129107270D01*
X104855881Y-129130706D01*
X104855892Y-129130708D01*
X104856096Y-129130745D01*
X104856302Y-129130767D01*
X104856310Y-129130768D01*
X104987417Y-129144664D01*
X104987501Y-129144672D01*
X105125410Y-129156753D01*
X105125800Y-129156793D01*
X105160192Y-129160972D01*
X105274115Y-129174816D01*
X105274925Y-129174944D01*
X105437489Y-129206649D01*
X105438548Y-129206908D01*
X105611766Y-129257817D01*
X105618737Y-129263437D01*
X105620165Y-129268812D01*
X105642558Y-130414308D01*
X105201628Y-130405688D01*
X104497062Y-130391915D01*
X104488859Y-130388327D01*
X104486067Y-130383516D01*
X104435158Y-130210298D01*
X104434899Y-130209239D01*
X104403196Y-130046685D01*
X104403065Y-130045856D01*
X104385043Y-129897550D01*
X104385003Y-129897160D01*
X104372917Y-129759198D01*
X104359018Y-129628060D01*
X104359017Y-129628052D01*
X104358995Y-129627846D01*
X104335453Y-129499438D01*
X104294486Y-129370086D01*
X104260249Y-129300688D01*
X104228480Y-129236290D01*
X104228477Y-129236284D01*
X104228290Y-129235906D01*
X104208045Y-129206752D01*
X104129264Y-129093307D01*
X104129263Y-129093306D01*
X104129059Y-129093012D01*
X104128818Y-129092744D01*
X103996424Y-128945769D01*
X103993433Y-128937328D01*
X103996844Y-128929665D01*
X104157915Y-128768594D01*
X104166188Y-128765167D01*
X104174019Y-128768174D01*
G37*
%TD.AperFunction*%
%TD*%
%TA.AperFunction,Conductor*%
%TO.N,c2_r1*%
G36*
X93539253Y-124248701D02*
G01*
X93844157Y-124541912D01*
X94294516Y-124975000D01*
X94415731Y-125091567D01*
X94419319Y-125099771D01*
X94415731Y-125108433D01*
X94122421Y-125390495D01*
X93539253Y-125951299D01*
X93530914Y-125954564D01*
X93525532Y-125953133D01*
X93353867Y-125859318D01*
X93352923Y-125858742D01*
X93204815Y-125758560D01*
X93204126Y-125758056D01*
X93077514Y-125658220D01*
X93077200Y-125657964D01*
X92963072Y-125561378D01*
X92852692Y-125471230D01*
X92737249Y-125390672D01*
X92736921Y-125390500D01*
X92736913Y-125390495D01*
X92669660Y-125355205D01*
X92607788Y-125322738D01*
X92607371Y-125322595D01*
X92607364Y-125322592D01*
X92455771Y-125270603D01*
X92455354Y-125270460D01*
X92270993Y-125236870D01*
X92109668Y-125228368D01*
X92056834Y-125225584D01*
X92048753Y-125221726D01*
X92045750Y-125213900D01*
X92045750Y-124986100D01*
X92049177Y-124977827D01*
X92056834Y-124974416D01*
X92125245Y-124970810D01*
X92270993Y-124963129D01*
X92455354Y-124929539D01*
X92455771Y-124929396D01*
X92607364Y-124877407D01*
X92607371Y-124877404D01*
X92607788Y-124877261D01*
X92669660Y-124844794D01*
X92736913Y-124809504D01*
X92736921Y-124809499D01*
X92737249Y-124809327D01*
X92852692Y-124728769D01*
X92963072Y-124638621D01*
X93077200Y-124542035D01*
X93077514Y-124541779D01*
X93204126Y-124441943D01*
X93204815Y-124441439D01*
X93352923Y-124341257D01*
X93353867Y-124340681D01*
X93525532Y-124246867D01*
X93534435Y-124245907D01*
X93539253Y-124248701D01*
G37*
%TD.AperFunction*%
%TD*%
%TA.AperFunction,Conductor*%
%TO.N,P5*%
G36*
X86622525Y-106810444D02*
G01*
X86622145Y-106829913D01*
X86620165Y-106931187D01*
X86616577Y-106939391D01*
X86611766Y-106942183D01*
X86438548Y-106993091D01*
X86437490Y-106993350D01*
X86274925Y-107025055D01*
X86274115Y-107025183D01*
X86160192Y-107039027D01*
X86125800Y-107043206D01*
X86125410Y-107043246D01*
X85987501Y-107055327D01*
X85987454Y-107055331D01*
X85987448Y-107055332D01*
X85987444Y-107055332D01*
X85987417Y-107055335D01*
X85856310Y-107069231D01*
X85856302Y-107069232D01*
X85856096Y-107069254D01*
X85855892Y-107069291D01*
X85855881Y-107069293D01*
X85728053Y-107092729D01*
X85727688Y-107092796D01*
X85727339Y-107092906D01*
X85727337Y-107092907D01*
X85691939Y-107104118D01*
X85598336Y-107133763D01*
X85528938Y-107168000D01*
X85464540Y-107199769D01*
X85464534Y-107199772D01*
X85464156Y-107199959D01*
X85463808Y-107200201D01*
X85463804Y-107200203D01*
X85321557Y-107298985D01*
X85321262Y-107299190D01*
X85320998Y-107299428D01*
X85320994Y-107299431D01*
X85174019Y-107431826D01*
X85165578Y-107434817D01*
X85157915Y-107431406D01*
X84996844Y-107270335D01*
X84993417Y-107262062D01*
X84996424Y-107254231D01*
X85128818Y-107107255D01*
X85128821Y-107107251D01*
X85129059Y-107106987D01*
X85173323Y-107043246D01*
X85228046Y-106964445D01*
X85228048Y-106964441D01*
X85228290Y-106964093D01*
X85228477Y-106963715D01*
X85228480Y-106963709D01*
X85260249Y-106899311D01*
X85294486Y-106829913D01*
X85335453Y-106700561D01*
X85358995Y-106572153D01*
X85372917Y-106440801D01*
X85385003Y-106302839D01*
X85385043Y-106302449D01*
X85403065Y-106154143D01*
X85403196Y-106153314D01*
X85434899Y-105990760D01*
X85435158Y-105989701D01*
X85486067Y-105816484D01*
X85491687Y-105809513D01*
X85497062Y-105808085D01*
X86201628Y-105794312D01*
X86642558Y-105785692D01*
X86622525Y-106810444D01*
G37*
%TD.AperFunction*%
%TD*%
%TA.AperFunction,Conductor*%
%TO.N,P6*%
G36*
X86723287Y-124304010D02*
G01*
X86881776Y-124390499D01*
X86882705Y-124391064D01*
X87020065Y-124483590D01*
X87020724Y-124484068D01*
X87138346Y-124576200D01*
X87138617Y-124576420D01*
X87188102Y-124617933D01*
X87244747Y-124665453D01*
X87244756Y-124665460D01*
X87347479Y-124748495D01*
X87347659Y-124748619D01*
X87347660Y-124748620D01*
X87454626Y-124822442D01*
X87454630Y-124822444D01*
X87454925Y-124822648D01*
X87455241Y-124822812D01*
X87455246Y-124822815D01*
X87574960Y-124884938D01*
X87575359Y-124885145D01*
X87717046Y-124933217D01*
X87888255Y-124964092D01*
X88086160Y-124974421D01*
X88094243Y-124978274D01*
X88097250Y-124986105D01*
X88097250Y-125213895D01*
X88093823Y-125222168D01*
X88086161Y-125225579D01*
X87888255Y-125235907D01*
X87717046Y-125266782D01*
X87575359Y-125314854D01*
X87574961Y-125315061D01*
X87574960Y-125315061D01*
X87455246Y-125377184D01*
X87455241Y-125377187D01*
X87454925Y-125377351D01*
X87454630Y-125377555D01*
X87454626Y-125377557D01*
X87347660Y-125451379D01*
X87347479Y-125451504D01*
X87244756Y-125534539D01*
X87138617Y-125623579D01*
X87138346Y-125623799D01*
X87020724Y-125715931D01*
X87020065Y-125716409D01*
X86882707Y-125808934D01*
X86881776Y-125809500D01*
X86723287Y-125895990D01*
X86714383Y-125896945D01*
X86709572Y-125894153D01*
X86620955Y-125808934D01*
X86489183Y-125682215D01*
X86489183Y-125682216D01*
X85883750Y-125100000D01*
X86234906Y-124762310D01*
X86234907Y-124762310D01*
X86709572Y-124305847D01*
X86717911Y-124302582D01*
X86723287Y-124304010D01*
G37*
%TD.AperFunction*%
%TD*%
%TA.AperFunction,Conductor*%
%TO.N,P6*%
G36*
X123174019Y-138768174D02*
G01*
X123320994Y-138900568D01*
X123321262Y-138900809D01*
X123321556Y-138901013D01*
X123321557Y-138901014D01*
X123463804Y-138999796D01*
X123463808Y-138999798D01*
X123464156Y-139000040D01*
X123464534Y-139000227D01*
X123464540Y-139000230D01*
X123528938Y-139031999D01*
X123598336Y-139066236D01*
X123683812Y-139093307D01*
X123727337Y-139107092D01*
X123727339Y-139107093D01*
X123727688Y-139107203D01*
X123728052Y-139107270D01*
X123728053Y-139107270D01*
X123855881Y-139130706D01*
X123855892Y-139130708D01*
X123856096Y-139130745D01*
X123856302Y-139130767D01*
X123856310Y-139130768D01*
X123987417Y-139144664D01*
X123987501Y-139144672D01*
X124125410Y-139156753D01*
X124125800Y-139156793D01*
X124160192Y-139160972D01*
X124274115Y-139174816D01*
X124274925Y-139174944D01*
X124437489Y-139206649D01*
X124438548Y-139206908D01*
X124611766Y-139257817D01*
X124618737Y-139263437D01*
X124620165Y-139268812D01*
X124642558Y-140414308D01*
X123488486Y-140391747D01*
X123435002Y-140209767D01*
X123403194Y-140046675D01*
X123403065Y-140045856D01*
X123385043Y-139897550D01*
X123385003Y-139897160D01*
X123372917Y-139759198D01*
X123359018Y-139628060D01*
X123359017Y-139628052D01*
X123358995Y-139627846D01*
X123335453Y-139499438D01*
X123294486Y-139370086D01*
X123260249Y-139300688D01*
X123228480Y-139236290D01*
X123228477Y-139236284D01*
X123228290Y-139235906D01*
X123208045Y-139206752D01*
X123129264Y-139093307D01*
X123129263Y-139093306D01*
X123129059Y-139093012D01*
X123128818Y-139092744D01*
X122996424Y-138945769D01*
X122993433Y-138937328D01*
X122996844Y-138929665D01*
X123157915Y-138768594D01*
X123166188Y-138765167D01*
X123174019Y-138768174D01*
G37*
%TD.AperFunction*%
%TD*%
%TA.AperFunction,Conductor*%
%TO.N,P3*%
G36*
X123946928Y-82305847D02*
G01*
X124318038Y-82662725D01*
X124772750Y-83100000D01*
X123940744Y-83900100D01*
X123774245Y-83809239D01*
X123681490Y-83746760D01*
X123681490Y-83746759D01*
X123636434Y-83716409D01*
X123635775Y-83715931D01*
X123518153Y-83623799D01*
X123517882Y-83623579D01*
X123411743Y-83534539D01*
X123309020Y-83451504D01*
X123308839Y-83451379D01*
X123201873Y-83377557D01*
X123201869Y-83377555D01*
X123201574Y-83377351D01*
X123201258Y-83377187D01*
X123201253Y-83377184D01*
X123081539Y-83315061D01*
X123081538Y-83315061D01*
X123081140Y-83314854D01*
X122939453Y-83266782D01*
X122768244Y-83235907D01*
X122570339Y-83225579D01*
X122562257Y-83221726D01*
X122559250Y-83213895D01*
X122559250Y-82986105D01*
X122562677Y-82977832D01*
X122570340Y-82974421D01*
X122768244Y-82964092D01*
X122939453Y-82933217D01*
X123081140Y-82885145D01*
X123081539Y-82884938D01*
X123201253Y-82822815D01*
X123201258Y-82822812D01*
X123201574Y-82822648D01*
X123201869Y-82822444D01*
X123201873Y-82822442D01*
X123308839Y-82748620D01*
X123308840Y-82748619D01*
X123309020Y-82748495D01*
X123411743Y-82665460D01*
X123411752Y-82665453D01*
X123468397Y-82617933D01*
X123517882Y-82576420D01*
X123518153Y-82576200D01*
X123635775Y-82484068D01*
X123636434Y-82483590D01*
X123773794Y-82391064D01*
X123774723Y-82390499D01*
X123933213Y-82304010D01*
X123942117Y-82303055D01*
X123946928Y-82305847D01*
G37*
%TD.AperFunction*%
%TD*%
%TA.AperFunction,Conductor*%
%TO.N,c3_r4*%
G36*
X112539253Y-72248701D02*
G01*
X112844157Y-72541912D01*
X113294516Y-72975000D01*
X113415731Y-73091567D01*
X113419319Y-73099771D01*
X113415731Y-73108433D01*
X113122421Y-73390495D01*
X112539253Y-73951299D01*
X112530914Y-73954564D01*
X112525532Y-73953133D01*
X112353867Y-73859318D01*
X112352923Y-73858742D01*
X112204815Y-73758560D01*
X112204126Y-73758056D01*
X112077514Y-73658220D01*
X112077200Y-73657964D01*
X111963072Y-73561378D01*
X111852692Y-73471230D01*
X111737249Y-73390672D01*
X111736921Y-73390500D01*
X111736913Y-73390495D01*
X111669660Y-73355205D01*
X111607788Y-73322738D01*
X111607371Y-73322595D01*
X111607364Y-73322592D01*
X111455771Y-73270603D01*
X111455354Y-73270460D01*
X111270993Y-73236870D01*
X111109668Y-73228368D01*
X111056834Y-73225584D01*
X111048753Y-73221726D01*
X111045750Y-73213900D01*
X111045750Y-72986100D01*
X111049177Y-72977827D01*
X111056834Y-72974416D01*
X111125245Y-72970810D01*
X111270993Y-72963129D01*
X111455354Y-72929539D01*
X111455771Y-72929396D01*
X111607364Y-72877407D01*
X111607371Y-72877404D01*
X111607788Y-72877261D01*
X111669660Y-72844794D01*
X111736913Y-72809504D01*
X111736921Y-72809499D01*
X111737249Y-72809327D01*
X111852692Y-72728769D01*
X111963072Y-72638621D01*
X112077200Y-72542035D01*
X112077514Y-72541779D01*
X112204126Y-72441943D01*
X112204815Y-72441439D01*
X112352923Y-72341257D01*
X112353867Y-72340681D01*
X112525532Y-72246867D01*
X112534435Y-72245907D01*
X112539253Y-72248701D01*
G37*
%TD.AperFunction*%
%TD*%
%TA.AperFunction,Conductor*%
%TO.N,P4*%
G36*
X104946928Y-91305847D02*
G01*
X105326571Y-91670932D01*
X105326573Y-91670933D01*
X105772750Y-92100000D01*
X105328250Y-92527454D01*
X105318037Y-92537275D01*
X104946928Y-92894153D01*
X104938589Y-92897418D01*
X104933213Y-92895990D01*
X104774723Y-92809500D01*
X104773792Y-92808934D01*
X104636434Y-92716409D01*
X104635775Y-92715931D01*
X104518153Y-92623799D01*
X104517882Y-92623579D01*
X104411743Y-92534539D01*
X104309020Y-92451504D01*
X104308839Y-92451379D01*
X104201873Y-92377557D01*
X104201869Y-92377555D01*
X104201574Y-92377351D01*
X104201258Y-92377187D01*
X104201253Y-92377184D01*
X104081539Y-92315061D01*
X104081538Y-92315061D01*
X104081140Y-92314854D01*
X103939453Y-92266782D01*
X103768244Y-92235907D01*
X103570339Y-92225579D01*
X103562257Y-92221726D01*
X103559250Y-92213895D01*
X103559250Y-91986105D01*
X103562677Y-91977832D01*
X103570340Y-91974421D01*
X103768244Y-91964092D01*
X103939453Y-91933217D01*
X104081140Y-91885145D01*
X104081539Y-91884938D01*
X104201253Y-91822815D01*
X104201258Y-91822812D01*
X104201574Y-91822648D01*
X104201869Y-91822444D01*
X104201873Y-91822442D01*
X104308839Y-91748620D01*
X104308840Y-91748619D01*
X104309020Y-91748495D01*
X104411743Y-91665460D01*
X104411752Y-91665453D01*
X104468397Y-91617933D01*
X104517882Y-91576420D01*
X104518153Y-91576200D01*
X104635775Y-91484068D01*
X104636434Y-91483590D01*
X104773794Y-91391064D01*
X104774723Y-91390499D01*
X104933213Y-91304010D01*
X104942117Y-91303055D01*
X104946928Y-91305847D01*
G37*
%TD.AperFunction*%
%TD*%
%TA.AperFunction,Conductor*%
%TO.N,P5*%
G36*
X125082274Y-120595151D02*
G01*
X125190595Y-120699023D01*
X125286548Y-120788419D01*
X125374849Y-120868758D01*
X125460218Y-120945462D01*
X125547371Y-121023951D01*
X125641026Y-121109645D01*
X125745902Y-121207964D01*
X125792788Y-121253123D01*
X125866676Y-121324289D01*
X125866756Y-121324368D01*
X125999818Y-121455888D01*
X126003292Y-121464139D01*
X125999865Y-121472480D01*
X125838938Y-121633407D01*
X125830665Y-121636834D01*
X125823206Y-121634148D01*
X125778161Y-121596874D01*
X125714065Y-121543835D01*
X125603603Y-121491214D01*
X125602713Y-121491091D01*
X125602712Y-121491091D01*
X125559581Y-121485145D01*
X125497924Y-121476645D01*
X125497054Y-121476789D01*
X125497053Y-121476789D01*
X125395584Y-121493589D01*
X125395581Y-121493590D01*
X125394928Y-121493698D01*
X125394316Y-121493950D01*
X125394314Y-121493951D01*
X125342897Y-121515162D01*
X125292517Y-121535946D01*
X125292172Y-121536148D01*
X125292169Y-121536150D01*
X125279079Y-121543835D01*
X125188590Y-121596960D01*
X125081050Y-121670310D01*
X124967797Y-121749570D01*
X124846732Y-121828309D01*
X124723246Y-121895994D01*
X124714383Y-121896945D01*
X124709572Y-121894153D01*
X124524235Y-121715924D01*
X124345284Y-121543835D01*
X124328250Y-121527454D01*
X123883750Y-121100000D01*
X124956867Y-120471383D01*
X125082274Y-120595151D01*
G37*
%TD.AperFunction*%
%TD*%
%TA.AperFunction,Conductor*%
%TO.N,P5*%
G36*
X105723287Y-110304010D02*
G01*
X105881776Y-110390499D01*
X105882705Y-110391064D01*
X106020065Y-110483590D01*
X106020724Y-110484068D01*
X106138346Y-110576200D01*
X106138617Y-110576420D01*
X106188102Y-110617933D01*
X106244747Y-110665453D01*
X106244756Y-110665460D01*
X106347479Y-110748495D01*
X106347659Y-110748619D01*
X106347660Y-110748620D01*
X106454626Y-110822442D01*
X106454630Y-110822444D01*
X106454925Y-110822648D01*
X106455241Y-110822812D01*
X106455246Y-110822815D01*
X106574960Y-110884938D01*
X106575359Y-110885145D01*
X106717046Y-110933217D01*
X106888255Y-110964092D01*
X107086160Y-110974421D01*
X107094243Y-110978274D01*
X107097250Y-110986105D01*
X107097250Y-111213895D01*
X107093823Y-111222168D01*
X107086161Y-111225579D01*
X106888255Y-111235907D01*
X106717046Y-111266782D01*
X106575359Y-111314854D01*
X106574961Y-111315061D01*
X106574960Y-111315061D01*
X106455246Y-111377184D01*
X106455241Y-111377187D01*
X106454925Y-111377351D01*
X106454630Y-111377555D01*
X106454626Y-111377557D01*
X106347660Y-111451379D01*
X106347479Y-111451504D01*
X106244756Y-111534539D01*
X106138617Y-111623579D01*
X106138346Y-111623799D01*
X106020724Y-111715931D01*
X106020065Y-111716409D01*
X105882707Y-111808934D01*
X105881776Y-111809500D01*
X105723287Y-111895990D01*
X105714383Y-111896945D01*
X105709572Y-111894153D01*
X105329929Y-111529068D01*
X105329928Y-111529068D01*
X105328250Y-111527454D01*
X104883750Y-111100000D01*
X105328250Y-110672546D01*
X105709572Y-110305847D01*
X105717911Y-110302582D01*
X105723287Y-110304010D01*
G37*
%TD.AperFunction*%
%TD*%
%TA.AperFunction,Conductor*%
%TO.N,P2*%
G36*
X144360955Y-166591032D02*
G01*
X144516559Y-166687856D01*
X144518135Y-166689031D01*
X144661899Y-166816336D01*
X144662770Y-166817193D01*
X144792231Y-166958539D01*
X144792583Y-166958941D01*
X144911883Y-167101793D01*
X144911899Y-167101812D01*
X145024950Y-167233189D01*
X145024957Y-167233196D01*
X145025121Y-167233387D01*
X145136401Y-167340896D01*
X145136924Y-167341222D01*
X145136925Y-167341223D01*
X145244151Y-167408089D01*
X145250057Y-167411772D01*
X145251151Y-167411969D01*
X145369031Y-167433199D01*
X145369033Y-167433199D01*
X145370405Y-167433446D01*
X145501765Y-167393350D01*
X145594549Y-167320968D01*
X145640299Y-167285279D01*
X145648929Y-167282892D01*
X145655768Y-167286231D01*
X145816336Y-167446799D01*
X145819763Y-167455072D01*
X145815717Y-167463921D01*
X145686740Y-167575474D01*
X145685199Y-167576601D01*
X145555050Y-167656345D01*
X145553304Y-167657223D01*
X145429150Y-167707152D01*
X145427595Y-167707654D01*
X145307574Y-167737282D01*
X145306628Y-167737474D01*
X145238192Y-167748347D01*
X145189011Y-167756160D01*
X145188875Y-167756181D01*
X145072610Y-167773252D01*
X145072604Y-167773253D01*
X145072414Y-167773281D01*
X144956136Y-167798216D01*
X144838654Y-167840473D01*
X144838212Y-167840727D01*
X144838208Y-167840729D01*
X144718988Y-167909287D01*
X144718985Y-167909289D01*
X144718533Y-167909549D01*
X144718130Y-167909891D01*
X144600662Y-168009572D01*
X144592137Y-168012312D01*
X144587178Y-168010746D01*
X144296503Y-167840473D01*
X143521220Y-167386323D01*
X143965720Y-166958869D01*
X144346665Y-166592533D01*
X144355003Y-166589268D01*
X144360955Y-166591032D01*
G37*
%TD.AperFunction*%
%TD*%
%TA.AperFunction,Conductor*%
%TO.N,c5_r5*%
G36*
X132049778Y-168738173D02*
G01*
X132406728Y-168874577D01*
X133185742Y-169172268D01*
X133192247Y-169178422D01*
X133192324Y-169187797D01*
X132714206Y-170305833D01*
X132707802Y-170312093D01*
X132702271Y-170312874D01*
X132488063Y-170291213D01*
X132486793Y-170291013D01*
X132300692Y-170251210D01*
X132299491Y-170250886D01*
X132139410Y-170198356D01*
X132138513Y-170198020D01*
X131994445Y-170137290D01*
X131994043Y-170137111D01*
X131964241Y-170123204D01*
X131856148Y-170072765D01*
X131714824Y-170009549D01*
X131714640Y-170009481D01*
X131714631Y-170009477D01*
X131560752Y-169952346D01*
X131560749Y-169952345D01*
X131560466Y-169952240D01*
X131383258Y-169905513D01*
X131382946Y-169905466D01*
X131382940Y-169905465D01*
X131173678Y-169874091D01*
X131173676Y-169874091D01*
X131173384Y-169874047D01*
X131173092Y-169874034D01*
X131173085Y-169874033D01*
X130932194Y-169863030D01*
X130924086Y-169859229D01*
X130921028Y-169851342D01*
X130921028Y-169623528D01*
X130924455Y-169615255D01*
X130932015Y-169611850D01*
X131014929Y-169606796D01*
X131113698Y-169600776D01*
X131113701Y-169600776D01*
X131114153Y-169600748D01*
X131271066Y-169566767D01*
X131271572Y-169566552D01*
X131271575Y-169566551D01*
X131398044Y-169512808D01*
X131398048Y-169512806D01*
X131398591Y-169512575D01*
X131446054Y-169479834D01*
X131503129Y-169440463D01*
X131503132Y-169440460D01*
X131503556Y-169440168D01*
X131592787Y-169351546D01*
X131673109Y-169248707D01*
X131751350Y-169133648D01*
X131834231Y-169008526D01*
X131834437Y-169008225D01*
X131928676Y-168875170D01*
X131929125Y-168874577D01*
X132036504Y-168741747D01*
X132044370Y-168737467D01*
X132049778Y-168738173D01*
G37*
%TD.AperFunction*%
%TD*%
%TA.AperFunction,Conductor*%
%TO.N,P6*%
G36*
X124723287Y-139304010D02*
G01*
X124821084Y-139357379D01*
X124878071Y-139388477D01*
X124881776Y-139390499D01*
X124882705Y-139391064D01*
X125020065Y-139483590D01*
X125020724Y-139484068D01*
X125138346Y-139576200D01*
X125138617Y-139576420D01*
X125188102Y-139617933D01*
X125244747Y-139665453D01*
X125244756Y-139665460D01*
X125347479Y-139748495D01*
X125347659Y-139748619D01*
X125347660Y-139748620D01*
X125454626Y-139822442D01*
X125454630Y-139822444D01*
X125454925Y-139822648D01*
X125455241Y-139822812D01*
X125455246Y-139822815D01*
X125574960Y-139884938D01*
X125575359Y-139885145D01*
X125717046Y-139933217D01*
X125888255Y-139964092D01*
X126086160Y-139974421D01*
X126094243Y-139978274D01*
X126097250Y-139986105D01*
X126097250Y-140213895D01*
X126093823Y-140222168D01*
X126086161Y-140225579D01*
X125888255Y-140235907D01*
X125717046Y-140266782D01*
X125575359Y-140314854D01*
X125574961Y-140315061D01*
X125574960Y-140315061D01*
X125455246Y-140377184D01*
X125455241Y-140377187D01*
X125454925Y-140377351D01*
X125454630Y-140377555D01*
X125454626Y-140377557D01*
X125347660Y-140451379D01*
X125347479Y-140451504D01*
X125244756Y-140534539D01*
X125138617Y-140623579D01*
X125138346Y-140623799D01*
X125020724Y-140715931D01*
X125020065Y-140716409D01*
X124882707Y-140808934D01*
X124881778Y-140809499D01*
X124876002Y-140812651D01*
X124723287Y-140895990D01*
X124714383Y-140896945D01*
X124709572Y-140894153D01*
X124624203Y-140812058D01*
X123883750Y-140100000D01*
X124622525Y-139389556D01*
X124709572Y-139305847D01*
X124717911Y-139302582D01*
X124723287Y-139304010D01*
G37*
%TD.AperFunction*%
%TD*%
%TA.AperFunction,Conductor*%
%TO.N,P4*%
G36*
X105723287Y-91304010D02*
G01*
X105881776Y-91390499D01*
X105882705Y-91391064D01*
X106020065Y-91483590D01*
X106020724Y-91484068D01*
X106138346Y-91576200D01*
X106138617Y-91576420D01*
X106188102Y-91617933D01*
X106244747Y-91665453D01*
X106244756Y-91665460D01*
X106347479Y-91748495D01*
X106347659Y-91748619D01*
X106347660Y-91748620D01*
X106454626Y-91822442D01*
X106454630Y-91822444D01*
X106454925Y-91822648D01*
X106455241Y-91822812D01*
X106455246Y-91822815D01*
X106574960Y-91884938D01*
X106575359Y-91885145D01*
X106717046Y-91933217D01*
X106888255Y-91964092D01*
X107086160Y-91974421D01*
X107094243Y-91978274D01*
X107097250Y-91986105D01*
X107097250Y-92213895D01*
X107093823Y-92222168D01*
X107086161Y-92225579D01*
X106888255Y-92235907D01*
X106717046Y-92266782D01*
X106575359Y-92314854D01*
X106574961Y-92315061D01*
X106574960Y-92315061D01*
X106455246Y-92377184D01*
X106455241Y-92377187D01*
X106454925Y-92377351D01*
X106454630Y-92377555D01*
X106454626Y-92377557D01*
X106347660Y-92451379D01*
X106347479Y-92451504D01*
X106244756Y-92534539D01*
X106138617Y-92623579D01*
X106138346Y-92623799D01*
X106020724Y-92715931D01*
X106020065Y-92716409D01*
X105882707Y-92808934D01*
X105881776Y-92809500D01*
X105723287Y-92895990D01*
X105714383Y-92896945D01*
X105709572Y-92894153D01*
X105329929Y-92529068D01*
X105329928Y-92529068D01*
X105328250Y-92527454D01*
X104883750Y-92100000D01*
X105328250Y-91672546D01*
X105709572Y-91305847D01*
X105717911Y-91302582D01*
X105723287Y-91304010D01*
G37*
%TD.AperFunction*%
%TD*%
%TA.AperFunction,Conductor*%
%TO.N,P5*%
G36*
X124723287Y-120304010D02*
G01*
X124881776Y-120390499D01*
X124882705Y-120391064D01*
X125020065Y-120483590D01*
X125020724Y-120484068D01*
X125138346Y-120576200D01*
X125138617Y-120576420D01*
X125188102Y-120617933D01*
X125244747Y-120665453D01*
X125244756Y-120665460D01*
X125347479Y-120748495D01*
X125347659Y-120748619D01*
X125347660Y-120748620D01*
X125454626Y-120822442D01*
X125454630Y-120822444D01*
X125454925Y-120822648D01*
X125455241Y-120822812D01*
X125455246Y-120822815D01*
X125574960Y-120884938D01*
X125575359Y-120885145D01*
X125717046Y-120933217D01*
X125888255Y-120964092D01*
X126086160Y-120974421D01*
X126094243Y-120978274D01*
X126097250Y-120986105D01*
X126097250Y-121213895D01*
X126093823Y-121222168D01*
X126086161Y-121225579D01*
X125888255Y-121235907D01*
X125717046Y-121266782D01*
X125575359Y-121314854D01*
X125454925Y-121377351D01*
X125347479Y-121451504D01*
X125244756Y-121534539D01*
X125138488Y-121623688D01*
X125020724Y-121715931D01*
X125020065Y-121716409D01*
X124882707Y-121808934D01*
X124881776Y-121809500D01*
X124723287Y-121895990D01*
X124714383Y-121896945D01*
X124709572Y-121894153D01*
X124524235Y-121715924D01*
X124345284Y-121543835D01*
X124328250Y-121527454D01*
X123883750Y-121100000D01*
X124328250Y-120672546D01*
X124709572Y-120305847D01*
X124717911Y-120302582D01*
X124723287Y-120304010D01*
G37*
%TD.AperFunction*%
%TD*%
%TA.AperFunction,Conductor*%
%TO.N,c4_r1*%
G36*
X131539253Y-139248701D02*
G01*
X131844157Y-139541912D01*
X132294516Y-139975000D01*
X132415731Y-140091567D01*
X132419319Y-140099771D01*
X132415731Y-140108433D01*
X132122421Y-140390495D01*
X131539253Y-140951299D01*
X131530914Y-140954564D01*
X131525532Y-140953133D01*
X131353867Y-140859318D01*
X131352923Y-140858742D01*
X131204815Y-140758560D01*
X131204126Y-140758056D01*
X131077514Y-140658220D01*
X131077200Y-140657964D01*
X130963072Y-140561378D01*
X130852692Y-140471230D01*
X130737249Y-140390672D01*
X130736921Y-140390500D01*
X130736913Y-140390495D01*
X130669660Y-140355205D01*
X130607788Y-140322738D01*
X130607371Y-140322595D01*
X130607364Y-140322592D01*
X130455771Y-140270603D01*
X130455354Y-140270460D01*
X130270993Y-140236870D01*
X130109668Y-140228368D01*
X130056834Y-140225584D01*
X130048753Y-140221726D01*
X130045750Y-140213900D01*
X130045750Y-139986100D01*
X130049177Y-139977827D01*
X130056834Y-139974416D01*
X130125245Y-139970810D01*
X130270993Y-139963129D01*
X130455354Y-139929539D01*
X130455771Y-139929396D01*
X130607364Y-139877407D01*
X130607371Y-139877404D01*
X130607788Y-139877261D01*
X130669660Y-139844794D01*
X130736913Y-139809504D01*
X130736921Y-139809499D01*
X130737249Y-139809327D01*
X130852692Y-139728769D01*
X130963072Y-139638621D01*
X131077200Y-139542035D01*
X131077514Y-139541779D01*
X131204126Y-139441943D01*
X131204815Y-139441439D01*
X131352923Y-139341257D01*
X131353867Y-139340681D01*
X131525532Y-139246867D01*
X131534435Y-139245907D01*
X131539253Y-139248701D01*
G37*
%TD.AperFunction*%
%TD*%
%TA.AperFunction,Conductor*%
%TO.N,P3*%
G36*
X67723287Y-77304010D02*
G01*
X67881776Y-77390499D01*
X67882705Y-77391064D01*
X68020065Y-77483590D01*
X68020724Y-77484068D01*
X68138346Y-77576200D01*
X68138617Y-77576420D01*
X68188102Y-77617933D01*
X68244747Y-77665453D01*
X68244756Y-77665460D01*
X68347479Y-77748495D01*
X68347659Y-77748619D01*
X68347660Y-77748620D01*
X68454626Y-77822442D01*
X68454630Y-77822444D01*
X68454925Y-77822648D01*
X68455241Y-77822812D01*
X68455246Y-77822815D01*
X68574960Y-77884938D01*
X68575359Y-77885145D01*
X68717046Y-77933217D01*
X68888255Y-77964092D01*
X69086160Y-77974421D01*
X69094243Y-77978274D01*
X69097250Y-77986105D01*
X69097250Y-78213895D01*
X69093823Y-78222168D01*
X69086161Y-78225579D01*
X68888255Y-78235907D01*
X68717046Y-78266782D01*
X68575359Y-78314854D01*
X68574961Y-78315061D01*
X68574960Y-78315061D01*
X68455246Y-78377184D01*
X68455241Y-78377187D01*
X68454925Y-78377351D01*
X68454630Y-78377555D01*
X68454626Y-78377557D01*
X68347660Y-78451379D01*
X68347479Y-78451504D01*
X68244756Y-78534539D01*
X68138617Y-78623579D01*
X68138346Y-78623799D01*
X68020724Y-78715931D01*
X68020065Y-78716409D01*
X67882707Y-78808934D01*
X67881776Y-78809500D01*
X67723287Y-78895990D01*
X67714383Y-78896945D01*
X67709572Y-78894153D01*
X67025145Y-78235973D01*
X66892519Y-78108433D01*
X66888931Y-78100229D01*
X66892519Y-78091567D01*
X67013735Y-77975000D01*
X67709572Y-77305847D01*
X67717911Y-77302582D01*
X67723287Y-77304010D01*
G37*
%TD.AperFunction*%
%TD*%
%TA.AperFunction,Conductor*%
%TO.N,P2*%
G36*
X162295746Y-163292855D02*
G01*
X162675389Y-163657940D01*
X162675391Y-163657941D01*
X163121568Y-164087008D01*
X162467883Y-164715625D01*
X162384046Y-164796247D01*
X162295746Y-164881161D01*
X162287407Y-164884426D01*
X162282031Y-164882998D01*
X162123541Y-164796508D01*
X162122610Y-164795942D01*
X162003374Y-164715625D01*
X161985252Y-164703417D01*
X161984593Y-164702939D01*
X161866971Y-164610807D01*
X161866700Y-164610587D01*
X161760561Y-164521547D01*
X161657838Y-164438512D01*
X161618616Y-164411443D01*
X161550691Y-164364565D01*
X161550687Y-164364563D01*
X161550392Y-164364359D01*
X161550076Y-164364195D01*
X161550071Y-164364192D01*
X161430357Y-164302069D01*
X161430356Y-164302069D01*
X161429958Y-164301862D01*
X161288271Y-164253790D01*
X161117062Y-164222915D01*
X160919157Y-164212587D01*
X160911075Y-164208734D01*
X160908068Y-164200903D01*
X160908068Y-163973113D01*
X160911495Y-163964840D01*
X160919158Y-163961429D01*
X161117062Y-163951100D01*
X161288271Y-163920225D01*
X161429958Y-163872153D01*
X161430357Y-163871946D01*
X161550071Y-163809823D01*
X161550076Y-163809820D01*
X161550392Y-163809656D01*
X161550687Y-163809452D01*
X161550691Y-163809450D01*
X161657657Y-163735628D01*
X161657658Y-163735627D01*
X161657838Y-163735503D01*
X161760561Y-163652468D01*
X161760570Y-163652461D01*
X161817215Y-163604941D01*
X161866700Y-163563428D01*
X161866971Y-163563208D01*
X161984593Y-163471076D01*
X161985252Y-163470598D01*
X162122612Y-163378072D01*
X162123541Y-163377507D01*
X162282031Y-163291018D01*
X162290935Y-163290063D01*
X162295746Y-163292855D01*
G37*
%TD.AperFunction*%
%TD*%
%TA.AperFunction,Conductor*%
%TO.N,P2*%
G36*
X95251860Y-145679611D02*
G01*
X95260064Y-145683199D01*
X95262947Y-145688336D01*
X95302456Y-145838739D01*
X95302733Y-145840133D01*
X95324521Y-146000088D01*
X95324603Y-146000907D01*
X95334862Y-146158583D01*
X95334871Y-146158750D01*
X95341863Y-146309706D01*
X95353910Y-146449272D01*
X95379362Y-146573088D01*
X95426567Y-146676861D01*
X95427270Y-146677583D01*
X95427271Y-146677585D01*
X95503088Y-146755489D01*
X95503090Y-146755490D01*
X95503877Y-146756299D01*
X95619641Y-146807109D01*
X95771792Y-146823853D01*
X95779639Y-146828164D01*
X95782211Y-146835483D01*
X95782211Y-147062889D01*
X95778784Y-147071162D01*
X95770108Y-147074582D01*
X95662646Y-147070875D01*
X95594874Y-147068537D01*
X95593993Y-147068474D01*
X95437543Y-147050992D01*
X95436638Y-147050853D01*
X95303595Y-147025110D01*
X95302792Y-147024925D01*
X95185957Y-146993636D01*
X95185451Y-146993488D01*
X95077633Y-146959332D01*
X95077560Y-146959308D01*
X94972088Y-146925137D01*
X94972069Y-146925131D01*
X94971954Y-146925094D01*
X94861658Y-146893632D01*
X94861458Y-146893590D01*
X94861452Y-146893588D01*
X94739987Y-146867776D01*
X94739978Y-146867774D01*
X94739731Y-146867722D01*
X94709303Y-146863916D01*
X94599412Y-146850172D01*
X94599401Y-146850171D01*
X94599160Y-146850141D01*
X94441604Y-146844002D01*
X94433471Y-146840256D01*
X94430740Y-146835268D01*
X94127022Y-145672503D01*
X94128247Y-145663632D01*
X94135385Y-145658226D01*
X94138570Y-145657848D01*
X95251860Y-145679611D01*
G37*
%TD.AperFunction*%
%TD*%
%TA.AperFunction,Conductor*%
%TO.N,P3*%
G36*
X124723287Y-82304010D02*
G01*
X124881776Y-82390499D01*
X124882705Y-82391064D01*
X125020065Y-82483590D01*
X125020724Y-82484068D01*
X125138346Y-82576200D01*
X125138617Y-82576420D01*
X125188102Y-82617933D01*
X125244747Y-82665453D01*
X125244756Y-82665460D01*
X125347479Y-82748495D01*
X125347659Y-82748619D01*
X125347660Y-82748620D01*
X125454626Y-82822442D01*
X125454630Y-82822444D01*
X125454925Y-82822648D01*
X125455241Y-82822812D01*
X125455246Y-82822815D01*
X125574960Y-82884938D01*
X125575359Y-82885145D01*
X125717046Y-82933217D01*
X125888255Y-82964092D01*
X126086160Y-82974421D01*
X126094243Y-82978274D01*
X126097250Y-82986105D01*
X126097250Y-83213895D01*
X126093823Y-83222168D01*
X126086161Y-83225579D01*
X125888255Y-83235907D01*
X125717046Y-83266782D01*
X125575359Y-83314854D01*
X125574961Y-83315061D01*
X125574960Y-83315061D01*
X125455246Y-83377184D01*
X125455241Y-83377187D01*
X125454925Y-83377351D01*
X125454630Y-83377555D01*
X125454626Y-83377557D01*
X125347660Y-83451379D01*
X125347479Y-83451504D01*
X125244756Y-83534539D01*
X125138617Y-83623579D01*
X125138346Y-83623799D01*
X125020724Y-83715931D01*
X125020065Y-83716409D01*
X124975009Y-83746759D01*
X124975009Y-83746760D01*
X124882254Y-83809239D01*
X124715756Y-83900100D01*
X123883750Y-83100000D01*
X124336766Y-82664356D01*
X124338463Y-82662725D01*
X124709572Y-82305847D01*
X124717911Y-82302582D01*
X124723287Y-82304010D01*
G37*
%TD.AperFunction*%
%TD*%
%TA.AperFunction,Conductor*%
%TO.N,P6*%
G36*
X105257809Y-143915352D02*
G01*
X105266013Y-143918940D01*
X105268791Y-143923702D01*
X105307495Y-144053313D01*
X105307687Y-144054042D01*
X105338639Y-144188797D01*
X105338696Y-144189060D01*
X105365058Y-144318590D01*
X105392252Y-144439866D01*
X105425752Y-144550022D01*
X105471053Y-144646311D01*
X105533650Y-144725985D01*
X105619040Y-144786297D01*
X105619845Y-144786568D01*
X105619846Y-144786568D01*
X105732075Y-144824283D01*
X105732078Y-144824284D01*
X105732719Y-144824499D01*
X105733395Y-144824560D01*
X105733399Y-144824561D01*
X105869538Y-144836881D01*
X105877468Y-144841039D01*
X105880183Y-144848533D01*
X105880183Y-145076130D01*
X105876756Y-145084403D01*
X105868469Y-145087830D01*
X105681883Y-145087607D01*
X105681852Y-145087607D01*
X105514622Y-145086965D01*
X105514590Y-145086965D01*
X105371290Y-145086019D01*
X105371261Y-145086019D01*
X105244728Y-145084871D01*
X105244728Y-145084863D01*
X105244709Y-145084871D01*
X105143791Y-145083791D01*
X105127856Y-145083621D01*
X105127853Y-145083621D01*
X105013501Y-145082371D01*
X104894534Y-145081223D01*
X104763816Y-145080277D01*
X104614210Y-145079635D01*
X104447603Y-145079411D01*
X104439335Y-145075973D01*
X104436299Y-145070668D01*
X104376320Y-144841039D01*
X104222251Y-144251198D01*
X104132669Y-143908238D01*
X104133894Y-143899367D01*
X104141032Y-143893961D01*
X104144217Y-143893583D01*
X105257809Y-143915352D01*
G37*
%TD.AperFunction*%
%TD*%
%TA.AperFunction,Conductor*%
%TO.N,P6*%
G36*
X124622525Y-140810444D02*
G01*
X124622145Y-140829913D01*
X124620165Y-140931187D01*
X124616577Y-140939391D01*
X124611766Y-140942183D01*
X124438548Y-140993091D01*
X124437490Y-140993350D01*
X124274925Y-141025055D01*
X124274115Y-141025183D01*
X124160192Y-141039027D01*
X124125800Y-141043206D01*
X124125410Y-141043246D01*
X123987501Y-141055327D01*
X123987454Y-141055331D01*
X123987448Y-141055332D01*
X123987444Y-141055332D01*
X123987417Y-141055335D01*
X123856310Y-141069231D01*
X123856302Y-141069232D01*
X123856096Y-141069254D01*
X123855892Y-141069291D01*
X123855881Y-141069293D01*
X123728053Y-141092729D01*
X123727688Y-141092796D01*
X123727339Y-141092906D01*
X123727337Y-141092907D01*
X123691939Y-141104118D01*
X123598336Y-141133763D01*
X123528938Y-141168000D01*
X123464540Y-141199769D01*
X123464534Y-141199772D01*
X123464156Y-141199959D01*
X123463808Y-141200201D01*
X123463804Y-141200203D01*
X123321557Y-141298985D01*
X123321262Y-141299190D01*
X123320998Y-141299428D01*
X123320994Y-141299431D01*
X123174019Y-141431826D01*
X123165578Y-141434817D01*
X123157915Y-141431406D01*
X122996844Y-141270335D01*
X122993417Y-141262062D01*
X122996424Y-141254231D01*
X123128818Y-141107255D01*
X123128821Y-141107251D01*
X123129059Y-141106987D01*
X123173323Y-141043246D01*
X123228046Y-140964445D01*
X123228048Y-140964441D01*
X123228290Y-140964093D01*
X123228477Y-140963715D01*
X123228480Y-140963709D01*
X123260249Y-140899311D01*
X123294486Y-140829913D01*
X123335453Y-140700561D01*
X123358995Y-140572153D01*
X123372917Y-140440801D01*
X123385003Y-140302839D01*
X123385043Y-140302449D01*
X123403065Y-140154143D01*
X123403196Y-140153314D01*
X123413378Y-140101108D01*
X123435002Y-139990232D01*
X123488486Y-139808253D01*
X124642558Y-139785692D01*
X124622525Y-140810444D01*
G37*
%TD.AperFunction*%
%TD*%
%TA.AperFunction,Conductor*%
%TO.N,P5*%
G36*
X104946928Y-110305847D02*
G01*
X105326571Y-110670932D01*
X105326573Y-110670933D01*
X105772750Y-111100000D01*
X105328250Y-111527454D01*
X105318037Y-111537275D01*
X104946928Y-111894153D01*
X104938589Y-111897418D01*
X104933213Y-111895990D01*
X104774723Y-111809500D01*
X104773792Y-111808934D01*
X104636434Y-111716409D01*
X104635775Y-111715931D01*
X104518153Y-111623799D01*
X104517882Y-111623579D01*
X104411743Y-111534539D01*
X104309020Y-111451504D01*
X104308839Y-111451379D01*
X104201873Y-111377557D01*
X104201869Y-111377555D01*
X104201574Y-111377351D01*
X104201258Y-111377187D01*
X104201253Y-111377184D01*
X104081539Y-111315061D01*
X104081538Y-111315061D01*
X104081140Y-111314854D01*
X103939453Y-111266782D01*
X103768244Y-111235907D01*
X103570339Y-111225579D01*
X103562257Y-111221726D01*
X103559250Y-111213895D01*
X103559250Y-110986105D01*
X103562677Y-110977832D01*
X103570340Y-110974421D01*
X103768244Y-110964092D01*
X103939453Y-110933217D01*
X104081140Y-110885145D01*
X104081539Y-110884938D01*
X104201253Y-110822815D01*
X104201258Y-110822812D01*
X104201574Y-110822648D01*
X104201869Y-110822444D01*
X104201873Y-110822442D01*
X104308839Y-110748620D01*
X104308840Y-110748619D01*
X104309020Y-110748495D01*
X104411743Y-110665460D01*
X104411752Y-110665453D01*
X104468397Y-110617933D01*
X104517882Y-110576420D01*
X104518153Y-110576200D01*
X104635775Y-110484068D01*
X104636434Y-110483590D01*
X104773794Y-110391064D01*
X104774723Y-110390499D01*
X104933213Y-110304010D01*
X104942117Y-110303055D01*
X104946928Y-110305847D01*
G37*
%TD.AperFunction*%
%TD*%
%TA.AperFunction,Conductor*%
%TO.N,c1_r2*%
G36*
X74539253Y-115248701D02*
G01*
X74844157Y-115541912D01*
X75294516Y-115975000D01*
X75415731Y-116091567D01*
X75419319Y-116099771D01*
X75415731Y-116108433D01*
X75122421Y-116390495D01*
X74539253Y-116951299D01*
X74530914Y-116954564D01*
X74525532Y-116953133D01*
X74353867Y-116859318D01*
X74352923Y-116858742D01*
X74204815Y-116758560D01*
X74204126Y-116758056D01*
X74077514Y-116658220D01*
X74077200Y-116657964D01*
X73963072Y-116561378D01*
X73852692Y-116471230D01*
X73737249Y-116390672D01*
X73736921Y-116390500D01*
X73736913Y-116390495D01*
X73669660Y-116355205D01*
X73607788Y-116322738D01*
X73607371Y-116322595D01*
X73607364Y-116322592D01*
X73455771Y-116270603D01*
X73455354Y-116270460D01*
X73270993Y-116236870D01*
X73109668Y-116228368D01*
X73056834Y-116225584D01*
X73048753Y-116221726D01*
X73045750Y-116213900D01*
X73045750Y-115986100D01*
X73049177Y-115977827D01*
X73056834Y-115974416D01*
X73125245Y-115970810D01*
X73270993Y-115963129D01*
X73455354Y-115929539D01*
X73455771Y-115929396D01*
X73607364Y-115877407D01*
X73607371Y-115877404D01*
X73607788Y-115877261D01*
X73669660Y-115844794D01*
X73736913Y-115809504D01*
X73736921Y-115809499D01*
X73737249Y-115809327D01*
X73852692Y-115728769D01*
X73963072Y-115638621D01*
X74077200Y-115542035D01*
X74077514Y-115541779D01*
X74204126Y-115441943D01*
X74204815Y-115441439D01*
X74352923Y-115341257D01*
X74353867Y-115340681D01*
X74525532Y-115246867D01*
X74534435Y-115245907D01*
X74539253Y-115248701D01*
G37*
%TD.AperFunction*%
%TD*%
%TA.AperFunction,Conductor*%
%TO.N,P6*%
G36*
X85940576Y-124694483D02*
G01*
X86234907Y-124762310D01*
X86709646Y-124871710D01*
X86489183Y-125682215D01*
X86462998Y-125778481D01*
X86408916Y-125977304D01*
X86403438Y-125984388D01*
X86398159Y-125985921D01*
X86284938Y-125991072D01*
X86230303Y-125993558D01*
X86229428Y-125993565D01*
X86180274Y-125992124D01*
X86071388Y-125988932D01*
X86070880Y-125988906D01*
X85978237Y-125981947D01*
X85926933Y-125978094D01*
X85926891Y-125978091D01*
X85793654Y-125967604D01*
X85793645Y-125967604D01*
X85793524Y-125967594D01*
X85793395Y-125967590D01*
X85793390Y-125967590D01*
X85667750Y-125963959D01*
X85667749Y-125963959D01*
X85667436Y-125963950D01*
X85545026Y-125973676D01*
X85544586Y-125973783D01*
X85544583Y-125973783D01*
X85462813Y-125993578D01*
X85422694Y-126003290D01*
X85422211Y-126003505D01*
X85297298Y-126059102D01*
X85297296Y-126059103D01*
X85296838Y-126059307D01*
X85296418Y-126059588D01*
X85296416Y-126059589D01*
X85224424Y-126107739D01*
X85163858Y-126148247D01*
X85163552Y-126148520D01*
X85163546Y-126148525D01*
X85028400Y-126269257D01*
X85019947Y-126272213D01*
X85012332Y-126268805D01*
X84851266Y-126107739D01*
X84847839Y-126099466D01*
X84850884Y-126091593D01*
X84995831Y-125932236D01*
X84995837Y-125932229D01*
X84996045Y-125932000D01*
X85107461Y-125778481D01*
X85186550Y-125635511D01*
X85242238Y-125499309D01*
X85283452Y-125366094D01*
X85319119Y-125232085D01*
X85358067Y-125093843D01*
X85358284Y-125093156D01*
X85409337Y-124947070D01*
X85409738Y-124946073D01*
X85481841Y-124788047D01*
X85482395Y-124786980D01*
X85497187Y-124761787D01*
X85580485Y-124619911D01*
X85587629Y-124614512D01*
X85593202Y-124614434D01*
X85940576Y-124694483D01*
G37*
%TD.AperFunction*%
%TD*%
%TA.AperFunction,Conductor*%
%TO.N,P4*%
G36*
X86723287Y-86304010D02*
G01*
X86881776Y-86390499D01*
X86882705Y-86391064D01*
X87020065Y-86483590D01*
X87020724Y-86484068D01*
X87138346Y-86576200D01*
X87138617Y-86576420D01*
X87188102Y-86617933D01*
X87244747Y-86665453D01*
X87244756Y-86665460D01*
X87347479Y-86748495D01*
X87347659Y-86748619D01*
X87347660Y-86748620D01*
X87454626Y-86822442D01*
X87454630Y-86822444D01*
X87454925Y-86822648D01*
X87455241Y-86822812D01*
X87455246Y-86822815D01*
X87574960Y-86884938D01*
X87575359Y-86885145D01*
X87717046Y-86933217D01*
X87888255Y-86964092D01*
X88086160Y-86974421D01*
X88094243Y-86978274D01*
X88097250Y-86986105D01*
X88097250Y-87213895D01*
X88093823Y-87222168D01*
X88086161Y-87225579D01*
X87888255Y-87235907D01*
X87717046Y-87266782D01*
X87575359Y-87314854D01*
X87574961Y-87315061D01*
X87574960Y-87315061D01*
X87455246Y-87377184D01*
X87455241Y-87377187D01*
X87454925Y-87377351D01*
X87454630Y-87377555D01*
X87454626Y-87377557D01*
X87347660Y-87451379D01*
X87347479Y-87451504D01*
X87244756Y-87534539D01*
X87138617Y-87623579D01*
X87138346Y-87623799D01*
X87020724Y-87715931D01*
X87020065Y-87716409D01*
X86882707Y-87808934D01*
X86881778Y-87809499D01*
X86876002Y-87812651D01*
X86723287Y-87895990D01*
X86714383Y-87896945D01*
X86709572Y-87894153D01*
X86624203Y-87812058D01*
X85883750Y-87100000D01*
X86709572Y-86305847D01*
X86717911Y-86302582D01*
X86723287Y-86304010D01*
G37*
%TD.AperFunction*%
%TD*%
M02*
