%TF.GenerationSoftware,KiCad,Pcbnew,(6.0.6)*%
%TF.CreationDate,2022-07-20T03:50:55+02:00*%
%TF.ProjectId,macropad_routed_rounded_jlc,6d616372-6f70-4616-945f-726f75746564,v1.0.0*%
%TF.SameCoordinates,Original*%
%TF.FileFunction,Soldermask,Top*%
%TF.FilePolarity,Negative*%
%FSLAX46Y46*%
G04 Gerber Fmt 4.6, Leading zero omitted, Abs format (unit mm)*
G04 Created by KiCad (PCBNEW (6.0.6)) date 2022-07-20 03:50:55*
%MOMM*%
%LPD*%
G01*
G04 APERTURE LIST*
G04 Aperture macros list*
%AMRoundRect*
0 Rectangle with rounded corners*
0 $1 Rounding radius*
0 $2 $3 $4 $5 $6 $7 $8 $9 X,Y pos of 4 corners*
0 Add a 4 corners polygon primitive as box body*
4,1,4,$2,$3,$4,$5,$6,$7,$8,$9,$2,$3,0*
0 Add four circle primitives for the rounded corners*
1,1,$1+$1,$2,$3*
1,1,$1+$1,$4,$5*
1,1,$1+$1,$6,$7*
1,1,$1+$1,$8,$9*
0 Add four rect primitives between the rounded corners*
20,1,$1+$1,$2,$3,$4,$5,0*
20,1,$1+$1,$4,$5,$6,$7,0*
20,1,$1+$1,$6,$7,$8,$9,0*
20,1,$1+$1,$8,$9,$2,$3,0*%
G04 Aperture macros list end*
%ADD10RoundRect,0.050000X-0.710819X-1.015155X1.015155X-0.710819X0.710819X1.015155X-1.015155X0.710819X0*%
%ADD11C,1.852600*%
%ADD12C,1.801800*%
%ADD13C,3.100000*%
%ADD14C,4.087800*%
%ADD15C,2.005000*%
%ADD16RoundRect,0.050000X-0.450000X-0.600000X0.450000X-0.600000X0.450000X0.600000X-0.450000X0.600000X0*%
%ADD17RoundRect,0.050000X-0.889000X-0.889000X0.889000X-0.889000X0.889000X0.889000X-0.889000X0.889000X0*%
%ADD18RoundRect,0.050000X-0.338975X-0.669026X0.547352X-0.512743X0.338975X0.669026X-0.547352X0.512743X0*%
%ADD19RoundRect,0.050000X-0.721121X-1.029867X1.029867X-0.721121X0.721121X1.029867X-1.029867X0.721121X0*%
G04 APERTURE END LIST*
D10*
%TO.C,MCU1*%
X87073685Y-162740100D03*
D11*
X89575096Y-162299034D03*
X92076508Y-161857967D03*
X94577920Y-161416901D03*
X97079332Y-160975835D03*
X99580743Y-160534768D03*
X102082155Y-160093702D03*
X104583567Y-159652636D03*
X107084978Y-159211569D03*
X109586390Y-158770503D03*
X112087802Y-158329436D03*
X114589213Y-157888370D03*
X84427287Y-147731630D03*
X86928698Y-147290564D03*
X89430110Y-146849497D03*
X91931522Y-146408431D03*
X94432933Y-145967364D03*
X96934345Y-145526298D03*
X99435757Y-145085232D03*
X101937168Y-144644165D03*
X104438580Y-144203099D03*
X106939992Y-143762033D03*
X109441404Y-143320966D03*
X111942815Y-142879900D03*
%TD*%
D12*
%TO.C,S7*%
X95218250Y-82100000D03*
X85058250Y-82100000D03*
D13*
X86328250Y-79560000D03*
X92678250Y-77020000D03*
D14*
X90138250Y-82100000D03*
%TD*%
D15*
%TO.C,D1*%
X74948250Y-135100000D03*
D16*
X69488250Y-135100000D03*
D17*
X67328250Y-135100000D03*
D16*
X72788250Y-135100000D03*
%TD*%
D13*
%TO.C,S4*%
X67328250Y-70560000D03*
D14*
X71138250Y-73100000D03*
D12*
X66058250Y-73100000D03*
X76218250Y-73100000D03*
D13*
X73678250Y-68020000D03*
%TD*%
D14*
%TO.C,S3*%
X71138250Y-92100000D03*
D13*
X67328250Y-89560000D03*
D12*
X66058250Y-92100000D03*
D13*
X73678250Y-87020000D03*
D12*
X76218250Y-92100000D03*
%TD*%
D13*
%TO.C,S8*%
X86328250Y-60560000D03*
D12*
X85058250Y-63100000D03*
X95218250Y-63100000D03*
D14*
X90138250Y-63100000D03*
D13*
X92678250Y-58020000D03*
%TD*%
D16*
%TO.C,D16*%
X126488250Y-83100000D03*
D15*
X131948250Y-83100000D03*
D17*
X124328250Y-83100000D03*
D16*
X129788250Y-83100000D03*
%TD*%
D15*
%TO.C,D10*%
X112948250Y-111100000D03*
D16*
X107488250Y-111100000D03*
D17*
X105328250Y-111100000D03*
D16*
X110788250Y-111100000D03*
%TD*%
%TO.C,D6*%
X88488250Y-106100000D03*
D15*
X93948250Y-106100000D03*
D17*
X86328250Y-106100000D03*
D16*
X91788250Y-106100000D03*
%TD*%
D12*
%TO.C,S13*%
X133218250Y-135100000D03*
D13*
X124328250Y-132560000D03*
X130678250Y-130020000D03*
D14*
X128138250Y-135100000D03*
D12*
X123058250Y-135100000D03*
%TD*%
D16*
%TO.C,D8*%
X88488250Y-68100000D03*
D15*
X93948250Y-68100000D03*
D17*
X86328250Y-68100000D03*
D16*
X91788250Y-68100000D03*
%TD*%
D13*
%TO.C,S5*%
X92678250Y-115020000D03*
X86328250Y-117560000D03*
D14*
X90138250Y-120100000D03*
D12*
X85058250Y-120100000D03*
X95218250Y-120100000D03*
%TD*%
D16*
%TO.C,D7*%
X88488250Y-87100000D03*
D15*
X93948250Y-87100000D03*
D16*
X91788250Y-87100000D03*
D17*
X86328250Y-87100000D03*
%TD*%
D15*
%TO.C,D19*%
X170181304Y-162763808D03*
D18*
X164804253Y-163711927D03*
X168054119Y-163138889D03*
D19*
X162677068Y-164087008D03*
%TD*%
D12*
%TO.C,S2*%
X76218250Y-111100000D03*
D13*
X73678250Y-106020000D03*
D12*
X66058250Y-111100000D03*
D14*
X71138250Y-111100000D03*
D13*
X67328250Y-108560000D03*
%TD*%
D16*
%TO.C,D15*%
X126488250Y-102100000D03*
D15*
X131948250Y-102100000D03*
D16*
X129788250Y-102100000D03*
D17*
X124328250Y-102100000D03*
%TD*%
D12*
%TO.C,S9*%
X104058250Y-125100000D03*
D13*
X105328250Y-122560000D03*
D12*
X114218250Y-125100000D03*
D14*
X109138250Y-125100000D03*
D13*
X111678250Y-120020000D03*
%TD*%
%TO.C,S17*%
X129757529Y-159656110D03*
X123945066Y-163260188D03*
D14*
X128138250Y-165100000D03*
D12*
X133141073Y-164217867D03*
X123135427Y-165982133D03*
%TD*%
D15*
%TO.C,D14*%
X131948250Y-121100000D03*
D16*
X126488250Y-121100000D03*
X129788250Y-121100000D03*
D17*
X124328250Y-121100000D03*
%TD*%
D13*
%TO.C,S14*%
X124328250Y-113560000D03*
D12*
X123058250Y-116100000D03*
X133218250Y-116100000D03*
D13*
X130678250Y-111020000D03*
D14*
X128138250Y-116100000D03*
%TD*%
D15*
%TO.C,D4*%
X74948250Y-78100000D03*
D16*
X69488250Y-78100000D03*
X72788250Y-78100000D03*
D17*
X67328250Y-78100000D03*
%TD*%
D15*
%TO.C,D5*%
X93948250Y-125100000D03*
D16*
X88488250Y-125100000D03*
D17*
X86328250Y-125100000D03*
D16*
X91788250Y-125100000D03*
%TD*%
%TO.C,D12*%
X107488250Y-73100000D03*
D15*
X112948250Y-73100000D03*
D16*
X110788250Y-73100000D03*
D17*
X105328250Y-73100000D03*
%TD*%
D12*
%TO.C,S1*%
X66058250Y-130100000D03*
X76218250Y-130100000D03*
D14*
X71138250Y-130100000D03*
D13*
X67328250Y-127560000D03*
X73678250Y-125020000D03*
%TD*%
D12*
%TO.C,S12*%
X104058250Y-68100000D03*
D13*
X111678250Y-63020000D03*
D12*
X114218250Y-68100000D03*
D13*
X105328250Y-65560000D03*
D14*
X109138250Y-68100000D03*
%TD*%
D12*
%TO.C,S19*%
X160558122Y-159383502D03*
D13*
X161367761Y-156661557D03*
X167180224Y-153057479D03*
D14*
X165560945Y-158501369D03*
D12*
X170563768Y-157619236D03*
%TD*%
D18*
%TO.C,D17*%
X127381558Y-170310558D03*
D15*
X132758609Y-169362439D03*
D19*
X125254373Y-170685639D03*
D18*
X130631424Y-169737520D03*
%TD*%
D13*
%TO.C,S6*%
X86328250Y-98560000D03*
X92678250Y-96020000D03*
D12*
X95218250Y-101100000D03*
D14*
X90138250Y-101100000D03*
D12*
X85058250Y-101100000D03*
%TD*%
D15*
%TO.C,D3*%
X74948250Y-97100000D03*
D16*
X69488250Y-97100000D03*
X72788250Y-97100000D03*
D17*
X67328250Y-97100000D03*
%TD*%
D13*
%TO.C,S15*%
X130678250Y-92020000D03*
X124328250Y-94560000D03*
D12*
X123058250Y-97100000D03*
X133218250Y-97100000D03*
D14*
X128138250Y-97100000D03*
%TD*%
D15*
%TO.C,D13*%
X131948250Y-140100000D03*
D16*
X126488250Y-140100000D03*
D17*
X124328250Y-140100000D03*
D16*
X129788250Y-140100000D03*
%TD*%
D13*
%TO.C,S16*%
X124328250Y-75560000D03*
D12*
X133218250Y-78100000D03*
D14*
X128138250Y-78100000D03*
D13*
X130678250Y-73020000D03*
D12*
X123058250Y-78100000D03*
%TD*%
D15*
%TO.C,D11*%
X112948250Y-92100000D03*
D16*
X107488250Y-92100000D03*
D17*
X105328250Y-92100000D03*
D16*
X110788250Y-92100000D03*
%TD*%
D15*
%TO.C,D2*%
X74948250Y-116100000D03*
D16*
X69488250Y-116100000D03*
X72788250Y-116100000D03*
D17*
X67328250Y-116100000D03*
%TD*%
D12*
%TO.C,S18*%
X151852420Y-160918552D03*
D13*
X148468876Y-156356795D03*
D12*
X141846774Y-162682818D03*
D13*
X142656413Y-159960873D03*
D14*
X146849597Y-161800685D03*
%TD*%
D15*
%TO.C,D9*%
X112948250Y-130100000D03*
D16*
X107488250Y-130100000D03*
X110788250Y-130100000D03*
D17*
X105328250Y-130100000D03*
%TD*%
D12*
%TO.C,S10*%
X104058250Y-106100000D03*
X114218250Y-106100000D03*
D14*
X109138250Y-106100000D03*
D13*
X105328250Y-103560000D03*
X111678250Y-101020000D03*
%TD*%
D15*
%TO.C,D18*%
X151469956Y-166063123D03*
D18*
X146092905Y-167011242D03*
D19*
X143965720Y-167386323D03*
D18*
X149342771Y-166438204D03*
%TD*%
D14*
%TO.C,S11*%
X109138250Y-87100000D03*
D12*
X114218250Y-87100000D03*
D13*
X105328250Y-84560000D03*
X111678250Y-82020000D03*
D12*
X104058250Y-87100000D03*
%TD*%
M02*
