%TF.GenerationSoftware,KiCad,Pcbnew,(6.0.6)*%
%TF.CreationDate,2022-07-20T03:50:55+02:00*%
%TF.ProjectId,macropad_routed_rounded_jlc,6d616372-6f70-4616-945f-726f75746564,v1.0.0*%
%TF.SameCoordinates,Original*%
%TF.FileFunction,Paste,Bot*%
%TF.FilePolarity,Positive*%
%FSLAX46Y46*%
G04 Gerber Fmt 4.6, Leading zero omitted, Abs format (unit mm)*
G04 Created by KiCad (PCBNEW (6.0.6)) date 2022-07-20 03:50:55*
%MOMM*%
%LPD*%
G01*
G04 APERTURE LIST*
G04 Aperture macros list*
%AMRotRect*
0 Rectangle, with rotation*
0 The origin of the aperture is its center*
0 $1 length*
0 $2 width*
0 $3 Rotation angle, in degrees counterclockwise*
0 Add horizontal line*
21,1,$1,$2,0,0,$3*%
G04 Aperture macros list end*
%ADD10R,2.550000X2.500000*%
%ADD11R,0.900000X1.200000*%
%ADD12RotRect,0.900000X1.200000X10.000000*%
G04 APERTURE END LIST*
D10*
%TO.C,S7*%
X83053250Y-79560000D03*
X95980250Y-77020000D03*
%TD*%
D11*
%TO.C,D1*%
X69488250Y-135100000D03*
X72788250Y-135100000D03*
%TD*%
D10*
%TO.C,S4*%
X64053250Y-70560000D03*
X76980250Y-68020000D03*
%TD*%
%TO.C,S3*%
X64053250Y-89560000D03*
X76980250Y-87020000D03*
%TD*%
%TO.C,S8*%
X83053250Y-60560000D03*
X95980250Y-58020000D03*
%TD*%
D11*
%TO.C,D16*%
X126488250Y-83100000D03*
X129788250Y-83100000D03*
%TD*%
%TO.C,D10*%
X107488250Y-111100000D03*
X110788250Y-111100000D03*
%TD*%
%TO.C,D6*%
X88488250Y-106100000D03*
X91788250Y-106100000D03*
%TD*%
D10*
%TO.C,S13*%
X121053250Y-132560000D03*
X133980250Y-130020000D03*
%TD*%
D11*
%TO.C,D8*%
X88488250Y-68100000D03*
X91788250Y-68100000D03*
%TD*%
D10*
%TO.C,S5*%
X83053250Y-117560000D03*
X95980250Y-115020000D03*
%TD*%
D11*
%TO.C,D7*%
X88488250Y-87100000D03*
X91788250Y-87100000D03*
%TD*%
D12*
%TO.C,D19*%
X164804253Y-163711927D03*
X168054119Y-163138889D03*
%TD*%
D10*
%TO.C,S2*%
X64053250Y-108560000D03*
X76980250Y-106020000D03*
%TD*%
D11*
%TO.C,D15*%
X126488250Y-102100000D03*
X129788250Y-102100000D03*
%TD*%
D10*
%TO.C,S9*%
X102053250Y-122560000D03*
X114980250Y-120020000D03*
%TD*%
%TO.C,S17*%
X120719821Y-163828886D03*
X133009364Y-159082724D03*
%TD*%
D11*
%TO.C,D14*%
X126488250Y-121100000D03*
X129788250Y-121100000D03*
%TD*%
D10*
%TO.C,S14*%
X121053250Y-113560000D03*
X133980250Y-111020000D03*
%TD*%
D11*
%TO.C,D4*%
X69488250Y-78100000D03*
X72788250Y-78100000D03*
%TD*%
%TO.C,D5*%
X88488250Y-125100000D03*
X91788250Y-125100000D03*
%TD*%
%TO.C,D12*%
X107488250Y-73100000D03*
X110788250Y-73100000D03*
%TD*%
D10*
%TO.C,S1*%
X64053250Y-127560000D03*
X76980250Y-125020000D03*
%TD*%
%TO.C,S12*%
X102053250Y-65560000D03*
X114980250Y-63020000D03*
%TD*%
%TO.C,S19*%
X158142516Y-157230255D03*
X170432059Y-152484093D03*
%TD*%
D12*
%TO.C,D17*%
X127381558Y-170310558D03*
X130631424Y-169737520D03*
%TD*%
D10*
%TO.C,S6*%
X83053250Y-98560000D03*
X95980250Y-96020000D03*
%TD*%
D11*
%TO.C,D3*%
X69488250Y-97100000D03*
X72788250Y-97100000D03*
%TD*%
D10*
%TO.C,S15*%
X121053250Y-94560000D03*
X133980250Y-92020000D03*
%TD*%
D11*
%TO.C,D13*%
X126488250Y-140100000D03*
X129788250Y-140100000D03*
%TD*%
D10*
%TO.C,S16*%
X121053250Y-75560000D03*
X133980250Y-73020000D03*
%TD*%
D11*
%TO.C,D11*%
X107488250Y-92100000D03*
X110788250Y-92100000D03*
%TD*%
%TO.C,D2*%
X69488250Y-116100000D03*
X72788250Y-116100000D03*
%TD*%
D10*
%TO.C,S18*%
X139431168Y-160529571D03*
X151720711Y-155783409D03*
%TD*%
D11*
%TO.C,D9*%
X107488250Y-130100000D03*
X110788250Y-130100000D03*
%TD*%
D10*
%TO.C,S10*%
X102053250Y-103560000D03*
X114980250Y-101020000D03*
%TD*%
D12*
%TO.C,D18*%
X146092905Y-167011242D03*
X149342771Y-166438204D03*
%TD*%
D10*
%TO.C,S11*%
X102053250Y-84560000D03*
X114980250Y-82020000D03*
%TD*%
M02*
