%TF.GenerationSoftware,KiCad,Pcbnew,(6.0.4)*%
%TF.CreationDate,2022-07-19T16:53:05+02:00*%
%TF.ProjectId,macropad_routed_rounded_jlc,6d616372-6f70-4616-945f-726f75746564,v1.0.0*%
%TF.SameCoordinates,Original*%
%TF.FileFunction,Copper,L2,Bot*%
%TF.FilePolarity,Positive*%
%FSLAX46Y46*%
G04 Gerber Fmt 4.6, Leading zero omitted, Abs format (unit mm)*
G04 Created by KiCad (PCBNEW (6.0.4)) date 2022-07-19 16:53:05*
%MOMM*%
%LPD*%
G01*
G04 APERTURE LIST*
G04 Aperture macros list*
%AMRotRect*
0 Rectangle, with rotation*
0 The origin of the aperture is its center*
0 $1 length*
0 $2 width*
0 $3 Rotation angle, in degrees counterclockwise*
0 Add horizontal line*
21,1,$1,$2,0,0,$3*%
G04 Aperture macros list end*
%TA.AperFunction,ComponentPad*%
%ADD10RotRect,1.752600X1.752600X10.000000*%
%TD*%
%TA.AperFunction,ComponentPad*%
%ADD11C,1.752600*%
%TD*%
%TA.AperFunction,SMDPad,CuDef*%
%ADD12R,2.550000X2.500000*%
%TD*%
%TA.AperFunction,ComponentPad*%
%ADD13C,1.905000*%
%TD*%
%TA.AperFunction,SMDPad,CuDef*%
%ADD14R,0.900000X1.200000*%
%TD*%
%TA.AperFunction,ComponentPad*%
%ADD15R,1.778000X1.778000*%
%TD*%
%TA.AperFunction,SMDPad,CuDef*%
%ADD16RotRect,0.900000X1.200000X10.000000*%
%TD*%
%TA.AperFunction,ComponentPad*%
%ADD17RotRect,1.778000X1.778000X10.000000*%
%TD*%
%TA.AperFunction,Conductor*%
%ADD18C,0.250000*%
%TD*%
G04 APERTURE END LIST*
D10*
%TO.P,MCU1,1*%
%TO.N,RAW*%
X87073685Y-162740100D03*
D11*
%TO.P,MCU1,2*%
%TO.N,GND*%
X89575096Y-162299034D03*
%TO.P,MCU1,3*%
%TO.N,RST*%
X92076508Y-161857967D03*
%TO.P,MCU1,4*%
%TO.N,VCC*%
X94577920Y-161416901D03*
%TO.P,MCU1,5*%
%TO.N,P21*%
X97079332Y-160975835D03*
%TO.P,MCU1,6*%
%TO.N,P20*%
X99580743Y-160534768D03*
%TO.P,MCU1,7*%
%TO.N,P19*%
X102082155Y-160093702D03*
%TO.P,MCU1,8*%
%TO.N,P18*%
X104583567Y-159652636D03*
%TO.P,MCU1,9*%
%TO.N,P15*%
X107084978Y-159211569D03*
%TO.P,MCU1,10*%
%TO.N,P14*%
X109586390Y-158770503D03*
%TO.P,MCU1,11*%
%TO.N,P16*%
X112087802Y-158329436D03*
%TO.P,MCU1,12*%
%TO.N,P10*%
X114589213Y-157888370D03*
%TO.P,MCU1,13*%
%TO.N,P1*%
X84427287Y-147731630D03*
%TO.P,MCU1,14*%
%TO.N,P0*%
X86928698Y-147290564D03*
%TO.P,MCU1,15*%
%TO.N,GND*%
X89430110Y-146849497D03*
%TO.P,MCU1,16*%
X91931522Y-146408431D03*
%TO.P,MCU1,17*%
%TO.N,P2*%
X94432933Y-145967364D03*
%TO.P,MCU1,18*%
%TO.N,P3*%
X96934345Y-145526298D03*
%TO.P,MCU1,19*%
%TO.N,P4*%
X99435757Y-145085232D03*
%TO.P,MCU1,20*%
%TO.N,P5*%
X101937168Y-144644165D03*
%TO.P,MCU1,21*%
%TO.N,P6*%
X104438580Y-144203099D03*
%TO.P,MCU1,22*%
%TO.N,P7*%
X106939992Y-143762033D03*
%TO.P,MCU1,23*%
%TO.N,P8*%
X109441404Y-143320966D03*
%TO.P,MCU1,24*%
%TO.N,P9*%
X111942815Y-142879900D03*
%TD*%
D12*
%TO.P,S7,1*%
%TO.N,c2_r3*%
X83053250Y-79560000D03*
%TO.P,S7,2*%
%TO.N,P19*%
X95980250Y-77020000D03*
%TD*%
D13*
%TO.P,D1,1*%
%TO.N,c1_r1*%
X74948250Y-135100000D03*
D14*
%TO.N,P6*%
X69488250Y-135100000D03*
%TO.P,D1,2*%
%TO.N,c1_r1*%
X72788250Y-135100000D03*
D15*
%TO.N,P6*%
X67328250Y-135100000D03*
%TD*%
D12*
%TO.P,S4,1*%
%TO.N,c1_r4*%
X64053250Y-70560000D03*
%TO.P,S4,2*%
%TO.N,P20*%
X76980250Y-68020000D03*
%TD*%
%TO.P,S3,1*%
%TO.N,c1_r3*%
X64053250Y-89560000D03*
%TO.P,S3,2*%
%TO.N,P20*%
X76980250Y-87020000D03*
%TD*%
%TO.P,S8,1*%
%TO.N,c2_r4*%
X83053250Y-60560000D03*
%TO.P,S8,2*%
%TO.N,P19*%
X95980250Y-58020000D03*
%TD*%
D13*
%TO.P,D16,1*%
%TO.N,c4_r4*%
X131948250Y-83100000D03*
D14*
%TO.N,P3*%
X126488250Y-83100000D03*
D15*
%TO.P,D16,2*%
X124328250Y-83100000D03*
D14*
%TO.N,c4_r4*%
X129788250Y-83100000D03*
%TD*%
D13*
%TO.P,D10,1*%
%TO.N,c3_r2*%
X112948250Y-111100000D03*
D14*
%TO.N,P5*%
X107488250Y-111100000D03*
D15*
%TO.P,D10,2*%
X105328250Y-111100000D03*
D14*
%TO.N,c3_r2*%
X110788250Y-111100000D03*
%TD*%
%TO.P,D6,1*%
%TO.N,P5*%
X88488250Y-106100000D03*
D13*
%TO.N,c2_r2*%
X93948250Y-106100000D03*
D14*
%TO.P,D6,2*%
X91788250Y-106100000D03*
D15*
%TO.N,P5*%
X86328250Y-106100000D03*
%TD*%
D12*
%TO.P,S13,1*%
%TO.N,c4_r1*%
X121053250Y-132560000D03*
%TO.P,S13,2*%
%TO.N,P15*%
X133980250Y-130020000D03*
%TD*%
D14*
%TO.P,D8,1*%
%TO.N,P3*%
X88488250Y-68100000D03*
D13*
%TO.N,c2_r4*%
X93948250Y-68100000D03*
D14*
%TO.P,D8,2*%
X91788250Y-68100000D03*
D15*
%TO.N,P3*%
X86328250Y-68100000D03*
%TD*%
D12*
%TO.P,S5,1*%
%TO.N,c2_r1*%
X83053250Y-117560000D03*
%TO.P,S5,2*%
%TO.N,P19*%
X95980250Y-115020000D03*
%TD*%
D13*
%TO.P,D7,1*%
%TO.N,c2_r3*%
X93948250Y-87100000D03*
D14*
%TO.N,P4*%
X88488250Y-87100000D03*
D15*
%TO.P,D7,2*%
X86328250Y-87100000D03*
D14*
%TO.N,c2_r3*%
X91788250Y-87100000D03*
%TD*%
D13*
%TO.P,D19,1*%
%TO.N,c7_r5*%
X170181304Y-162763808D03*
D16*
%TO.N,P2*%
X164804253Y-163711927D03*
%TO.P,D19,2*%
%TO.N,c7_r5*%
X168054119Y-163138889D03*
D17*
%TO.N,P2*%
X162677068Y-164087008D03*
%TD*%
D12*
%TO.P,S2,1*%
%TO.N,c1_r2*%
X64053250Y-108560000D03*
%TO.P,S2,2*%
%TO.N,P20*%
X76980250Y-106020000D03*
%TD*%
D13*
%TO.P,D15,1*%
%TO.N,c4_r3*%
X131948250Y-102100000D03*
D14*
%TO.N,P4*%
X126488250Y-102100000D03*
D15*
%TO.P,D15,2*%
X124328250Y-102100000D03*
D14*
%TO.N,c4_r3*%
X129788250Y-102100000D03*
%TD*%
D12*
%TO.P,S9,1*%
%TO.N,c3_r1*%
X102053250Y-122560000D03*
%TO.P,S9,2*%
%TO.N,P18*%
X114980250Y-120020000D03*
%TD*%
%TO.P,S17,1*%
%TO.N,c5_r5*%
X120719821Y-163828886D03*
%TO.P,S17,2*%
%TO.N,P19*%
X133009364Y-159082724D03*
%TD*%
D14*
%TO.P,D14,1*%
%TO.N,P5*%
X126488250Y-121100000D03*
D13*
%TO.N,c4_r2*%
X131948250Y-121100000D03*
D14*
%TO.P,D14,2*%
X129788250Y-121100000D03*
D15*
%TO.N,P5*%
X124328250Y-121100000D03*
%TD*%
D12*
%TO.P,S14,1*%
%TO.N,c4_r2*%
X121053250Y-113560000D03*
%TO.P,S14,2*%
%TO.N,P15*%
X133980250Y-111020000D03*
%TD*%
D14*
%TO.P,D4,1*%
%TO.N,P3*%
X69488250Y-78100000D03*
D13*
%TO.N,c1_r4*%
X74948250Y-78100000D03*
D14*
%TO.P,D4,2*%
X72788250Y-78100000D03*
D15*
%TO.N,P3*%
X67328250Y-78100000D03*
%TD*%
D14*
%TO.P,D5,1*%
%TO.N,P6*%
X88488250Y-125100000D03*
D13*
%TO.N,c2_r1*%
X93948250Y-125100000D03*
D15*
%TO.P,D5,2*%
%TO.N,P6*%
X86328250Y-125100000D03*
D14*
%TO.N,c2_r1*%
X91788250Y-125100000D03*
%TD*%
%TO.P,D12,1*%
%TO.N,P3*%
X107488250Y-73100000D03*
D13*
%TO.N,c3_r4*%
X112948250Y-73100000D03*
D14*
%TO.P,D12,2*%
X110788250Y-73100000D03*
D15*
%TO.N,P3*%
X105328250Y-73100000D03*
%TD*%
D12*
%TO.P,S1,1*%
%TO.N,c1_r1*%
X64053250Y-127560000D03*
%TO.P,S1,2*%
%TO.N,P20*%
X76980250Y-125020000D03*
%TD*%
%TO.P,S12,1*%
%TO.N,c3_r4*%
X102053250Y-65560000D03*
%TO.P,S12,2*%
%TO.N,P18*%
X114980250Y-63020000D03*
%TD*%
%TO.P,S19,1*%
%TO.N,c7_r5*%
X158142516Y-157230255D03*
%TO.P,S19,2*%
%TO.N,P15*%
X170432059Y-152484093D03*
%TD*%
D13*
%TO.P,D17,1*%
%TO.N,c5_r5*%
X132758609Y-169362439D03*
D16*
%TO.N,P2*%
X127381558Y-170310558D03*
%TO.P,D17,2*%
%TO.N,c5_r5*%
X130631424Y-169737520D03*
D17*
%TO.N,P2*%
X125254373Y-170685639D03*
%TD*%
D12*
%TO.P,S6,1*%
%TO.N,c2_r2*%
X83053250Y-98560000D03*
%TO.P,S6,2*%
%TO.N,P19*%
X95980250Y-96020000D03*
%TD*%
D13*
%TO.P,D3,1*%
%TO.N,c1_r3*%
X74948250Y-97100000D03*
D14*
%TO.N,P4*%
X69488250Y-97100000D03*
%TO.P,D3,2*%
%TO.N,c1_r3*%
X72788250Y-97100000D03*
D15*
%TO.N,P4*%
X67328250Y-97100000D03*
%TD*%
D12*
%TO.P,S15,1*%
%TO.N,c4_r3*%
X121053250Y-94560000D03*
%TO.P,S15,2*%
%TO.N,P15*%
X133980250Y-92020000D03*
%TD*%
D13*
%TO.P,D13,1*%
%TO.N,c4_r1*%
X131948250Y-140100000D03*
D14*
%TO.N,P6*%
X126488250Y-140100000D03*
%TO.P,D13,2*%
%TO.N,c4_r1*%
X129788250Y-140100000D03*
D15*
%TO.N,P6*%
X124328250Y-140100000D03*
%TD*%
D12*
%TO.P,S16,1*%
%TO.N,c4_r4*%
X121053250Y-75560000D03*
%TO.P,S16,2*%
%TO.N,P15*%
X133980250Y-73020000D03*
%TD*%
D13*
%TO.P,D11,1*%
%TO.N,c3_r3*%
X112948250Y-92100000D03*
D14*
%TO.N,P4*%
X107488250Y-92100000D03*
D15*
%TO.P,D11,2*%
X105328250Y-92100000D03*
D14*
%TO.N,c3_r3*%
X110788250Y-92100000D03*
%TD*%
D13*
%TO.P,D2,1*%
%TO.N,c1_r2*%
X74948250Y-116100000D03*
D14*
%TO.N,P5*%
X69488250Y-116100000D03*
D15*
%TO.P,D2,2*%
X67328250Y-116100000D03*
D14*
%TO.N,c1_r2*%
X72788250Y-116100000D03*
%TD*%
D12*
%TO.P,S18,1*%
%TO.N,c6_r5*%
X139431168Y-160529571D03*
%TO.P,S18,2*%
%TO.N,P18*%
X151720711Y-155783409D03*
%TD*%
D14*
%TO.P,D9,1*%
%TO.N,P6*%
X107488250Y-130100000D03*
D13*
%TO.N,c3_r1*%
X112948250Y-130100000D03*
D15*
%TO.P,D9,2*%
%TO.N,P6*%
X105328250Y-130100000D03*
D14*
%TO.N,c3_r1*%
X110788250Y-130100000D03*
%TD*%
D12*
%TO.P,S10,1*%
%TO.N,c3_r2*%
X102053250Y-103560000D03*
%TO.P,S10,2*%
%TO.N,P18*%
X114980250Y-101020000D03*
%TD*%
D13*
%TO.P,D18,1*%
%TO.N,c6_r5*%
X151469956Y-166063123D03*
D16*
%TO.N,P2*%
X146092905Y-167011242D03*
D17*
%TO.P,D18,2*%
X143965720Y-167386323D03*
D16*
%TO.N,c6_r5*%
X149342771Y-166438204D03*
%TD*%
D12*
%TO.P,S11,1*%
%TO.N,c3_r3*%
X102053250Y-84560000D03*
%TO.P,S11,2*%
%TO.N,P18*%
X114980250Y-82020000D03*
%TD*%
D18*
%TO.N,c1_r1*%
X68868008Y-132191924D02*
X71418229Y-134742145D01*
X72282167Y-135100000D02*
X72788250Y-135100000D01*
X64053250Y-128769177D02*
X64053250Y-127560000D01*
X66776084Y-131325421D02*
X66609493Y-131325421D01*
X66776084Y-131325418D02*
G75*
G02*
X68868008Y-132191924I16J-2958382D01*
G01*
X66609493Y-131325432D02*
G75*
G02*
X64801956Y-130576714I7J2556232D01*
G01*
X72282167Y-135100021D02*
G75*
G02*
X71418229Y-134742145I33J1221821D01*
G01*
X64801943Y-130576727D02*
G75*
G02*
X64053250Y-128769177I1807557J1807527D01*
G01*
%TO.N,P20*%
X116656443Y-134400480D02*
X109455671Y-134400480D01*
X77211960Y-68251710D02*
X76980250Y-68020000D01*
X118840149Y-139021398D02*
X118840149Y-136584185D01*
X100772031Y-127970803D02*
X105607915Y-132806687D01*
X77443671Y-68811109D02*
X77443671Y-86228890D01*
X77211960Y-125251710D02*
X77658755Y-125698505D01*
X77443671Y-124228890D02*
X77443671Y-106811109D01*
X117246356Y-142869154D02*
X99580743Y-160534768D01*
X77443671Y-105228890D02*
X77443671Y-87811109D01*
X96924275Y-126377011D02*
X79296812Y-126377011D01*
X77211960Y-87251710D02*
G75*
G02*
X77211960Y-86788289I231740J231710D01*
G01*
X116656443Y-134400454D02*
G75*
G02*
X118200556Y-135040072I-43J-2183746D01*
G01*
X77211957Y-105788286D02*
G75*
G03*
X77443671Y-105228890I-559357J559386D01*
G01*
X77211957Y-86788286D02*
G75*
G03*
X77443671Y-86228890I-559357J559386D01*
G01*
X77443675Y-106811109D02*
G75*
G03*
X77211959Y-106251711I-791075J9D01*
G01*
X77443675Y-87811109D02*
G75*
G03*
X77211959Y-87251711I-791075J9D01*
G01*
X77443675Y-68811109D02*
G75*
G03*
X77211959Y-68251711I-791075J9D01*
G01*
X77211960Y-106251710D02*
G75*
G02*
X77211960Y-105788289I231740J231710D01*
G01*
X77211957Y-124788286D02*
G75*
G03*
X77443671Y-124228890I-559357J559386D01*
G01*
X77211960Y-125251710D02*
G75*
G02*
X77211960Y-124788289I231740J231710D01*
G01*
X109455671Y-134400491D02*
G75*
G02*
X105607915Y-132806687I29J5441591D01*
G01*
X96924275Y-126377040D02*
G75*
G02*
X100772031Y-127970803I25J-5441560D01*
G01*
X117246357Y-142869155D02*
G75*
G03*
X118840149Y-139021398I-3847757J3847755D01*
G01*
X118840146Y-136584185D02*
G75*
G03*
X118200556Y-135040072I-2183746J-15D01*
G01*
X79296812Y-126376987D02*
G75*
G02*
X77658756Y-125698504I-12J2316587D01*
G01*
%TO.N,c1_r2*%
X73868523Y-116100000D02*
X74948250Y-116100000D01*
X70238768Y-113549972D02*
X72025313Y-115336517D01*
X64053250Y-109769177D02*
X64053250Y-108560000D01*
X67282440Y-112325421D02*
X66609493Y-112325421D01*
X73868523Y-116099981D02*
G75*
G02*
X72025313Y-115336517I-23J2606681D01*
G01*
X66609493Y-112325432D02*
G75*
G02*
X64801956Y-111576714I7J2556232D01*
G01*
X64801943Y-111576727D02*
G75*
G02*
X64053250Y-109769177I1807557J1807527D01*
G01*
X67282440Y-112325393D02*
G75*
G02*
X70238768Y-113549972I-40J-4180907D01*
G01*
%TO.N,c1_r3*%
X73362167Y-97100000D02*
X74948250Y-97100000D01*
X64053250Y-90769177D02*
X64053250Y-89560000D01*
X66609493Y-93325421D02*
X66776084Y-93325421D01*
X70654553Y-95978469D02*
X68868008Y-94191924D01*
X73362167Y-97100006D02*
G75*
G02*
X70654553Y-95978469I33J3829206D01*
G01*
X64801943Y-92576727D02*
G75*
G02*
X64053250Y-90769177I1807557J1807527D01*
G01*
X66776084Y-93325418D02*
G75*
G02*
X68868008Y-94191924I16J-2958382D01*
G01*
X66609493Y-93325432D02*
G75*
G02*
X64801956Y-92576714I7J2556232D01*
G01*
%TO.N,c1_r4*%
X70365694Y-76886489D02*
X72876657Y-76886489D01*
X74341494Y-77493244D02*
X74948250Y-78100000D01*
X66517938Y-75292696D02*
X64855111Y-73629869D01*
X64053250Y-71694004D02*
X64053250Y-70560000D01*
X70365694Y-76886481D02*
G75*
G02*
X66517938Y-75292696I6J5441581D01*
G01*
X72876657Y-76886525D02*
G75*
G02*
X74341494Y-77493244I43J-2071575D01*
G01*
X64855108Y-73629872D02*
G75*
G02*
X64053250Y-71694004I1935892J1935872D01*
G01*
%TO.N,c2_r1*%
X85609493Y-121325421D02*
X85776084Y-121325421D01*
X90418229Y-124742145D02*
X87868008Y-122191924D01*
X91282167Y-125100000D02*
X91788250Y-125100000D01*
X83053250Y-118769177D02*
X83053250Y-117560000D01*
X91282167Y-125100021D02*
G75*
G02*
X90418229Y-124742145I33J1221821D01*
G01*
X85776084Y-121325418D02*
G75*
G02*
X87868008Y-122191924I16J-2958382D01*
G01*
X83801943Y-120576727D02*
G75*
G02*
X83053250Y-118769177I1807557J1807527D01*
G01*
X85609493Y-121325432D02*
G75*
G02*
X83801956Y-120576714I7J2556232D01*
G01*
%TO.N,P19*%
X96443671Y-76228890D02*
X96443671Y-58811109D01*
X96211960Y-58251710D02*
X95980250Y-58020000D01*
X121506207Y-136851990D02*
X114239054Y-129584837D01*
X96443671Y-96811109D02*
X96443671Y-114228890D01*
X112306187Y-124918483D02*
X104001496Y-116613792D01*
X111408704Y-150767152D02*
X102082155Y-160093702D01*
X123100000Y-146919396D02*
X123100000Y-140699746D01*
X96307938Y-115020000D02*
X100153740Y-115020000D01*
X121100001Y-149173360D02*
X115256460Y-149173360D01*
X124693792Y-150767152D02*
X133009364Y-159082724D01*
X96443671Y-95228890D02*
X96443671Y-77811109D01*
X96307938Y-115020029D02*
G75*
G02*
X96211961Y-114788290I-38J135729D01*
G01*
X96443675Y-58811109D02*
G75*
G03*
X96211959Y-58251711I-791075J9D01*
G01*
X96211960Y-96251710D02*
G75*
G02*
X96211960Y-95788289I231740J231710D01*
G01*
X96443675Y-96811109D02*
G75*
G03*
X96211959Y-96251711I-791075J9D01*
G01*
X111408726Y-150767174D02*
G75*
G02*
X115256460Y-149173360I3847774J-3847726D01*
G01*
X100153740Y-115019987D02*
G75*
G02*
X104001495Y-116613793I-40J-5441613D01*
G01*
X96443675Y-77811109D02*
G75*
G03*
X96211959Y-77251711I-791075J9D01*
G01*
X123100066Y-146919392D02*
G75*
G02*
X121100001Y-149173359I-2135066J-119808D01*
G01*
X124693780Y-150767164D02*
G75*
G02*
X123100000Y-146919396I3847820J3847764D01*
G01*
X121100000Y-149173386D02*
G75*
G02*
X124693791Y-150767153I-133400J-5149514D01*
G01*
X114239041Y-129584850D02*
G75*
G02*
X113272621Y-127251660I2333159J2333150D01*
G01*
X113272645Y-127251660D02*
G75*
G03*
X112306186Y-124918484I-3299645J-40D01*
G01*
X96211957Y-76788286D02*
G75*
G03*
X96443671Y-76228890I-559357J559386D01*
G01*
X96211960Y-77251710D02*
G75*
G02*
X96211960Y-76788289I231740J231710D01*
G01*
X96211957Y-114788286D02*
G75*
G03*
X96443671Y-114228890I-559357J559386D01*
G01*
X123099952Y-140699746D02*
G75*
G03*
X121506207Y-136851990I-5441552J46D01*
G01*
X96211957Y-95788286D02*
G75*
G03*
X96443671Y-95228890I-559357J559386D01*
G01*
%TO.N,c2_r2*%
X91025313Y-105336517D02*
X89238768Y-103549972D01*
X85609493Y-102325421D02*
X86282440Y-102325421D01*
X83053250Y-99769177D02*
X83053250Y-98560000D01*
X92868523Y-106100000D02*
X93948250Y-106100000D01*
X92868523Y-106099981D02*
G75*
G02*
X91025313Y-105336517I-23J2606681D01*
G01*
X86282440Y-102325393D02*
G75*
G02*
X89238768Y-103549972I-40J-4180907D01*
G01*
X85609493Y-102325432D02*
G75*
G02*
X83801956Y-101576714I7J2556232D01*
G01*
X83801943Y-101576727D02*
G75*
G02*
X83053250Y-99769177I1807557J1807527D01*
G01*
%TO.N,c2_r3*%
X83053250Y-80769177D02*
X83053250Y-79560000D01*
X87868008Y-84191924D02*
X89654553Y-85978469D01*
X92362167Y-87100000D02*
X93948250Y-87100000D01*
X85609493Y-83325421D02*
X85776084Y-83325421D01*
X92362167Y-87100006D02*
G75*
G02*
X89654553Y-85978469I33J3829206D01*
G01*
X85776084Y-83325418D02*
G75*
G02*
X87868008Y-84191924I16J-2958382D01*
G01*
X85609493Y-83325432D02*
G75*
G02*
X83801956Y-82576714I7J2556232D01*
G01*
X83801943Y-82576727D02*
G75*
G02*
X83053250Y-80769177I1807557J1807527D01*
G01*
%TO.N,c2_r4*%
X92868523Y-68100000D02*
X93948250Y-68100000D01*
X85609493Y-64325421D02*
X86282440Y-64325421D01*
X89238768Y-65549972D02*
X91025313Y-67336517D01*
X83053250Y-61769177D02*
X83053250Y-60560000D01*
X85609493Y-64325432D02*
G75*
G02*
X83801956Y-63576714I7J2556232D01*
G01*
X86282440Y-64325393D02*
G75*
G02*
X89238768Y-65549972I-40J-4180907D01*
G01*
X83801943Y-63576727D02*
G75*
G02*
X83053250Y-61769177I1807557J1807527D01*
G01*
X92868523Y-68099981D02*
G75*
G02*
X91025313Y-67336517I-23J2606681D01*
G01*
%TO.N,c3_r1*%
X104609493Y-126325421D02*
X105282167Y-126325421D01*
X102053250Y-123769177D02*
X102053250Y-122560000D01*
X108238029Y-127549779D02*
X110788250Y-130100000D01*
X104609493Y-126325432D02*
G75*
G02*
X102801956Y-125576714I7J2556232D01*
G01*
X102801943Y-125576727D02*
G75*
G02*
X102053250Y-123769177I1807557J1807527D01*
G01*
X105282167Y-126325433D02*
G75*
G02*
X108238028Y-127549780I33J-4180167D01*
G01*
%TO.N,P18*%
X115443671Y-101811109D02*
X115443671Y-119228890D01*
X129745651Y-142763279D02*
X141445879Y-154463507D01*
X115443671Y-82811109D02*
X115443671Y-100228890D01*
X131235039Y-161530631D02*
X132215405Y-161530631D01*
X127147395Y-138094863D02*
X128281826Y-139229294D01*
X120774246Y-135455018D02*
X118099042Y-132779814D01*
X115014088Y-120028838D02*
X115755250Y-120770000D01*
X127387283Y-159936838D02*
X125731796Y-158281351D01*
X115211960Y-63251710D02*
X114980250Y-63020000D01*
X115211960Y-119788289D02*
X114989088Y-120011161D01*
X116505250Y-122580660D02*
X116505250Y-128932058D01*
X151070143Y-155132841D02*
X151720711Y-155783409D01*
X115443671Y-63811109D02*
X115443671Y-81228890D01*
X141491186Y-154482274D02*
X141544266Y-154482274D01*
X141544266Y-154482274D02*
X149499534Y-154482274D01*
X106066105Y-158170097D02*
X104583567Y-159652636D01*
X141498959Y-154501040D02*
X136063161Y-159936838D01*
X109645270Y-156687559D02*
X121884040Y-156687559D01*
X106066113Y-158170105D02*
G75*
G02*
X109645270Y-156687559I3579187J-3579195D01*
G01*
X129013737Y-140996287D02*
G75*
G03*
X128281825Y-139229295I-2498937J-13D01*
G01*
X114992750Y-120019998D02*
G75*
G02*
X114989088Y-120011161I50J5198D01*
G01*
X129745653Y-142763277D02*
G75*
G02*
X129013739Y-140996287I1766947J1766977D01*
G01*
X115443675Y-63811109D02*
G75*
G03*
X115211959Y-63251711I-791075J9D01*
G01*
X121884040Y-156687528D02*
G75*
G02*
X125731796Y-158281351I-40J-5441572D01*
G01*
X123960821Y-136774916D02*
G75*
G02*
X127147394Y-138094864I-21J-4506484D01*
G01*
X115211957Y-119788286D02*
G75*
G03*
X115443671Y-119228890I-559357J559386D01*
G01*
X115211957Y-100788286D02*
G75*
G03*
X115443671Y-100228890I-559357J559386D01*
G01*
X132215405Y-161530639D02*
G75*
G03*
X136063161Y-159936838I-5J5441539D01*
G01*
X115211957Y-81788286D02*
G75*
G03*
X115443671Y-81228890I-559357J559386D01*
G01*
X118099021Y-132779835D02*
G75*
G02*
X116505250Y-128932058I3847779J3847735D01*
G01*
X123960821Y-136774913D02*
G75*
G02*
X120774246Y-135455018I-21J4506513D01*
G01*
X141498986Y-154501067D02*
G75*
G02*
X141544266Y-154482274I45314J-45233D01*
G01*
X116505281Y-122580660D02*
G75*
G03*
X115755250Y-120770000I-2560681J-40D01*
G01*
X115443675Y-101811109D02*
G75*
G03*
X115211959Y-101251711I-791075J9D01*
G01*
X131235039Y-161530608D02*
G75*
G02*
X127387283Y-159936838I-39J5441508D01*
G01*
X149499534Y-154482235D02*
G75*
G02*
X151070143Y-155132841I-34J-2221165D01*
G01*
X114992750Y-120020042D02*
G75*
G02*
X115014088Y-120028838I50J-30158D01*
G01*
X115443675Y-82811109D02*
G75*
G03*
X115211959Y-82251711I-791075J9D01*
G01*
X115211960Y-82251710D02*
G75*
G02*
X115211960Y-81788289I231740J231710D01*
G01*
X141491186Y-154482283D02*
G75*
G02*
X141445879Y-154463507I14J64083D01*
G01*
X115211960Y-101251710D02*
G75*
G02*
X115211960Y-100788289I231740J231710D01*
G01*
X141491186Y-154482341D02*
G75*
G02*
X141498959Y-154501040I14J-10959D01*
G01*
%TO.N,c3_r2*%
X102053250Y-104769177D02*
X102053250Y-103560000D01*
X111139125Y-111100000D02*
X112948250Y-111100000D01*
X102841874Y-106616632D02*
X102801956Y-106576714D01*
X108050755Y-109820755D02*
X106264209Y-108034209D01*
X104553042Y-107325398D02*
G75*
G02*
X106264209Y-108034209I-42J-2420002D01*
G01*
X102801943Y-106576727D02*
G75*
G02*
X102053250Y-104769177I1807557J1807527D01*
G01*
X104553042Y-107325401D02*
G75*
G02*
X102841875Y-106616631I-42J2419901D01*
G01*
X111139125Y-111099986D02*
G75*
G02*
X108050755Y-109820755I-25J4367586D01*
G01*
%TO.N,c3_r3*%
X102801956Y-87576714D02*
X102944404Y-87719162D01*
X102053250Y-85769177D02*
X102053250Y-84560000D01*
X107658224Y-90718224D02*
X105871679Y-88931679D01*
X110994125Y-92100000D02*
X112948250Y-92100000D01*
X104408042Y-88325387D02*
G75*
G02*
X105871679Y-88931679I-42J-2069913D01*
G01*
X102801943Y-87576727D02*
G75*
G02*
X102053250Y-85769177I1807557J1807527D01*
G01*
X110994125Y-92099975D02*
G75*
G02*
X107658224Y-90718224I-25J4717675D01*
G01*
X104408042Y-88325383D02*
G75*
G02*
X102944405Y-87719161I-42J2069883D01*
G01*
%TO.N,c3_r4*%
X108238768Y-70549972D02*
X110025313Y-72336517D01*
X105282440Y-69325421D02*
X104609493Y-69325421D01*
X111868523Y-73100000D02*
X112948250Y-73100000D01*
X102053250Y-66769177D02*
X102053250Y-65560000D01*
X104609493Y-69325432D02*
G75*
G02*
X102801956Y-68576714I7J2556232D01*
G01*
X111868523Y-73099981D02*
G75*
G02*
X110025313Y-72336517I-23J2606681D01*
G01*
X102801943Y-68576727D02*
G75*
G02*
X102053250Y-66769177I1807557J1807527D01*
G01*
X105282440Y-69325393D02*
G75*
G02*
X108238768Y-70549972I-40J-4180907D01*
G01*
%TO.N,c4_r1*%
X121053250Y-133769177D02*
X121053250Y-132560000D01*
X127238029Y-137549779D02*
X129788250Y-140100000D01*
X124282167Y-136325421D02*
X123609493Y-136325421D01*
X123609493Y-136325432D02*
G75*
G02*
X121801956Y-135576714I7J2556232D01*
G01*
X124282167Y-136325433D02*
G75*
G02*
X127238028Y-137549780I33J-4180167D01*
G01*
X121801943Y-135576727D02*
G75*
G02*
X121053250Y-133769177I1807557J1807527D01*
G01*
%TO.N,P15*%
X134443671Y-91228890D02*
X134443671Y-73811109D01*
X164022242Y-151182958D02*
X168210882Y-151182958D01*
X155643220Y-154130851D02*
X155643220Y-153876780D01*
X134443671Y-130811109D02*
X134443671Y-144571617D01*
X157593220Y-153226780D02*
X159088019Y-153226780D01*
X134211960Y-73251710D02*
X133980250Y-73020000D01*
X157593220Y-153226780D02*
X156293220Y-153226780D01*
X134443671Y-111811109D02*
X134443671Y-129228890D01*
X149524178Y-158900000D02*
X147325336Y-158900000D01*
X136249358Y-160386357D02*
X136955572Y-159680144D01*
X154993220Y-153226780D02*
X156293220Y-153226780D01*
X107464850Y-159591441D02*
X107084978Y-159211569D01*
X145361015Y-158086352D02*
X140803329Y-158086352D01*
X155003945Y-155674196D02*
X153371934Y-157306207D01*
X139251077Y-151632987D02*
X136037463Y-148419373D01*
X169781491Y-151833525D02*
X170432059Y-152484093D01*
X134443671Y-92811109D02*
X134443671Y-110228890D01*
X154993220Y-153226780D02*
X143098833Y-153226780D01*
X132401602Y-161980151D02*
X126736465Y-161980151D01*
X108381943Y-159971314D02*
X121886703Y-159971314D01*
X134443675Y-92811109D02*
G75*
G03*
X134211959Y-92251711I-791075J9D01*
G01*
X155003920Y-155674171D02*
G75*
G03*
X155643220Y-154130851I-1543320J1543371D01*
G01*
X134211957Y-129788286D02*
G75*
G03*
X134443671Y-129228890I-559357J559386D01*
G01*
X147325336Y-158899969D02*
G75*
G02*
X146343177Y-158493175I-36J1388969D01*
G01*
X126736465Y-161980189D02*
G75*
G02*
X124311584Y-160975732I35J3429289D01*
G01*
X145361015Y-158086331D02*
G75*
G02*
X146343175Y-158493177I-15J-1388969D01*
G01*
X154993220Y-153226780D02*
G75*
G02*
X155643220Y-153876780I-20J-650020D01*
G01*
X134443675Y-130811109D02*
G75*
G03*
X134211959Y-130251711I-791075J9D01*
G01*
X159088019Y-153226776D02*
G75*
G03*
X161555130Y-152204868I-19J3489076D01*
G01*
X108381943Y-159971268D02*
G75*
G02*
X107464851Y-159591440I-43J1296968D01*
G01*
X121886703Y-159971308D02*
G75*
G02*
X124311584Y-160975732I-3J-3429292D01*
G01*
X136037476Y-148419360D02*
G75*
G02*
X134443671Y-144571617I3847724J3847760D01*
G01*
X132401602Y-161980150D02*
G75*
G03*
X136249357Y-160386356I-2J5441550D01*
G01*
X161555106Y-152204844D02*
G75*
G02*
X164022242Y-151182958I2467094J-2467156D01*
G01*
X134211957Y-110788286D02*
G75*
G03*
X134443671Y-110228890I-559357J559386D01*
G01*
X168210882Y-151182961D02*
G75*
G02*
X169781490Y-151833526I18J-2221139D01*
G01*
X134211960Y-111251710D02*
G75*
G02*
X134211960Y-110788289I231740J231710D01*
G01*
X134211957Y-91788286D02*
G75*
G03*
X134443671Y-91228890I-559357J559386D01*
G01*
X136955559Y-159680131D02*
G75*
G02*
X140803329Y-158086352I3847741J-3847769D01*
G01*
X143098833Y-153226747D02*
G75*
G02*
X139251077Y-151632987I-33J5441547D01*
G01*
X134211960Y-92251710D02*
G75*
G02*
X134211960Y-91788289I231740J231710D01*
G01*
X134211960Y-130251710D02*
G75*
G02*
X134211960Y-129788289I231740J231710D01*
G01*
X134443675Y-111811109D02*
G75*
G03*
X134211959Y-111251711I-791075J9D01*
G01*
X155643180Y-153876780D02*
G75*
G02*
X156293220Y-153226780I650020J-20D01*
G01*
X149524178Y-158899969D02*
G75*
G03*
X153371934Y-157306207I22J5441569D01*
G01*
X134443675Y-73811109D02*
G75*
G03*
X134211959Y-73251711I-791075J9D01*
G01*
%TO.N,c4_r2*%
X121053250Y-114769177D02*
X121053250Y-113560000D01*
X129025313Y-120336517D02*
X127238768Y-118549972D01*
X130868523Y-121100000D02*
X131948250Y-121100000D01*
X123609493Y-117325421D02*
X124282440Y-117325421D01*
X123609493Y-117325432D02*
G75*
G02*
X121801956Y-116576714I7J2556232D01*
G01*
X121801943Y-116576727D02*
G75*
G02*
X121053250Y-114769177I1807557J1807527D01*
G01*
X130868523Y-121099981D02*
G75*
G02*
X129025313Y-120336517I-23J2606681D01*
G01*
X124282440Y-117325393D02*
G75*
G02*
X127238768Y-118549972I-40J-4180907D01*
G01*
%TO.N,c4_r3*%
X130868523Y-102100000D02*
X131948250Y-102100000D01*
X129025313Y-101336517D02*
X127238768Y-99549972D01*
X121053250Y-95769177D02*
X121053250Y-94560000D01*
X123609493Y-98325421D02*
X124282440Y-98325421D01*
X123609493Y-98325432D02*
G75*
G02*
X121801956Y-97576714I7J2556232D01*
G01*
X130868523Y-102099981D02*
G75*
G02*
X129025313Y-101336517I-23J2606681D01*
G01*
X121801943Y-97576727D02*
G75*
G02*
X121053250Y-95769177I1807557J1807527D01*
G01*
X124282440Y-98325393D02*
G75*
G02*
X127238768Y-99549972I-40J-4180907D01*
G01*
%TO.N,c4_r4*%
X121053250Y-76769177D02*
X121053250Y-75560000D01*
X124282440Y-79325421D02*
X123609493Y-79325421D01*
X130868523Y-83100000D02*
X131948250Y-83100000D01*
X127238768Y-80549972D02*
X129025313Y-82336517D01*
X124282440Y-79325393D02*
G75*
G02*
X127238768Y-80549972I-40J-4180907D01*
G01*
X121801943Y-78576727D02*
G75*
G02*
X121053250Y-76769177I1807557J1807527D01*
G01*
X130868523Y-83099981D02*
G75*
G02*
X129025313Y-82336517I-23J2606681D01*
G01*
X123609493Y-79325432D02*
G75*
G02*
X121801956Y-78576714I7J2556232D01*
G01*
%TO.N,c5_r5*%
X128862202Y-169275392D02*
X128059347Y-168472537D01*
X129977877Y-169737520D02*
X130631424Y-169737520D01*
X121533687Y-166393687D02*
X121338870Y-166198870D01*
X120719821Y-164704353D02*
X120719821Y-163828886D01*
X123498535Y-167207554D02*
X125005407Y-167207554D01*
X125005407Y-167207556D02*
G75*
G02*
X128059347Y-168472537I-7J-4318944D01*
G01*
X123498535Y-167207517D02*
G75*
G02*
X121533687Y-166393687I-35J2778717D01*
G01*
X121338844Y-166198896D02*
G75*
G02*
X120719821Y-164704353I1494556J1494496D01*
G01*
X129977877Y-169737531D02*
G75*
G02*
X128862202Y-169275392I23J1577831D01*
G01*
%TO.N,c6_r5*%
X147711591Y-166012133D02*
X146872679Y-165173221D01*
X139431168Y-161264895D02*
X139431168Y-160529571D01*
X140385177Y-162954229D02*
X139951120Y-162520172D01*
X148740216Y-166438204D02*
X149342771Y-166438204D01*
X142688360Y-163908239D02*
X143818741Y-163908239D01*
X143818741Y-163908222D02*
G75*
G02*
X146872679Y-165173221I-41J-4318978D01*
G01*
X139951117Y-162520175D02*
G75*
G02*
X139431168Y-161264895I1255283J1255275D01*
G01*
X142688360Y-163908253D02*
G75*
G02*
X140385177Y-162954229I40J3257253D01*
G01*
X148740216Y-166438189D02*
G75*
G02*
X147711592Y-166012132I-16J1454689D01*
G01*
%TO.N,c7_r5*%
X158142516Y-157965579D02*
X158142516Y-157230255D01*
X167843865Y-162928635D02*
X168054119Y-163138889D01*
X167336266Y-162718381D02*
X164413956Y-162718381D01*
X158662468Y-159220856D02*
X160566200Y-161124588D01*
X167336266Y-162718395D02*
G75*
G02*
X167843865Y-162928635I34J-717805D01*
G01*
X164413956Y-162718402D02*
G75*
G02*
X160566200Y-161124588I44J5441602D01*
G01*
X158662467Y-159220857D02*
G75*
G02*
X158142516Y-157965579I1255233J1255257D01*
G01*
%TO.N,GND*%
X89430110Y-162051527D02*
X89430110Y-147161377D01*
X90183056Y-146408431D02*
X91931522Y-146408431D01*
X89502603Y-162226541D02*
X89575096Y-162299034D01*
X89650660Y-146628981D02*
G75*
G02*
X90183056Y-146408431I532440J-532419D01*
G01*
X89430078Y-147161377D02*
G75*
G02*
X89650643Y-146628964I752922J-23D01*
G01*
X89502620Y-162226524D02*
G75*
G02*
X89430110Y-162051527I174980J175024D01*
G01*
%TD*%
%TA.AperFunction,Conductor*%
%TO.N,c2_r3*%
G36*
X93539253Y-86248701D02*
G01*
X93844157Y-86541912D01*
X94294516Y-86975000D01*
X94415731Y-87091567D01*
X94419319Y-87099771D01*
X94415731Y-87108433D01*
X94122421Y-87390495D01*
X93539253Y-87951299D01*
X93530914Y-87954564D01*
X93525532Y-87953133D01*
X93353867Y-87859318D01*
X93352923Y-87858742D01*
X93204815Y-87758560D01*
X93204126Y-87758056D01*
X93077514Y-87658220D01*
X93077200Y-87657964D01*
X92963072Y-87561378D01*
X92852692Y-87471230D01*
X92737249Y-87390672D01*
X92736921Y-87390500D01*
X92736913Y-87390495D01*
X92669660Y-87355205D01*
X92607788Y-87322738D01*
X92607371Y-87322595D01*
X92607364Y-87322592D01*
X92455771Y-87270603D01*
X92455354Y-87270460D01*
X92270993Y-87236870D01*
X92109668Y-87228368D01*
X92056834Y-87225584D01*
X92048753Y-87221726D01*
X92045750Y-87213900D01*
X92045750Y-86986100D01*
X92049177Y-86977827D01*
X92056834Y-86974416D01*
X92125245Y-86970810D01*
X92270993Y-86963129D01*
X92455354Y-86929539D01*
X92455771Y-86929396D01*
X92607364Y-86877407D01*
X92607371Y-86877404D01*
X92607788Y-86877261D01*
X92669660Y-86844794D01*
X92736913Y-86809504D01*
X92736921Y-86809499D01*
X92737249Y-86809327D01*
X92852692Y-86728769D01*
X92963072Y-86638621D01*
X93077200Y-86542035D01*
X93077514Y-86541779D01*
X93204126Y-86441943D01*
X93204815Y-86441439D01*
X93352923Y-86341257D01*
X93353867Y-86340681D01*
X93525532Y-86246867D01*
X93534435Y-86245907D01*
X93539253Y-86248701D01*
G37*
%TD.AperFunction*%
%TD*%
%TA.AperFunction,Conductor*%
%TO.N,P19*%
G36*
X103236442Y-158778350D02*
G01*
X103397508Y-158939416D01*
X103400935Y-158947689D01*
X103397925Y-158955522D01*
X103267081Y-159100678D01*
X103168969Y-159241620D01*
X103103356Y-159373935D01*
X103062575Y-159501466D01*
X103038958Y-159628054D01*
X103038936Y-159628260D01*
X103024835Y-159757539D01*
X103012555Y-159893574D01*
X103012514Y-159893957D01*
X102994450Y-160040159D01*
X102994319Y-160040978D01*
X102962854Y-160201266D01*
X102962599Y-160202308D01*
X102912343Y-160373056D01*
X102906721Y-160380024D01*
X102901351Y-160381450D01*
X102141638Y-160396301D01*
X101784502Y-160403282D01*
X101776163Y-160400017D01*
X101772575Y-160391355D01*
X101789964Y-159501819D01*
X101794407Y-159274508D01*
X101797995Y-159266305D01*
X101802801Y-159263514D01*
X101973543Y-159213259D01*
X101974593Y-159213002D01*
X102027202Y-159202674D01*
X102134891Y-159181535D01*
X102135684Y-159181408D01*
X102245649Y-159167821D01*
X102281899Y-159163342D01*
X102282282Y-159163301D01*
X102418317Y-159151021D01*
X102547802Y-159136898D01*
X102547998Y-159136861D01*
X102548001Y-159136861D01*
X102674037Y-159113347D01*
X102674039Y-159113346D01*
X102674390Y-159113281D01*
X102801921Y-159072500D01*
X102934236Y-159006887D01*
X103075178Y-158908775D01*
X103219871Y-158778350D01*
X103220335Y-158777932D01*
X103228775Y-158774939D01*
X103236442Y-158778350D01*
G37*
%TD.AperFunction*%
%TD*%
%TA.AperFunction,Conductor*%
%TO.N,c4_r3*%
G36*
X131539253Y-101248701D02*
G01*
X131844157Y-101541912D01*
X132294516Y-101975000D01*
X132415731Y-102091567D01*
X132419319Y-102099771D01*
X132415731Y-102108433D01*
X132122421Y-102390495D01*
X131539253Y-102951299D01*
X131530914Y-102954564D01*
X131525532Y-102953133D01*
X131353867Y-102859318D01*
X131352923Y-102858742D01*
X131204815Y-102758560D01*
X131204126Y-102758056D01*
X131077514Y-102658220D01*
X131077200Y-102657964D01*
X130963072Y-102561378D01*
X130852692Y-102471230D01*
X130737249Y-102390672D01*
X130736921Y-102390500D01*
X130736913Y-102390495D01*
X130669660Y-102355205D01*
X130607788Y-102322738D01*
X130607371Y-102322595D01*
X130607364Y-102322592D01*
X130455771Y-102270603D01*
X130455354Y-102270460D01*
X130270993Y-102236870D01*
X130109668Y-102228368D01*
X130056834Y-102225584D01*
X130048753Y-102221726D01*
X130045750Y-102213900D01*
X130045750Y-101986100D01*
X130049177Y-101977827D01*
X130056834Y-101974416D01*
X130125245Y-101970810D01*
X130270993Y-101963129D01*
X130455354Y-101929539D01*
X130455771Y-101929396D01*
X130607364Y-101877407D01*
X130607371Y-101877404D01*
X130607788Y-101877261D01*
X130669660Y-101844794D01*
X130736913Y-101809504D01*
X130736921Y-101809499D01*
X130737249Y-101809327D01*
X130852692Y-101728769D01*
X130963072Y-101638621D01*
X131077200Y-101542035D01*
X131077514Y-101541779D01*
X131204126Y-101441943D01*
X131204815Y-101441439D01*
X131352923Y-101341257D01*
X131353867Y-101340681D01*
X131525532Y-101246867D01*
X131534435Y-101245907D01*
X131539253Y-101248701D01*
G37*
%TD.AperFunction*%
%TD*%
%TA.AperFunction,Conductor*%
%TO.N,c4_r2*%
G36*
X131539253Y-120248701D02*
G01*
X131844157Y-120541912D01*
X132294516Y-120975000D01*
X132415731Y-121091567D01*
X132419319Y-121099771D01*
X132415731Y-121108433D01*
X132122421Y-121390495D01*
X131539253Y-121951299D01*
X131530914Y-121954564D01*
X131525532Y-121953133D01*
X131353867Y-121859318D01*
X131352923Y-121858742D01*
X131204815Y-121758560D01*
X131204126Y-121758056D01*
X131077514Y-121658220D01*
X131077200Y-121657964D01*
X130963072Y-121561378D01*
X130852692Y-121471230D01*
X130737249Y-121390672D01*
X130736921Y-121390500D01*
X130736913Y-121390495D01*
X130669660Y-121355205D01*
X130607788Y-121322738D01*
X130607371Y-121322595D01*
X130607364Y-121322592D01*
X130455771Y-121270603D01*
X130455354Y-121270460D01*
X130270993Y-121236870D01*
X130109668Y-121228368D01*
X130056834Y-121225584D01*
X130048753Y-121221726D01*
X130045750Y-121213900D01*
X130045750Y-120986100D01*
X130049177Y-120977827D01*
X130056834Y-120974416D01*
X130125245Y-120970810D01*
X130270993Y-120963129D01*
X130455354Y-120929539D01*
X130455771Y-120929396D01*
X130607364Y-120877407D01*
X130607371Y-120877404D01*
X130607788Y-120877261D01*
X130669660Y-120844794D01*
X130736913Y-120809504D01*
X130736921Y-120809499D01*
X130737249Y-120809327D01*
X130852692Y-120728769D01*
X130963072Y-120638621D01*
X131077200Y-120542035D01*
X131077514Y-120541779D01*
X131204126Y-120441943D01*
X131204815Y-120441439D01*
X131352923Y-120341257D01*
X131353867Y-120340681D01*
X131525532Y-120246867D01*
X131534435Y-120245907D01*
X131539253Y-120248701D01*
G37*
%TD.AperFunction*%
%TD*%
%TA.AperFunction,Conductor*%
%TO.N,c1_r2*%
G36*
X74539253Y-115248701D02*
G01*
X74844157Y-115541912D01*
X75294516Y-115975000D01*
X75415731Y-116091567D01*
X75419319Y-116099771D01*
X75415731Y-116108433D01*
X75122421Y-116390495D01*
X74539253Y-116951299D01*
X74530914Y-116954564D01*
X74525532Y-116953133D01*
X74353867Y-116859318D01*
X74352923Y-116858742D01*
X74204815Y-116758560D01*
X74204126Y-116758056D01*
X74077514Y-116658220D01*
X74077200Y-116657964D01*
X73963072Y-116561378D01*
X73852692Y-116471230D01*
X73737249Y-116390672D01*
X73736921Y-116390500D01*
X73736913Y-116390495D01*
X73669660Y-116355205D01*
X73607788Y-116322738D01*
X73607371Y-116322595D01*
X73607364Y-116322592D01*
X73455771Y-116270603D01*
X73455354Y-116270460D01*
X73270993Y-116236870D01*
X73109668Y-116228368D01*
X73056834Y-116225584D01*
X73048753Y-116221726D01*
X73045750Y-116213900D01*
X73045750Y-115986100D01*
X73049177Y-115977827D01*
X73056834Y-115974416D01*
X73125245Y-115970810D01*
X73270993Y-115963129D01*
X73455354Y-115929539D01*
X73455771Y-115929396D01*
X73607364Y-115877407D01*
X73607371Y-115877404D01*
X73607788Y-115877261D01*
X73669660Y-115844794D01*
X73736913Y-115809504D01*
X73736921Y-115809499D01*
X73737249Y-115809327D01*
X73852692Y-115728769D01*
X73963072Y-115638621D01*
X74077200Y-115542035D01*
X74077514Y-115541779D01*
X74204126Y-115441943D01*
X74204815Y-115441439D01*
X74352923Y-115341257D01*
X74353867Y-115340681D01*
X74525532Y-115246867D01*
X74534435Y-115245907D01*
X74539253Y-115248701D01*
G37*
%TD.AperFunction*%
%TD*%
%TA.AperFunction,Conductor*%
%TO.N,c2_r4*%
G36*
X93539253Y-67248701D02*
G01*
X93844157Y-67541912D01*
X94294516Y-67975000D01*
X94415731Y-68091567D01*
X94419319Y-68099771D01*
X94415731Y-68108433D01*
X94122421Y-68390495D01*
X93539253Y-68951299D01*
X93530914Y-68954564D01*
X93525532Y-68953133D01*
X93353867Y-68859318D01*
X93352923Y-68858742D01*
X93204815Y-68758560D01*
X93204126Y-68758056D01*
X93077514Y-68658220D01*
X93077200Y-68657964D01*
X92963072Y-68561378D01*
X92852692Y-68471230D01*
X92737249Y-68390672D01*
X92736921Y-68390500D01*
X92736913Y-68390495D01*
X92669660Y-68355205D01*
X92607788Y-68322738D01*
X92607371Y-68322595D01*
X92607364Y-68322592D01*
X92455771Y-68270603D01*
X92455354Y-68270460D01*
X92270993Y-68236870D01*
X92109668Y-68228368D01*
X92056834Y-68225584D01*
X92048753Y-68221726D01*
X92045750Y-68213900D01*
X92045750Y-67986100D01*
X92049177Y-67977827D01*
X92056834Y-67974416D01*
X92125245Y-67970810D01*
X92270993Y-67963129D01*
X92455354Y-67929539D01*
X92455771Y-67929396D01*
X92607364Y-67877407D01*
X92607371Y-67877404D01*
X92607788Y-67877261D01*
X92669660Y-67844794D01*
X92736913Y-67809504D01*
X92736921Y-67809499D01*
X92737249Y-67809327D01*
X92852692Y-67728769D01*
X92963072Y-67638621D01*
X93077200Y-67542035D01*
X93077514Y-67541779D01*
X93204126Y-67441943D01*
X93204815Y-67441439D01*
X93352923Y-67341257D01*
X93353867Y-67340681D01*
X93525532Y-67246867D01*
X93534435Y-67245907D01*
X93539253Y-67248701D01*
G37*
%TD.AperFunction*%
%TD*%
%TA.AperFunction,Conductor*%
%TO.N,c1_r4*%
G36*
X73737306Y-76772259D02*
G01*
X73738714Y-76772421D01*
X73902874Y-76801507D01*
X73904298Y-76801853D01*
X74042404Y-76844680D01*
X74043591Y-76845120D01*
X74163774Y-76897205D01*
X74164486Y-76897542D01*
X74213555Y-76922858D01*
X74274874Y-76954494D01*
X74350893Y-76994630D01*
X74382946Y-77011553D01*
X74382954Y-77011557D01*
X74383081Y-77011624D01*
X74496644Y-77064121D01*
X74496936Y-77064220D01*
X74496942Y-77064223D01*
X74623073Y-77107229D01*
X74623440Y-77107354D01*
X74771349Y-77136691D01*
X74771742Y-77136715D01*
X74939787Y-77146983D01*
X74947835Y-77150908D01*
X74950393Y-77155704D01*
X74994666Y-77325199D01*
X75281102Y-78421802D01*
X75279877Y-78430673D01*
X75272739Y-78436079D01*
X75269554Y-78436457D01*
X74057494Y-78412763D01*
X74049291Y-78409175D01*
X74046361Y-78403852D01*
X74001947Y-78222772D01*
X74001659Y-78221055D01*
X73983935Y-78028100D01*
X73983886Y-78027038D01*
X73983749Y-77835332D01*
X73983756Y-77834920D01*
X73990129Y-77650235D01*
X73990131Y-77650186D01*
X73991839Y-77478345D01*
X73977675Y-77325199D01*
X73936445Y-77196345D01*
X73856953Y-77097377D01*
X73728004Y-77033893D01*
X73727014Y-77033776D01*
X73548730Y-77012709D01*
X73540916Y-77008335D01*
X73538403Y-77001090D01*
X73538403Y-76773840D01*
X73541830Y-76765567D01*
X73550736Y-76762157D01*
X73737306Y-76772259D01*
G37*
%TD.AperFunction*%
%TD*%
%TA.AperFunction,Conductor*%
%TO.N,GND*%
G36*
X91555733Y-145625705D02*
G01*
X92239688Y-146283431D01*
X92360903Y-146399998D01*
X92364491Y-146408202D01*
X92360903Y-146416864D01*
X91923758Y-146837245D01*
X91555733Y-147191157D01*
X91547394Y-147194422D01*
X91542023Y-147192996D01*
X91385754Y-147107798D01*
X91384835Y-147107241D01*
X91249231Y-147016140D01*
X91248560Y-147015653D01*
X91132416Y-146925053D01*
X91132116Y-146924811D01*
X91095200Y-146894008D01*
X91027242Y-146837304D01*
X90925696Y-146755730D01*
X90819485Y-146682919D01*
X90819161Y-146682752D01*
X90700857Y-146621776D01*
X90700852Y-146621774D01*
X90700470Y-146621577D01*
X90560514Y-146574411D01*
X90391477Y-146544127D01*
X90185222Y-146533431D01*
X90185222Y-146283431D01*
X90391477Y-146272734D01*
X90560514Y-146242450D01*
X90578618Y-146236349D01*
X90700470Y-146195284D01*
X90700854Y-146195086D01*
X90700859Y-146195084D01*
X90819161Y-146134109D01*
X90819485Y-146133942D01*
X90925696Y-146061131D01*
X91027242Y-145979557D01*
X91132116Y-145892050D01*
X91132416Y-145891808D01*
X91248560Y-145801208D01*
X91249231Y-145800721D01*
X91384835Y-145709620D01*
X91385754Y-145709063D01*
X91542023Y-145623866D01*
X91550927Y-145622914D01*
X91555733Y-145625705D01*
G37*
%TD.AperFunction*%
%TD*%
%TA.AperFunction,Conductor*%
%TO.N,c2_r2*%
G36*
X93539253Y-105248701D02*
G01*
X93844157Y-105541912D01*
X94294516Y-105975000D01*
X94415731Y-106091567D01*
X94419319Y-106099771D01*
X94415731Y-106108433D01*
X94122421Y-106390495D01*
X93539253Y-106951299D01*
X93530914Y-106954564D01*
X93525532Y-106953133D01*
X93353867Y-106859318D01*
X93352923Y-106858742D01*
X93204815Y-106758560D01*
X93204126Y-106758056D01*
X93077514Y-106658220D01*
X93077200Y-106657964D01*
X92963072Y-106561378D01*
X92852692Y-106471230D01*
X92737249Y-106390672D01*
X92736921Y-106390500D01*
X92736913Y-106390495D01*
X92669660Y-106355205D01*
X92607788Y-106322738D01*
X92607371Y-106322595D01*
X92607364Y-106322592D01*
X92455771Y-106270603D01*
X92455354Y-106270460D01*
X92270993Y-106236870D01*
X92109668Y-106228368D01*
X92056834Y-106225584D01*
X92048753Y-106221726D01*
X92045750Y-106213900D01*
X92045750Y-105986100D01*
X92049177Y-105977827D01*
X92056834Y-105974416D01*
X92125245Y-105970810D01*
X92270993Y-105963129D01*
X92455354Y-105929539D01*
X92455771Y-105929396D01*
X92607364Y-105877407D01*
X92607371Y-105877404D01*
X92607788Y-105877261D01*
X92669660Y-105844794D01*
X92736913Y-105809504D01*
X92736921Y-105809499D01*
X92737249Y-105809327D01*
X92852692Y-105728769D01*
X92963072Y-105638621D01*
X93077200Y-105542035D01*
X93077514Y-105541779D01*
X93204126Y-105441943D01*
X93204815Y-105441439D01*
X93352923Y-105341257D01*
X93353867Y-105340681D01*
X93525532Y-105246867D01*
X93534435Y-105245907D01*
X93539253Y-105248701D01*
G37*
%TD.AperFunction*%
%TD*%
%TA.AperFunction,Conductor*%
%TO.N,c1_r3*%
G36*
X74539253Y-96248701D02*
G01*
X74844157Y-96541912D01*
X75294516Y-96975000D01*
X75415731Y-97091567D01*
X75419319Y-97099771D01*
X75415731Y-97108433D01*
X75122421Y-97390495D01*
X74539253Y-97951299D01*
X74530914Y-97954564D01*
X74525532Y-97953133D01*
X74353867Y-97859318D01*
X74352923Y-97858742D01*
X74204815Y-97758560D01*
X74204126Y-97758056D01*
X74077514Y-97658220D01*
X74077200Y-97657964D01*
X73963072Y-97561378D01*
X73852692Y-97471230D01*
X73737249Y-97390672D01*
X73736921Y-97390500D01*
X73736913Y-97390495D01*
X73669660Y-97355205D01*
X73607788Y-97322738D01*
X73607371Y-97322595D01*
X73607364Y-97322592D01*
X73455771Y-97270603D01*
X73455354Y-97270460D01*
X73270993Y-97236870D01*
X73109668Y-97228368D01*
X73056834Y-97225584D01*
X73048753Y-97221726D01*
X73045750Y-97213900D01*
X73045750Y-96986100D01*
X73049177Y-96977827D01*
X73056834Y-96974416D01*
X73125245Y-96970810D01*
X73270993Y-96963129D01*
X73455354Y-96929539D01*
X73455771Y-96929396D01*
X73607364Y-96877407D01*
X73607371Y-96877404D01*
X73607788Y-96877261D01*
X73669660Y-96844794D01*
X73736913Y-96809504D01*
X73736921Y-96809499D01*
X73737249Y-96809327D01*
X73852692Y-96728769D01*
X73963072Y-96638621D01*
X74077200Y-96542035D01*
X74077514Y-96541779D01*
X74204126Y-96441943D01*
X74204815Y-96441439D01*
X74352923Y-96341257D01*
X74353867Y-96340681D01*
X74525532Y-96246867D01*
X74534435Y-96245907D01*
X74539253Y-96248701D01*
G37*
%TD.AperFunction*%
%TD*%
%TA.AperFunction,Conductor*%
%TO.N,c3_r2*%
G36*
X112539253Y-110248701D02*
G01*
X112844157Y-110541912D01*
X113294516Y-110975000D01*
X113415731Y-111091567D01*
X113419319Y-111099771D01*
X113415731Y-111108433D01*
X113122421Y-111390495D01*
X112539253Y-111951299D01*
X112530914Y-111954564D01*
X112525532Y-111953133D01*
X112353867Y-111859318D01*
X112352923Y-111858742D01*
X112204815Y-111758560D01*
X112204126Y-111758056D01*
X112077514Y-111658220D01*
X112077200Y-111657964D01*
X111963072Y-111561378D01*
X111852692Y-111471230D01*
X111737249Y-111390672D01*
X111736921Y-111390500D01*
X111736913Y-111390495D01*
X111669660Y-111355205D01*
X111607788Y-111322738D01*
X111607371Y-111322595D01*
X111607364Y-111322592D01*
X111455771Y-111270603D01*
X111455354Y-111270460D01*
X111270993Y-111236870D01*
X111109668Y-111228368D01*
X111056834Y-111225584D01*
X111048753Y-111221726D01*
X111045750Y-111213900D01*
X111045750Y-110986100D01*
X111049177Y-110977827D01*
X111056834Y-110974416D01*
X111125245Y-110970810D01*
X111270993Y-110963129D01*
X111455354Y-110929539D01*
X111455771Y-110929396D01*
X111607364Y-110877407D01*
X111607371Y-110877404D01*
X111607788Y-110877261D01*
X111669660Y-110844794D01*
X111736913Y-110809504D01*
X111736921Y-110809499D01*
X111737249Y-110809327D01*
X111852692Y-110728769D01*
X111963072Y-110638621D01*
X112077200Y-110542035D01*
X112077514Y-110541779D01*
X112204126Y-110441943D01*
X112204815Y-110441439D01*
X112352923Y-110341257D01*
X112353867Y-110340681D01*
X112525532Y-110246867D01*
X112534435Y-110245907D01*
X112539253Y-110248701D01*
G37*
%TD.AperFunction*%
%TD*%
%TA.AperFunction,Conductor*%
%TO.N,c4_r4*%
G36*
X131539253Y-82248701D02*
G01*
X131844157Y-82541912D01*
X132294516Y-82975000D01*
X132415731Y-83091567D01*
X132419319Y-83099771D01*
X132415731Y-83108433D01*
X132122421Y-83390495D01*
X131539253Y-83951299D01*
X131530914Y-83954564D01*
X131525532Y-83953133D01*
X131353867Y-83859318D01*
X131352923Y-83858742D01*
X131204815Y-83758560D01*
X131204126Y-83758056D01*
X131077514Y-83658220D01*
X131077200Y-83657964D01*
X130963072Y-83561378D01*
X130852692Y-83471230D01*
X130737249Y-83390672D01*
X130736921Y-83390500D01*
X130736913Y-83390495D01*
X130669660Y-83355205D01*
X130607788Y-83322738D01*
X130607371Y-83322595D01*
X130607364Y-83322592D01*
X130455771Y-83270603D01*
X130455354Y-83270460D01*
X130270993Y-83236870D01*
X130109668Y-83228368D01*
X130056834Y-83225584D01*
X130048753Y-83221726D01*
X130045750Y-83213900D01*
X130045750Y-82986100D01*
X130049177Y-82977827D01*
X130056834Y-82974416D01*
X130125245Y-82970810D01*
X130270993Y-82963129D01*
X130455354Y-82929539D01*
X130455771Y-82929396D01*
X130607364Y-82877407D01*
X130607371Y-82877404D01*
X130607788Y-82877261D01*
X130669660Y-82844794D01*
X130736913Y-82809504D01*
X130736921Y-82809499D01*
X130737249Y-82809327D01*
X130852692Y-82728769D01*
X130963072Y-82638621D01*
X131077200Y-82542035D01*
X131077514Y-82541779D01*
X131204126Y-82441943D01*
X131204815Y-82441439D01*
X131352923Y-82341257D01*
X131353867Y-82340681D01*
X131525532Y-82246867D01*
X131534435Y-82245907D01*
X131539253Y-82248701D01*
G37*
%TD.AperFunction*%
%TD*%
%TA.AperFunction,Conductor*%
%TO.N,c3_r3*%
G36*
X112539253Y-91248701D02*
G01*
X112844157Y-91541912D01*
X113294516Y-91975000D01*
X113415731Y-92091567D01*
X113419319Y-92099771D01*
X113415731Y-92108433D01*
X113122421Y-92390495D01*
X112539253Y-92951299D01*
X112530914Y-92954564D01*
X112525532Y-92953133D01*
X112353867Y-92859318D01*
X112352923Y-92858742D01*
X112204815Y-92758560D01*
X112204126Y-92758056D01*
X112077514Y-92658220D01*
X112077200Y-92657964D01*
X111963072Y-92561378D01*
X111852692Y-92471230D01*
X111737249Y-92390672D01*
X111736921Y-92390500D01*
X111736913Y-92390495D01*
X111669660Y-92355205D01*
X111607788Y-92322738D01*
X111607371Y-92322595D01*
X111607364Y-92322592D01*
X111455771Y-92270603D01*
X111455354Y-92270460D01*
X111270993Y-92236870D01*
X111109668Y-92228368D01*
X111056834Y-92225584D01*
X111048753Y-92221726D01*
X111045750Y-92213900D01*
X111045750Y-91986100D01*
X111049177Y-91977827D01*
X111056834Y-91974416D01*
X111125245Y-91970810D01*
X111270993Y-91963129D01*
X111455354Y-91929539D01*
X111455771Y-91929396D01*
X111607364Y-91877407D01*
X111607371Y-91877404D01*
X111607788Y-91877261D01*
X111669660Y-91844794D01*
X111736913Y-91809504D01*
X111736921Y-91809499D01*
X111737249Y-91809327D01*
X111852692Y-91728769D01*
X111963072Y-91638621D01*
X112077200Y-91542035D01*
X112077514Y-91541779D01*
X112204126Y-91441943D01*
X112204815Y-91441439D01*
X112352923Y-91341257D01*
X112353867Y-91340681D01*
X112525532Y-91246867D01*
X112534435Y-91245907D01*
X112539253Y-91248701D01*
G37*
%TD.AperFunction*%
%TD*%
%TA.AperFunction,Conductor*%
%TO.N,GND*%
G36*
X89552304Y-160561175D02*
G01*
X89555714Y-160568810D01*
X89565768Y-160752847D01*
X89565842Y-160753235D01*
X89565843Y-160753241D01*
X89596181Y-160911731D01*
X89596272Y-160912205D01*
X89644414Y-161043254D01*
X89644662Y-161043684D01*
X89644664Y-161043688D01*
X89680419Y-161105650D01*
X89707985Y-161153420D01*
X89784777Y-161250134D01*
X89872582Y-161340825D01*
X89872645Y-161340885D01*
X89872654Y-161340894D01*
X89933319Y-161398725D01*
X89969192Y-161432923D01*
X90072163Y-161533625D01*
X90072599Y-161534073D01*
X90170604Y-161640824D01*
X90179680Y-161650710D01*
X90180290Y-161651432D01*
X90284519Y-161785203D01*
X90286901Y-161793835D01*
X90284949Y-161798996D01*
X90107965Y-162057815D01*
X89654394Y-162721112D01*
X89646895Y-162726007D01*
X89637759Y-162723900D01*
X89472593Y-162601216D01*
X88741025Y-162057814D01*
X88736428Y-162050131D01*
X88736950Y-162044585D01*
X88798212Y-161868162D01*
X88798650Y-161867079D01*
X88869603Y-161714015D01*
X88870055Y-161713139D01*
X88944939Y-161582139D01*
X88945256Y-161581617D01*
X89020932Y-161463917D01*
X89020953Y-161463884D01*
X89094045Y-161351042D01*
X89094052Y-161351030D01*
X89094132Y-161350907D01*
X89161350Y-161234276D01*
X89161467Y-161234016D01*
X89219182Y-161105650D01*
X89219183Y-161105648D01*
X89219332Y-161105316D01*
X89264803Y-160955357D01*
X89294487Y-160775725D01*
X89304568Y-160568878D01*
X89308393Y-160560782D01*
X89316254Y-160557748D01*
X89544031Y-160557748D01*
X89552304Y-160561175D01*
G37*
%TD.AperFunction*%
%TD*%
%TA.AperFunction,Conductor*%
%TO.N,GND*%
G36*
X89631769Y-145981859D02*
G01*
X89632862Y-145981958D01*
X89673498Y-145987570D01*
X89802505Y-146005386D01*
X89803581Y-146005586D01*
X89950472Y-146040107D01*
X89951319Y-146040340D01*
X90084247Y-146082330D01*
X90084677Y-146082475D01*
X90212302Y-146128298D01*
X90212347Y-146128314D01*
X90343001Y-146174178D01*
X90343019Y-146174184D01*
X90343145Y-146174228D01*
X90485457Y-146216420D01*
X90578618Y-146236349D01*
X90647884Y-146251166D01*
X90839023Y-146274744D01*
X91067476Y-146283431D01*
X91067476Y-146533431D01*
X90902186Y-146543998D01*
X90767878Y-146574590D01*
X90659112Y-146623541D01*
X90570449Y-146689185D01*
X90496450Y-146769856D01*
X90431676Y-146863890D01*
X90370688Y-146969620D01*
X90370650Y-146969691D01*
X90370639Y-146969710D01*
X90308821Y-147083947D01*
X90308046Y-147085380D01*
X90238436Y-147209286D01*
X90238171Y-147209730D01*
X90156046Y-147340331D01*
X89051021Y-147069193D01*
X89193848Y-146656262D01*
X89193849Y-146656260D01*
X89427261Y-145981435D01*
X89433204Y-145974737D01*
X89438819Y-145973571D01*
X89631769Y-145981859D01*
G37*
%TD.AperFunction*%
%TD*%
%TA.AperFunction,Conductor*%
%TO.N,GND*%
G36*
X90218780Y-147231467D02*
G01*
X90181390Y-147300047D01*
X90129480Y-147395259D01*
X90128920Y-147396183D01*
X90037819Y-147531787D01*
X90037332Y-147532458D01*
X89946732Y-147648602D01*
X89946490Y-147648902D01*
X89858983Y-147753776D01*
X89777409Y-147855322D01*
X89704598Y-147961533D01*
X89643256Y-148080548D01*
X89596090Y-148220504D01*
X89565806Y-148389541D01*
X89565787Y-148389911D01*
X89555685Y-148584703D01*
X89551835Y-148592788D01*
X89544001Y-148595797D01*
X89316219Y-148595797D01*
X89307946Y-148592370D01*
X89304535Y-148584703D01*
X89294432Y-148389911D01*
X89294413Y-148389541D01*
X89264129Y-148220504D01*
X89216963Y-148080548D01*
X89155621Y-147961533D01*
X89082810Y-147855322D01*
X89001236Y-147753776D01*
X88913729Y-147648902D01*
X88913487Y-147648602D01*
X88822887Y-147532458D01*
X88822400Y-147531787D01*
X88731299Y-147396183D01*
X88730739Y-147395259D01*
X88645545Y-147238996D01*
X88644593Y-147230092D01*
X88647384Y-147225286D01*
X89192553Y-146658378D01*
X89192554Y-146658376D01*
X89430110Y-146411347D01*
X90218780Y-147231467D01*
G37*
%TD.AperFunction*%
%TD*%
%TA.AperFunction,Conductor*%
%TO.N,P18*%
G36*
X105737854Y-158337284D02*
G01*
X105898920Y-158498350D01*
X105902347Y-158506623D01*
X105899337Y-158514456D01*
X105768493Y-158659612D01*
X105670381Y-158800554D01*
X105604768Y-158932869D01*
X105563987Y-159060400D01*
X105540370Y-159186988D01*
X105540348Y-159187194D01*
X105526247Y-159316473D01*
X105513967Y-159452508D01*
X105513926Y-159452891D01*
X105495862Y-159599093D01*
X105495731Y-159599912D01*
X105464266Y-159760200D01*
X105464011Y-159761242D01*
X105413755Y-159931990D01*
X105408133Y-159938958D01*
X105402763Y-159940384D01*
X104643050Y-159955235D01*
X104285914Y-159962216D01*
X104277575Y-159958951D01*
X104273987Y-159950289D01*
X104291376Y-159060753D01*
X104295819Y-158833442D01*
X104299407Y-158825239D01*
X104304213Y-158822448D01*
X104474955Y-158772193D01*
X104476005Y-158771936D01*
X104528614Y-158761608D01*
X104636303Y-158740469D01*
X104637096Y-158740342D01*
X104747061Y-158726755D01*
X104783311Y-158722276D01*
X104783694Y-158722235D01*
X104919729Y-158709955D01*
X105049214Y-158695832D01*
X105049410Y-158695795D01*
X105049413Y-158695795D01*
X105175449Y-158672281D01*
X105175451Y-158672280D01*
X105175802Y-158672215D01*
X105303333Y-158631434D01*
X105435648Y-158565821D01*
X105576590Y-158467709D01*
X105721283Y-158337284D01*
X105721747Y-158336866D01*
X105730187Y-158333873D01*
X105737854Y-158337284D01*
G37*
%TD.AperFunction*%
%TD*%
%TA.AperFunction,Conductor*%
%TO.N,c3_r4*%
G36*
X112539253Y-72248701D02*
G01*
X112844157Y-72541912D01*
X113294516Y-72975000D01*
X113415731Y-73091567D01*
X113419319Y-73099771D01*
X113415731Y-73108433D01*
X113122421Y-73390495D01*
X112539253Y-73951299D01*
X112530914Y-73954564D01*
X112525532Y-73953133D01*
X112353867Y-73859318D01*
X112352923Y-73858742D01*
X112204815Y-73758560D01*
X112204126Y-73758056D01*
X112077514Y-73658220D01*
X112077200Y-73657964D01*
X111963072Y-73561378D01*
X111852692Y-73471230D01*
X111737249Y-73390672D01*
X111736921Y-73390500D01*
X111736913Y-73390495D01*
X111669660Y-73355205D01*
X111607788Y-73322738D01*
X111607371Y-73322595D01*
X111607364Y-73322592D01*
X111455771Y-73270603D01*
X111455354Y-73270460D01*
X111270993Y-73236870D01*
X111109668Y-73228368D01*
X111056834Y-73225584D01*
X111048753Y-73221726D01*
X111045750Y-73213900D01*
X111045750Y-72986100D01*
X111049177Y-72977827D01*
X111056834Y-72974416D01*
X111125245Y-72970810D01*
X111270993Y-72963129D01*
X111455354Y-72929539D01*
X111455771Y-72929396D01*
X111607364Y-72877407D01*
X111607371Y-72877404D01*
X111607788Y-72877261D01*
X111669660Y-72844794D01*
X111736913Y-72809504D01*
X111736921Y-72809499D01*
X111737249Y-72809327D01*
X111852692Y-72728769D01*
X111963072Y-72638621D01*
X112077200Y-72542035D01*
X112077514Y-72541779D01*
X112204126Y-72441943D01*
X112204815Y-72441439D01*
X112352923Y-72341257D01*
X112353867Y-72340681D01*
X112525532Y-72246867D01*
X112534435Y-72245907D01*
X112539253Y-72248701D01*
G37*
%TD.AperFunction*%
%TD*%
%TA.AperFunction,Conductor*%
%TO.N,P15*%
G36*
X107904207Y-158923822D02*
G01*
X107912411Y-158927410D01*
X107915189Y-158932172D01*
X107953893Y-159061783D01*
X107954085Y-159062512D01*
X107985037Y-159197267D01*
X107985094Y-159197530D01*
X108011456Y-159327060D01*
X108038650Y-159448336D01*
X108072150Y-159558492D01*
X108117451Y-159654781D01*
X108180048Y-159734455D01*
X108265438Y-159794767D01*
X108266243Y-159795038D01*
X108266244Y-159795038D01*
X108378473Y-159832753D01*
X108378476Y-159832754D01*
X108379117Y-159832969D01*
X108379793Y-159833030D01*
X108379797Y-159833031D01*
X108515936Y-159845351D01*
X108523866Y-159849509D01*
X108526581Y-159857003D01*
X108526581Y-160084600D01*
X108523154Y-160092873D01*
X108514867Y-160096300D01*
X108328281Y-160096077D01*
X108328250Y-160096077D01*
X108161020Y-160095435D01*
X108160988Y-160095435D01*
X108017688Y-160094489D01*
X108017659Y-160094489D01*
X107891126Y-160093341D01*
X107891126Y-160093333D01*
X107891107Y-160093341D01*
X107790188Y-160092261D01*
X107774254Y-160092091D01*
X107774251Y-160092091D01*
X107659899Y-160090841D01*
X107540932Y-160089693D01*
X107410214Y-160088747D01*
X107260608Y-160088105D01*
X107094001Y-160087881D01*
X107085733Y-160084443D01*
X107082697Y-160079138D01*
X107022718Y-159849509D01*
X106868649Y-159259668D01*
X106779067Y-158916708D01*
X106780292Y-158907837D01*
X106787430Y-158902431D01*
X106790615Y-158902053D01*
X107904207Y-158923822D01*
G37*
%TD.AperFunction*%
%TD*%
%TA.AperFunction,Conductor*%
%TO.N,P20*%
G36*
X100735030Y-159219416D02*
G01*
X100896096Y-159380482D01*
X100899523Y-159388755D01*
X100896513Y-159396588D01*
X100765669Y-159541744D01*
X100667557Y-159682686D01*
X100601944Y-159815001D01*
X100561163Y-159942532D01*
X100537546Y-160069120D01*
X100537524Y-160069326D01*
X100523423Y-160198605D01*
X100511143Y-160334640D01*
X100511102Y-160335023D01*
X100493038Y-160481225D01*
X100492907Y-160482044D01*
X100461442Y-160642332D01*
X100461187Y-160643374D01*
X100410931Y-160814122D01*
X100405309Y-160821090D01*
X100399939Y-160822516D01*
X99640226Y-160837367D01*
X99283090Y-160844348D01*
X99274751Y-160841083D01*
X99271163Y-160832421D01*
X99288552Y-159942885D01*
X99292995Y-159715574D01*
X99296583Y-159707371D01*
X99301389Y-159704580D01*
X99472131Y-159654325D01*
X99473181Y-159654068D01*
X99525790Y-159643740D01*
X99633479Y-159622601D01*
X99634272Y-159622474D01*
X99744237Y-159608887D01*
X99780487Y-159604408D01*
X99780870Y-159604367D01*
X99916905Y-159592087D01*
X100046390Y-159577964D01*
X100046586Y-159577927D01*
X100046589Y-159577927D01*
X100172625Y-159554413D01*
X100172627Y-159554412D01*
X100172978Y-159554347D01*
X100300509Y-159513566D01*
X100432824Y-159447953D01*
X100573766Y-159349841D01*
X100718459Y-159219416D01*
X100718923Y-159218998D01*
X100727363Y-159216005D01*
X100735030Y-159219416D01*
G37*
%TD.AperFunction*%
%TD*%
M02*
