<?xml version="1.0" encoding="UTF-8" standalone="no"?>
<!-- Created with Inkscape (http://www.inkscape.org/) -->

<svg
   width="115.0781mm"
   height="122.6553mm"
   viewBox="0 0 115.0781 122.65529"
   version="1.1"
   id="svg1"
   xml:space="preserve"
   inkscape:version="1.3.1 (91b66b0783, 2023-11-16)"
   sodipodi:docname="Ai-Backing-Laser-Engrave-3.svg"
   xmlns:inkscape="http://www.inkscape.org/namespaces/inkscape"
   xmlns:sodipodi="http://sodipodi.sourceforge.net/DTD/sodipodi-0.dtd"
   xmlns="http://www.w3.org/2000/svg"
   xmlns:svg="http://www.w3.org/2000/svg"><sodipodi:namedview
     id="namedview1"
     pagecolor="#ffffff"
     bordercolor="#000000"
     borderopacity="0.25"
     inkscape:showpageshadow="2"
     inkscape:pageopacity="0.0"
     inkscape:pagecheckerboard="0"
     inkscape:deskcolor="#d1d1d1"
     inkscape:document-units="mm"
     inkscape:zoom="1.4142136"
     inkscape:cx="235.46656"
     inkscape:cy="243.95184"
     inkscape:window-width="2558"
     inkscape:window-height="1360"
     inkscape:window-x="0"
     inkscape:window-y="0"
     inkscape:window-maximized="0"
     inkscape:current-layer="g13" /><defs
     id="defs1"><rect
       x="188.96185"
       y="330.04886"
       width="132.62855"
       height="74.941899"
       id="rect1" /></defs><g
     inkscape:label="Layer 1"
     inkscape:groupmode="layer"
     id="layer1"
     transform="translate(-37.286139,-55.929714)"><g
       id="g12"
       transform="translate(-24.274549,2.4042708)"><g
         id="g13"
         transform="translate(-0.00251167,4.4272616e-4)"
         style="display:inline"><g
           style="display:inline;fill:none;stroke:#d0d2cd;stroke-width:0.15;stroke-linecap:round;stroke-linejoin:round;stroke-opacity:1"
           id="g1656"
           transform="matrix(-1,0,0,1,238.2045,0)"><path
             d="m 139.7899,151.3681 a 2,2 0 0 0 2.3169,1.6223"
             id="path1609" /><path
             d="m 157.8549,169.5067 16.7418,-2.952"
             id="path1610" /><path
             d="m 139.7899,151.3681 -2.1213,-12.0302"
             id="path1611" /><path
             d="m 63.6382,139.6 h 15"
             id="path1612" /><path
             d="m 120.085,174.1357 a 2,2 0 0 0 2.3168,1.6223"
             id="path1613" /><path
             d="m 118.6382,136.6 v 1.6365"
             id="path1614" /><path
             d="m 118.6382,66.6 a 2,2 0 0 0 2,2"
             id="path1615" /><path
             d="m 99.6382,56.6 a 2,2 0 0 0 2,2"
             id="path1616" /><path
             d="m 82.6382,129.6001 a 1.9999,1.9999 0 0 0 -2,1.9999"
             id="path1617" /><path
             d="m 118.6383,60.6 a 2,2 0 0 0 -2.0001,-2"
             id="path1618" /><path
             d="m 63.6382,63.6001 a 1.9999,1.9999 0 0 0 -2,1.9999"
             id="path1619" /><path
             d="m 173.6142,149.4657 a 1.9999,1.9999 0 0 0 -2.3169,-1.6224"
             id="path1620" /><path
             d="m 139.1436,172.806 18.7113,-3.2993"
             id="path1621" /><path
             d="m 137.6383,138.9906 a 1.9999,1.9999 0 0 0 0.0303,0.3473"
             id="path1622" /><path
             d="m 118.0697,162.707 2.0152,11.4287"
             id="path1623" /><path
             d="m 122.4018,175.758 16.7418,-2.952"
             id="path1624" /><path
             d="m 61.6382,137.6 a 2,2 0 0 0 2,2"
             id="path1625" /><path
             d="m 154.5556,150.7954 -12.4488,2.195"
             id="path1626" /><path
             d="m 118.6383,136.6 a 2,2 0 0 0 -2.0001,-2"
             id="path1627" /><path
             d="m 171.2973,147.8433 -16.7417,2.9521"
             id="path1628" /><path
             d="m 78.1653,147.4038 3.1257,17.7266"
             id="path1629" /><path
             d="m 174.5967,166.5547 a 2,2 0 0 0 1.6223,-2.3169"
             id="path1630" /><path
             d="m 83.6079,166.7527 32.1449,-5.668"
             id="path1631" /><path
             d="m 116.6382,58.6 h -15"
             id="path1632" /><path
             d="m 80.6382,137.6 v -6"
             id="path1633" /><path
             d="m 99.6382,56.6 v -1"
             id="path1634" /><path
             d="m 78.6382,63.6 h -15"
             id="path1635" /><path
             d="m 101.6382,134.6 h 15"
             id="path1636" /><path
             d="m 99.6382,131.6 v 1"
             id="path1637" /><path
             d="m 82.6382,53.6001 a 1.9999,1.9999 0 0 0 -2,1.9999"
             id="path1638" /><path
             d="m 61.6382,137.6 v -72"
             id="path1639" /><path
             d="m 99.6382,132.6 a 2,2 0 0 0 2,2"
             id="path1640" /><path
             d="m 99.6383,55.6 a 2,2 0 0 0 -2.0001,-2"
             id="path1641" /><path
             d="M 78.6383,139.5999 A 1.9999,1.9999 0 0 0 80.6382,137.6"
             id="path1642" /><path
             d="m 137.6383,70.6 a 2,2 0 0 0 -2.0001,-2"
             id="path1643" /><path
             d="m 118.6382,138.2365 -38.8506,6.8504"
             id="path1644" /><path
             d="M 137.6382,138.9906 V 70.6"
             id="path1645" /><path
             d="M 78.6383,63.5999 A 1.9999,1.9999 0 0 0 80.6382,61.6"
             id="path1646" /><path
             d="m 118.6382,66.6 v -6"
             id="path1647" /><path
             d="m 97.6382,53.6 h -15"
             id="path1648" /><path
             d="m 99.6383,131.6 a 2,2 0 0 0 -2.0001,-2"
             id="path1649" /><path
             d="m 135.6382,68.6 h -15"
             id="path1650" /><path
             d="m 176.219,164.2378 -2.6047,-14.7721"
             id="path1651" /><path
             d="m 82.6382,129.6 h 15"
             id="path1652" /><path
             d="m 80.6382,55.6 v 6"
             id="path1653" /><path
             d="m 79.7876,145.0869 a 2,2 0 0 0 -1.6223,2.3169"
             id="path1654" /><path
             d="m 118.0697,162.707 a 2,2 0 0 0 -2.3169,-1.6223"
             id="path1655" /><path
             d="m 81.291,165.1304 a 2,2 0 0 0 2.3169,1.6223"
             id="path1656" /></g><text
           xml:space="preserve"
           transform="matrix(0.26458333,0,0,0.26458333,61.5632,53.525)"
           id="text1"
           style="white-space:pre;shape-inside:url(#rect1);display:inline;fill:#000000" /><path
           style="fill:#000000"
           d="m 119.9179,152.97586 0.0383,-0.21714 -0.43427,-0.0766 -0.43427,-0.0766 0.0191,-0.10856 0.0191,-0.10857 0.10856,0.0191 0.10857,0.0191 0.0191,-0.10858 0.0191,-0.10856 0.10857,0.0191 0.10857,0.0191 0.0191,-0.10856 0.0191,-0.10858 0.10857,0.0191 0.10857,0.0191 0.0191,-0.10856 0.0191,-0.10857 0.10857,0.0191 0.10856,0.0191 0.0191,-0.10857 0.0192,-0.10857 0.10857,0.0191 0.10857,0.0191 -0.0766,0.43428 -0.0766,0.43428 0.10856,0.0191 0.10858,0.0191 -0.0191,0.10857 -0.0192,0.10856 -0.10857,-0.0191 -0.10857,-0.0191 -0.0383,0.21714 -0.0383,0.21714 -0.10857,-0.0191 -0.10857,-0.0191 z m 0.11486,-0.65141 0.0383,-0.21714 -0.10856,-0.0191 -0.10857,-0.0191 -0.0191,0.10858 -0.0191,0.10856 -0.10858,-0.0191 -0.10856,-0.0191 -0.0191,0.10857 -0.0191,0.10857 0.21714,0.0383 0.21713,0.0383 z m 0.73454,0.91312 0.0192,-0.10856 -0.10858,-0.0191 -0.10856,-0.0191 0.0383,-0.21714 0.0383,-0.21713 0.10857,0.0191 0.10857,0.0191 0.0191,-0.10858 0.0191,-0.10856 -0.10858,-0.0191 -0.10856,-0.0191 0.0383,-0.21714 0.0383,-0.21713 0.10857,0.0191 0.10857,0.0191 0.0191,-0.10857 0.0192,-0.10857 0.21713,0.0383 0.21714,0.0383 -0.0191,0.10857 -0.0191,0.10857 0.10857,0.0191 0.10857,0.0192 -0.0383,0.21713 -0.0383,0.21714 -0.10858,-0.0192 -0.10856,-0.0191 -0.0191,0.10857 -0.0191,0.10857 0.10857,0.0191 0.10857,0.0192 -0.0383,0.21713 -0.0383,0.21714 -0.10858,-0.0191 -0.10856,-0.0191 -0.0191,0.10857 -0.0191,0.10857 -0.21714,-0.0383 -0.21713,-0.0383 z m 0.4917,-0.24913 0.0383,-0.21713 -0.21714,-0.0383 -0.21713,-0.0383 -0.0383,0.21713 -0.0383,0.21714 0.21713,0.0383 0.21714,0.0383 z m 0.11487,-0.65141 0.0383,-0.21713 -0.21714,-0.0383 -0.21713,-0.0383 -0.0383,0.21713 -0.0383,0.21714 0.21713,0.0383 0.21714,0.0383 z m 1.34766,1.24513 0.0191,-0.10857 0.3257,0.0574 0.32571,0.0574 0.0383,-0.21714 0.0383,-0.21713 -0.3257,-0.0574 -0.32571,-0.0574 0.0766,-0.43428 0.0766,-0.43427 0.43427,0.0766 0.43428,0.0766 -0.0191,0.10857 -0.0191,0.10857 -0.32571,-0.0574 -0.32571,-0.0574 -0.0383,0.21713 -0.0383,0.21714 0.32571,0.0574 0.3257,0.0574 -0.0766,0.43427 -0.0766,0.43428 -0.43428,-0.0766 -0.43427,-0.0766 z m 1.41768,-0.42169 0.134,-0.75998 0.43427,0.0766 0.43428,0.0766 -0.13401,0.75997 -0.13401,0.75999 -0.43427,-0.0766 -0.43427,-0.0766 z m 0.65141,0.11486 0.0957,-0.54284 -0.21714,-0.0383 -0.21713,-0.0383 -0.0957,0.54283 -0.0957,0.54285 0.21713,0.0383 0.21714,0.0383 z m 1.18795,0.88113 0.0191,-0.10856 0.10858,0.0191 0.10856,0.0191 0.0191,-0.10856 0.0191,-0.10858 0.10857,0.0191 0.10857,0.0191 0.0191,-0.10856 0.0191,-0.10857 0.10856,0.0191 0.10857,0.0191 0.0191,-0.10858 0.0191,-0.10856 0.10857,0.0191 0.10857,0.0191 0.0383,-0.21714 0.0383,-0.21713 -0.32571,-0.0574 -0.3257,-0.0574 -0.0191,0.10857 -0.0191,0.10856 -0.10856,-0.0191 -0.10858,-0.0191 0.0191,-0.10856 0.0191,-0.10857 0.10857,0.0191 0.10857,0.0191 0.0191,-0.10856 0.0191,-0.10858 0.3257,0.0574 0.32571,0.0574 -0.0191,0.10858 -0.0191,0.10856 0.10857,0.0191 0.10857,0.0191 -0.0383,0.21713 -0.0383,0.21714 -0.10858,-0.0191 -0.10856,-0.0191 -0.0191,0.10857 -0.0191,0.10857 -0.10857,-0.0191 -0.10857,-0.0191 -0.0191,0.10856 -0.0192,0.10857 -0.10856,-0.0191 -0.10857,-0.0191 -0.0191,0.10858 -0.0191,0.10856 0.32571,0.0574 0.32571,0.0574 -0.0191,0.10857 -0.0191,0.10857 -0.54285,-0.0957 -0.54284,-0.0957 z m 1.51996,0.26801 0.0191,-0.10856 0.21713,0.0383 0.21714,0.0383 0.0957,-0.54285 0.0957,-0.54283 -0.21714,-0.0383 -0.21713,-0.0383 0.0191,-0.10856 0.0191,-0.10858 0.3257,0.0574 0.32571,0.0574 -0.11486,0.65142 -0.11486,0.65141 0.10856,0.0191 0.10857,0.0191 -0.0191,0.10857 -0.0191,0.10857 -0.43427,-0.0766 -0.43427,-0.0766 z m 1.10483,0.0829 0.0383,-0.21714 0.21713,0.0383 0.21714,0.0383 -0.0383,0.21714 -0.0383,0.21714 -0.21714,-0.0383 -0.21713,-0.0383 z m 1.06654,0.3 0.0191,-0.10856 -0.10857,-0.0191 -0.10857,-0.0191 0.0383,-0.21714 0.0383,-0.21713 0.10858,0.0191 0.10856,0.0191 0.0191,-0.10857 0.0191,-0.10857 -0.10856,-0.0191 -0.10858,-0.0191 0.0383,-0.21714 0.0383,-0.21713 0.10858,0.0191 0.10856,0.0191 0.0191,-0.10856 0.0191,-0.10858 0.21713,0.0383 0.21714,0.0383 -0.0191,0.10857 -0.0191,0.10857 0.10856,0.0191 0.10858,0.0191 -0.0383,0.21713 -0.0383,0.21714 -0.10857,-0.0191 -0.10857,-0.0191 -0.0191,0.10856 -0.0191,0.10858 0.10857,0.0191 0.10857,0.0191 -0.0383,0.21713 -0.0383,0.21714 -0.10857,-0.0191 -0.10857,-0.0191 -0.0191,0.10856 -0.0191,0.10858 -0.21714,-0.0383 -0.21713,-0.0383 z m 0.4917,-0.24913 0.0383,-0.21713 -0.21714,-0.0383 -0.21713,-0.0383 -0.0383,0.21714 -0.0383,0.21714 0.21713,0.0383 0.21714,0.0383 z m 0.11486,-0.65141 0.0383,-0.21713 -0.21715,-0.0383 -0.21713,-0.0383 -0.0383,0.21713 -0.0383,0.21714 0.21713,0.0383 0.21714,0.0383 z m 2.11393,0.70857 0.13401,-0.75997 0.10857,0.0191 0.10857,0.0191 -0.0383,0.21715 -0.0383,0.21713 0.10857,0.0191 0.10856,0.0191 -0.0191,0.10858 -0.0191,0.10856 0.10857,0.0191 0.10857,0.0191 0.0574,-0.32571 0.0574,-0.3257 0.10856,0.0191 0.10858,0.0191 -0.13401,0.75997 -0.134,0.75999 -0.10858,-0.0191 -0.10856,-0.0191 0.0191,-0.10857 0.0191,-0.10857 -0.10856,-0.0191 -0.10858,-0.0191 0.0383,-0.21714 0.0383,-0.21713 -0.10857,-0.0191 -0.10856,-0.0191 -0.0574,0.3257 -0.0574,0.32571 -0.10857,-0.0192 -0.10857,-0.0191 z m 1.62223,0.95771 0.0192,-0.10856 0.10856,0.0191 0.10858,0.0191 0.0191,-0.10856 0.0191,-0.10858 0.10857,0.0191 0.10856,0.0191 0.0191,-0.10857 0.0191,-0.10856 0.10858,0.0191 0.10856,0.0192 0.0191,-0.10858 0.0191,-0.10856 0.10856,0.0191 0.10858,0.0191 0.0383,-0.21714 0.0383,-0.21713 -0.3257,-0.0574 -0.32571,-0.0574 -0.0191,0.10857 -0.0191,0.10856 -0.10858,-0.0191 -0.10856,-0.0192 0.0191,-0.10856 0.0191,-0.10857 0.10857,0.0192 0.10857,0.0191 0.0191,-0.10856 0.0191,-0.10858 0.3257,0.0574 0.32571,0.0574 -0.0191,0.10858 -0.0191,0.10856 0.10857,0.0191 0.10856,0.0191 -0.0383,0.21713 -0.0383,0.21714 -0.10857,-0.0191 -0.10856,-0.0191 -0.0191,0.10857 -0.0192,0.10857 -0.10857,-0.0191 -0.10857,-0.0191 -0.0191,0.10856 -0.0191,0.10857 -0.10856,-0.0191 -0.10858,-0.0191 -0.0191,0.10857 -0.0191,0.10857 0.3257,0.0574 0.32571,0.0574 -0.0191,0.10857 -0.0191,0.10857 -0.54284,-0.0957 -0.54284,-0.0957 z m 2.17137,0.38287 0.0191,-0.10856 0.10857,0.0191 0.10857,0.0191 0.0191,-0.10856 0.0191,-0.10858 0.10856,0.0191 0.10857,0.0191 0.0191,-0.10857 0.0191,-0.10856 0.10858,0.0191 0.10856,0.0191 0.0191,-0.10858 0.0191,-0.10856 0.10857,0.0191 0.10857,0.0191 0.0383,-0.21714 0.0383,-0.21713 -0.32571,-0.0574 -0.32571,-0.0574 -0.0191,0.10857 -0.0191,0.10856 -0.10857,-0.0191 -0.10857,-0.0191 0.0191,-0.10856 0.0191,-0.10857 0.10858,0.0191 0.10856,0.0191 0.0191,-0.10856 0.0191,-0.10858 0.32571,0.0574 0.3257,0.0574 -0.0191,0.10858 -0.0191,0.10856 0.10856,0.0191 0.10857,0.0191 -0.0383,0.21713 -0.0383,0.21714 -0.10856,-0.0191 -0.10857,-0.0191 -0.0191,0.10857 -0.0191,0.10857 -0.10857,-0.0191 -0.10857,-0.0191 -0.0191,0.10856 -0.0191,0.10857 -0.10857,-0.0191 -0.10857,-0.0191 -0.0191,0.10857 -0.0191,0.10857 0.32571,0.0574 0.3257,0.0574 -0.0191,0.10857 -0.0191,0.10857 -0.54283,-0.0957 -0.54285,-0.0957 z m 1.51996,0.26801 0.0191,-0.10856 0.3257,0.0574 0.3257,0.0574 0.0383,-0.21715 0.0383,-0.21713 -0.21713,-0.0383 -0.21714,-0.0383 0.0191,-0.10857 0.0191,-0.10857 0.21714,0.0383 0.21713,0.0383 0.0383,-0.21714 0.0383,-0.21713 -0.32571,-0.0574 -0.32569,-0.0574 0.0191,-0.10856 0.0191,-0.10858 0.3257,0.0574 0.32571,0.0574 -0.0191,0.10858 -0.0191,0.10856 0.10857,0.0191 0.10857,0.0191 -0.0383,0.21713 -0.0383,0.21714 -0.10856,-0.0191 -0.10858,-0.0191 -0.0191,0.10857 -0.0191,0.10857 0.10857,0.0191 0.10857,0.0191 -0.0383,0.21713 -0.0383,0.21714 -0.10856,-0.0191 -0.10858,-0.0191 -0.0191,0.10856 -0.0191,0.10858 -0.3257,-0.0574 -0.3257,-0.0574 z m 2.62478,0.35088 0.0383,-0.21714 -0.43427,-0.0766 -0.43428,-0.0766 0.0191,-0.10857 0.0191,-0.10856 0.10857,0.0191 0.10857,0.0191 0.0191,-0.10858 0.0191,-0.10856 0.10856,0.0191 0.10858,0.0191 0.0191,-0.10856 0.0191,-0.10858 0.10857,0.0191 0.10856,0.0191 0.0191,-0.10857 0.0191,-0.10856 0.10858,0.0191 0.10856,0.0191 0.0191,-0.10857 0.0192,-0.10857 0.10856,0.0191 0.10857,0.0191 -0.0766,0.43427 -0.0766,0.43428 0.10857,0.0191 0.10857,0.0191 -0.0191,0.10857 -0.0191,0.10856 -0.10856,-0.0191 -0.10858,-0.0191 -0.0383,0.21715 -0.0383,0.21714 -0.10857,-0.0191 -0.10856,-0.0191 z m 0.11486,-0.65141 0.0383,-0.21714 -0.10856,-0.0191 -0.10858,-0.0191 -0.0191,0.10858 -0.0191,0.10856 -0.10857,-0.0191 -0.10856,-0.0191 -0.0191,0.10857 -0.0191,0.10857 0.21713,0.0383 0.21714,0.0383 z m 0.5174,0.87484 0.0191,-0.10857 0.3257,0.0574 0.32571,0.0574 0.0383,-0.21714 0.0383,-0.21713 -0.3257,-0.0574 -0.32571,-0.0574 0.0766,-0.43428 0.0766,-0.43427 0.43427,0.0766 0.43427,0.0766 -0.0191,0.10857 -0.0192,0.10857 -0.3257,-0.0574 -0.32571,-0.0574 -0.0383,0.21714 -0.0383,0.21714 0.3257,0.0574 0.32571,0.0574 -0.0766,0.43427 -0.0766,0.43428 -0.43427,-0.0766 -0.43427,-0.0766 z m 1.32196,0.12115 0.0383,-0.21714 0.21714,0.0383 0.21714,0.0383 -0.0383,0.21714 -0.0383,0.21714 -0.21714,-0.0383 -0.21714,-0.0383 z m 0.84941,0.26172 0.0191,-0.10857 0.3257,0.0574 0.32571,0.0574 0.0383,-0.21714 0.0383,-0.21713 -0.21714,-0.0383 -0.21714,-0.0383 0.0192,-0.10858 0.0191,-0.10856 0.21714,0.0383 0.21714,0.0383 0.0383,-0.21714 0.0383,-0.21713 -0.32571,-0.0574 -0.32571,-0.0574 0.0191,-0.10857 0.0191,-0.10857 0.32571,0.0574 0.3257,0.0574 -0.0191,0.10857 -0.0191,0.10857 0.10856,0.0191 0.10857,0.0191 -0.0383,0.21713 -0.0383,0.21714 -0.10856,-0.0191 -0.10857,-0.0191 -0.0191,0.10857 -0.0191,0.10857 0.10857,0.0191 0.10856,0.0191 -0.0383,0.21713 -0.0383,0.21714 -0.10856,-0.0191 -0.10857,-0.0191 -0.0191,0.10857 -0.0191,0.10857 -0.3257,-0.0574 -0.32571,-0.0574 z m 2.72049,-0.19197 0.13401,-0.75998 0.43427,0.0766 0.43428,0.0766 -0.0191,0.10858 -0.0191,0.10856 -0.32571,-0.0574 -0.3257,-0.0574 -0.0383,0.21713 -0.0383,0.21714 0.32571,0.0574 0.32571,0.0574 -0.0191,0.10857 -0.0191,0.10857 -0.32571,-0.0574 -0.3257,-0.0574 -0.0383,0.21713 -0.0383,0.21714 0.32571,0.0574 0.3257,0.0574 -0.0191,0.10857 -0.0191,0.10857 -0.43428,-0.0766 -0.43427,-0.0766 z m -23.62959,-4.39042 0.0191,-0.10857 -0.10857,-0.0191 -0.10856,-0.0191 0.0191,-0.10856 0.0191,-0.10857 0.10857,0.0191 0.10856,0.0191 0.0192,-0.10857 0.0191,-0.10857 0.10858,0.0191 0.10856,0.0191 -0.0191,0.10858 -0.0192,0.10857 0.10857,0.0191 0.10857,0.0191 -0.0191,0.10857 -0.0191,0.10856 -0.10858,-0.0191 -0.10856,-0.0191 -0.0191,0.10857 -0.0191,0.10857 -0.10857,-0.0191 -0.10857,-0.0191 z m 0.25543,-0.17885 0.0191,-0.10856 -0.10856,-0.0191 -0.10858,-0.0191 -0.0191,0.10856 -0.0191,0.10857 0.10857,0.0191 0.10857,0.0191 z m 3.03992,0.53602 0.0574,-0.32571 0.10856,0.0191 0.10857,0.0191 -0.0574,0.32571 -0.0574,0.3257 -0.10856,-0.0191 -0.10857,-0.0191 z m 5.4284,0.95717 0.0574,-0.3257 0.10857,0.0191 0.10857,0.0192 -0.0574,0.3257 -0.0574,0.32571 -0.10857,-0.0191 -0.10857,-0.0191 z m 0.43427,0.0766 0.0574,-0.32571 0.10857,0.0191 0.10857,0.0191 -0.0574,0.32571 -0.0574,0.3257 -0.10857,-0.0191 -0.10857,-0.0191 z m 4.30444,0.98288 0.0191,-0.10858 -0.10857,-0.0191 -0.10856,-0.0191 0.0191,-0.10857 0.0191,-0.10856 0.10857,0.0191 0.10856,0.0191 0.0191,-0.10856 0.0191,-0.10858 0.10858,0.0191 0.10856,0.0191 -0.0191,0.10857 -0.0191,0.10857 0.10857,0.0191 0.10857,0.0191 -0.0191,0.10856 -0.0191,0.10857 -0.10858,-0.0191 -0.10856,-0.0191 -0.0191,0.10858 -0.0191,0.10856 -0.10857,-0.0191 -0.10857,-0.0191 z m 0.25543,-0.17885 0.0191,-0.10857 -0.10856,-0.0191 -0.10858,-0.0191 -0.0191,0.10857 -0.0191,0.10856 0.10857,0.0191 0.10857,0.0191 z m 3.25705,0.5743 0.0574,-0.32571 0.10856,0.0191 0.10858,0.0191 -0.0574,0.32571 -0.0574,0.3257 -0.10858,-0.0191 -0.10857,-0.0191 z m 5.42841,0.95718 0.0574,-0.32571 0.10857,0.0191 0.10856,0.0191 -0.0574,0.3257 -0.0574,0.32571 -0.10856,-0.0191 -0.10857,-0.0191 z m 0.43427,0.0766 0.0574,-0.32571 0.10857,0.0191 0.10857,0.0191 -0.0574,0.32571 -0.0574,0.3257 -0.10856,-0.0191 -0.10857,-0.0191 z m -29.93309,-6.73328 0.0383,-0.21713 0.10857,0.0191 0.10856,0.0191 0.0383,-0.21714 0.0383,-0.21714 0.10857,0.0191 0.10857,0.0191 0.0574,-0.3257 0.0574,-0.3257 0.10856,0.0191 0.10857,0.0191 0.0574,-0.32571 0.0574,-0.3257 0.10857,0.0191 0.10857,0.0191 0.0383,-0.21714 0.0383,-0.21714 0.10857,0.0191 0.10857,0.0191 0.0574,-0.3257 0.0574,-0.3257 0.10857,0.0191 0.10856,0.0191 0.0383,-0.21714 0.0383,-0.21714 0.10857,0.0191 0.10857,0.0191 0.0574,-0.32569 0.0574,-0.32571 0.10856,0.0191 0.10857,0.0192 0.0191,-0.10858 0.0191,-0.10856 0.54284,0.0957 0.54285,0.0957 -0.0191,0.10857 -0.0191,0.10857 -0.10857,-0.0191 -0.10857,-0.0191 -0.0383,0.21713 -0.0383,0.21714 -0.10857,-0.0191 -0.10857,-0.0191 -0.0766,0.43427 -0.0766,0.43427 -0.10857,-0.0191 -0.10856,-0.0191 -0.0383,0.21714 -0.0383,0.21713 -0.10858,-0.0191 -0.10856,-0.0191 -0.0574,0.3257 -0.0574,0.32571 -0.10856,-0.0191 -0.10858,-0.0191 -0.0383,0.21714 -0.0383,0.21714 -0.10857,-0.0191 -0.10856,-0.0191 -0.0574,0.32569 -0.0574,0.32571 -0.10857,-0.0192 -0.10857,-0.0191 -0.0383,0.21714 -0.0383,0.21714 -0.10856,-0.0191 -0.10857,-0.0191 -0.0383,0.21713 -0.0383,0.21714 -0.54285,-0.0957 -0.54283,-0.0957 z m 1.28366,0.33829 0.0191,-0.10857 0.10857,0.0191 0.10857,0.0192 0.0383,-0.21713 0.0383,-0.21714 0.75998,0.134 0.75997,0.134 -0.0191,0.10857 -0.0191,0.10858 -0.10857,-0.0191 -0.10856,-0.0191 -0.0383,0.21713 -0.0383,0.21714 -0.75998,-0.13401 -0.75998,-0.134 z m 1.73709,0.3063 0.0191,-0.10857 0.10856,0.0191 0.10858,0.0191 0.0574,-0.3257 0.0574,-0.32571 0.10857,0.0191 0.10856,0.0191 0.0574,-0.32571 0.0574,-0.32569 0.10858,0.0191 0.10856,0.0191 0.0574,-0.3257 0.0574,-0.32571 0.10857,0.0191 0.10857,0.0191 0.0383,-0.21714 0.0383,-0.21714 0.10856,0.0191 0.10857,0.0191 0.0574,-0.3257 0.0574,-0.3257 0.10857,0.0191 0.10857,0.0191 0.0383,-0.21714 0.0383,-0.21714 0.10857,0.0191 0.10856,0.0191 0.0383,-0.21713 0.0383,-0.21714 0.10857,0.0191 0.10857,0.0191 0.0383,-0.21713 0.0383,-0.21714 0.54285,0.0957 0.54283,0.0957 -0.0191,0.10857 -0.0191,0.10857 -0.10857,-0.0191 -0.10856,-0.0191 -0.0574,0.32571 -0.0574,0.3257 -0.10858,-0.0191 -0.10856,-0.0191 -0.0383,0.21714 -0.0383,0.21714 -0.10856,-0.0191 -0.10858,-0.0191 -0.0574,0.32571 -0.0574,0.32569 -0.10856,-0.0191 -0.10857,-0.0191 -0.0574,0.3257 -0.0574,0.32571 -0.10858,-0.0191 -0.10856,-0.0191 -0.0383,0.21714 -0.0383,0.21714 -0.10856,-0.0191 -0.10858,-0.0191 -0.0574,0.3257 -0.0574,0.3257 -0.10856,-0.0191 -0.10857,-0.0191 -0.0574,0.3257 -0.0574,0.32571 -0.10856,-0.0191 -0.10858,-0.0191 -0.0191,0.10858 -0.0191,0.10856 -0.54283,-0.0957 -0.54285,-0.0957 z m 1.95424,0.34458 0.0191,-0.10857 0.10857,0.0191 0.10856,0.0192 0.0574,-0.32571 0.0574,-0.32571 0.10858,0.0191 0.10856,0.0191 0.0574,-0.3257 0.0574,-0.3257 0.10857,0.0191 0.10857,0.0191 0.0383,-0.21714 0.0383,-0.21714 0.10856,0.0191 0.10857,0.0191 0.0191,-0.10856 0.0191,-0.10857 0.54284,0.0957 0.54284,0.0957 -0.0191,0.10856 -0.0191,0.10857 0.10857,0.0191 0.10857,0.0191 0.0191,-0.10857 0.0191,-0.10856 0.86854,0.15314 0.86855,0.15315 -0.0191,0.10857 -0.0191,0.10856 -0.10857,-0.0191 -0.10857,-0.0191 -0.0383,0.21714 -0.0383,0.21714 -0.10857,-0.0191 -0.10857,-0.0191 -0.0574,0.32569 -0.0574,0.32571 -0.10857,-0.0191 -0.10856,-0.0191 -0.0574,0.32571 -0.0574,0.3257 -0.10857,-0.0191 -0.10857,-0.0191 -0.0191,0.10857 -0.0191,0.10857 -0.54284,-0.0957 -0.54284,-0.0957 0.0191,-0.10856 0.0191,-0.10858 0.10856,0.0191 0.10858,0.0191 0.0574,-0.32571 0.0574,-0.3257 0.10856,0.0191 0.10857,0.0191 0.0383,-0.21713 0.0383,-0.21714 -0.3257,-0.0574 -0.3257,-0.0574 0.0191,-0.10856 0.0192,-0.10857 -0.10858,-0.0191 -0.10856,-0.0191 -0.0574,0.32569 -0.0574,0.32571 -0.10857,-0.0191 -0.10857,-0.0191 -0.0574,0.32571 -0.0574,0.3257 -0.10856,-0.0191 -0.10857,-0.0191 -0.0191,0.10858 -0.0191,0.10856 -0.54285,-0.0957 -0.54284,-0.0957 z m 2.24137,-1.28394 0.0383,-0.21714 -0.10856,-0.0191 -0.10857,-0.0191 -0.0383,0.21714 -0.0383,0.21714 0.10856,0.0191 0.10857,0.0191 z m 1.44994,1.93482 0.0191,-0.10857 0.10856,0.0191 0.10858,0.0192 0.0383,-0.21713 0.0383,-0.21714 0.10857,0.0191 0.10856,0.0191 0.0574,-0.3257 0.0574,-0.32571 0.10858,0.0191 0.10856,0.0191 0.0574,-0.32571 0.0574,-0.3257 0.10856,0.0191 0.10858,0.0191 0.0383,-0.21713 0.0383,-0.21714 0.10856,0.0191 0.10857,0.0191 0.0383,-0.21714 0.0383,-0.21713 0.54285,0.0957 0.54283,0.0957 -0.0383,0.21713 -0.0383,0.21714 -0.10856,-0.0191 -0.10857,-0.0191 -0.0574,0.3257 -0.0574,0.32571 -0.10858,-0.0191 -0.10856,-0.0191 -0.0383,0.21714 -0.0383,0.21713 -0.10857,-0.0191 -0.10857,-0.0191 -0.0574,0.3257 -0.0574,0.32571 -0.10856,-0.0191 -0.10857,-0.0191 -0.0574,0.32571 -0.0574,0.3257 -0.65141,-0.11486 -0.65141,-0.11486 z m 2.20965,0.16573 0.0574,-0.3257 0.10858,0.0191 0.10857,0.0192 0.0574,-0.32571 0.0574,-0.32571 0.10856,0.0191 0.10857,0.0191 0.0383,-0.21713 0.0383,-0.21714 0.10858,0.0191 0.10856,0.0191 0.0383,-0.21714 0.0383,-0.21713 0.54285,0.0957 0.54284,0.0957 -0.0383,0.21713 -0.0383,0.21714 0.10857,0.0192 0.10857,0.0191 0.0383,-0.21714 0.0383,-0.21713 0.86854,0.15315 0.86855,0.15315 -0.0383,0.21713 -0.0383,0.21714 -0.10858,-0.0191 -0.10857,-0.0191 -0.0574,0.3257 -0.0574,0.32571 -0.10856,-0.0191 -0.10858,-0.0191 -0.0383,0.21713 -0.0383,0.21714 -0.10857,-0.0191 -0.10856,-0.0191 -0.0574,0.3257 -0.0574,0.32571 -0.54285,-0.0957 -0.54283,-0.0957 0.0191,-0.10856 0.0191,-0.10858 -0.10857,-0.0191 -0.10857,-0.0191 -0.0191,0.10858 -0.0191,0.10856 -0.32571,-0.0574 -0.3257,-0.0574 0.0191,-0.10856 0.0191,-0.10858 -0.10856,-0.0191 -0.10857,-0.0191 -0.0191,0.10857 -0.0191,0.10857 -0.43428,-0.0766 -0.43427,-0.0766 z m 1.32197,0.12116 0.0383,-0.21714 0.3257,0.0574 0.32571,0.0574 -0.0383,0.21714 -0.0383,0.21713 0.10857,0.0191 0.10856,0.0191 0.0957,-0.54284 0.0957,-0.54284 -0.21713,-0.0383 -0.21714,-0.0383 0.0383,-0.21713 0.0383,-0.21714 -0.10856,-0.0191 -0.10857,-0.0191 -0.0574,0.3257 -0.0574,0.32571 -0.10857,-0.0191 -0.10857,-0.0191 -0.0383,0.21713 -0.0383,0.21714 -0.10857,-0.0191 -0.10857,-0.0191 -0.0383,0.21714 -0.0383,0.21713 0.10858,0.0191 0.10856,0.0191 z m 2.33107,0.74686 0.0192,-0.10857 0.10856,0.0191 0.10857,0.0191 0.0383,-0.21713 0.0383,-0.21714 0.10858,0.0191 0.10856,0.0191 0.0574,-0.3257 0.0574,-0.32571 0.10857,0.0191 0.10856,0.0191 0.0574,-0.32571 0.0574,-0.3257 0.10858,0.0191 0.10856,0.0191 0.0383,-0.21713 0.0383,-0.21714 0.10856,0.0191 0.10858,0.0191 0.0574,-0.32571 0.0574,-0.3257 0.10856,0.0191 0.10857,0.0191 0.0383,-0.21714 0.0383,-0.21714 0.10858,0.0192 0.10856,0.0191 0.0574,-0.3257 0.0574,-0.32571 0.10856,0.0191 0.10858,0.0191 0.0574,-0.32571 0.0574,-0.3257 0.10856,0.0191 0.10857,0.0191 0.0383,-0.21713 0.0383,-0.21714 0.54285,0.0957 0.54283,0.0957 -0.0574,0.3257 -0.0574,0.32571 -0.10856,-0.0191 -0.10857,-0.0191 -0.0383,0.21714 -0.0383,0.21713 -0.10858,-0.0191 -0.10856,-0.0191 -0.0574,0.3257 -0.0574,0.32571 0.10856,0.0191 0.10858,0.0191 0.0383,-0.21714 0.0383,-0.21713 1.19425,0.21058 1.19424,0.21058 -0.0383,0.21713 -0.0383,0.21714 -0.10857,-0.0191 -0.10856,-0.0192 -0.0191,0.10857 -0.0191,0.10857 -1.19426,-0.21057 -1.19424,-0.21058 0.0191,-0.10858 0.0191,-0.10856 -0.10857,-0.0191 -0.10857,-0.0191 -0.0574,0.3257 -0.0574,0.32571 -0.10856,-0.0191 -0.10857,-0.0191 -0.0383,0.21713 -0.0383,0.21714 -0.10858,-0.0191 -0.10856,-0.0191 -0.0574,0.3257 -0.0574,0.32571 0.10856,0.0191 0.10858,0.0191 0.0383,-0.21714 0.0383,-0.21713 1.19425,0.21057 1.19425,0.21058 -0.0383,0.21713 -0.0383,0.21714 -0.10856,-0.0191 -0.10857,-0.0191 -0.0383,0.21714 -0.0383,0.21713 -0.10857,-0.0191 -0.10857,-0.0191 -0.0574,0.3257 -0.0574,0.32571 -0.10857,-0.0191 -0.10856,-0.0191 -0.0383,0.21714 -0.0383,0.21713 -0.10857,-0.0191 -0.10857,-0.0191 -0.0191,0.10857 -0.0191,0.10857 -0.54283,-0.0957 -0.54285,-0.0957 0.0191,-0.10856 0.0191,-0.10858 0.10857,0.0191 0.10857,0.0192 0.0574,-0.32571 0.0574,-0.3257 0.10857,0.0191 0.10856,0.0191 0.0383,-0.21713 0.0383,-0.21714 -0.54284,-0.0957 -0.54285,-0.0957 0.0383,-0.21713 0.0383,-0.21714 -0.10857,-0.0191 -0.10856,-0.0192 -0.0383,0.21714 -0.0383,0.21713 -0.10857,-0.0191 -0.10857,-0.0191 -0.0574,0.3257 -0.0574,0.32571 -0.10856,-0.0191 -0.10858,-0.0191 -0.0574,0.3257 -0.0574,0.32571 -0.65141,-0.11486 -0.6514,-0.11486 z m 4.55986,0.80403 0.0191,-0.10858 0.10858,0.0191 0.10856,0.0191 0.0383,-0.21713 0.0383,-0.21714 0.10856,0.0191 0.10858,0.0192 0.0574,-0.32571 0.0574,-0.3257 0.10856,0.0191 0.10857,0.0191 0.0574,-0.3257 0.0574,-0.32571 0.10858,0.0191 0.10856,0.0191 0.0191,-0.10856 0.0191,-0.10857 0.43427,0.0766 0.43427,0.0766 -0.0574,0.3257 -0.0574,0.32571 0.10857,0.0191 0.10857,0.0191 0.0574,-0.32571 0.0574,-0.3257 0.97711,0.17229 0.97712,0.17229 -0.0191,0.10856 -0.0191,0.10857 -0.10858,-0.0191 -0.10856,-0.0191 -0.0574,0.32571 -0.0574,0.3257 -0.97711,-0.17229 -0.97712,-0.17229 0.0191,-0.10857 0.0191,-0.10856 -0.10857,-0.0191 -0.10856,-0.0191 -0.0766,0.43427 -0.0766,0.43427 0.86854,0.15315 0.86855,0.15315 -0.0574,0.32571 -0.0574,0.3257 -0.97712,-0.17229 -0.97711,-0.17229 0.0191,-0.10857 0.0191,-0.10857 -0.10857,-0.0191 -0.10857,-0.0191 -0.0191,0.10858 -0.0191,0.10856 -0.54285,-0.0957 -0.54284,-0.0957 z m 1.57739,-0.0577 0.0383,-0.21714 -0.10858,-0.0191 -0.10856,-0.0191 -0.0383,0.21714 -0.0383,0.21713 0.10856,0.0191 0.10858,0.0191 z m 2.13308,0.6 0.0383,-0.21713 0.10857,0.0191 0.10857,0.0191 0.0191,-0.10857 0.0191,-0.10857 0.3257,0.0574 0.3257,0.0574 -0.0574,0.32571 -0.0574,0.3257 -0.43427,-0.0766 -0.43427,-0.0766 z m 1.30282,0.22973 0.0383,-0.21713 0.10856,0.0191 0.10857,0.0191 0.0574,-0.3257 0.0574,-0.32571 0.10856,0.0191 0.10858,0.0191 0.0383,-0.21714 0.0383,-0.21713 0.10857,0.0191 0.10856,0.0191 0.0574,-0.3257 0.0574,-0.32571 1.19426,0.21058 1.19425,0.21058 -0.0192,0.10857 -0.0191,0.10856 0.10857,0.0191 0.10857,0.0191 0.0766,-0.43427 0.0766,-0.43427 0.10856,0.0191 0.10857,0.0191 0.0383,-0.21714 0.0383,-0.21713 0.10858,0.0191 0.10856,0.0191 0.0574,-0.3257 0.0574,-0.32571 0.10857,0.0191 0.10857,0.0191 0.0574,-0.32571 0.0574,-0.3257 0.10856,0.0191 0.10857,0.0191 0.0383,-0.21714 0.0383,-0.21713 0.10858,0.0191 0.10856,0.0191 0.0191,-0.10858 0.0191,-0.10856 0.54283,0.0957 0.54285,0.0957 -0.0191,0.10857 -0.0191,0.10857 -0.10856,-0.0191 -0.10858,-0.0191 -0.0574,0.3257 -0.0574,0.32571 -0.10856,-0.0191 -0.10857,-0.0191 -0.0383,0.21713 -0.0383,0.21714 -0.10858,-0.0191 -0.10856,-0.0191 -0.0574,0.32571 -0.0574,0.32571 -0.10856,-0.0191 -0.10858,-0.0191 -0.0574,0.3257 -0.0574,0.3257 -0.10857,-0.0191 -0.10857,-0.0191 -0.0383,0.21714 -0.0383,0.21714 -0.10857,-0.0191 -0.10857,-0.0191 -0.0574,0.3257 -0.0574,0.32571 -0.10857,-0.0191 -0.10856,-0.0191 -0.0383,0.21713 -0.0383,0.21714 -0.10857,-0.0191 -0.10857,-0.0191 -0.0574,0.32571 -0.0574,0.32571 -0.10856,-0.0191 -0.10858,-0.0191 -0.0383,0.21713 -0.0383,0.21714 -0.54284,-0.0957 -0.54284,-0.0957 0.0383,-0.21714 0.0383,-0.21713 -0.10856,-0.0191 -0.10857,-0.0191 -0.0383,0.21713 -0.0383,0.21714 -0.43428,-0.0766 -0.43428,-0.0766 0.0383,-0.21714 0.0383,-0.21713 -0.10857,-0.0191 -0.10856,-0.0191 -0.0383,0.21713 -0.0383,0.21714 -0.54284,-0.0957 -0.54284,-0.0957 z m 1.57738,-0.0577 0.0191,-0.10857 0.43427,0.0766 0.43427,0.0766 -0.0192,0.10857 -0.0191,0.10857 0.10858,0.0191 0.10856,0.0191 0.0574,-0.32571 0.0574,-0.3257 0.10857,0.0191 0.10857,0.0191 0.0383,-0.21714 0.0383,-0.21713 0.10856,0.0191 0.10857,0.0191 0.0383,-0.21714 0.0383,-0.21714 -0.10856,-0.0191 -0.10857,-0.0191 -0.0383,0.21714 -0.0383,0.21714 -0.10858,-0.0191 -0.10856,-0.0191 -0.0191,0.10856 -0.0191,0.10857 -0.54285,-0.0957 -0.54283,-0.0957 -0.0383,0.21714 -0.0383,0.21713 -0.10856,-0.0191 -0.10858,-0.0191 -0.0383,0.21714 -0.0383,0.21714 0.10857,0.0191 0.10857,0.0191 z m 2.76535,0.82344 0.0383,-0.21713 0.10857,0.0191 0.10856,0.0191 0.0574,-0.3257 0.0574,-0.32571 0.10858,0.0191 0.10857,0.0191 0.0574,-0.32571 0.0574,-0.3257 0.10856,0.0191 0.10858,0.0192 0.0383,-0.21714 0.0383,-0.21713 0.54284,0.0957 0.54284,0.0957 -0.0574,0.32571 -0.0574,0.3257 0.10857,0.0191 0.10856,0.0191 0.0574,-0.32571 0.0574,-0.3257 0.86855,0.15315 0.86854,0.15314 -0.0574,0.32571 -0.0574,0.3257 -0.10856,-0.0191 -0.10857,-0.0191 -0.0191,0.10856 -0.0191,0.10857 -0.86855,-0.15315 -0.86855,-0.15315 0.0191,-0.10856 0.0191,-0.10857 -0.10857,-0.0191 -0.10857,-0.0191 -0.0383,0.21713 -0.0383,0.21714 -0.10857,-0.0191 -0.10856,-0.0191 -0.0574,0.3257 -0.0574,0.32571 0.10857,0.0191 0.10857,0.0191 0.0191,-0.10858 0.0191,-0.10857 0.86855,0.15315 0.86855,0.15315 -0.0191,0.10857 -0.0191,0.10857 -0.10857,-0.0191 -0.10857,-0.0191 -0.0383,0.21713 -0.0383,0.21714 -0.86854,-0.15314 -0.86854,-0.15315 0.0383,-0.21714 0.0383,-0.21713 -0.10857,-0.0191 -0.10857,-0.0191 -0.0383,0.21713 -0.0383,0.21714 -0.54284,-0.0957 -0.54284,-0.0957 z m 3.45504,0.72116 0.0191,-0.10857 0.10857,0.0191 0.10856,0.0191 0.0574,-0.32571 0.0574,-0.32571 0.10858,0.0191 0.10856,0.0191 0.0383,-0.21713 0.0383,-0.21714 0.10856,0.0191 0.10857,0.0191 0.0574,-0.32571 0.0574,-0.3257 0.10857,0.0191 0.10857,0.0191 0.0191,-0.10856 0.0191,-0.10857 0.54284,0.0957 0.54284,0.0957 -0.0191,0.10856 -0.0191,0.10857 -0.10856,-0.0191 -0.10857,-0.0191 -0.0574,0.32571 -0.0574,0.3257 -0.10858,-0.0191 -0.10856,-0.0191 -0.0574,0.3257 -0.0574,0.32571 0.54283,0.0957 0.54285,0.0957 -0.0191,0.10857 -0.0191,0.10857 0.10857,0.0191 0.10857,0.0191 0.0574,-0.32571 0.0574,-0.3257 0.10857,0.0191 0.10856,0.0191 0.0383,-0.21715 0.0383,-0.21713 0.10857,0.0191 0.10857,0.0191 0.0574,-0.3257 0.0574,-0.32571 0.65141,0.11486 0.6514,0.11486 -0.0191,0.10857 -0.0191,0.10856 -0.10857,-0.0191 -0.10857,-0.0191 -0.0383,0.21714 -0.0383,0.21714 -0.10857,-0.0191 -0.10857,-0.0191 -0.0574,0.3257 -0.0574,0.3257 -0.10857,-0.0191 -0.10856,-0.0192 -0.0383,0.21714 -0.0383,0.21715 -0.10857,-0.0191 -0.10857,-0.0191 -0.0383,0.21713 -0.0383,0.21714 -0.54284,-0.0957 -0.54284,-0.0957 0.0383,-0.21714 0.0383,-0.21713 -0.10856,-0.0191 -0.10858,-0.0191 -0.0383,0.21714 -0.0383,0.21714 -0.54284,-0.0957 -0.54284,-0.0957 0.0383,-0.21714 0.0383,-0.21713 -0.10857,-0.0191 -0.10856,-0.0191 -0.0383,0.21713 -0.0383,0.21714 -0.54285,-0.0957 -0.54284,-0.0957 z m 1.59653,-0.16627 0.0191,-0.10856 -0.10857,-0.0191 -0.10857,-0.0191 -0.0191,0.10856 -0.0191,0.10858 0.10858,0.0191 0.10856,0.0191 z m -23.60442,-7.07263 0.0574,-0.32571 1.30282,0.22973 1.30282,0.22972 -0.0574,0.3257 -0.0574,0.32571 -1.30281,-0.22972 -1.30282,-0.22972 z m -6.41837,-1.69145 0.0383,-0.21714 0.10856,0.0191 0.10857,0.0191 0.0383,-0.21713 0.0383,-0.21714 0.75998,0.134 0.75997,0.13401 -0.0191,0.10856 -0.0192,0.10858 -0.10856,-0.0191 -0.10857,-0.0191 -0.0383,0.21713 -0.0383,0.21714 -0.10857,-0.0191 -0.10857,-0.0191 -0.0191,0.10856 -0.0191,0.10857 -0.65141,-0.11487 -0.6514,-0.11486 z m 7.40177,1.1932 0.0191,-0.10858 0.10857,0.0191 0.10857,0.0191 0.0574,-0.32571 0.0574,-0.3257 0.10856,0.0191 0.10858,0.0191 0.0383,-0.21714 0.0383,-0.21714 0.54284,0.0957 0.54284,0.0957 -0.0574,0.32571 -0.0574,0.3257 -0.10857,-0.0191 -0.10857,-0.0191 -0.0383,0.21714 -0.0383,0.21713 -0.10857,-0.0191 -0.10857,-0.0191 -0.0191,0.10857 -0.0191,0.10857 -0.54284,-0.0957 -0.54284,-0.0957 z"
           id="path9233" /></g></g></g></svg>
