<?xml version="1.0" encoding="UTF-8" standalone="no"?>
<!-- Created with Inkscape (http://www.inkscape.org/) -->

<svg
   width="114.76146mm"
   height="122.33865mm"
   viewBox="0 0 114.76146 122.33864"
   version="1.1"
   id="svg1"
   xml:space="preserve"
   inkscape:version="1.3.1 (91b66b0783, 2023-11-16)"
   sodipodi:docname="Ai-Backing-Laser-Cut-Edges-1.svg"
   xmlns:inkscape="http://www.inkscape.org/namespaces/inkscape"
   xmlns:sodipodi="http://sodipodi.sourceforge.net/DTD/sodipodi-0.dtd"
   xmlns="http://www.w3.org/2000/svg"
   xmlns:svg="http://www.w3.org/2000/svg"><sodipodi:namedview
     id="namedview1"
     pagecolor="#ffffff"
     bordercolor="#000000"
     borderopacity="0.25"
     inkscape:showpageshadow="2"
     inkscape:pageopacity="0.0"
     inkscape:pagecheckerboard="0"
     inkscape:deskcolor="#d1d1d1"
     inkscape:document-units="mm"
     inkscape:zoom="1.0449705"
     inkscape:cx="255.98809"
     inkscape:cy="349.29216"
     inkscape:window-width="2558"
     inkscape:window-height="1360"
     inkscape:window-x="0"
     inkscape:window-y="0"
     inkscape:window-maximized="0"
     inkscape:current-layer="g12" /><defs
     id="defs1" /><g
     inkscape:label="Layer 1"
     inkscape:groupmode="layer"
     id="layer1"
     transform="translate(-37.288648,-55.929271)"><g
       id="g12"
       transform="translate(-24.274549,2.4042708)"><g
         style="fill:none;stroke:#d0d2cd;stroke-width:0.15;stroke-linecap:round;stroke-linejoin:round;stroke-opacity:1"
         id="g1448"
         transform="matrix(-1,0,0,1,237.88786,0)"><path
           d="m 139.7899,151.3681 a 2,2 0 0 0 2.3169,1.6223"
           id="path1401" /><path
           d="m 157.8549,169.5067 16.7418,-2.952"
           id="path1402" /><path
           d="m 139.7899,151.3681 -2.1213,-12.0302"
           id="path1403" /><path
           d="m 63.6382,139.6 h 15"
           id="path1404" /><path
           d="m 120.085,174.1357 a 2,2 0 0 0 2.3168,1.6223"
           id="path1405" /><path
           d="m 118.6382,136.6 v 1.6365"
           id="path1406" /><path
           d="m 118.6382,66.6 a 2,2 0 0 0 2,2"
           id="path1407" /><path
           d="m 99.6382,56.6 a 2,2 0 0 0 2,2"
           id="path1408" /><path
           d="m 82.6382,129.6001 a 1.9999,1.9999 0 0 0 -2,1.9999"
           id="path1409" /><path
           d="m 118.6383,60.6 a 2,2 0 0 0 -2.0001,-2"
           id="path1410" /><path
           d="m 63.6382,63.6001 a 1.9999,1.9999 0 0 0 -2,1.9999"
           id="path1411" /><path
           d="m 173.6142,149.4657 a 1.9999,1.9999 0 0 0 -2.3169,-1.6224"
           id="path1412" /><path
           d="m 139.1436,172.806 18.7113,-3.2993"
           id="path1413" /><path
           d="m 137.6383,138.9906 a 1.9999,1.9999 0 0 0 0.0303,0.3473"
           id="path1414" /><path
           d="m 118.0697,162.707 2.0152,11.4287"
           id="path1415" /><path
           d="m 122.4018,175.758 16.7418,-2.952"
           id="path1416" /><path
           d="m 61.6382,137.6 a 2,2 0 0 0 2,2"
           id="path1417" /><path
           d="m 154.5556,150.7954 -12.4488,2.195"
           id="path1418" /><path
           d="m 118.6383,136.6 a 2,2 0 0 0 -2.0001,-2"
           id="path1419" /><path
           d="m 171.2973,147.8433 -16.7417,2.9521"
           id="path1420" /><path
           d="m 78.1653,147.4038 3.1257,17.7266"
           id="path1421" /><path
           d="m 174.5967,166.5547 a 2,2 0 0 0 1.6223,-2.3169"
           id="path1422" /><path
           d="m 83.6079,166.7527 32.1449,-5.668"
           id="path1423" /><path
           d="m 116.6382,58.6 h -15"
           id="path1424" /><path
           d="m 80.6382,137.6 v -6"
           id="path1425" /><path
           d="m 99.6382,56.6 v -1"
           id="path1426" /><path
           d="m 78.6382,63.6 h -15"
           id="path1427" /><path
           d="m 101.6382,134.6 h 15"
           id="path1428" /><path
           d="m 99.6382,131.6 v 1"
           id="path1429" /><path
           d="m 82.6382,53.6001 a 1.9999,1.9999 0 0 0 -2,1.9999"
           id="path1430" /><path
           d="m 61.6382,137.6 v -72"
           id="path1431" /><path
           d="m 99.6382,132.6 a 2,2 0 0 0 2,2"
           id="path1432" /><path
           d="m 99.6383,55.6 a 2,2 0 0 0 -2.0001,-2"
           id="path1433" /><path
           d="M 78.6383,139.5999 A 1.9999,1.9999 0 0 0 80.6382,137.6"
           id="path1434" /><path
           d="m 137.6383,70.6 a 2,2 0 0 0 -2.0001,-2"
           id="path1435" /><path
           d="m 118.6382,138.2365 -38.8506,6.8504"
           id="path1436" /><path
           d="M 137.6382,138.9906 V 70.6"
           id="path1437" /><path
           d="M 78.6383,63.5999 A 1.9999,1.9999 0 0 0 80.6382,61.6"
           id="path1438" /><path
           d="m 118.6382,66.6 v -6"
           id="path1439" /><path
           d="m 97.6382,53.6 h -15"
           id="path1440" /><path
           d="m 99.6383,131.6 a 2,2 0 0 0 -2.0001,-2"
           id="path1441" /><path
           d="m 135.6382,68.6 h -15"
           id="path1442" /><path
           d="m 176.219,164.2378 -2.6047,-14.7721"
           id="path1443" /><path
           d="m 82.6382,129.6 h 15"
           id="path1444" /><path
           d="m 80.6382,55.6 v 6"
           id="path1445" /><path
           d="m 79.7876,145.0869 a 2,2 0 0 0 -1.6223,2.3169"
           id="path1446" /><path
           d="m 118.0697,162.707 a 2,2 0 0 0 -2.3169,-1.6223"
           id="path1447" /><path
           d="m 81.291,165.1304 a 2,2 0 0 0 2.3169,1.6223"
           id="path1448" /></g></g></g></svg>
