<?xml version="1.0" encoding="UTF-8" standalone="no"?>
<!-- Created with Inkscape (http://www.inkscape.org/) -->

<svg
   width="115.0781mm"
   height="122.6553mm"
   viewBox="0 0 115.0781 122.65529"
   version="1.1"
   id="svg1"
   xml:space="preserve"
   inkscape:version="1.3.1 (91b66b0783, 2023-11-16)"
   sodipodi:docname="Ai-Backing-Laser-Engrave-1.svg"
   xmlns:inkscape="http://www.inkscape.org/namespaces/inkscape"
   xmlns:sodipodi="http://sodipodi.sourceforge.net/DTD/sodipodi-0.dtd"
   xmlns="http://www.w3.org/2000/svg"
   xmlns:svg="http://www.w3.org/2000/svg"><sodipodi:namedview
     id="namedview1"
     pagecolor="#ffffff"
     bordercolor="#000000"
     borderopacity="0.25"
     inkscape:showpageshadow="2"
     inkscape:pageopacity="0.0"
     inkscape:pagecheckerboard="0"
     inkscape:deskcolor="#d1d1d1"
     inkscape:document-units="mm"
     inkscape:zoom="1.4778115"
     inkscape:cx="51.765736"
     inkscape:cy="224.65653"
     inkscape:window-width="2558"
     inkscape:window-height="1360"
     inkscape:window-x="-7"
     inkscape:window-y="0"
     inkscape:window-maximized="0"
     inkscape:current-layer="g13" /><defs
     id="defs1" /><g
     inkscape:label="Layer 1"
     inkscape:groupmode="layer"
     id="layer1"
     transform="translate(-37.286139,-55.929714)"><g
       id="g12"
       transform="translate(-24.274549,2.4042708)"><g
         id="g13"
         transform="translate(-0.00251167,4.4272616e-4)"
         style="display:inline"><g
           style="fill:#000000;fill-opacity:1;stroke:#000000;stroke-linecap:round;stroke-linejoin:round;stroke-opacity:1"
           id="g1"
           transform="matrix(-1,0,0,1,238.2045,0)" /><g
           style="fill:none;stroke:#000000;stroke-width:0.15;stroke-linecap:round;stroke-linejoin:round;stroke-opacity:1"
           id="g3"
           transform="matrix(-1,0,0,1,238.2045,0)" /><g
           style="fill:none;stroke:#000000;stroke-width:0.15;stroke-linecap:round;stroke-linejoin:round;stroke-opacity:1"
           id="g4"
           transform="matrix(-1,0,0,1,238.2045,0)" /><g
           style="fill:none;stroke:#000000;stroke-width:0.15;stroke-linecap:round;stroke-linejoin:round;stroke-opacity:1"
           id="g1369"
           transform="matrix(-1,0,0,1,238.2045,0)"><text
             x="300.98901"
             y="264.7522"
             textLength="0.44999999"
             font-size="2px"
             lengthAdjust="spacingAndGlyphs"
             text-anchor="start"
             opacity="0"
             id="text1367" /><g
             class="stroked-text"
             id="g1368"><desc
               id="desc1367" /></g></g><g
           style="fill:none;stroke:#000000;stroke-width:0.15;stroke-linecap:round;stroke-linejoin:round;stroke-opacity:1"
           id="g1371"
           transform="matrix(-1,0,0,1,238.2045,0)"><text
             x="300.98901"
             y="261.7522"
             textLength="0.44999999"
             font-size="2px"
             lengthAdjust="spacingAndGlyphs"
             text-anchor="start"
             opacity="0"
             id="text1369" /><g
             class="stroked-text"
             id="g1370"><desc
               id="desc1369" /></g></g><g
           style="fill:none;stroke:#000000;stroke-width:0.15;stroke-linecap:round;stroke-linejoin:round;stroke-opacity:1"
           id="g1373"
           transform="matrix(-1,0,0,1,238.2045,0)"><text
             x="300.98901"
             y="258.7522"
             textLength="0.44999999"
             font-size="2px"
             lengthAdjust="spacingAndGlyphs"
             text-anchor="start"
             opacity="0"
             id="text1371" /><g
             class="stroked-text"
             id="g1372"><desc
               id="desc1371" /></g></g><g
           style="fill:none;stroke:#000000;stroke-width:0.15;stroke-linecap:round;stroke-linejoin:round;stroke-opacity:1"
           id="g1375"
           transform="matrix(-1,0,0,1,238.2045,0)"><text
             x="300.98901"
             y="255.7522"
             textLength="0.44999999"
             font-size="2px"
             lengthAdjust="spacingAndGlyphs"
             text-anchor="start"
             opacity="0"
             id="text1373" /><g
             class="stroked-text"
             id="g1374"><desc
               id="desc1373" /></g></g><g
           style="fill:none;stroke:#c2c2c2;stroke-width:0.15;stroke-linecap:round;stroke-linejoin:round;stroke-opacity:1"
           id="g1608"
           transform="matrix(-1,0,0,1,238.2045,0)"><path
             d="m 86.1619,159.0321 -5.0028,0.8821"
             id="path1377" /><path
             d="m 84.8387,151.5279 1.3232,7.5042"
             id="path1378" /><path
             d="m 79.8359,152.41 5.0028,-0.8821"
             id="path1379" /><path
             d="M 81.1591,159.9142 79.8359,152.41"
             id="path1380" /><path
             d="m 97.1382,88.1 v 1"
             id="path1381" /><path
             d="m 96.1382,89.1 h 1"
             id="path1382" /><path
             d="m 99.6382,72.6 v 19"
             id="path1383" /><path
             d="m 80.6382,72.6 h 19"
             id="path1384" /><path
             d="m 83.1382,89.1 h 1"
             id="path1385" /><path
             d="m 83.1382,76.1 v -1"
             id="path1386" /><path
             d="m 80.6382,91.6 v -19"
             id="path1387" /><path
             d="m 97.1382,75.1 h -1"
             id="path1388" /><path
             d="m 83.1382,89.1 v -1"
             id="path1389" /><path
             d="m 84.1382,75.1 h -1"
             id="path1390" /><path
             d="m 97.1382,75.1 v 1"
             id="path1391" /><path
             d="m 99.6382,91.6 h -19"
             id="path1392" /><path
             d="m 80.6382,63.6 v 19"
             id="path1393" /><path
             d="m 78.1382,79.1 v 1"
             id="path1394" /><path
             d="m 80.6382,82.6 h -19"
             id="path1395" /><path
             d="m 64.1382,80.1 v -1"
             id="path1396" /><path
             d="m 78.1382,66.1 v 1"
             id="path1397" /><path
             d="m 61.6382,63.6 h 19"
             id="path1398" /><path
             d="m 64.1382,67.1 v -1"
             id="path1399" /><path
             d="m 77.1382,80.1 h 1"
             id="path1400" /><path
             d="m 78.1382,66.1 h -1"
             id="path1401-4" /><path
             d="m 65.1382,66.1 h -1"
             id="path1402-2" /><path
             d="m 61.6382,82.6 v -19"
             id="path1403-1" /><path
             d="m 64.1382,80.1 h 1"
             id="path1404-8" /><path
             d="m 61.6382,82.6 h 19"
             id="path1405-5" /><path
             d="m 80.6382,82.6 v 19"
             id="path1406-1" /><path
             d="m 64.1382,99.1 h 1"
             id="path1407-4" /><path
             d="m 77.1382,99.1 h 1"
             id="path1408-6" /><path
             d="m 78.1382,85.1 v 1"
             id="path1409-4" /><path
             d="m 65.1382,85.1 h -1"
             id="path1410-9" /><path
             d="m 64.1382,99.1 v -1"
             id="path1411-5" /><path
             d="m 64.1382,86.1 v -1"
             id="path1412-7" /><path
             d="m 78.1382,98.1 v 1"
             id="path1413-3" /><path
             d="m 78.1382,85.1 h -1"
             id="path1414-0" /><path
             d="m 80.6382,101.6 h -19"
             id="path1415-8" /><path
             d="m 61.6382,101.6 v -19"
             id="path1416-5" /><path
             d="m 83.1382,70.1 h 1"
             id="path1417-2" /><path
             d="m 99.6382,72.6 h -19"
             id="path1418-8" /><path
             d="m 84.1382,56.1 h -1"
             id="path1419-4" /><path
             d="m 99.6382,53.6 v 19"
             id="path1420-6" /><path
             d="m 80.6382,72.6 v -19"
             id="path1421-8" /><path
             d="m 80.6382,53.6 h 19"
             id="path1422-1" /><path
             d="m 83.1382,57.1 v -1"
             id="path1423-7" /><path
             d="m 96.1382,70.1 h 1"
             id="path1424-4" /><path
             d="m 97.1382,69.1 v 1"
             id="path1425-3" /><path
             d="m 83.1382,70.1 v -1"
             id="path1426-0" /><path
             d="m 97.1382,56.1 h -1"
             id="path1427-1" /><path
             d="m 97.1382,56.1 v 1"
             id="path1428-6" /><path
             d="m 135.1382,128.1 v 1"
             id="path1429-8" /><path
             d="m 135.1382,141.1 v 1"
             id="path1430-5" /><path
             d="m 121.1382,129.1 v -1"
             id="path1431-8" /><path
             d="m 121.1382,142.1 h 1"
             id="path1432-4" /><path
             d="m 122.1382,128.1 h -1"
             id="path1433-8" /><path
             d="m 135.1382,128.1 h -1"
             id="path1434-5" /><path
             d="m 134.1382,142.1 h 1"
             id="path1435-6" /><path
             d="m 137.6382,144.6 h -19"
             id="path1436-5" /><path
             d="m 121.1382,142.1 v -1"
             id="path1437-2" /><path
             d="m 118.6382,125.6 h 19"
             id="path1438-3" /><path
             d="m 118.6382,144.6 v -19"
             id="path1439-1" /><path
             d="m 137.6382,125.6 v 19"
             id="path1440-1" /><path
             d="m 97.1382,126.1 v 1"
             id="path1441-1" /><path
             d="m 83.1382,127.1 v -1"
             id="path1442-3" /><path
             d="m 99.6382,129.6 h -19"
             id="path1443-6" /><path
             d="m 97.1382,113.1 v 1"
             id="path1444-6" /><path
             d="m 80.6382,129.6 v -19"
             id="path1445-8" /><path
             d="m 80.6382,110.6 h 19"
             id="path1446-5" /><path
             d="m 83.1382,114.1 v -1"
             id="path1447-9" /><path
             d="m 96.1382,127.1 h 1"
             id="path1448-1" /><path
             d="m 83.1382,127.1 h 1"
             id="path1449" /><path
             d="m 84.1382,113.1 h -1"
             id="path1450" /><path
             d="m 99.6382,110.6 v 19"
             id="path1451" /><path
             d="m 97.1382,113.1 h -1"
             id="path1452" /><path
             d="m 77.1382,118.1 h 1"
             id="path1453" /><path
             d="m 64.1382,118.1 h 1"
             id="path1454" /><path
             d="m 80.6382,101.6 v 19"
             id="path1455" /><path
             d="m 78.1382,117.1 v 1"
             id="path1456" /><path
             d="m 65.1382,104.1 h -1"
             id="path1457" /><path
             d="m 64.1382,118.1 v -1"
             id="path1458" /><path
             d="m 61.6382,120.6 v -19"
             id="path1459" /><path
             d="m 80.6382,120.6 h -19"
             id="path1460" /><path
             d="m 61.6382,101.6 h 19"
             id="path1461" /><path
             d="m 78.1382,104.1 h -1"
             id="path1462" /><path
             d="m 78.1382,104.1 v 1"
             id="path1463" /><path
             d="m 64.1382,105.1 v -1"
             id="path1464" /><path
             d="m 118.6382,115.6 v 19"
             id="path1465" /><path
             d="m 102.1382,119.1 v -1"
             id="path1466" /><path
             d="m 99.6382,134.6 v -19"
             id="path1467" /><path
             d="m 102.1382,132.1 h 1"
             id="path1468" /><path
             d="m 102.1382,132.1 v -1"
             id="path1469" /><path
             d="m 99.6382,115.6 h 19"
             id="path1470" /><path
             d="m 103.1382,118.1 h -1"
             id="path1471" /><path
             d="m 116.1382,131.1 v 1"
             id="path1472" /><path
             d="m 116.1382,118.1 v 1"
             id="path1473" /><path
             d="m 118.6382,134.6 h -19"
             id="path1474" /><path
             d="m 116.1382,118.1 h -1"
             id="path1475" /><path
             d="m 115.1382,132.1 h 1"
             id="path1476" /><path
             d="m 122.4601,173.2092 -0.1736,-0.9848"
             id="path1477" /><path
             d="m 117.1329,157.394 18.7114,-3.2993"
             id="path1478" /><path
             d="m 121.0139,159.2482 -0.9848,0.1737"
             id="path1479" /><path
             d="M 120.4322,176.1053 117.1329,157.394"
             id="path1480" /><path
             d="m 133.8164,156.9908 0.1736,0.9848"
             id="path1481" /><path
             d="m 135.8443,154.0947 3.2993,18.7113"
             id="path1482" /><path
             d="m 133.8164,156.9908 -0.9848,0.1737"
             id="path1483" /><path
             d="m 120.2027,160.4067 -0.1736,-0.9848"
             id="path1484" /><path
             d="m 122.4601,173.2092 0.9848,-0.1737"
             id="path1485" /><path
             d="m 139.1436,172.806 -18.7114,3.2993"
             id="path1486" /><path
             d="m 136.0738,169.7933 0.1736,0.9848"
             id="path1487" /><path
             d="m 135.2626,170.9518 0.9848,-0.1737"
             id="path1488" /><path
             d="m 121.1382,123.1 h 1"
             id="path1489" /><path
             d="m 118.6382,106.6 h 19"
             id="path1490" /><path
             d="m 118.6382,125.6 v -19"
             id="path1491" /><path
             d="m 134.1382,123.1 h 1"
             id="path1492" /><path
             d="m 135.1382,109.1 v 1"
             id="path1493" /><path
             d="m 121.1382,110.1 v -1"
             id="path1494" /><path
             d="m 135.1382,122.1 v 1"
             id="path1495" /><path
             d="m 122.1382,109.1 h -1"
             id="path1496" /><path
             d="m 137.6382,125.6 h -19"
             id="path1497" /><path
             d="m 137.6382,106.6 v 19"
             id="path1498" /><path
             d="m 135.1382,109.1 h -1"
             id="path1499" /><path
             d="m 121.1382,123.1 v -1"
             id="path1500" /><path
             d="m 77.1382,137.1 h 1"
             id="path1501" /><path
             d="m 80.6382,120.6 v 19"
             id="path1502" /><path
             d="m 78.1382,136.1 v 1"
             id="path1503" /><path
             d="m 78.1382,123.1 v 1"
             id="path1504" /><path
             d="m 64.1382,124.1 v -1"
             id="path1505" /><path
             d="m 80.6382,139.6 h -19"
             id="path1506" /><path
             d="m 64.1382,137.1 v -1"
             id="path1507" /><path
             d="m 61.6382,139.6 v -19"
             id="path1508" /><path
             d="m 78.1382,123.1 h -1"
             id="path1509" /><path
             d="m 61.6382,120.6 h 19"
             id="path1510" /><path
             d="m 64.1382,137.1 h 1"
             id="path1511" /><path
             d="m 65.1382,123.1 h -1"
             id="path1512" /><path
             d="m 118.6382,58.6 v 19"
             id="path1513" /><path
             d="m 102.1382,75.1 v -1"
             id="path1514" /><path
             d="m 99.6382,77.6 v -19"
             id="path1515" /><path
             d="m 116.1382,61.1 v 1"
             id="path1516" /><path
             d="m 116.1382,74.1 v 1"
             id="path1517" /><path
             d="m 102.1382,75.1 h 1"
             id="path1518" /><path
             d="m 103.1382,61.1 h -1"
             id="path1519" /><path
             d="m 102.1382,62.1 v -1"
             id="path1520" /><path
             d="m 118.6382,77.6 h -19"
             id="path1521" /><path
             d="m 99.6382,58.6 h 19"
             id="path1522" /><path
             d="m 116.1382,61.1 h -1"
             id="path1523" /><path
             d="m 115.1382,75.1 h 1"
             id="path1524" /><path
             d="M 154.5556,150.7954 173.267,147.496"
             id="path1525" /><path
             d="m 173.267,147.496 3.2993,18.7114"
             id="path1526" /><path
             d="m 173.4965,163.1947 0.1736,0.9848"
             id="path1527" /><path
             d="m 176.5663,166.2074 -18.7114,3.2993"
             id="path1528" /><path
             d="m 171.2391,150.3922 -0.9848,0.1736"
             id="path1529" /><path
             d="m 158.4366,152.6496 -0.9848,0.1737"
             id="path1530" /><path
             d="m 171.2391,150.3922 0.1736,0.9848"
             id="path1531" /><path
             d="m 159.8828,166.6106 0.9848,-0.1737"
             id="path1532" /><path
             d="m 157.8549,169.5067 -3.2993,-18.7113"
             id="path1533" /><path
             d="m 157.6254,153.8081 -0.1736,-0.9848"
             id="path1534" /><path
             d="m 159.8828,166.6106 -0.1736,-0.9848"
             id="path1535" /><path
             d="m 172.6853,164.3531 0.9848,-0.1736"
             id="path1536" /><path
             d="m 96.1382,108.1 h 1"
             id="path1537" /><path
             d="m 80.6382,110.6 v -19"
             id="path1538" /><path
             d="m 83.1382,108.1 v -1"
             id="path1539" /><path
             d="m 97.1382,94.1 h -1"
             id="path1540" /><path
             d="m 83.1382,95.1 v -1"
             id="path1541" /><path
             d="m 99.6382,91.6 v 19"
             id="path1542" /><path
             d="m 83.1382,108.1 h 1"
             id="path1543" /><path
             d="m 97.1382,107.1 v 1"
             id="path1544" /><path
             d="m 80.6382,91.6 h 19"
             id="path1545" /><path
             d="m 97.1382,94.1 v 1"
             id="path1546" /><path
             d="m 99.6382,110.6 h -19"
             id="path1547" /><path
             d="m 84.1382,94.1 h -1"
             id="path1548" /><path
             d="m 122.1382,90.1 h -1"
             id="path1549" /><path
             d="m 121.1382,104.1 v -1"
             id="path1550" /><path
             d="m 135.1382,90.1 v 1"
             id="path1551" /><path
             d="m 135.1382,90.1 h -1"
             id="path1552" /><path
             d="m 137.6382,87.6 v 19"
             id="path1553" /><path
             d="m 135.1382,103.1 v 1"
             id="path1554" /><path
             d="m 121.1382,104.1 h 1"
             id="path1555" /><path
             d="m 118.6382,106.6 v -19"
             id="path1556" /><path
             d="m 137.6382,106.6 h -19"
             id="path1557" /><path
             d="m 121.1382,91.1 v -1"
             id="path1558" /><path
             d="m 134.1382,104.1 h 1"
             id="path1559" /><path
             d="m 118.6382,87.6 h 19"
             id="path1560" /><path
             d="m 134.1382,85.1 h 1"
             id="path1561" /><path
             d="m 135.1382,84.1 v 1"
             id="path1562" /><path
             d="m 118.6382,87.6 v -19"
             id="path1563" /><path
             d="m 122.1382,71.1 h -1"
             id="path1564" /><path
             d="m 137.6382,87.6 h -19"
             id="path1565" /><path
             d="m 121.1382,72.1 v -1"
             id="path1566" /><path
             d="m 118.6382,68.6 h 19"
             id="path1567" /><path
             d="m 121.1382,85.1 v -1"
             id="path1568" /><path
             d="m 135.1382,71.1 v 1"
             id="path1569" /><path
             d="m 121.1382,85.1 h 1"
             id="path1570" /><path
             d="m 137.6382,68.6 v 19"
             id="path1571" /><path
             d="m 135.1382,71.1 h -1"
             id="path1572" /><path
             d="m 157.8549,169.5067 -18.7113,3.2993"
             id="path1573" /><path
             d="m 154.7851,166.494 0.1737,0.9848"
             id="path1574" /><path
             d="m 141.1715,169.9099 0.9848,-0.1737"
             id="path1575" /><path
             d="m 139.1436,172.806 -3.2993,-18.7113"
             id="path1576" /><path
             d="m 138.9141,157.1074 -0.1737,-0.9848"
             id="path1577" /><path
             d="m 153.974,167.6524 0.9848,-0.1736"
             id="path1578" /><path
             d="m 135.8443,154.0947 18.7113,-3.2993"
             id="path1579" /><path
             d="m 139.7252,155.9489 -0.9848,0.1737"
             id="path1580" /><path
             d="m 154.5556,150.7954 3.2993,18.7113"
             id="path1581" /><path
             d="m 141.1715,169.9099 -0.1737,-0.9848"
             id="path1582" /><path
             d="m 152.5277,153.6915 0.1737,0.9848"
             id="path1583" /><path
             d="m 152.5277,153.6915 -0.9848,0.1736"
             id="path1584" /><path
             d="m 116.1382,99.1 v 1"
             id="path1585" /><path
             d="m 118.6382,96.6 v 19"
             id="path1586" /><path
             d="m 99.6382,96.6 h 19"
             id="path1587" /><path
             d="m 102.1382,100.1 v -1"
             id="path1588" /><path
             d="m 102.1382,113.1 h 1"
             id="path1589" /><path
             d="m 102.1382,113.1 v -1"
             id="path1590" /><path
             d="m 99.6382,115.6 v -19"
             id="path1591" /><path
             d="m 103.1382,99.1 h -1"
             id="path1592" /><path
             d="m 115.1382,113.1 h 1"
             id="path1593" /><path
             d="m 116.1382,112.1 v 1"
             id="path1594" /><path
             d="m 118.6382,115.6 h -19"
             id="path1595" /><path
             d="m 116.1382,99.1 h -1"
             id="path1596" /><path
             d="m 99.6382,77.6 h 19"
             id="path1597" /><path
             d="m 116.1382,80.1 v 1"
             id="path1598" /><path
             d="m 118.6382,96.6 h -19"
             id="path1599" /><path
             d="m 115.1382,94.1 h 1"
             id="path1600" /><path
             d="m 102.1382,94.1 h 1"
             id="path1601" /><path
             d="m 103.1382,80.1 h -1"
             id="path1602" /><path
             d="m 118.6382,77.6 v 19"
             id="path1603" /><path
             d="m 116.1382,80.1 h -1"
             id="path1604" /><path
             d="m 116.1382,93.1 v 1"
             id="path1605" /><path
             d="m 99.6382,96.6 v -19"
             id="path1606" /><path
             d="m 102.1382,94.1 v -1"
             id="path1607" /><path
             d="m 102.1382,81.1 v -1"
             id="path1608" /></g><g
           style="display:inline;fill:none;stroke:#d0d2cd;stroke-width:0.15;stroke-linecap:round;stroke-linejoin:round;stroke-opacity:1"
           id="g1656"
           transform="matrix(-1,0,0,1,238.2045,0)"><path
             d="m 139.7899,151.3681 a 2,2 0 0 0 2.3169,1.6223"
             id="path1609" /><path
             d="m 157.8549,169.5067 16.7418,-2.952"
             id="path1610" /><path
             d="m 139.7899,151.3681 -2.1213,-12.0302"
             id="path1611" /><path
             d="m 63.6382,139.6 h 15"
             id="path1612" /><path
             d="m 120.085,174.1357 a 2,2 0 0 0 2.3168,1.6223"
             id="path1613" /><path
             d="m 118.6382,136.6 v 1.6365"
             id="path1614" /><path
             d="m 118.6382,66.6 a 2,2 0 0 0 2,2"
             id="path1615" /><path
             d="m 99.6382,56.6 a 2,2 0 0 0 2,2"
             id="path1616" /><path
             d="m 82.6382,129.6001 a 1.9999,1.9999 0 0 0 -2,1.9999"
             id="path1617" /><path
             d="m 118.6383,60.6 a 2,2 0 0 0 -2.0001,-2"
             id="path1618" /><path
             d="m 63.6382,63.6001 a 1.9999,1.9999 0 0 0 -2,1.9999"
             id="path1619" /><path
             d="m 173.6142,149.4657 a 1.9999,1.9999 0 0 0 -2.3169,-1.6224"
             id="path1620" /><path
             d="m 139.1436,172.806 18.7113,-3.2993"
             id="path1621" /><path
             d="m 137.6383,138.9906 a 1.9999,1.9999 0 0 0 0.0303,0.3473"
             id="path1622" /><path
             d="m 118.0697,162.707 2.0152,11.4287"
             id="path1623" /><path
             d="m 122.4018,175.758 16.7418,-2.952"
             id="path1624" /><path
             d="m 61.6382,137.6 a 2,2 0 0 0 2,2"
             id="path1625" /><path
             d="m 154.5556,150.7954 -12.4488,2.195"
             id="path1626" /><path
             d="m 118.6383,136.6 a 2,2 0 0 0 -2.0001,-2"
             id="path1627" /><path
             d="m 171.2973,147.8433 -16.7417,2.9521"
             id="path1628" /><path
             d="m 78.1653,147.4038 3.1257,17.7266"
             id="path1629" /><path
             d="m 174.5967,166.5547 a 2,2 0 0 0 1.6223,-2.3169"
             id="path1630" /><path
             d="m 83.6079,166.7527 32.1449,-5.668"
             id="path1631" /><path
             d="m 116.6382,58.6 h -15"
             id="path1632" /><path
             d="m 80.6382,137.6 v -6"
             id="path1633" /><path
             d="m 99.6382,56.6 v -1"
             id="path1634" /><path
             d="m 78.6382,63.6 h -15"
             id="path1635" /><path
             d="m 101.6382,134.6 h 15"
             id="path1636" /><path
             d="m 99.6382,131.6 v 1"
             id="path1637" /><path
             d="m 82.6382,53.6001 a 1.9999,1.9999 0 0 0 -2,1.9999"
             id="path1638" /><path
             d="m 61.6382,137.6 v -72"
             id="path1639" /><path
             d="m 99.6382,132.6 a 2,2 0 0 0 2,2"
             id="path1640" /><path
             d="m 99.6383,55.6 a 2,2 0 0 0 -2.0001,-2"
             id="path1641" /><path
             d="M 78.6383,139.5999 A 1.9999,1.9999 0 0 0 80.6382,137.6"
             id="path1642" /><path
             d="m 137.6383,70.6 a 2,2 0 0 0 -2.0001,-2"
             id="path1643" /><path
             d="m 118.6382,138.2365 -38.8506,6.8504"
             id="path1644" /><path
             d="M 137.6382,138.9906 V 70.6"
             id="path1645" /><path
             d="M 78.6383,63.5999 A 1.9999,1.9999 0 0 0 80.6382,61.6"
             id="path1646" /><path
             d="m 118.6382,66.6 v -6"
             id="path1647" /><path
             d="m 97.6382,53.6 h -15"
             id="path1648" /><path
             d="m 99.6383,131.6 a 2,2 0 0 0 -2.0001,-2"
             id="path1649" /><path
             d="m 135.6382,68.6 h -15"
             id="path1650" /><path
             d="m 176.219,164.2378 -2.6047,-14.7721"
             id="path1651" /><path
             d="m 82.6382,129.6 h 15"
             id="path1652" /><path
             d="m 80.6382,55.6 v 6"
             id="path1653" /><path
             d="m 79.7876,145.0869 a 2,2 0 0 0 -1.6223,2.3169"
             id="path1654" /><path
             d="m 118.0697,162.707 a 2,2 0 0 0 -2.3169,-1.6223"
             id="path1655" /><path
             d="m 81.291,165.1304 a 2,2 0 0 0 2.3169,1.6223"
             id="path1656" /></g></g></g></g></svg>
